<svg width="16" height="16" viewBox="0 0 16 16" fill="none" xmlns="http://www.w3.org/2000/svg">
<path fill-rule="evenodd" clip-rule="evenodd" d="M6.5844 10.1375C4.02173 10.1375 1.83307 10.5248 1.83307 12.0768C1.83307 13.6288 4.0084 14.0301 6.5844 14.0301C9.14773 14.0301 11.3357 13.6421 11.3357 12.0908C11.3357 10.5395 9.16107 10.1375 6.5844 10.1375Z" stroke="white" stroke-width="1.5" stroke-linecap="round" stroke-linejoin="round"/>
<path fill-rule="evenodd" clip-rule="evenodd" d="M6.58442 7.92392C8.26642 7.92392 9.62976 6.56058 9.62976 4.87858C9.62976 3.19659 8.26642 1.83325 6.58442 1.83325C4.90309 1.83325 3.53975 3.19659 3.53975 4.87858C3.53375 6.55458 4.88709 7.91792 6.56375 7.92392H6.58442Z" stroke="white" stroke-width="1.5" stroke-linecap="round" stroke-linejoin="round"/>
<path d="M12.8025 5.77942V8.45275" stroke="white" stroke-width="1.5" stroke-linecap="round" stroke-linejoin="round"/>
<path d="M14.1664 7.11593H11.4398" stroke="white" stroke-width="1.5" stroke-linecap="round" stroke-linejoin="round"/>
</svg>
