<svg width="21" height="37" viewBox="0 0 21 37" fill="none" xmlns="http://www.w3.org/2000/svg">
<path fill-rule="evenodd" clip-rule="evenodd" d="M19.8412 35.5285C19.3402 36.0289 18.6611 36.3099 17.9531 36.3099C17.245 36.3099 16.5659 36.0289 16.065 35.5285L0.924343 20.3879C0.423988 19.8869 0.142944 19.2078 0.142944 18.4998C0.142944 17.7917 0.423988 17.1126 0.924343 16.6116L16.065 1.47101C16.5715 0.999048 17.2414 0.742109 17.9336 0.754323C18.6258 0.766536 19.2862 1.04695 19.7757 1.53648C20.2653 2.02601 20.5457 2.68645 20.5579 3.37865C20.5701 4.07084 20.3132 4.74076 19.8412 5.24726L6.58872 18.4998L19.8412 31.7523C20.3416 32.2532 20.6226 32.9323 20.6226 33.6404C20.6226 34.3484 20.3416 35.0275 19.8412 35.5285Z" fill="black" fill-opacity="0.87"/>
</svg>
