<svg width="24" height="24" viewBox="0 0 24 24" fill="none" xmlns="http://www.w3.org/2000/svg">
<path fill-rule="evenodd" clip-rule="evenodd" d="M0 12.018C0 5.69654 5.052 0 12.024 0C18.84 0 24 5.58838 24 11.982C24 19.3971 17.952 24 12 24C10.032 24 7.848 23.4712 6.096 22.4377C5.484 22.0651 4.968 21.7887 4.308 22.005L1.884 22.7261C1.272 22.9184 0.72 22.4377 0.9 21.7887L1.704 19.0966C1.836 18.7241 1.812 18.3275 1.62 18.015C0.588 16.1162 0 14.0371 0 12.018ZM10.4404 12.0181C10.4404 12.8714 11.1244 13.5564 11.9764 13.5684C12.8284 13.5684 13.5124 12.8714 13.5124 12.0301C13.5124 11.1768 12.8284 10.4918 11.9764 10.4918C11.1364 10.4798 10.4404 11.1768 10.4404 12.0181ZM15.9724 12.03C15.9724 12.8713 16.6564 13.5683 17.5084 13.5683C18.3604 13.5683 19.0444 12.8713 19.0444 12.03C19.0444 11.1768 18.3604 10.4917 17.5084 10.4917C16.6564 10.4917 15.9724 11.1768 15.9724 12.03ZM6.44396 13.5684C5.60396 13.5684 4.90796 12.8713 4.90796 12.0301C4.90796 11.1768 5.59196 10.4918 6.44396 10.4918C7.29596 10.4918 7.97996 11.1768 7.97996 12.0301C7.97996 12.8713 7.29596 13.5564 6.44396 13.5684Z" fill="black" fill-opacity="0.87"/>
</svg>
