<svg width="19" height="20" viewBox="0 0 19 20" fill="none" xmlns="http://www.w3.org/2000/svg">
<path fill-rule="evenodd" clip-rule="evenodd" d="M0.43868 1.44006C0.719931 1.15916 1.10118 1.00138 1.49868 1.00138C1.89618 1.00138 2.27743 1.15916 2.55868 1.44006L8.99868 7.88006L15.4387 1.44006C15.576 1.29269 15.7416 1.17449 15.9256 1.0925C16.1096 1.01052 16.3082 0.966433 16.5096 0.96288C16.711 0.959326 16.9111 0.996376 17.0979 1.07182C17.2846 1.14726 17.4543 1.25955 17.5968 1.40199C17.7392 1.54442 17.8515 1.71409 17.9269 1.90087C18.0024 2.08764 18.0394 2.2877 18.0359 2.48911C18.0323 2.69051 17.9882 2.88914 17.9062 3.07314C17.8243 3.25714 17.7061 3.42274 17.5587 3.56006L11.1187 10.0001L17.5587 16.4401C17.7061 16.5774 17.8243 16.743 17.9062 16.927C17.9882 17.111 18.0323 17.3096 18.0359 17.511C18.0394 17.7124 18.0024 17.9125 17.9269 18.0993C17.8515 18.286 17.7392 18.4557 17.5968 18.5981C17.4543 18.7406 17.2846 18.8529 17.0979 18.9283C16.9111 19.0038 16.711 19.0408 16.5096 19.0372C16.3082 19.0337 16.1096 18.9896 15.9256 18.9076C15.7416 18.8256 15.576 18.7074 15.4387 18.5601L8.99868 12.1201L2.55868 18.5601C2.27433 18.825 1.89824 18.9693 1.50963 18.9624C1.12103 18.9556 0.750263 18.7981 0.475437 18.5233C0.200611 18.2485 0.0431866 17.8777 0.0363302 17.4891C0.0294738 17.1005 0.17372 16.7244 0.43868 16.4401L6.87868 10.0001L0.43868 3.56006C0.157779 3.27881 0 2.89756 0 2.50006C0 2.10256 0.157779 1.72131 0.43868 1.44006Z" fill="black" fill-opacity="0.87"/>
</svg>
