<svg width="22" height="25" viewBox="0 0 22 25" fill="none" xmlns="http://www.w3.org/2000/svg">
<path fill-rule="evenodd" clip-rule="evenodd" d="M20.9366 3.92759C21.4077 3.92759 21.8 4.31877 21.8 4.81653V5.27675C21.8 5.7624 21.4077 6.1657 20.9366 6.1657H0.864554C0.39223 6.1657 0 5.7624 0 5.27675V4.81653C0 4.31877 0.39223 3.92759 0.864554 3.92759H4.3958C5.11312 3.92759 5.73739 3.41772 5.89876 2.69832L6.08368 1.87236C6.37108 0.747247 7.31691 0 8.39937 0H13.4006C14.4713 0 15.4277 0.747247 15.7045 1.81301L15.9024 2.69711C16.0626 3.41772 16.6868 3.92759 17.4053 3.92759H20.9366ZM19.1423 20.7511C19.511 17.3152 20.1565 9.15239 20.1565 9.07003C20.18 8.82055 20.0987 8.58438 19.9374 8.39424C19.7642 8.21621 19.5451 8.11084 19.3037 8.11084H2.50494C2.2623 8.11084 2.03144 8.21621 1.87125 8.39424C1.70871 8.58438 1.62861 8.82055 1.64039 9.07003C1.64255 9.08517 1.66572 9.37269 1.70444 9.8534C1.87645 11.9889 2.35555 17.9366 2.66513 20.7511C2.88422 22.8245 4.24465 24.1276 6.21523 24.1748C7.73585 24.21 9.30242 24.2221 10.9043 24.2221C12.4132 24.2221 13.9456 24.21 15.5133 24.1748C17.5522 24.1397 18.9115 22.8596 19.1423 20.7511Z" fill="black" fill-opacity="0.87"/>
</svg>
