<svg width="25" height="20" viewBox="0 0 25 20" fill="none" xmlns="http://www.w3.org/2000/svg">
<path fill-rule="evenodd" clip-rule="evenodd" d="M7.5709 9.93338C7.5709 12.5823 9.73927 14.7375 12.4164 14.7375C15.0814 14.7375 17.2498 12.5823 17.2498 9.93338C17.2498 7.27246 15.0814 5.11724 12.4164 5.11724C9.73927 5.11724 7.5709 7.27246 7.5709 9.93338ZM19.5395 2.54052C21.6594 4.17801 23.4644 6.57404 24.7606 9.57209C24.8575 9.80085 24.8575 10.0657 24.7606 10.2825C22.1682 16.2786 17.5529 19.8666 12.4166 19.8666H12.4045C7.28038 19.8666 2.66503 16.2786 0.0726827 10.2825C-0.0242276 10.0657 -0.0242276 9.80085 0.0726827 9.57209C2.66503 3.57599 7.28038 0 12.4045 0H12.4166C14.9847 0 17.4196 0.890987 19.5395 2.54052ZM12.4182 12.9288C14.0778 12.9288 15.4345 11.5802 15.4345 9.93071C15.4345 8.26914 14.0778 6.92062 12.4182 6.92062C12.2728 6.92062 12.1275 6.93266 11.9942 6.95674C11.9458 8.28118 10.8555 9.34073 9.51088 9.34073H9.45032C9.41397 9.53337 9.38975 9.72602 9.38975 9.93071C9.38975 11.5802 10.7465 12.9288 12.4182 12.9288Z" fill="#171717"/>
</svg>
