<svg width="288" height="347" viewBox="0 0 288 347" fill="none" xmlns="http://www.w3.org/2000/svg">
<path d="M152.919 323.951C156.346 323.951 159.279 323.129 161.721 321.488C164.162 319.846 165.967 317.474 167.137 314.375L161.598 312.926C160.059 316.807 157.166 318.747 152.919 318.747C149.616 318.747 147.124 317.618 145.441 315.36C143.78 313.101 142.928 310.114 142.887 306.398C142.928 302.785 143.759 299.829 145.38 297.529C147.001 295.21 149.513 294.05 152.919 294.05C154.929 294.05 156.725 294.584 158.305 295.651C159.884 296.719 161.023 298.217 161.721 300.148L167.137 298.516C166.255 295.518 164.542 293.156 161.997 291.433C159.474 289.708 156.469 288.845 152.981 288.845C149.657 288.845 146.806 289.595 144.426 291.093C142.066 292.572 140.261 294.625 139.01 297.253C137.758 299.88 137.112 302.93 137.071 306.398C137.112 309.786 137.748 312.803 138.979 315.452C140.21 318.101 141.995 320.184 144.333 321.703C146.693 323.201 149.554 323.951 152.919 323.951ZM187.904 323.951C191.207 323.951 194.047 323.211 196.428 321.734C198.829 320.256 200.674 318.193 201.967 315.544C203.28 312.896 203.936 309.837 203.936 306.367C203.936 302.94 203.29 299.911 201.998 297.283C200.726 294.635 198.889 292.572 196.49 291.093C194.089 289.595 191.226 288.845 187.904 288.845C184.663 288.845 181.841 289.585 179.44 291.062C177.041 292.521 175.183 294.563 173.87 297.191C172.558 299.818 171.901 302.878 171.901 306.367C171.901 309.796 172.537 312.834 173.808 315.483C175.101 318.131 176.948 320.205 179.348 321.703C181.749 323.201 184.601 323.951 187.904 323.951ZM187.904 318.747C184.56 318.747 182.025 317.629 180.303 315.391C178.579 313.132 177.717 310.124 177.717 306.367C177.717 302.734 178.548 299.777 180.21 297.5C181.872 295.2 184.436 294.05 187.904 294.05C191.309 294.05 193.864 295.169 195.567 297.407C197.268 299.645 198.121 302.631 198.121 306.367C198.121 310.022 197.268 312.998 195.567 315.298C193.884 317.598 191.329 318.747 187.904 318.747ZM224.991 323.951C227.248 323.951 229.238 323.541 230.961 322.719C232.706 321.878 234.182 320.728 235.393 319.271V323.028H240.286V278.684H234.777V292.787C233.587 291.555 232.172 290.59 230.531 289.892C228.89 289.195 227.032 288.845 224.96 288.845C221.884 288.845 219.227 289.616 216.991 291.155C214.775 292.674 213.072 294.759 211.881 297.407C210.691 300.055 210.096 303.041 210.096 306.367C210.096 309.693 210.691 312.681 211.881 315.329C213.072 317.977 214.775 320.081 216.991 321.641C219.227 323.181 221.894 323.951 224.991 323.951ZM225.669 318.931C223.494 318.931 221.678 318.377 220.222 317.268C218.785 316.16 217.708 314.661 216.991 312.772C216.272 310.863 215.913 308.729 215.913 306.367C215.913 304.028 216.262 301.912 216.96 300.024C217.678 298.135 218.766 296.636 220.222 295.528C221.698 294.419 223.566 293.865 225.823 293.865C229.064 293.865 231.464 295.035 233.023 297.376C234.603 299.695 235.393 302.693 235.393 306.367C235.393 310.022 234.613 313.029 233.054 315.391C231.495 317.751 229.034 318.931 225.669 318.931ZM262.694 323.92C266.839 323.92 270.091 323.007 272.451 321.179C274.809 319.352 275.989 316.827 275.989 313.604C275.989 311.88 275.631 310.433 274.912 309.262C274.194 308.071 272.984 307.045 271.281 306.183C269.599 305.3 267.291 304.49 264.356 303.75C261.751 303.093 259.761 302.508 258.386 301.994C257.033 301.481 256.1 300.937 255.587 300.362C255.093 299.787 254.848 299.101 254.848 298.299C254.848 296.884 255.515 295.754 256.848 294.912C258.202 294.071 259.957 293.681 262.111 293.741C264.367 293.803 266.224 294.357 267.68 295.404C269.138 296.431 269.999 297.827 270.266 299.593L275.866 298.577C275.518 295.641 274.082 293.29 271.558 291.524C269.055 289.739 265.906 288.845 262.111 288.845C258.274 288.845 255.186 289.739 252.848 291.524C250.509 293.29 249.339 295.641 249.339 298.577C249.339 300.158 249.687 301.502 250.385 302.61C251.104 303.719 252.304 304.694 253.985 305.536C255.688 306.377 258.007 307.189 260.941 307.968C263.649 308.687 265.67 309.314 267.004 309.847C268.357 310.361 269.249 310.905 269.681 311.48C270.112 312.054 270.326 312.813 270.326 313.759C270.326 315.38 269.671 316.663 268.357 317.608C267.064 318.552 265.291 319.024 263.034 319.024C260.633 319.024 258.623 318.5 257.002 317.454C255.381 316.386 254.345 314.95 253.894 313.143L248.293 314.035C248.867 317.155 250.416 319.588 252.939 321.334C255.484 323.058 258.736 323.92 262.694 323.92Z" fill="white"/>
<path d="M220.662 24.727L219.572 28.8031L194.964 120.002C194.059 123.355 189.851 124.761 186.927 122.689L95.6757 58.0474C92.2501 55.6213 93.281 50.5228 97.4097 49.4675L210.889 20.4581L214.988 19.4198C218.398 18.5571 221.529 21.4847 220.662 24.727Z" fill="white"/>
<path d="M152.409 98.1489L162.679 105.432L133.959 119.88L132.686 84.1715L209.148 29.5198L152.409 98.1489Z" fill="#171717"/>
<path d="M152.409 98.1489L133.959 119.88L162.679 105.432L152.409 98.1489Z" fill="#171717"/>
<path d="M122.75 119.374C122.75 124.583 118.258 129.008 112.459 129.008C106.66 129.008 102.167 124.583 102.167 119.374C102.167 114.166 106.66 109.741 112.459 109.741C118.258 109.741 122.75 114.166 122.75 119.374Z" stroke="white" stroke-width="4"/>
<path d="M97.7593 143.052C97.7593 148.26 93.2666 152.686 87.4678 152.686C81.6692 152.686 77.1765 148.26 77.1765 143.052C77.1765 137.844 81.6692 133.419 87.4678 133.419C93.2666 133.419 97.7593 137.844 97.7593 143.052Z" stroke="white" stroke-width="4"/>
<path d="M119.839 176.275H45.1007C42.7093 176.277 40.4164 177.179 38.7255 178.781C37.0345 180.383 36.0832 182.556 36.0806 184.822V319.118C36.0832 321.384 37.0345 323.557 38.7255 325.158C40.4164 326.761 42.7093 327.662 45.1007 327.665H119.839C122.23 327.662 124.523 326.761 126.214 325.158C127.905 323.557 128.857 321.384 128.859 319.118V184.822C128.857 182.556 127.905 180.383 126.214 178.781C124.523 177.179 122.23 176.277 119.839 176.275ZM94.631 181.159L93.3425 186.042H71.5974L70.3088 181.159H94.631ZM123.705 319.118C123.704 320.09 123.296 321.021 122.572 321.707C121.847 322.394 120.864 322.781 119.839 322.781H45.1007C44.0758 322.781 43.0929 322.394 42.3682 321.707C41.6434 321.021 41.2358 320.09 41.235 319.118V184.822C41.2358 183.85 41.6434 182.919 42.3682 182.232C43.0929 181.546 44.0758 181.159 45.1007 181.159H64.9934L67.0841 189.075C67.2235 189.605 67.5452 190.074 67.9982 190.409C68.451 190.743 69.0093 190.925 69.5839 190.925H95.3558C95.9305 190.925 96.4887 190.743 96.9416 190.409C97.3946 190.074 97.7164 189.605 97.8557 189.075L99.9465 181.159H119.839C120.864 181.159 121.847 181.546 122.572 182.232C123.296 182.919 123.704 183.85 123.705 184.822V319.118Z" fill="white"/>
<path d="M90.2015 315.455H74.7384C74.0549 315.455 73.3994 315.713 72.9161 316.171C72.4327 316.629 72.1611 317.249 72.1611 317.898C72.1611 318.545 72.4327 319.166 72.9161 319.624C73.3994 320.083 74.0549 320.338 74.7384 320.338H90.2015C90.8849 320.338 91.5404 320.083 92.0239 319.624C92.5072 319.166 92.7787 318.545 92.7787 317.898C92.7787 317.249 92.5072 316.629 92.0239 316.171C91.5404 315.713 90.8849 315.455 90.2015 315.455Z" fill="white"/>
<path d="M51.5437 229.993C52.2273 229.993 52.8828 229.736 53.366 229.279C53.8495 228.82 54.1209 228.2 54.1209 227.553V225.11H56.6982C57.3816 225.11 58.0371 224.853 58.5205 224.396C59.0038 223.937 59.2753 223.317 59.2753 222.668C59.2753 222.021 59.0038 221.399 58.5205 220.942C58.0371 220.485 57.3816 220.227 56.6982 220.227H51.5437C50.8603 220.227 50.2047 220.485 49.7214 220.942C49.2381 221.399 48.9666 222.021 48.9666 222.668V227.553C48.9666 228.2 49.2381 228.82 49.7214 229.279C50.2047 229.736 50.8603 229.993 51.5437 229.993Z" fill="white"/>
<path d="M56.6982 278.829H54.1209V276.387C54.1209 275.74 53.8495 275.118 53.366 274.661C52.8828 274.204 52.2273 273.946 51.5437 273.946C50.8603 273.946 50.2047 274.204 49.7214 274.661C49.2381 275.118 48.9666 275.74 48.9666 276.387V281.271C48.9666 281.918 49.2381 282.539 49.7214 282.998C50.2047 283.455 50.8603 283.712 51.5437 283.712H56.6982C57.3816 283.712 58.0371 283.455 58.5205 282.998C59.0038 282.539 59.2753 281.918 59.2753 281.271C59.2753 280.623 59.0038 280.003 58.5205 279.544C58.0371 279.087 57.3816 278.829 56.6982 278.829Z" fill="white"/>
<path d="M113.396 273.946C112.712 273.946 112.057 274.204 111.574 274.661C111.09 275.118 110.819 275.74 110.819 276.387V278.829H108.242C107.558 278.829 106.903 279.087 106.419 279.544C105.936 280.003 105.665 280.623 105.665 281.271C105.665 281.918 105.936 282.539 106.419 282.998C106.903 283.455 107.558 283.712 108.242 283.712H113.396C114.08 283.712 114.735 283.455 115.218 282.998C115.702 282.539 115.973 281.918 115.973 281.271V276.387C115.973 275.74 115.702 275.118 115.218 274.661C114.735 274.204 114.08 273.946 113.396 273.946Z" fill="white"/>
<path d="M113.396 220.227H108.242C107.558 220.227 106.903 220.485 106.419 220.942C105.936 221.399 105.665 222.021 105.665 222.668C105.665 223.317 105.936 223.937 106.419 224.396C106.903 224.853 107.558 225.11 108.242 225.11H110.819V227.553C110.819 228.2 111.09 228.82 111.574 229.279C112.057 229.736 112.712 229.993 113.396 229.993C114.08 229.993 114.735 229.736 115.218 229.279C115.702 228.82 115.973 228.2 115.973 227.553V222.668C115.973 222.021 115.702 221.399 115.218 220.942C114.735 220.485 114.08 220.227 113.396 220.227Z" fill="white"/>
<path d="M56.698 229.993V244.644C56.698 245.292 56.9694 245.913 57.4528 246.372C57.9361 246.829 58.5916 247.086 59.2752 247.086H74.7383C75.4217 247.086 76.0772 246.829 76.5606 246.372C77.0439 245.913 77.3154 245.292 77.3154 244.644V229.993C77.3154 229.346 77.0439 228.724 76.5606 228.267C76.0772 227.81 75.4217 227.553 74.7383 227.553H59.2752C58.5916 227.553 57.9361 227.81 57.4528 228.267C56.9694 228.724 56.698 229.346 56.698 229.993ZM61.8523 232.436H72.1609V242.203H61.8523V232.436Z" fill="white"/>
<path d="M77.3154 273.946V259.296C77.3154 258.647 77.0439 258.027 76.5606 257.568C76.0772 257.111 75.4217 256.854 74.7383 256.854H59.2752C58.5916 256.854 57.9361 257.111 57.4528 257.568C56.9694 258.027 56.698 258.647 56.698 259.296V273.946C56.698 274.593 56.9694 275.214 57.4528 275.672C57.9361 276.13 58.5916 276.387 59.2752 276.387H74.7383C75.4217 276.387 76.0772 276.13 76.5606 275.672C77.0439 275.214 77.3154 274.593 77.3154 273.946ZM72.1609 271.504H61.8523V261.737H72.1609V271.504Z" fill="white"/>
<path d="M90.2013 247.086H105.664C106.348 247.086 107.003 246.829 107.487 246.372C107.97 245.913 108.242 245.292 108.242 244.644V229.993C108.242 229.346 107.97 228.724 107.487 228.267C107.003 227.81 106.348 227.553 105.664 227.553H90.2013C89.5178 227.553 88.8623 227.81 88.379 228.267C87.8956 228.724 87.624 229.346 87.624 229.993V244.644C87.624 245.292 87.8956 245.913 88.379 246.372C88.8623 246.829 89.5178 247.086 90.2013 247.086ZM92.7785 232.436H103.087V242.203H92.7785V232.436Z" fill="white"/>
<path d="M108.242 273.946V266.62C108.242 265.973 107.97 265.352 107.487 264.893C107.003 264.436 106.348 264.179 105.665 264.179H97.9329C97.2493 264.179 96.5938 264.436 96.1105 264.893C95.6273 265.352 95.3557 265.973 95.3557 266.62V273.946C95.3557 274.593 95.6273 275.214 96.1105 275.672C96.5938 276.13 97.2493 276.387 97.9329 276.387H105.665C106.348 276.387 107.003 276.13 107.487 275.672C107.97 275.214 108.242 274.593 108.242 273.946ZM103.087 271.504H100.51V269.062H103.087V271.504Z" fill="white"/>
<path d="M90.2013 261.736H97.9328C98.6164 261.736 99.2719 261.479 99.7551 261.022C100.238 260.563 100.51 259.943 100.51 259.294V251.969C100.51 251.322 100.238 250.702 99.7551 250.243C99.2719 249.786 98.6164 249.528 97.9328 249.528H90.2013C89.5178 249.528 88.8623 249.786 88.379 250.243C87.8956 250.702 87.624 251.322 87.624 251.969V259.294C87.624 259.943 87.8956 260.563 88.379 261.022C88.8623 261.479 89.5178 261.736 90.2013 261.736ZM92.7785 254.411H95.3556V256.854H92.7785V254.411Z" fill="white"/>
<path d="M82.4697 276.387C83.1533 276.387 83.8087 276.13 84.292 275.672C84.7753 275.214 85.0469 274.593 85.0469 273.946V251.969C85.0469 251.322 84.7753 250.702 84.292 250.243C83.8087 249.786 83.1533 249.528 82.4697 249.528H69.5838C68.9003 249.528 68.2447 249.786 67.7614 250.243C67.2781 250.702 67.0066 251.322 67.0066 251.969C67.0066 252.617 67.2781 253.238 67.7614 253.697C68.2447 254.154 68.9003 254.411 69.5838 254.411H79.8925V273.946C79.8925 274.593 80.1641 275.214 80.6474 275.672C81.1306 276.13 81.7861 276.387 82.4697 276.387Z" fill="white"/>
<path d="M82.4697 234.878C83.1533 234.878 83.8088 234.621 84.2921 234.162C84.7753 233.705 85.0469 233.083 85.0469 232.436V229.993C85.0469 229.346 84.7753 228.724 84.2921 228.267C83.8088 227.81 83.1533 227.553 82.4697 227.553C81.7862 227.553 81.1307 227.81 80.6474 228.267C80.1641 228.724 79.8926 229.346 79.8926 229.993V232.436C79.8926 233.083 80.1641 233.705 80.6474 234.162C81.1307 234.621 81.7862 234.878 82.4697 234.878Z" fill="white"/>
<path d="M82.4697 247.086C83.1533 247.086 83.8088 246.829 84.2921 246.371C84.7753 245.913 85.0469 245.292 85.0469 244.644V239.761C85.0469 239.114 84.7753 238.492 84.2921 238.035C83.8088 237.576 83.1533 237.319 82.4697 237.319C81.7862 237.319 81.1307 237.576 80.6474 238.035C80.1641 238.492 79.8926 239.114 79.8926 239.761V244.644C79.8926 245.292 80.1641 245.913 80.6474 246.371C81.1307 246.829 81.7862 247.086 82.4697 247.086Z" fill="white"/>
<path d="M90.2013 264.179C89.5178 264.179 88.8623 264.436 88.379 264.893C87.8956 265.352 87.624 265.973 87.624 266.62V273.946C87.624 274.593 87.8956 275.214 88.379 275.672C88.8623 276.13 89.5178 276.387 90.2013 276.387C90.8847 276.387 91.5404 276.13 92.0237 275.672C92.507 275.214 92.7785 274.593 92.7785 273.946V266.62C92.7785 265.973 92.507 265.352 92.0237 264.893C91.5404 264.436 90.8847 264.179 90.2013 264.179Z" fill="white"/>
<path d="M59.2752 249.528C58.5916 249.528 57.9361 249.786 57.4528 250.243C56.9694 250.702 56.698 251.322 56.698 251.969C56.698 252.617 56.9694 253.238 57.4528 253.697C57.9361 254.154 58.5916 254.411 59.2752 254.411H61.8523C62.5359 254.411 63.1914 254.154 63.6747 253.697C64.1579 253.238 64.4295 252.617 64.4295 251.969C64.4295 251.322 64.1579 250.702 63.6747 250.243C63.1914 249.786 62.5359 249.528 61.8523 249.528H59.2752Z" fill="white"/>
<path d="M105.665 249.528C104.981 249.528 104.326 249.786 103.842 250.243C103.359 250.702 103.087 251.322 103.087 251.969V259.294C103.087 259.943 103.359 260.563 103.842 261.022C104.326 261.479 104.981 261.736 105.665 261.736C106.348 261.736 107.003 261.479 107.487 261.022C107.97 260.563 108.242 259.943 108.242 259.294V251.969C108.242 251.322 107.97 250.702 107.487 250.243C107.003 249.786 106.348 249.528 105.665 249.528Z" fill="white"/>
</svg>
