<svg width="28" height="25" viewBox="0 0 28 25" fill="none" xmlns="http://www.w3.org/2000/svg">
<path d="M9 0C8.20435 0 7.44129 0.322655 6.87868 0.896986C6.31607 1.47132 6 2.25027 6 3.0625V4.08333H4C2.93913 4.08333 1.92172 4.51354 1.17157 5.27931C0.421427 6.04509 0 7.0837 0 8.16667V17.3542C0 18.1664 0.316071 18.9454 0.87868 19.5197C1.44129 20.094 2.20435 20.4167 3 20.4167H6V21.4375C6 22.2497 6.31607 23.0287 6.87868 23.603C7.44129 24.1773 8.20435 24.5 9 24.5H19.2C19.9957 24.5 20.7587 24.1773 21.3213 23.603C21.8839 23.0287 22.2 22.2497 22.2 21.4375V20.4167H25C25.7956 20.4167 26.5587 20.094 27.1213 19.5197C27.6839 18.9454 28 18.1664 28 17.3542V8.16667C28 7.0837 27.5786 6.04509 26.8284 5.27931C26.0783 4.51354 25.0609 4.08333 24 4.08333H22V3.0625C22 2.25027 21.6839 1.47132 21.1213 0.896986C20.5587 0.322655 19.7956 0 19 0H9ZM20 4.08333H8V3.0625C8 2.79176 8.10536 2.53211 8.29289 2.34066C8.48043 2.14922 8.73478 2.04167 9 2.04167H19C19.2652 2.04167 19.5196 2.14922 19.7071 2.34066C19.8946 2.53211 20 2.79176 20 3.0625V4.08333ZM9 16.3333H19.2C19.4652 16.3333 19.7196 16.4409 19.9071 16.6323C20.0946 16.8238 20.2 17.0834 20.2 17.3542V21.4375C20.2 21.7082 20.0946 21.9679 19.9071 22.1593C19.7196 22.3508 19.4652 22.4583 19.2 22.4583H9C8.73478 22.4583 8.48043 22.3508 8.29289 22.1593C8.10536 21.9679 8 21.7082 8 21.4375V17.3542C8 17.0834 8.10536 16.8238 8.29289 16.6323C8.48043 16.4409 8.73478 16.3333 9 16.3333V16.3333Z" fill="black" fill-opacity="0.87"/>
</svg>
