<svg width="161" height="31" viewBox="0 0 161 31" fill="none" xmlns="http://www.w3.org/2000/svg">
<path fill-rule="evenodd" clip-rule="evenodd" d="M16.5221 12.4205C17.4227 13.3715 18.1261 14.4915 18.5917 15.7157C19.0573 16.9399 19.276 18.2441 19.235 19.5533C19.2814 21.6008 18.6994 23.6134 17.5673 25.32C14.309 29.8204 6.99203 30.5034 2.93644 26.7665C1.9766 25.8314 1.22055 24.7079 0.715773 23.4665C0.211 22.2252 -0.0315745 20.8929 0.00328968 19.5533C-0.0212327 18.2282 0.228454 16.9123 0.736675 15.6883C1.2449 14.4643 2.00068 13.3586 2.95656 12.4406C6.49329 9.14533 13.0225 9.04473 16.519 12.4205H16.5221ZM13.5487 14.0682C14.6368 15.6845 15.179 17.6066 15.0958 19.5533C15.172 21.1099 14.8902 22.6632 14.272 24.0938C13.9114 24.8677 13.3588 25.5364 12.6666 26.0362C11.9744 26.5359 11.1658 26.8501 10.3178 26.9489C9.46978 27.0476 8.61061 26.9276 7.82214 26.6002C7.03366 26.2728 6.34215 25.749 5.81347 25.0786C4.62962 23.4828 4.00778 21.5399 4.04511 19.5533C3.93727 17.5787 4.48079 15.6233 5.59217 13.9877C6.08573 13.4121 6.6993 12.9515 7.3898 12.6382C8.08029 12.3249 8.831 12.1665 9.5892 12.1742C10.3474 12.1819 11.0948 12.3554 11.7788 12.6826C12.4628 13.0098 13.0669 13.4827 13.5487 14.0682Z" fill="black"/>
<path fill-rule="evenodd" clip-rule="evenodd" d="M63.7989 12.4205C65.3481 14.1666 66.2878 16.369 66.4764 18.6957C66.6649 21.0224 66.092 23.3473 64.844 25.32C61.5889 29.8204 54.2751 30.5086 50.2174 26.7665C49.2607 25.829 48.5067 24.7051 48.0022 23.4643C47.4976 22.2235 47.2533 20.8923 47.2843 19.5533C47.2597 18.2282 47.5094 16.9123 48.0176 15.6883C48.5259 14.4643 49.2816 13.3586 50.2375 12.4406C53.7743 9.14533 60.3034 9.04473 63.7999 12.4205H63.7989ZM60.8255 14.0682C61.9136 15.6845 62.4557 17.6066 62.3725 19.5533C62.4487 21.1099 62.1669 22.6632 61.5487 24.0938C61.1882 24.8677 60.6355 25.5364 59.9433 26.0362C59.2512 26.5359 58.4425 26.8501 57.5945 26.9489C56.7465 27.0476 55.8873 26.9276 55.0989 26.6002C54.3104 26.2728 53.6189 25.749 53.0902 25.0786C51.9064 23.4828 51.2845 21.5399 51.3218 19.5533C51.214 17.5787 51.7575 15.6233 52.8689 13.9877C53.3625 13.4121 53.976 12.9515 54.6665 12.6382C55.357 12.3249 56.1077 12.1665 56.8659 12.1742C57.6241 12.1819 58.3715 12.3554 59.0555 12.6826C59.7395 13.0097 60.3436 13.4827 60.8255 14.0682Z" fill="black"/>
<path fill-rule="evenodd" clip-rule="evenodd" d="M158.171 12.4205C159.721 14.1665 160.661 16.3689 160.849 18.6957C161.038 21.0224 160.465 23.3474 159.216 25.32C155.961 29.8204 148.648 30.5086 144.59 26.7665C143.632 25.8294 142.878 24.7056 142.372 23.4648C141.867 22.224 141.622 20.8927 141.652 19.5533C141.628 18.2282 141.878 16.9123 142.386 15.6883C142.894 14.4643 143.65 13.3586 144.606 12.4406C148.142 9.14533 154.672 9.04473 158.168 12.4205H158.171ZM155.198 14.0682C156.286 15.6845 156.828 17.6066 156.745 19.5533C156.821 21.1099 156.539 22.6632 155.921 24.0938C155.561 24.8677 155.008 25.5364 154.316 26.0362C153.624 26.5359 152.815 26.8501 151.967 26.9489C151.119 27.0476 150.26 26.9276 149.471 26.6002C148.683 26.2728 147.991 25.749 147.463 25.0786C146.279 23.4828 145.657 21.5399 145.694 19.5533C145.586 17.5787 146.13 15.6233 147.241 13.9877C147.735 13.4122 148.349 12.9518 149.039 12.6386C149.73 12.3254 150.48 12.1671 151.238 12.1748C151.996 12.1824 152.744 12.3559 153.428 12.683C154.112 13.0101 154.716 13.4828 155.198 14.0682Z" fill="black"/>
<path fill-rule="evenodd" clip-rule="evenodd" d="M81.7176 10.3916H85.7361V28.6354H81.7176V10.3916Z" fill="black"/>
<path fill-rule="evenodd" clip-rule="evenodd" d="M134.681 10.3916H138.699V28.6354H134.681V10.3916Z" fill="black"/>
<path fill-rule="evenodd" clip-rule="evenodd" d="M132.832 10.3915V12.702C130.843 12.2001 129.256 12.2785 128.311 13.0642C127.793 13.5203 127.458 14.1484 127.367 14.8325C127.307 15.2582 127.286 15.6886 127.306 16.118V28.6342H123.288V16.6803C123.232 15.6859 123.406 14.6919 123.796 13.7756C124.186 12.8592 124.782 12.0451 125.538 11.3964C127.246 10.1109 129.774 9.91394 132.832 10.3915Z" fill="black"/>
<path fill-rule="evenodd" clip-rule="evenodd" d="M79.5479 28.6758L79.046 26.6469C77.0563 27.1488 75.469 27.0705 74.5255 26.2848C74.0075 25.8286 73.6721 25.2006 73.581 24.5164C73.5208 24.0907 73.5006 23.6604 73.5206 23.2309V12.7626H79.3276V10.4119H73.5206V7.27751C73.581 4.92676 72.0382 4.22364 69.5021 4.48519V22.6877C69.446 23.6821 69.6199 24.6761 70.0101 25.5924C70.4003 26.5088 70.9965 27.3229 71.7522 27.9716C73.4401 29.2571 76.2325 29.4784 79.5479 28.6747V28.6758Z" fill="black"/>
<path fill-rule="evenodd" clip-rule="evenodd" d="M103.217 28.1928C99.541 29.76 94.2359 29.3184 91.7051 27.2684C89.6932 25.661 88.5909 23.0328 88.5909 19.5533C88.5663 18.2282 88.816 16.9123 89.3243 15.6883C89.8325 14.4644 90.5883 13.3586 91.5441 12.4406C94.3767 9.79339 99.2191 9.22581 102.716 10.6119V13.0633C101.497 12.4048 100.118 12.1027 98.7356 12.1915C97.3534 12.2802 96.0241 12.7563 94.8998 13.5652C93.3115 14.8909 92.7301 17.1654 92.7502 19.4326C92.6747 21.4616 93.2833 23.4572 94.4784 25.0987C95.1122 25.7567 95.891 26.2575 96.7527 26.561C97.6144 26.8645 98.5351 26.9625 99.4414 26.847C100.543 26.8157 101.62 26.5119 102.576 25.9628L103.219 28.1928H103.217Z" fill="black"/>
<path fill-rule="evenodd" clip-rule="evenodd" d="M105.989 13.2437V10.8315C111.333 9.22409 114.106 7.03428 115.974 4.58398H119.249C117.516 7.0417 115.099 8.93528 112.298 10.0289C113.907 9.96382 115.509 10.2734 116.979 10.9332C117.807 11.3433 118.519 11.9529 119.052 12.7071C119.585 13.4614 119.922 14.3365 120.033 15.2535C120.15 16.0987 120.197 16.9523 120.174 17.8054V28.8328H119.551C117.645 28.8328 116.537 28.1901 116.374 26.643C115.652 27.448 114.765 28.0887 113.773 28.522C112.782 28.9552 111.709 29.171 110.628 29.1547C108.902 29.2641 107.197 28.727 105.846 27.6479C105.345 27.1713 104.945 26.5979 104.672 25.9625C104.399 25.3271 104.258 24.6429 104.257 23.9513C104.19 22.896 104.434 21.8443 104.959 20.9264C105.484 20.0086 106.267 19.2651 107.211 18.7881C108.976 17.869 110.948 17.4193 112.937 17.4824L116.232 17.5026V16.378C116.258 15.5323 116.027 14.6986 115.57 13.987C115.165 13.3969 114.61 12.9253 113.962 12.621C112.093 11.7739 109.303 12.1191 105.985 13.2437H105.989ZM116.236 19.6934H113.588C112.062 19.59 110.544 19.9927 109.269 20.8392C108.867 21.2021 108.557 21.6556 108.364 22.1622C108.172 22.6687 108.103 23.2138 108.164 23.7522C108.132 24.3366 108.268 24.9179 108.556 25.4271C108.845 25.9363 109.273 26.3521 109.791 26.625C110.252 26.8548 110.759 26.9786 111.274 26.9871C112.269 26.9906 113.245 26.7035 114.08 26.1611C114.915 25.6187 115.573 24.8444 115.975 23.9333C116.152 23.4787 116.241 22.9947 116.237 22.5069V19.6934H116.236Z" fill="black"/>
<path fill-rule="evenodd" clip-rule="evenodd" d="M26.445 3.13808H25.0791C25.0589 3.13808 25.059 3.13808 25.0388 3.11796C25.0187 3.11796 24.9986 3.11795 24.9986 3.09784H24.9785C24.9584 3.09784 24.9584 3.09784 24.9382 3.07772H24.9181L24.8779 3.05761H24.8578L24.8175 3.03748H24.7974L24.7572 3.01736H24.737L24.6968 2.99724L24.6767 2.97712H24.6566L24.6364 2.95701L24.6163 2.93688H24.5962L24.556 2.91676L24.5359 2.89665L24.5157 2.87652L24.4956 2.85641L24.4755 2.83629L24.4554 2.81617L24.4151 2.79605L24.395 2.77592L24.3749 2.75581L24.3548 2.73569L24.3347 2.71558L24.2944 2.67534L24.2743 2.65522L24.2542 2.6351L24.2341 2.61498L24.1938 2.57474L24.1335 2.51438L24.0932 2.47414V2.45509C24.0684 2.43216 24.0479 2.40489 24.0329 2.37461C24.0017 2.33027 23.9748 2.28311 23.9524 2.23377C23.7098 1.75753 23.6256 1.21627 23.712 0.688838H33.8182C36.2021 0.590663 38.5566 1.24448 40.5485 2.5578C41.3861 3.17269 42.0653 3.97804 42.53 4.90732C42.9947 5.83659 43.2317 6.86312 43.2212 7.90207C43.2507 9.50095 42.6603 11.0492 41.5736 12.2224C40.78 13.0111 39.8463 13.6449 38.8204 14.0913C40.009 14.428 41.1259 14.9796 42.1157 15.7189C43.0497 16.4625 43.8 17.411 44.3086 18.491C44.8173 19.5711 45.0705 20.7537 45.0489 21.9473C45.0792 23.7864 44.436 25.5731 43.2403 26.9707C39.7237 30.8887 31.8041 31.4912 27.4277 28.2414C25.9705 27.167 24.9333 25.6183 24.4946 23.8618C24.1445 22.4211 23.9626 20.9447 23.9524 19.4621V5.30777C24.9378 5.13621 25.952 5.26229 26.8654 5.66991C27.3299 6.03815 27.691 6.5204 27.9137 7.06968C28.1364 7.61896 28.213 8.21655 28.1361 8.80424L28.116 19.6135C28.0741 21.5221 28.5384 23.4077 29.4619 25.0785C30.0814 26.165 31.0524 27.0083 32.215 27.4695C33.2686 27.8628 34.3987 28.0076 35.5174 27.8927C36.6361 27.7777 37.7132 27.406 38.6648 26.8066C40.5337 25.4406 40.7137 23.1502 40.6936 21.743C40.7399 20.8187 40.5611 19.897 40.1727 19.0571C39.7842 18.2172 39.1977 17.4841 38.4636 16.9207C37.2663 16.1144 35.8479 15.7003 34.4048 15.7358H30.7283V13.0229H34.7468C35.0893 12.9889 35.4266 12.9146 35.7517 12.8016C36.337 12.6734 36.8822 12.4044 37.3401 12.018C37.9312 11.4202 38.3849 10.7006 38.6694 9.90944C38.954 9.1183 39.0626 8.27463 38.9877 7.43721C38.8268 5.18705 37.5211 3.07772 32.6587 3.07772H26.445V3.13808Z" fill="black"/>
</svg>
