<svg width="657" height="637" viewBox="0 0 657 637" fill="none" xmlns="http://www.w3.org/2000/svg">
<path opacity="0.19" d="M639.696 284.573C619.727 321.553 580.086 348.677 538.056 348.419C522.957 348.316 507.767 344.893 492.848 347.424C482.515 349.194 472.802 353.779 463.14 358.08C413.786 380.155 354.203 395.332 307.471 368.142C280.062 352.19 258.84 322.573 227.388 319.202C207.846 317.109 189.026 325.918 170.788 333.255C144.542 343.808 115.519 351.764 88.2002 344.428C59.461 336.678 38.1229 313.518 23.8889 286.781C20.3204 280.095 17.1713 273.193 14.4599 266.115C-7.58858 208.779 -6.05152 139.624 30.4247 90.1922C57.9627 52.786 101.62 30.7246 145.537 15.7415C246.35 -18.6423 344.735 14.9019 448.519 9.0378C476.638 7.44907 505.829 4.85285 532.102 14.9794C553.013 23.0264 570.192 38.4874 585.447 54.8914C614.07 85.6714 638.094 121.644 649.719 162.034C653.929 176.624 656.328 191.678 656.862 206.854C657.766 233.849 652.483 260.884 639.696 284.573Z" fill="#2B90D9"/>
<path opacity="0.19" d="M639.696 284.573C619.727 321.553 580.086 348.677 538.056 348.419C522.957 348.315 507.767 344.893 492.848 347.424C482.515 349.194 472.802 353.779 463.14 358.08C413.786 380.155 354.203 395.332 307.471 368.142C280.062 352.19 258.84 322.573 227.388 319.202C207.846 317.109 189.026 325.918 170.788 333.255C144.542 343.808 115.519 351.764 88.2001 344.428C59.4609 336.678 38.1228 313.518 23.8889 286.781C34.7775 281.796 47.7973 284.43 59.8484 286.135C96.3507 291.265 133.561 286.353 167.482 271.927C203.506 256.505 241.106 230.917 282.128 240.243C322.17 249.285 360.17 280.155 403.001 273.826C418.953 271.475 433.407 263.131 446.258 253.418C475.023 231.667 497.731 202.514 527.426 182.054C557.121 161.595 598.712 151.378 628.639 171.502C641.375 180.065 650.21 192.878 656.849 206.906C657.766 233.849 652.483 260.884 639.696 284.573Z" fill="#2B90D9"/>
<path d="M487.139 143.822L519.069 194.196L494.85 209.011L463.128 215.922L487.139 143.822Z" fill="#2B90D9"/>
<path d="M487.139 143.822L519.069 194.196L494.85 209.011L463.128 215.922L487.139 143.822Z" fill="url(#paint0_linear)"/>
<path d="M266.383 356.414C266.732 356.479 280.785 450.498 280.785 450.498C280.785 450.498 291.002 452.952 290.64 450.498C290.279 448.044 292.048 417.974 294.141 412.033C296.233 406.091 290.266 356.414 290.266 356.414H266.383Z" fill="url(#paint1_linear)"/>
<path d="M311.979 355.781C311.979 355.781 314.084 403.288 318.269 415.197C322.454 427.106 327.711 451.609 327.711 451.609H340.627L338.251 354.787C338.251 354.787 323.526 345.035 311.979 355.781Z" fill="url(#paint2_linear)"/>
<path d="M278.111 444.169C281.315 443.756 284.57 445.125 287.76 444.776C289.093 444.463 290.461 444.329 291.829 444.376C292.043 444.39 292.245 444.482 292.397 444.634C292.516 444.817 292.566 445.037 292.539 445.254V449.516C292.539 451.57 292.539 453.818 291.248 455.432C289.956 457.047 287.553 457.628 285.396 457.809C284.7 457.916 283.987 457.858 283.317 457.641C282.662 457.321 282.088 456.857 281.638 456.285C280.204 454.722 279.119 453.818 278.925 451.712C278.899 451.04 278.215 444.169 278.111 444.169Z" fill="#2B90D9"/>
<path d="M339.607 446.042C339.827 445.991 340.056 445.995 340.274 446.055C340.492 446.115 340.692 446.228 340.855 446.385C341.018 446.542 341.139 446.736 341.208 446.952C341.276 447.167 341.29 447.396 341.247 447.618C341.405 450.675 341.205 453.74 340.653 456.75C340.586 457.559 340.367 458.348 340.007 459.075C339.077 460.703 336.998 461.193 335.138 461.297C332.309 461.478 329.106 460.948 327.388 458.713C326.546 457.327 326.029 455.769 325.877 454.154C325.58 452.475 324.986 450.86 324.714 449.194C324.469 447.76 324.843 447.063 326.303 446.856C328.357 446.546 330.501 446.507 332.58 446.378C334.944 446.197 337.282 446.094 339.607 446.042Z" fill="#2B90D9"/>
<path d="M255.262 480.322C255.125 481.121 255.206 481.942 255.495 482.699C255.838 483.355 256.314 483.932 256.892 484.395C257.47 484.857 258.138 485.194 258.853 485.385C263.555 487 277.944 477.196 282.49 475.194C286.489 473.512 290.317 471.449 293.921 469.033C294.283 468.775 293.34 456.117 293.082 454.192C293.086 454.047 293.06 453.902 293.007 453.767C292.954 453.631 292.874 453.508 292.772 453.404C292.584 453.292 292.37 453.23 292.152 453.223C289.982 453.043 287.799 453.223 285.616 453.223C284.499 453.241 283.382 453.193 282.271 453.081C281.275 452.798 280.254 452.612 279.222 452.526C277.569 452.707 274.392 457.899 272.958 458.7C256.567 467.884 255.701 477.248 255.262 480.322Z" fill="#25233A"/>
<path d="M324.572 465.507C324.258 466.734 324.153 468.004 324.262 469.266C324.637 471.216 326.329 472.611 327.918 473.813C330.824 475.995 346.659 491.818 355.869 486.729C356.448 486.334 356.897 485.777 357.161 485.127C357.497 484.386 357.694 483.589 357.742 482.777C358.068 479.238 357.297 475.684 355.533 472.598C353.957 469.886 344.502 461.606 343.547 458.623C342.965 456.814 342.784 454.606 341.17 453.585C340.952 453.427 340.69 453.342 340.421 453.34C340.012 453.393 339.63 453.569 339.323 453.844C336.507 455.729 332.865 455.239 329.635 454.774C328.693 454.631 326.69 453.482 325.915 453.999C324.766 454.799 324.908 458.003 324.856 459.165C324.886 461.283 324.791 463.401 324.572 465.507Z" fill="#25233A"/>
<path d="M345.342 135.413C345.342 135.413 389.18 108.108 389.878 107.513C390.575 106.919 434.879 70.9081 439.929 65.8577C444.98 60.8074 448.829 52.2179 455.894 55.0079C462.96 57.7978 463.115 68.8156 454.112 78.8517C453.04 80.053 446.026 79.898 445.768 80.2209C445.161 80.9442 443.856 82.3521 439.942 86.6791C436.029 91.0061 412.069 116.994 398.145 123.659C384.221 130.324 357.251 159.037 357.251 159.037L345.342 135.413Z" fill="url(#paint3_linear)"/>
<path d="M251.93 138.978C250.16 141.044 210.972 118.983 210.972 118.983L164.718 71.9541C164.718 71.9541 156.761 65.0179 151.116 74.5374C145.472 84.0569 159.654 93.3438 159.654 93.3438L168.915 94.8421C168.915 94.8421 191.364 132.171 196.905 134.044C202.447 135.917 243.082 168.918 243.469 164.604C243.857 160.29 251.93 138.978 251.93 138.978Z" fill="url(#paint4_linear)"/>
<path d="M271.175 96.6636C269.961 108.96 272.157 122.2 280.217 131.538C282.116 133.76 284.428 135.956 284.763 138.862C284.808 140.297 284.717 141.732 284.492 143.15C284.388 143.86 284.433 144.584 284.625 145.276C284.816 145.967 285.149 146.611 285.603 147.167C285.848 147.422 286.145 147.619 286.475 147.745C286.805 147.871 287.159 147.922 287.511 147.895C287.863 147.868 288.204 147.763 288.511 147.588C288.818 147.413 289.082 147.172 289.284 146.883L292.565 153.819C292.797 154.49 293.253 155.06 293.857 155.434C294.424 155.615 295.033 155.615 295.6 155.434C299.267 154.759 302.747 153.305 305.804 151.171C306.179 150.853 306.621 150.624 307.096 150.5C309.227 150.164 309.679 153.793 311.733 154.581C313.283 155.188 314.859 153.845 315.983 152.618L320.452 147.774C321.214 149.393 322.535 150.681 324.172 151.404C324.666 150.03 325.339 148.727 326.174 147.529C325.995 149.927 326.249 152.338 326.923 154.646L329.183 151.843C329.39 151.572 329.661 151.275 330.01 151.3C330.243 151.344 330.456 151.462 330.617 151.636L334.311 154.904C332.4 149.26 333.252 143.086 334.595 137.299C335.939 131.512 337.76 125.674 337.747 119.784C337.747 112.151 334.699 104.891 331.728 97.8261C330.518 94.5515 328.867 91.4574 326.82 88.6296C323.797 84.7546 319.483 82.3005 315.195 80.0401C311.534 77.8949 307.525 76.4085 303.35 75.6485C300.082 75.3363 296.787 75.4448 293.547 75.9714C290.102 76.3847 286.636 76.8153 283.149 77.263C280.152 77.6893 278.809 77.8572 276.897 80.208C273.139 84.9354 271.744 90.9029 271.175 96.6636Z" fill="#25233A"/>
<path d="M326.626 113.558C326.824 114.624 326.655 115.726 326.148 116.684C325.64 117.635 325.061 118.546 324.417 119.41C323.912 120.232 323.337 121.01 322.699 121.735C322.053 122.467 321.153 122.929 320.181 123.026C316.538 123.142 317.959 117.046 319.173 115.134C320.503 112.9 325.528 109.076 326.626 113.558Z" fill="url(#paint5_linear)"/>
<path d="M321.588 116.089C321.876 115.661 322.123 115.207 322.325 114.733C322.527 114.251 322.875 113.845 323.319 113.57C323.54 113.439 323.799 113.385 324.054 113.418C324.31 113.45 324.547 113.568 324.727 113.751C325.14 114.268 324.869 115.043 324.546 115.585C323.797 116.877 323.823 118.97 322.648 119.925C322.052 120.328 321.41 120.658 320.736 120.907C319.888 121.116 319.001 121.116 318.153 120.907C317.804 120.649 318.592 118.905 318.553 118.466C318.514 118.027 318.553 117.381 318.695 117.174C318.837 116.967 319.457 117.174 319.716 117.174C320.085 117.132 320.443 117.013 320.765 116.827C321.087 116.64 321.367 116.389 321.588 116.089Z" fill="url(#paint6_linear)"/>
<path d="M95.8339 154.349L62.0056 195.204L112.315 239.908L126.614 226.991L131.406 158.366C131.587 156.454 95.8339 154.349 95.8339 154.349Z" fill="#2B90D9"/>
<path d="M95.8339 154.349L62.0056 195.204L112.315 239.908L126.614 226.991L131.406 158.366C131.587 156.454 95.8339 154.349 95.8339 154.349Z" fill="url(#paint7_linear)"/>
<path d="M358.336 156.867C358.194 157.684 357.817 158.443 357.251 159.05C355.158 161.943 352.852 164.676 350.353 167.226C346.479 170.985 341.712 174.007 339.142 178.748C335.474 185.529 338.302 248.083 338.574 259.23C338.651 262.421 289.142 264.397 267.442 262.033C267.727 250.576 274.275 230.633 271.924 219.409C270.026 210.367 268.592 215.456 263.684 200.718C261.669 194.699 263.167 187.44 264.239 181.176C264.95 176.952 245.949 169.318 243.469 164.643C243.619 161.6 244.025 158.575 244.684 155.601C245.805 150.506 247.644 145.596 250.147 141.018C250.512 140.165 251.13 139.444 251.917 138.952C252.866 138.601 253.903 138.564 254.875 138.848C262.352 140.199 269.659 142.365 276.665 145.307C283.226 148.045 290.046 146.87 296.957 145.94C314.126 143.628 330.83 138.651 346.466 131.189C350.22 139.025 353.974 146.857 357.729 154.684C358.123 155.344 358.333 156.098 358.336 156.867Z" fill="#2B90D9"/>
<path d="M358.336 156.867C358.194 157.685 357.817 158.443 357.251 159.05C355.158 161.943 352.852 164.676 350.353 167.227C346.478 170.985 341.712 174.008 339.142 178.748C335.474 185.529 338.302 248.084 338.574 259.231C338.638 261.995 301.516 263.842 277.466 262.757L317.791 259.67C317.791 259.67 334.892 199.66 330.604 183.669C326.729 169.216 343.521 152.424 353.957 146.87L357.742 154.762C358.118 155.401 358.323 156.126 358.336 156.867Z" fill="url(#paint8_linear)"/>
<path d="M296.815 136.808C296.673 134.948 296.401 132.933 297.331 131.332C298.376 129.94 299.838 128.918 301.503 128.413C304.577 127.121 308.362 125.894 311.023 127.896C312.462 129.183 313.403 130.933 313.684 132.843C314.48 136.838 314.71 140.925 314.368 144.985C314.161 148.549 313.684 152.334 311.384 155.059C309.824 156.679 307.976 157.993 305.934 158.934C303.17 160.407 299.553 161.815 297.15 159.8C289.969 153.871 297.357 144.339 296.815 136.808Z" fill="url(#paint9_linear)"/>
<path d="M267.442 262.034L251.245 359.695C251.245 359.695 267.83 362.744 306.179 358.262C327.62 355.769 343.133 356.505 352.678 357.642C353.916 357.79 355.172 357.634 356.336 357.188C357.5 356.741 358.537 356.018 359.359 355.081C360.181 354.143 360.762 353.02 361.052 351.807C361.341 350.595 361.331 349.33 361.023 348.122L338.612 259.231C338.612 259.231 272.932 252.824 267.442 262.034Z" fill="#2B90D9"/>
<path d="M352.64 357.642C348.7 357.164 343.74 356.776 337.76 356.647C327.208 356.457 316.656 356.997 306.179 358.262C267.83 362.744 251.245 359.695 251.245 359.695L267.442 262.034C270.917 256.196 298.558 256.635 318.333 257.733H318.579C328.77 258.301 336.817 259.024 338.315 259.192H338.574V259.27L338.922 260.665L360.958 348.083C361.273 349.291 361.289 350.558 361.004 351.774C360.719 352.989 360.142 354.117 359.322 355.058C358.502 356 357.465 356.728 356.301 357.178C355.136 357.628 353.88 357.787 352.64 357.642Z" fill="url(#paint10_linear)"/>
<path d="M150.277 82.2744L123.075 138.539H125.542L151.116 83.7469C151.116 83.7469 151.607 82.2744 150.277 82.2744Z" fill="#2B90D9"/>
<path d="M151.116 140.954L159.654 93.4082L161.63 93.7311L153.235 142.904C153.235 142.904 151.259 144.609 151.116 140.954Z" fill="#2B90D9"/>
<path d="M96.4151 135.787C96.4151 135.787 144.206 129.019 168.102 151.636L174.211 158.249L153.971 211.207C153.971 211.207 142.785 219.086 132.013 216.864C121.241 214.642 101.168 209.411 101.168 209.411C101.168 209.411 94.7101 207.345 94.7101 197.489C94.7101 187.634 96.4151 135.787 96.4151 135.787Z" fill="#2B90D9"/>
<path d="M96.4151 135.787C96.4151 135.787 144.206 129.019 168.102 151.636L174.211 158.249L153.971 211.207C153.971 211.207 142.785 219.086 132.013 216.864C121.241 214.642 101.168 209.411 101.168 209.411C101.168 209.411 94.7101 207.345 94.7101 197.489C94.7101 187.634 96.4151 135.787 96.4151 135.787Z" fill="url(#paint11_linear)"/>
<path d="M445.768 80.2207L435.331 150.861H436.855L447.331 80.2207H445.768Z" fill="#2B90D9"/>
<path d="M454.112 78.8517L466.214 137.247L468.475 136.847L455.3 77.418L454.112 78.8517Z" fill="#2B90D9"/>
<path d="M425.98 156.273C425.98 156.273 455.688 130.995 480.746 137.247H488.857C488.857 137.247 483.936 185.18 485.576 197.089C487.217 208.998 450.108 221.488 447.318 220.83C444.528 220.171 434.027 221.488 432.709 206.053C431.392 190.618 425.98 156.273 425.98 156.273Z" fill="#2B90D9"/>
<path d="M425.98 156.273C425.98 156.273 455.688 130.995 480.746 137.247H488.857C488.857 137.247 483.936 185.18 485.576 197.089C487.217 208.998 450.108 221.488 447.318 220.83C444.528 220.171 434.027 221.488 432.709 206.053C431.392 190.618 425.98 156.273 425.98 156.273Z" fill="url(#paint12_linear)"/>
<path d="M151.117 83.7464L146.312 150.912H148.714L152.589 83.7464C152.589 83.7464 151.556 81.9769 151.117 83.7464Z" fill="#2B90D9"/>
<path d="M154.823 89.3135L168.928 149.646L171.964 148.794L156.606 91.0185L154.823 89.3135Z" fill="#2B90D9"/>
<path d="M131.961 150.486L148.727 150.861L183.175 146.921L200.871 214.927L152.641 239.869L126.046 235.244L131.961 150.486Z" fill="#2B90D9"/>
<path d="M152.641 239.868L148.727 150.86L131.961 150.486L126.046 235.244L152.641 239.868Z" fill="url(#paint13_linear)"/>
<path d="M441.324 164.721L449.63 166.206L464.109 169.487L493.791 155.356L468.475 151.985L441.324 164.721Z" fill="#2B90D9"/>
<path d="M441.324 164.721L449.63 166.206L464.109 169.487L493.791 155.356L468.475 151.985L441.324 164.721Z" fill="url(#paint14_linear)"/>
<path d="M493.791 155.356L464.109 169.487L441.324 164.72L444.205 228.386L464.109 235.245L495.031 218.531L493.791 155.356Z" fill="#2B90D9"/>
<path d="M284.931 128.606C288.613 135.49 296.556 140.76 304.138 138.707C309.783 137.17 313.735 132.042 316.151 126.72C318.226 121.802 319.768 116.675 320.749 111.427C321.847 106.403 322.815 101.21 321.86 96.1598C320.767 91.2703 317.963 86.9323 313.953 83.9289C309.943 80.9256 304.991 79.4546 299.992 79.7816C277.543 81.9516 276.833 113.416 284.931 128.606Z" fill="url(#paint15_linear)"/>
<path d="M295.923 64.2169C305.042 62.2794 315.298 63.9198 322.247 70.0809C329.196 76.2421 332.412 86.4333 339.865 92.3232C342.268 94.2219 345.432 95.6556 348.364 94.7515C347.55 96.471 346.273 97.9296 344.676 98.9632C343.079 99.9968 341.225 100.565 339.323 100.603C340.571 101.88 342.157 102.776 343.895 103.186C342.932 104.428 341.709 105.446 340.313 106.169C338.917 106.891 337.38 107.302 335.809 107.371C336.593 107.972 337.126 108.841 337.308 109.812C334.169 111.427 330.41 111.272 326.975 110.535C324.071 109.902 321.327 108.683 318.911 106.953C316.495 105.223 314.457 103.018 312.921 100.473C305.559 87.4666 292.668 77.9471 282.387 94.2477C279.184 92.1165 275.774 89.6624 275.244 85.8649C273.746 74.6017 286.468 66.2189 295.923 64.2169Z" fill="#25233A"/>
<path d="M447.331 80.221V166.206H449.63L448.48 79.9497L447.331 80.221Z" fill="#2B90D9"/>
<path d="M451.309 79.6914L474.739 156.273H476.909L452.949 79.4072L451.309 79.6914Z" fill="#2B90D9"/>
<path d="M464.109 169.487V235.245L451.309 226.449L449.63 166.207L464.109 169.487Z" fill="url(#paint16_linear)"/>
<path d="M444.205 228.386L451.309 226.448L449.63 166.206L441.324 164.72L444.205 228.386Z" fill="url(#paint17_linear)"/>
<path d="M493.791 155.356L464.109 169.487V235.245L476.909 228.334L493.791 155.356Z" fill="url(#paint18_linear)"/>
<path d="M264.239 181.189C264.95 176.965 245.949 169.332 243.469 164.656C243.619 161.613 244.025 158.589 244.684 155.614C244.684 155.614 264.756 164.385 265.854 169.474C266.952 174.563 264.239 181.189 264.239 181.189Z" fill="url(#paint19_linear)"/>
<path d="M352.64 357.641C348.7 357.163 343.74 356.776 337.76 356.646L322.26 301.855C322.26 301.855 317.197 261.981 318.385 257.732H318.631L338.367 259.192H338.625V259.269L338.974 260.664L361.01 348.083C361.327 349.295 361.343 350.568 361.056 351.788C360.768 353.008 360.186 354.139 359.36 355.082C358.534 356.025 357.49 356.751 356.318 357.198C355.147 357.644 353.884 357.796 352.64 357.641Z" fill="url(#paint20_linear)"/>
<path d="M579.675 636.368H452.325C437.845 636.368 426 624.523 426 610.043V298.325C426 283.845 437.845 272 452.325 272H579.675C594.155 272 606 283.845 606 298.325V610.037C606 624.517 594.155 636.368 579.675 636.368Z" fill="#E3E5FC"/>
<path d="M568.252 602.373H463.743C449.263 602.373 437.418 590.528 437.418 576.048V310.574C437.418 296.094 449.263 284.249 463.743 284.249H568.252C582.732 284.249 594.577 296.094 594.577 310.574V576.048C594.582 590.522 582.732 602.373 568.252 602.373Z" fill="white"/>
<path d="M532.957 280.332H499.043C498.218 280.332 497.544 279.658 497.544 278.833C497.544 278.007 498.218 277.334 499.043 277.334H532.957C533.782 277.334 534.455 278.007 534.455 278.833C534.455 279.658 533.776 280.332 532.957 280.332Z" fill="#E3E5FC"/>
<path d="M516 627.585C521.158 627.585 525.339 623.404 525.339 618.246C525.339 613.088 521.158 608.907 516 608.907C510.842 608.907 506.661 613.088 506.661 618.246C506.661 623.404 510.842 627.585 516 627.585Z" fill="#A7ADFF"/>
<path d="M556.155 564.414H475.839C466.723 564.414 459.257 556.954 459.257 547.832C459.257 538.715 466.717 531.25 475.839 531.25H556.155C565.271 531.25 572.737 538.71 572.737 547.832C572.737 556.948 565.277 564.414 556.155 564.414Z" fill="#2B90D9"/>
<path d="M515.309 507.015C514.8 506.599 514.718 505.838 515.139 505.329L526.141 491.821C526.557 491.311 527.318 491.229 527.828 491.651C528.337 492.067 528.419 492.828 527.997 493.337L516.995 506.845C516.58 507.355 515.819 507.431 515.309 507.015Z" fill="#E3E5FC"/>
<path d="M516.685 507.015C517.194 506.6 517.276 505.839 516.855 505.329L505.853 491.821C505.437 491.312 504.676 491.23 504.167 491.651C503.657 492.067 503.575 492.828 503.997 493.338L514.999 506.846C515.414 507.355 516.176 507.431 516.685 507.015Z" fill="#E3E5FC"/>
<path d="M546.952 445H486.048C483.27 445 481 443.201 481 441C481 438.799 483.27 437 486.048 437H546.952C549.73 437 552 438.799 552 441C552 443.196 549.73 445 546.952 445Z" fill="#A7ADFF"/>
<path d="M540.398 465.022H492.011C489.803 465.022 488 463.218 488 461.011C488 458.803 489.803 457 492.011 457H540.398C542.605 457 544.409 458.803 544.409 461.011C544.409 463.218 542.605 465.022 540.398 465.022Z" fill="#A7ADFF"/>
<path d="M526.333 412H518.444V404.111H526.333V412ZM518.444 384.389H510.556V404.111H518.444V384.389ZM550 376.5H542.111V392.278H550V376.5ZM542.111 368.611H534.222V376.5H542.111V368.611ZM494.778 376.5H486.889V384.389H494.778V376.5ZM486.889 368.611H479V376.5H486.889V368.611ZM514.5 348.889H522.389V341H514.5V348.889ZM484.917 346.917V358.75H496.75V346.917H484.917ZM498.722 364.667H482.944C480.775 364.667 479 362.892 479 360.722V344.944C479 342.775 480.775 341 482.944 341H498.722C500.892 341 502.667 342.775 502.667 344.944V360.722C502.667 362.892 500.892 364.667 498.722 364.667ZM484.917 394.25V406.083H496.75V394.25H484.917ZM498.722 412H482.944C480.775 412 479 410.225 479 408.056V392.278C479 390.108 480.775 388.333 482.944 388.333H498.722C500.892 388.333 502.667 390.108 502.667 392.278V408.056C502.667 410.225 500.892 412 498.722 412ZM532.25 346.917V358.75H544.083V346.917H532.25ZM546.056 364.667H530.278C528.108 364.667 526.333 362.892 526.333 360.722V344.944C526.333 342.775 528.108 341 530.278 341H546.056C548.225 341 550 342.775 550 344.944V360.722C550 362.892 548.225 364.667 546.056 364.667ZM542.111 404.111V392.278H526.333V400.167H534.222V412H550V404.111H542.111ZM534.222 376.5H518.444V384.389H534.222V376.5ZM518.444 368.611H494.778V376.5H502.667V384.389H510.556V376.5H518.444V368.611ZM522.389 364.667V356.778H514.5V348.889H506.611V364.667H522.389ZM493.792 349.875H487.875V355.792H493.792V349.875ZM493.792 397.208H487.875V403.125H493.792V397.208ZM541.125 349.875H535.208V355.792H541.125V349.875Z" fill="black"/>
<defs>
<linearGradient id="paint0_linear" x1="509.588" y1="156.041" x2="476.134" y2="222.961" gradientUnits="userSpaceOnUse">
<stop stop-opacity="0"/>
<stop offset="0.88" stop-opacity="0.8"/>
<stop offset="0.97"/>
</linearGradient>
<linearGradient id="paint1_linear" x1="266.383" y1="403.998" x2="294.593" y2="403.998" gradientUnits="userSpaceOnUse">
<stop stop-color="#ECC4D7"/>
<stop offset="0.42" stop-color="#EFD4D1"/>
<stop offset="1" stop-color="#F2EAC9"/>
</linearGradient>
<linearGradient id="paint2_linear" x1="7292.54" y1="37922" x2="7928.55" y2="37922" gradientUnits="userSpaceOnUse">
<stop stop-color="#ECC4D7"/>
<stop offset="0.42" stop-color="#EFD4D1"/>
<stop offset="1" stop-color="#F2EAC9"/>
</linearGradient>
<linearGradient id="paint3_linear" x1="31525.9" y1="15167.5" x2="41890.5" y2="15167.5" gradientUnits="userSpaceOnUse">
<stop stop-color="#ECC4D7"/>
<stop offset="0.42" stop-color="#EFD4D1"/>
<stop offset="1" stop-color="#F2EAC9"/>
</linearGradient>
<linearGradient id="paint4_linear" x1="12212.6" y1="14647.1" x2="20288.9" y2="14647.1" gradientUnits="userSpaceOnUse">
<stop stop-color="#ECC4D7"/>
<stop offset="0.42" stop-color="#EFD4D1"/>
<stop offset="1" stop-color="#F2EAC9"/>
</linearGradient>
<linearGradient id="paint5_linear" x1="2515.14" y1="1874.32" x2="2575.97" y2="1874.32" gradientUnits="userSpaceOnUse">
<stop stop-color="#ECC4D7"/>
<stop offset="0.42" stop-color="#EFD4D1"/>
<stop offset="1" stop-color="#F2EAC9"/>
</linearGradient>
<linearGradient id="paint6_linear" x1="2037.97" y1="1279.58" x2="2138.94" y2="1318.32" gradientUnits="userSpaceOnUse">
<stop stop-color="#ECC4D7"/>
<stop offset="0.42" stop-color="#EFD4D1"/>
<stop offset="1" stop-color="#F2EAC9"/>
</linearGradient>
<linearGradient id="paint7_linear" x1="3573" y1="19201.5" x2="7564.02" y2="18381.2" gradientUnits="userSpaceOnUse">
<stop stop-opacity="0"/>
<stop offset="0.88" stop-opacity="0.8"/>
<stop offset="0.97"/>
</linearGradient>
<linearGradient id="paint8_linear" x1="17127.6" y1="23581.4" x2="27150.4" y2="27010.2" gradientUnits="userSpaceOnUse">
<stop stop-opacity="0"/>
<stop offset="0.88" stop-opacity="0.8"/>
<stop offset="0.97"/>
</linearGradient>
<linearGradient id="paint9_linear" x1="5154.99" y1="5979.34" x2="5586.71" y2="6302.58" gradientUnits="userSpaceOnUse">
<stop stop-color="#ECC4D7"/>
<stop offset="0.42" stop-color="#EFD4D1"/>
<stop offset="1" stop-color="#F2EAC9"/>
</linearGradient>
<linearGradient id="paint10_linear" x1="11949" y1="32268.1" x2="31877.6" y2="30955.1" gradientUnits="userSpaceOnUse">
<stop stop-opacity="0"/>
<stop offset="0.88" stop-opacity="0.8"/>
<stop offset="0.97"/>
</linearGradient>
<linearGradient id="paint11_linear" x1="6043.77" y1="15383.5" x2="9918.52" y2="17252.2" gradientUnits="userSpaceOnUse">
<stop stop-opacity="0"/>
<stop offset="0.88" stop-opacity="0.8"/>
<stop offset="0.97"/>
</linearGradient>
<linearGradient id="paint12_linear" x1="21758.4" y1="14985.6" x2="24579.1" y2="17309" gradientUnits="userSpaceOnUse">
<stop stop-opacity="0"/>
<stop offset="0.88" stop-opacity="0.8"/>
<stop offset="0.97"/>
</linearGradient>
<linearGradient id="paint13_linear" x1="2121.21" y1="12088.4" x2="4515.49" y2="12450.1" gradientUnits="userSpaceOnUse">
<stop stop-opacity="0"/>
<stop offset="0.88" stop-opacity="0.8"/>
<stop offset="0.97"/>
</linearGradient>
<linearGradient id="paint14_linear" x1="19432.7" y1="1886.59" x2="19432.7" y2="2655.45" gradientUnits="userSpaceOnUse">
<stop stop-opacity="0"/>
<stop offset="0.88" stop-opacity="0.8"/>
<stop offset="0.97"/>
</linearGradient>
<linearGradient id="paint15_linear" x1="10301.8" y1="7582.57" x2="9662.1" y2="9924.52" gradientUnits="userSpaceOnUse">
<stop stop-color="#ECC4D7"/>
<stop offset="0.42" stop-color="#EFD4D1"/>
<stop offset="1" stop-color="#F2EAC9"/>
</linearGradient>
<linearGradient id="paint16_linear" x1="5843.92" y1="10363.9" x2="5173.38" y2="10421.4" gradientUnits="userSpaceOnUse">
<stop stop-opacity="0"/>
<stop offset="0.88" stop-opacity="0.8"/>
<stop offset="0.97"/>
</linearGradient>
<linearGradient id="paint17_linear" x1="4017.76" y1="9230.04" x2="3594.71" y2="9277.35" gradientUnits="userSpaceOnUse">
<stop stop-opacity="0"/>
<stop offset="0.88" stop-opacity="0.8"/>
<stop offset="0.97"/>
</linearGradient>
<linearGradient id="paint18_linear" x1="445.135" y1="159.954" x2="557.87" y2="277.792" gradientUnits="userSpaceOnUse">
<stop stop-color="white" stop-opacity="0"/>
<stop offset="0.84" stop-color="white" stop-opacity="0.84"/>
<stop offset="0.97" stop-color="white"/>
</linearGradient>
<linearGradient id="paint19_linear" x1="5181.87" y1="4789.74" x2="4241.89" y2="5275.61" gradientUnits="userSpaceOnUse">
<stop stop-opacity="0"/>
<stop offset="0.88" stop-opacity="0.8"/>
<stop offset="0.97"/>
</linearGradient>
<linearGradient id="paint20_linear" x1="9824.46" y1="30517" x2="12487.2" y2="30445.8" gradientUnits="userSpaceOnUse">
<stop stop-opacity="0"/>
<stop offset="0.88" stop-opacity="0.8"/>
<stop offset="0.97"/>
</linearGradient>
</defs>
</svg>
