<svg width="68" height="68" viewBox="0 0 68 68" fill="none" xmlns="http://www.w3.org/2000/svg">
<g filter="url(#filter0_d_3719_5393)">
<circle cx="34" cy="33" r="30" fill="white"/>
</g>
<path fill-rule="evenodd" clip-rule="evenodd" d="M21.6667 33.02C21.6667 25.9961 27.28 19.6666 35.0267 19.6666C42.6 19.6666 48.3334 25.8759 48.3334 32.9799C48.3334 41.219 41.6134 46.3333 35 46.3333C32.8134 46.3333 30.3867 45.7457 28.44 44.5974C27.76 44.1834 27.1867 43.8763 26.4534 44.1166L23.76 44.9178C23.08 45.1315 22.4667 44.5974 22.6667 43.8763L23.56 40.8851C23.7067 40.4712 23.68 40.0305 23.4667 39.6833C22.32 37.5735 21.6667 35.2634 21.6667 33.02ZM33.2667 33.02C33.2667 33.9681 34.0267 34.7292 34.9734 34.7426C35.92 34.7426 36.68 33.9681 36.68 33.0333C36.68 32.0853 35.92 31.3241 34.9734 31.3241C34.04 31.3108 33.2667 32.0853 33.2667 33.02ZM39.4134 33.0333C39.4134 33.9681 40.1734 34.7426 41.12 34.7426C42.0667 34.7426 42.8267 33.9681 42.8267 33.0333C42.8267 32.0853 42.0667 31.3241 41.12 31.3241C40.1734 31.3241 39.4134 32.0853 39.4134 33.0333ZM28.8267 34.7426C27.8934 34.7426 27.12 33.9681 27.12 33.0333C27.12 32.0853 27.88 31.3241 28.8267 31.3241C29.7734 31.3241 30.5334 32.0853 30.5334 33.0333C30.5334 33.9681 29.7734 34.7292 28.8267 34.7426Z" fill="#212121"/>
<defs>
<filter id="filter0_d_3719_5393" x="0" y="0" width="68" height="68" filterUnits="userSpaceOnUse" color-interpolation-filters="sRGB">
<feFlood flood-opacity="0" result="BackgroundImageFix"/>
<feColorMatrix in="SourceAlpha" type="matrix" values="0 0 0 0 0 0 0 0 0 0 0 0 0 0 0 0 0 0 127 0" result="hardAlpha"/>
<feOffset dy="1"/>
<feGaussianBlur stdDeviation="2"/>
<feComposite in2="hardAlpha" operator="out"/>
<feColorMatrix type="matrix" values="0 0 0 0 0 0 0 0 0 0 0 0 0 0 0 0 0 0 0.25 0"/>
<feBlend mode="normal" in2="BackgroundImageFix" result="effect1_dropShadow_3719_5393"/>
<feBlend mode="normal" in="SourceGraphic" in2="effect1_dropShadow_3719_5393" result="shape"/>
</filter>
</defs>
</svg>
