<svg width="1337" height="279" viewBox="0 0 1337 279" fill="none" xmlns="http://www.w3.org/2000/svg">
<path d="M2.81658 50.9851L13.7012 57.9023L7.10744 45.8605C8.97456 44.3645 11.2848 43.5358 13.6732 43.5056H13.8482C14.6031 43.5204 15.3578 43.4639 16.1021 43.3369L19.784 45.6848L18.2091 42.8026C20.8175 41.8832 23.0709 40.1613 24.6489 37.8819L31.2357 42.0997L27.0778 34.4936C30.9277 29.847 36.1215 27 41.8403 27C48.6931 27 54.7969 31.0912 58.7378 37.4742C59.9064 39.3856 61.5585 40.952 63.5257 42.0139C65.493 43.0758 67.7053 43.5954 69.9374 43.5197H70.3014C77.8682 43.5197 84 52.131 84 62.7598C84 73.3886 77.8682 81.9999 70.3014 81.9999C68.6388 81.9946 67.0025 81.582 65.5346 80.7979C62.9583 79.5427 60.1416 78.8638 57.2787 78.808C54.4158 78.7522 51.5749 79.3208 48.9521 80.4745C46.7365 81.4741 44.336 81.9939 41.9071 81.9999C39.4781 82.006 37.0751 81.4982 34.8545 80.5097C32.2534 79.3775 29.4405 78.8198 26.6061 78.8744C23.7717 78.929 20.9821 79.5945 18.4261 80.826C16.9671 81.5906 15.3469 81.9932 13.7012 81.9999C6.13447 81.9999 0.00265503 73.3886 0.00265503 62.7598C-0.0576401 58.66 0.910034 54.6109 2.81658 50.9851Z" fill="#F2F2F2"/>
<path opacity="0.03" d="M23 79.1835C26.9748 78.4293 31.0834 78.8765 34.8044 80.4682C37.033 81.4689 39.4473 81.9862 41.8891 81.9862C44.331 81.9862 46.7453 81.4689 48.9739 80.4682C51.6106 79.3064 54.4678 78.7337 57.3473 78.7898C60.2268 78.8459 63.0596 79.5294 65.6493 80.7929C67.1289 81.578 68.776 81.9922 70.4499 82C77.2074 82 82.8315 75.1671 84 66.16C82.6479 65.1753 81.5003 63.9357 80.6213 62.5106C76.6583 56.1082 70.5203 52 63.6291 52C56.7379 52 50.6633 56.0235 46.7074 62.3765C45.5237 64.2965 43.864 65.876 41.8901 66.961C39.9163 68.0459 37.6957 68.5993 35.445 68.5671H35.269C29.9264 68.5529 25.2666 72.8729 23 79.1835Z" fill="black"/>
<path d="M1227.98 34.12L1212.43 43.96L1221.85 26.83C1219.18 24.7018 1215.88 23.523 1212.47 23.48H1212.22C1211.14 23.5011 1210.06 23.4207 1209 23.24L1203.74 26.58L1205.99 22.48C1202.26 21.172 1199.04 18.7226 1196.79 15.48L1187.38 21.48L1193.32 10.66C1187.82 4.05 1180.4 0 1172.23 0C1162.44 0 1153.72 5.81999 1148.09 14.9C1146.42 17.6191 1144.06 19.8473 1141.25 21.358C1138.44 22.8686 1135.28 23.6077 1132.09 23.5H1131.57C1120.76 23.5 1112 35.75 1112 50.87C1112 65.99 1120.76 78.24 1131.57 78.24C1133.95 78.2325 1136.28 77.6455 1138.38 76.53C1142.06 74.7445 1146.08 73.7787 1150.17 73.6993C1154.26 73.6199 1158.32 74.4287 1162.07 76.07C1165.24 77.492 1168.66 78.2314 1172.13 78.24C1175.6 78.2486 1179.04 77.5263 1182.21 76.12C1185.93 74.5095 1189.94 73.7162 1193.99 73.7938C1198.04 73.8714 1202.03 74.8182 1205.68 76.57C1207.76 77.6577 1210.08 78.2304 1212.43 78.24C1223.24 78.24 1232 65.99 1232 50.87C1232.09 45.0379 1230.7 39.2778 1227.98 34.12Z" fill="#F2F2F2"/>
<path d="M1334.49 251.369L1324.77 257.531L1330.65 246.803C1328.99 245.47 1326.92 244.732 1324.79 244.705H1324.64C1323.96 244.718 1323.29 244.668 1322.62 244.555L1319.34 246.646L1320.74 244.079C1318.41 243.26 1316.4 241.726 1314.99 239.695L1309.11 243.452L1312.82 236.676C1309.39 232.536 1304.75 230 1299.64 230C1293.52 230 1288.07 233.645 1284.56 239.332C1283.51 241.034 1282.04 242.43 1280.28 243.376C1278.52 244.322 1276.55 244.785 1274.56 244.718H1274.23C1267.47 244.718 1262 252.389 1262 261.859C1262 271.328 1267.47 279 1274.23 279C1275.72 278.995 1277.18 278.628 1278.49 277.929C1280.79 276.811 1283.3 276.206 1285.86 276.156C1288.41 276.106 1290.95 276.613 1293.29 277.641C1295.27 278.532 1297.41 278.995 1299.58 279C1301.75 279.005 1303.9 278.553 1305.88 277.672C1308.2 276.664 1310.71 276.167 1313.24 276.215C1315.78 276.264 1318.27 276.857 1320.55 277.954C1321.85 278.635 1323.3 278.994 1324.77 279C1331.52 279 1337 271.328 1337 261.859C1337.05 258.206 1336.19 254.599 1334.49 251.369Z" fill="#F2F2F2"/>
<path opacity="0.03" d="M1316 276.559C1312.48 275.905 1308.84 276.293 1305.55 277.672C1303.58 278.54 1301.44 278.988 1299.28 278.988C1297.12 278.988 1294.98 278.54 1293.01 277.672C1290.67 276.666 1288.14 276.169 1285.59 276.218C1283.05 276.266 1280.54 276.859 1278.24 277.954C1276.94 278.634 1275.48 278.993 1274 279C1268.01 279 1263.03 273.078 1262 265.272C1263.2 264.419 1264.21 263.344 1264.99 262.109C1268.5 256.56 1273.93 253 1280.03 253C1286.13 253 1291.51 256.487 1295.01 261.993C1296.06 263.657 1297.53 265.026 1299.28 265.966C1301.02 266.906 1302.99 267.386 1304.98 267.358H1305.14C1309.87 267.346 1313.99 271.09 1316 276.559Z" fill="black"/>
</svg>
