<svg width="29" height="19" viewBox="0 0 29 19" fill="none" xmlns="http://www.w3.org/2000/svg">
<path d="M28.0276 8.28578L24.2698 10.6753L26.5462 6.51546C25.9016 5.99863 25.104 5.71238 24.2795 5.70194H24.2191C23.9584 5.70706 23.6979 5.68755 23.4409 5.64366L22.1698 6.45475L22.7135 5.45909C21.813 5.14147 21.0351 4.54665 20.4903 3.7592L18.2163 5.21625L19.6517 2.5887C18.3226 0.983512 16.5295 0 14.5551 0C12.1893 0 10.082 1.41334 8.72147 3.61835C8.31801 4.27866 7.74767 4.81977 7.0685 5.18662C6.38932 5.55346 5.62556 5.73294 4.85493 5.70679H4.72927C2.11693 5.70679 0 8.68161 0 12.3534C0 16.0252 2.11693 19 4.72927 19C5.30328 18.9981 5.86818 18.8556 6.37497 18.5847C7.26439 18.1511 8.23684 17.9166 9.22521 17.8973C10.2136 17.878 11.1944 18.0744 12.0999 18.473C12.8648 18.8183 13.6935 18.9979 14.5321 19C15.3706 19.0021 16.2003 18.8267 16.9669 18.4852C17.8649 18.094 18.836 17.9014 19.8146 17.9203C20.7931 17.9391 21.7562 18.169 22.6386 18.5944C23.1423 18.8586 23.7017 18.9976 24.2698 19C26.8821 19 28.9991 16.0252 28.9991 12.3534C29.0199 10.9371 28.6858 9.5383 28.0276 8.28578Z" fill="#F2F2F2"/>
<path opacity="0.5" d="M21 17.9673C19.6316 17.6908 18.2172 17.8547 16.9362 18.4384C16.169 18.8053 15.3378 18.9949 14.4972 18.9949C13.6565 18.9949 12.8254 18.8053 12.0582 18.4384C11.1504 18.0124 10.1668 17.8024 9.17552 17.8229C8.18423 17.8435 7.209 18.0941 6.31744 18.5574C5.80808 18.8453 5.24104 18.9971 4.66478 19C2.33845 19 0.402262 16.4946 0 13.192C0.465474 12.831 0.860566 12.3764 1.16316 11.8539C2.52746 9.50635 4.64055 8 7.01293 8C9.3853 8 11.4766 9.47529 12.8384 11.8047C13.2459 12.5087 13.8173 13.0879 14.4968 13.4857C15.1764 13.8835 15.9408 14.0864 16.7157 14.0746H16.7763C18.6155 14.0694 20.2197 15.6534 21 17.9673Z" fill="black" fill-opacity="0.2"/>
</svg>
