<svg width="134" height="80" viewBox="0 0 134 80" fill="none" xmlns="http://www.w3.org/2000/svg">
<path d="M129.909 34.8875L114.101 44.9488L123.677 27.4335C120.966 25.2574 117.61 24.0521 114.141 24.0082H113.887C112.791 24.0297 111.695 23.9476 110.614 23.7628L105.266 27.1779L107.553 22.9857C103.765 21.6483 100.492 19.1438 98.2004 15.8282L88.6339 21.9632L94.6727 10.8998C89.0812 4.1411 81.5378 0 73.2319 0C63.279 0 54.414 5.95091 48.6903 15.2352C46.993 18.0154 44.5937 20.2938 41.7364 21.8384C38.8792 23.383 35.6661 24.1387 32.4242 24.0286H31.8955C20.9057 24.0286 12 36.5541 12 52.0143C12 67.4744 20.9057 79.9999 31.8955 79.9999C34.3104 79.9922 36.6868 79.392 38.8188 78.2514C42.5605 76.4258 46.6515 75.4383 50.8095 75.3571C54.9675 75.2759 59.0935 76.1029 62.9029 77.7811C66.1209 79.2351 69.6072 79.9911 73.135 79.9999C76.6627 80.0087 80.1528 79.2701 83.3779 77.8322C87.1557 76.1855 91.2412 75.3743 95.3578 75.4537C99.4744 75.5331 103.526 76.5012 107.238 78.2924C109.357 79.4046 111.71 79.9901 114.101 79.9999C125.09 79.9999 133.996 67.4744 133.996 52.0143C134.084 46.0509 132.678 40.1613 129.909 34.8875Z" fill="#F2F2F2"/>
<path opacity="0.03" d="M89 75.8692C83.2007 74.763 77.2061 75.4189 71.7772 77.7534C68.5256 79.2211 65.0031 79.9797 61.4404 79.9797C57.8778 79.9797 54.3553 79.2211 51.1037 77.7534C47.2566 76.0494 43.0879 75.2094 38.8867 75.2917C34.6856 75.3739 30.5524 76.3764 26.7739 78.2296C24.6152 79.3811 22.212 79.9885 19.7698 80C9.91057 80 1.70482 69.9784 0 56.768C1.97272 55.3238 3.64716 53.5058 4.9296 51.4155C10.7116 42.0254 19.6671 36 29.7215 36C39.7758 36 48.6388 41.9012 54.4106 51.2188C56.1375 54.0348 58.5591 56.3515 61.439 57.9428C64.3189 59.534 67.5588 60.3456 70.8426 60.2984H71.0994C78.8943 60.2776 85.6931 66.6136 89 75.8692Z" fill="black"/>
</svg>
