<svg width="23" height="15" viewBox="0 0 23 15" fill="none" xmlns="http://www.w3.org/2000/svg">
<path d="M22.2288 6.5414L19.2485 8.42791L21.0539 5.14378C20.5427 4.73576 19.9101 4.50977 19.2561 4.50153H19.2082C19.0015 4.50557 18.7949 4.49017 18.5911 4.45552L17.5829 5.09585L18.0142 4.30981C17.3 4.05905 16.683 3.58946 16.2509 2.96779L14.4474 4.11809L15.5858 2.04371C14.5317 0.776457 13.1096 0 11.5437 0C9.66736 0 7.99607 1.1158 6.91702 2.85659C6.59704 3.37789 6.14471 3.80508 5.60605 4.0947C5.06739 4.38431 4.46165 4.52601 3.85046 4.50536H3.7508C1.67895 4.50536 0 6.8539 0 9.75267C0 12.6514 1.67895 15 3.7508 15C4.20605 14.9985 4.65408 14.886 5.05601 14.6721C5.76141 14.3298 6.53266 14.1447 7.31655 14.1295C8.10043 14.1142 8.87829 14.2693 9.59645 14.584C10.2031 14.8566 10.8604 14.9983 11.5254 15C12.1905 15.0016 12.8485 14.8632 13.4565 14.5935C14.1687 14.2848 14.9389 14.1327 15.715 14.1476C16.4911 14.1625 17.2549 14.344 17.9548 14.6798C18.3543 14.8884 18.7979 14.9981 19.2485 15C21.3203 15 22.9993 12.6514 22.9993 9.75267C23.0158 8.63455 22.7508 7.53024 22.2288 6.5414V6.5414Z" fill="#F2F2F2"/>
<path opacity="0.1" d="M17 14.2489C15.8923 14.0478 14.7472 14.1671 13.7103 14.5915C13.0892 14.8584 12.4163 14.9963 11.7358 14.9963C11.0553 14.9963 10.3825 14.8584 9.76137 14.5915C9.02655 14.2817 8.23028 14.129 7.42781 14.1439C6.62533 14.1589 5.83585 14.3412 5.11412 14.6781C4.70178 14.8875 4.24275 14.9979 3.77625 15C1.89303 15 0.325641 13.1779 0 10.776C0.376812 10.5134 0.696649 10.1829 0.941609 9.80282C2.04604 8.09553 3.75664 7 5.67713 7C7.59763 7 9.29056 8.07294 10.393 9.76706C10.7229 10.2791 11.1854 10.7003 11.7355 10.9896C12.2856 11.2789 12.9045 11.4265 13.5317 11.4179H13.5808C15.0697 11.4141 16.3683 12.5661 17 14.2489Z" fill="black"/>
</svg>
