<svg width="68" height="68" viewBox="0 0 68 68" fill="none" xmlns="http://www.w3.org/2000/svg">
<g filter="url(#filter0_d_3719_4930)">
<circle cx="34" cy="33" r="30" fill="white"/>
</g>
<path fill-rule="evenodd" clip-rule="evenodd" d="M44.1287 24.9636C44.6042 24.9636 45 25.3584 45 25.8607V26.3252C45 26.8153 44.6042 27.2223 44.1287 27.2223H23.8725C23.3958 27.2223 23 26.8153 23 26.3252V25.8607C23 25.3584 23.3958 24.9636 23.8725 24.9636H27.4361C28.16 24.9636 28.79 24.4491 28.9529 23.7231L29.1395 22.8895C29.4295 21.7541 30.384 21 31.4764 21H36.5236C37.6041 21 38.5693 21.7541 38.8486 22.8296L39.0483 23.7219C39.21 24.4491 39.84 24.9636 40.5651 24.9636H44.1287ZM42.3182 41.9415C42.6903 38.4741 43.3417 30.2364 43.3417 30.1533C43.3654 29.9015 43.2834 29.6632 43.1206 29.4713C42.9458 29.2917 42.7248 29.1853 42.4811 29.1853H25.5282C25.2833 29.1853 25.0503 29.2917 24.8887 29.4713C24.7246 29.6632 24.6438 29.9015 24.6557 30.1533C24.6579 30.1686 24.6813 30.4588 24.7203 30.9439C24.8939 33.0989 25.3774 39.1013 25.6899 41.9415C25.9109 44.034 27.2839 45.3491 29.2725 45.3967C30.8071 45.4322 32.388 45.4444 34.0046 45.4444C35.5273 45.4444 37.0738 45.4322 38.6559 45.3967C40.7135 45.3613 42.0852 44.0694 42.3182 41.9415Z" fill="black" fill-opacity="0.87"/>
<defs>
<filter id="filter0_d_3719_4930" x="0" y="0" width="68" height="68" filterUnits="userSpaceOnUse" color-interpolation-filters="sRGB">
<feFlood flood-opacity="0" result="BackgroundImageFix"/>
<feColorMatrix in="SourceAlpha" type="matrix" values="0 0 0 0 0 0 0 0 0 0 0 0 0 0 0 0 0 0 127 0" result="hardAlpha"/>
<feOffset dy="1"/>
<feGaussianBlur stdDeviation="2"/>
<feComposite in2="hardAlpha" operator="out"/>
<feColorMatrix type="matrix" values="0 0 0 0 0 0 0 0 0 0 0 0 0 0 0 0 0 0 0.25 0"/>
<feBlend mode="normal" in2="BackgroundImageFix" result="effect1_dropShadow_3719_4930"/>
<feBlend mode="normal" in="SourceGraphic" in2="effect1_dropShadow_3719_4930" result="shape"/>
</filter>
</defs>
</svg>
