<svg width="68" height="68" viewBox="0 0 68 68" fill="none" xmlns="http://www.w3.org/2000/svg">
<g filter="url(#filter0_d_3719_4937)">
<circle cx="34" cy="33" r="30" fill="white"/>
</g>
<path fill-rule="evenodd" clip-rule="evenodd" d="M28.7968 33C28.7968 35.8445 31.1252 38.1588 34 38.1588C36.8618 38.1588 39.1903 35.8445 39.1903 33C39.1903 30.1427 36.8618 27.8283 34 27.8283C31.1252 27.8283 28.7968 30.1427 28.7968 33ZM41.6488 25.0615C43.9252 26.8198 45.8634 29.3928 47.2553 32.6122C47.3594 32.8578 47.3594 33.1423 47.2553 33.375C44.4716 39.8138 39.5155 43.6667 34 43.6667H33.987C28.4846 43.6667 23.5285 39.8138 20.7447 33.375C20.6407 33.1423 20.6407 32.8578 20.7447 32.6122C23.5285 26.1734 28.4846 22.3334 33.987 22.3334H34C36.7577 22.3334 39.3724 23.2901 41.6488 25.0615ZM34.0016 36.2166C35.7837 36.2166 37.2406 34.7685 37.2406 32.9972C37.2406 31.213 35.7837 29.7649 34.0016 29.7649C33.8455 29.7649 33.6894 29.7778 33.5463 29.8037C33.4943 31.2259 32.3235 32.3637 30.8796 32.3637H30.8146C30.7756 32.5705 30.7495 32.7774 30.7495 32.9972C30.7495 34.7685 32.2065 36.2166 34.0016 36.2166Z" fill="#171717"/>
<defs>
<filter id="filter0_d_3719_4937" x="0" y="0" width="68" height="68" filterUnits="userSpaceOnUse" color-interpolation-filters="sRGB">
<feFlood flood-opacity="0" result="BackgroundImageFix"/>
<feColorMatrix in="SourceAlpha" type="matrix" values="0 0 0 0 0 0 0 0 0 0 0 0 0 0 0 0 0 0 127 0" result="hardAlpha"/>
<feOffset dy="1"/>
<feGaussianBlur stdDeviation="2"/>
<feComposite in2="hardAlpha" operator="out"/>
<feColorMatrix type="matrix" values="0 0 0 0 0 0 0 0 0 0 0 0 0 0 0 0 0 0 0.25 0"/>
<feBlend mode="normal" in2="BackgroundImageFix" result="effect1_dropShadow_3719_4937"/>
<feBlend mode="normal" in="SourceGraphic" in2="effect1_dropShadow_3719_4937" result="shape"/>
</filter>
</defs>
</svg>
