<svg width="559" height="511" viewBox="0 0 559 511" fill="none" xmlns="http://www.w3.org/2000/svg">
<path d="M558.4 510.7H270.2V18.2C270.2 8.4 278.1 0.5 287.9 0.5H540.6C550.4 0.5 558.3 8.4 558.3 18.2V510.7H558.4Z" fill="#DED8EE"/>
<path d="M531 237.8H297C290.7 237.8 285.6 232.7 285.6 226.4V181C285.6 174.7 290.7 169.6 297 169.6H531C537.3 169.6 542.4 174.7 542.4 181V226.3C542.4 232.7 537.3 237.8 531 237.8Z" fill="#E6E2F0"/>
<path d="M523.4 118.5H499.5C495.2 118.5 491.7 115 491.7 110.7V103.8C491.7 99.5 495.2 96 499.5 96H523.4C527.7 96 531.2 99.5 531.2 103.8V110.7C531.1 115 527.7 118.5 523.4 118.5Z" fill="white"/>
<path d="M522.6 279.7H498.7C494.4 279.7 490.9 276.2 490.9 271.9V265C490.9 260.7 494.4 257.2 498.7 257.2H522.6C526.9 257.2 530.4 260.7 530.4 265V271.9C530.4 276.2 526.9 279.7 522.6 279.7Z" fill="white"/>
<path d="M529.6 485.4H290.1V341.1C290.1 336.1 294.2 332 299.2 332H525.9C534.8 332 542 339.2 542 348.1V473C542 479.9 536.5 485.4 529.6 485.4Z" fill="#5D50C1"/>
<path d="M531 231.8H297C290.7 231.8 285.6 226.7 285.6 220.4V175C285.6 168.7 290.7 163.6 297 163.6H531C537.3 163.6 542.4 168.7 542.4 175V220.3C542.4 226.7 537.3 231.8 531 231.8Z" fill="white"/>
<path opacity="0.31" d="M459.5 405.2H461.7C462.1 405.2 462.4 405.6 462.4 405.9V408.1C462.4 408.5 462.1 408.8 461.7 408.8H459.5C459.1 408.8 458.8 408.4 458.8 408.1V405.9C458.8 405.5 459.1 405.2 459.5 405.2Z" fill="white"/>
<path opacity="0.31" d="M474 405.2H476.2C476.6 405.2 476.9 405.6 476.9 405.9V408.1C476.9 408.5 476.6 408.8 476.2 408.8H474C473.6 408.8 473.3 408.4 473.3 408.1V405.9C473.3 405.5 473.6 405.2 474 405.2Z" fill="white"/>
<path opacity="0.31" d="M488.4 405.2H490.6C491 405.2 491.3 405.6 491.3 405.9V408.1C491.3 408.5 491 408.8 490.6 408.8H488.4C488 408.8 487.7 408.4 487.7 408.1V405.9C487.7 405.5 488 405.2 488.4 405.2Z" fill="white"/>
<path opacity="0.31" d="M502.9 405.2H505.1C505.5 405.2 505.8 405.6 505.8 405.9V408.1C505.8 408.5 505.5 408.8 505.1 408.8H502.9C502.5 408.8 502.2 408.4 502.2 408.1V405.9C502.2 405.5 502.5 405.2 502.9 405.2Z" fill="white"/>
<path opacity="0.31" d="M517.4 405.2H519.6C520 405.2 520.3 405.6 520.3 405.9V408.1C520.3 408.5 520 408.8 519.6 408.8H517.4C517 408.8 516.7 408.4 516.7 408.1V405.9C516.6 405.5 516.9 405.2 517.4 405.2Z" fill="white"/>
<path opacity="0.31" d="M531.8 405.2H534C534.4 405.2 534.7 405.6 534.7 405.9V408.1C534.7 408.5 534.4 408.8 534 408.8H531.8C531.4 408.8 531.1 408.4 531.1 408.1V405.9C531.1 405.5 531.4 405.2 531.8 405.2Z" fill="white"/>
<path opacity="0.31" d="M459.5 419.6H461.7C462.1 419.6 462.4 420 462.4 420.3V422.5C462.4 422.9 462.1 423.2 461.7 423.2H459.5C459.1 423.2 458.8 422.8 458.8 422.5V420.3C458.8 420 459.1 419.6 459.5 419.6Z" fill="white"/>
<path opacity="0.31" d="M474 419.6H476.2C476.6 419.6 476.9 420 476.9 420.3V422.5C476.9 422.9 476.6 423.2 476.2 423.2H474C473.6 423.2 473.3 422.8 473.3 422.5V420.3C473.3 420 473.6 419.6 474 419.6Z" fill="white"/>
<path opacity="0.31" d="M488.4 419.6H490.6C491 419.6 491.3 420 491.3 420.3V422.5C491.3 422.9 491 423.2 490.6 423.2H488.4C488 423.2 487.7 422.8 487.7 422.5V420.3C487.7 420 488 419.6 488.4 419.6Z" fill="white"/>
<path opacity="0.31" d="M502.9 419.6H505.1C505.5 419.6 505.8 420 505.8 420.3V422.5C505.8 422.9 505.5 423.2 505.1 423.2H502.9C502.5 423.2 502.2 422.8 502.2 422.5V420.3C502.2 420 502.5 419.6 502.9 419.6Z" fill="white"/>
<path opacity="0.31" d="M517.4 419.6H519.6C520 419.6 520.3 420 520.3 420.3V422.5C520.3 422.9 520 423.2 519.6 423.2H517.4C517 423.2 516.7 422.8 516.7 422.5V420.3C516.6 420 516.9 419.6 517.4 419.6Z" fill="white"/>
<path opacity="0.31" d="M531.8 419.6H534C534.4 419.6 534.7 420 534.7 420.3V422.5C534.7 422.9 534.4 423.2 534 423.2H531.8C531.4 423.2 531.1 422.8 531.1 422.5V420.3C531.1 420 531.4 419.6 531.8 419.6Z" fill="white"/>
<path opacity="0.31" d="M459.5 434.1H461.7C462.1 434.1 462.4 434.5 462.4 434.8V437C462.4 437.4 462.1 437.7 461.7 437.7H459.5C459.1 437.7 458.8 437.3 458.8 437V434.8C458.8 434.4 459.1 434.1 459.5 434.1Z" fill="white"/>
<path opacity="0.31" d="M474 434.1H476.2C476.6 434.1 476.9 434.5 476.9 434.8V437C476.9 437.4 476.6 437.7 476.2 437.7H474C473.6 437.7 473.3 437.3 473.3 437V434.8C473.3 434.4 473.6 434.1 474 434.1Z" fill="white"/>
<path opacity="0.31" d="M488.4 434.1H490.6C491 434.1 491.3 434.5 491.3 434.8V437C491.3 437.4 491 437.7 490.6 437.7H488.4C488 437.7 487.7 437.3 487.7 437V434.8C487.7 434.4 488 434.1 488.4 434.1Z" fill="white"/>
<path opacity="0.31" d="M502.9 434.1H505.1C505.5 434.1 505.8 434.5 505.8 434.8V437C505.8 437.4 505.5 437.7 505.1 437.7H502.9C502.5 437.7 502.2 437.3 502.2 437V434.8C502.2 434.4 502.5 434.1 502.9 434.1Z" fill="white"/>
<path opacity="0.31" d="M517.4 434.1H519.6C520 434.1 520.3 434.5 520.3 434.8V437C520.3 437.4 520 437.7 519.6 437.7H517.4C517 437.7 516.7 437.3 516.7 437V434.8C516.6 434.4 516.9 434.1 517.4 434.1Z" fill="white"/>
<path opacity="0.31" d="M531.8 434.1H534C534.4 434.1 534.7 434.5 534.7 434.8V437C534.7 437.4 534.4 437.7 534 437.7H531.8C531.4 437.7 531.1 437.3 531.1 437V434.8C531.1 434.4 531.4 434.1 531.8 434.1Z" fill="white"/>
<path opacity="0.31" d="M459.5 448.5H461.7C462.1 448.5 462.4 448.9 462.4 449.2V451.4C462.4 451.8 462.1 452.1 461.7 452.1H459.5C459.1 452.1 458.8 451.7 458.8 451.4V449.2C458.8 448.9 459.1 448.5 459.5 448.5Z" fill="white"/>
<path opacity="0.31" d="M474 448.5H476.2C476.6 448.5 476.9 448.9 476.9 449.2V451.4C476.9 451.8 476.6 452.1 476.2 452.1H474C473.6 452.1 473.3 451.7 473.3 451.4V449.2C473.3 448.9 473.6 448.5 474 448.5Z" fill="white"/>
<path opacity="0.31" d="M488.4 448.5H490.6C491 448.5 491.3 448.9 491.3 449.2V451.4C491.3 451.8 491 452.1 490.6 452.1H488.4C488 452.1 487.7 451.7 487.7 451.4V449.2C487.7 448.9 488 448.5 488.4 448.5Z" fill="white"/>
<path opacity="0.31" d="M502.9 448.5H505.1C505.5 448.5 505.8 448.9 505.8 449.2V451.4C505.8 451.8 505.5 452.1 505.1 452.1H502.9C502.5 452.1 502.2 451.7 502.2 451.4V449.2C502.2 448.9 502.5 448.5 502.9 448.5Z" fill="white"/>
<path opacity="0.31" d="M517.4 448.5H519.6C520 448.5 520.3 448.9 520.3 449.2V451.4C520.3 451.8 520 452.1 519.6 452.1H517.4C517 452.1 516.7 451.7 516.7 451.4V449.2C516.6 448.9 516.9 448.5 517.4 448.5Z" fill="white"/>
<path opacity="0.31" d="M531.8 448.5H534C534.4 448.5 534.7 448.9 534.7 449.2V451.4C534.7 451.8 534.4 452.1 534 452.1H531.8C531.4 452.1 531.1 451.7 531.1 451.4V449.2C531.1 448.9 531.4 448.5 531.8 448.5Z" fill="white"/>
<path opacity="0.31" d="M459.5 463H461.7C462.1 463 462.4 463.4 462.4 463.7V465.9C462.4 466.3 462.1 466.6 461.7 466.6H459.5C459.1 466.6 458.8 466.2 458.8 465.9V463.7C458.8 463.3 459.1 463 459.5 463Z" fill="white"/>
<path opacity="0.31" d="M474 463H476.2C476.6 463 476.9 463.4 476.9 463.7V465.9C476.9 466.3 476.6 466.6 476.2 466.6H474C473.6 466.6 473.3 466.2 473.3 465.9V463.7C473.3 463.3 473.6 463 474 463Z" fill="white"/>
<path opacity="0.31" d="M488.4 463H490.6C491 463 491.3 463.4 491.3 463.7V465.9C491.3 466.3 491 466.6 490.6 466.6H488.4C488 466.6 487.7 466.2 487.7 465.9V463.7C487.7 463.3 488 463 488.4 463Z" fill="white"/>
<path opacity="0.31" d="M502.9 463H505.1C505.5 463 505.8 463.4 505.8 463.7V465.9C505.8 466.3 505.5 466.6 505.1 466.6H502.9C502.5 466.6 502.2 466.2 502.2 465.9V463.7C502.2 463.3 502.5 463 502.9 463Z" fill="white"/>
<path opacity="0.31" d="M517.4 463H519.6C520 463 520.3 463.4 520.3 463.7V465.9C520.3 466.3 520 466.6 519.6 466.6H517.4C517 466.6 516.7 466.2 516.7 465.9V463.7C516.6 463.3 516.9 463 517.4 463Z" fill="white"/>
<path opacity="0.31" d="M531.8 463H534C534.4 463 534.7 463.4 534.7 463.7V465.9C534.7 466.3 534.4 466.6 534 466.6H531.8C531.4 466.6 531.1 466.2 531.1 465.9V463.7C531.1 463.3 531.4 463 531.8 463Z" fill="white"/>
<path opacity="0.31" d="M459.5 477.4H461.7C462.1 477.4 462.4 477.8 462.4 478.1V480.3C462.4 480.7 462.1 481 461.7 481H459.5C459.1 481 458.8 480.6 458.8 480.3V478.1C458.8 477.8 459.1 477.4 459.5 477.4Z" fill="white"/>
<path opacity="0.31" d="M474 477.4H476.2C476.6 477.4 476.9 477.8 476.9 478.1V480.3C476.9 480.7 476.6 481 476.2 481H474C473.6 481 473.3 480.6 473.3 480.3V478.1C473.3 477.8 473.6 477.4 474 477.4Z" fill="white"/>
<path opacity="0.31" d="M488.4 477.4H490.6C491 477.4 491.3 477.8 491.3 478.1V480.3C491.3 480.7 491 481 490.6 481H488.4C488 481 487.7 480.6 487.7 480.3V478.1C487.7 477.8 488 477.4 488.4 477.4Z" fill="white"/>
<path opacity="0.31" d="M502.9 477.4H505.1C505.5 477.4 505.8 477.8 505.8 478.1V480.3C505.8 480.7 505.5 481 505.1 481H502.9C502.5 481 502.2 480.6 502.2 480.3V478.1C502.2 477.8 502.5 477.4 502.9 477.4Z" fill="white"/>
<path opacity="0.31" d="M517.4 477.4H519.6C520 477.4 520.3 477.8 520.3 478.1V480.3C520.3 480.7 520 481 519.6 481H517.4C517 481 516.7 480.6 516.7 480.3V478.1C516.6 477.8 516.9 477.4 517.4 477.4Z" fill="white"/>
<path opacity="0.31" d="M531.8 477.4H534C534.4 477.4 534.7 477.8 534.7 478.1V480.3C534.7 480.7 534.4 481 534 481H531.8C531.4 481 531.1 480.6 531.1 480.3V478.1C531.1 477.8 531.4 477.4 531.8 477.4Z" fill="white"/>
<path d="M453.6 461.5H376.4C367.9 461.5 361 454.6 361 446.1V435.9C361 427.4 367.9 420.5 376.4 420.5H453.6C462.1 420.5 469 427.4 469 435.9V446.1C469 454.6 462.1 461.5 453.6 461.5Z" fill="#F6F2FF"/>
<path d="M523.4 199.1H499.5C495.2 199.1 491.7 195.6 491.7 191.3V184.4C491.7 180.1 495.2 176.6 499.5 176.6H523.4C527.7 176.6 531.2 180.1 531.2 184.4V191.3C531.1 195.6 527.7 199.1 523.4 199.1Z" fill="#FFDE8D"/>
<path d="M327.5 301.4H312.9C304.2 301.4 297.2 294.4 297.2 285.7V270.8C297.2 262.1 304.2 255.1 312.9 255.1H327.5C336.2 255.1 343.2 262.1 343.2 270.8V285.7C343.3 294.4 336.2 301.4 327.5 301.4Z" fill="#3D2EAF"/>
<path d="M459.1 106.5H363.1C360.3 106.5 358.1 104.3 358.1 101.5C358.1 98.7 360.3 96.5 363.1 96.5H459.1C461.9 96.5 464.1 98.7 464.1 101.5C464.1 104.3 461.9 106.5 459.1 106.5Z" fill="#212025"/>
<path d="M458.2 44.2002H302.5C299.7 44.2002 297.5 42.0002 297.5 39.2002C297.5 36.4002 299.7 34.2002 302.5 34.2002H458.2C461 34.2002 463.2 36.4002 463.2 39.2002C463.2 42.0002 460.9 44.2002 458.2 44.2002Z" fill="#212025"/>
<path d="M427.1 128.5H362.1C359.3 128.5 357.1 126.3 357.1 123.5C357.1 120.7 359.3 118.5 362.1 118.5H427.1C429.9 118.5 432.1 120.7 432.1 123.5C432.1 126.3 429.9 128.5 427.1 128.5Z" fill="#AFA0D2"/>
<path d="M459.7 189.8H363.7C360.9 189.8 358.7 187.6 358.7 184.8C358.7 182 360.9 179.8 363.7 179.8H459.7C462.5 179.8 464.7 182 464.7 184.8C464.7 187.5 462.4 189.8 459.7 189.8Z" fill="#212025"/>
<path d="M457.6 380.2H361.6C358.8 380.2 356.6 378 356.6 375.2C356.6 372.4 358.8 370.2 361.6 370.2H457.6C460.4 370.2 462.6 372.4 462.6 375.2C462.6 377.9 460.3 380.2 457.6 380.2Z" fill="#F6F2FF"/>
<path d="M483.9 396H327.4C325.5 396 324 394.5 324 392.6C324 390.7 325.5 389.2 327.4 389.2H483.9C485.8 389.2 487.3 390.7 487.3 392.6C487.2 394.5 485.7 396 483.9 396Z" fill="#A198E2"/>
<path d="M427.7 211.8H362.7C359.9 211.8 357.7 209.6 357.7 206.8C357.7 204 359.9 201.8 362.7 201.8H427.7C430.5 201.8 432.7 204 432.7 206.8C432.7 209.5 430.4 211.8 427.7 211.8Z" fill="#AFA0D2"/>
<path d="M461.3 269.1H365.3C362.5 269.1 360.3 266.9 360.3 264.1C360.3 261.3 362.5 259.1 365.3 259.1H461.3C464.1 259.1 466.3 261.3 466.3 264.1C466.3 266.9 464.1 269.1 461.3 269.1Z" fill="#212025"/>
<path d="M429.3 291.1H364.3C361.5 291.1 359.3 288.9 359.3 286.1C359.3 283.3 361.5 281.1 364.3 281.1H429.3C432.1 281.1 434.3 283.3 434.3 286.1C434.3 288.9 432.1 291.1 429.3 291.1Z" fill="#AFA0D2"/>
<path d="M311.6 282.4C314.858 282.4 317.5 279.759 317.5 276.5C317.5 273.242 314.858 270.6 311.6 270.6C308.341 270.6 305.7 273.242 305.7 276.5C305.7 279.759 308.341 282.4 311.6 282.4Z" fill="#FEC200"/>
<path d="M329.1 282.5C332.358 282.5 335 279.859 335 276.6C335 273.342 332.358 270.7 329.1 270.7C325.841 270.7 323.2 273.342 323.2 276.6C323.2 279.859 325.841 282.5 329.1 282.5Z" fill="#FD7301"/>
<path d="M311.8 304.5C308.6 304.5 305.9 301.9 305.9 298.6V291C305.9 287.8 308.5 285.1 311.8 285.1C315 285.1 317.7 287.7 317.7 291V298.6C317.6 301.9 315 304.5 311.8 304.5Z" fill="#FF8402"/>
<path d="M327.5 139.4H312.9C304.2 139.4 297.2 132.4 297.2 123.7V108.8C297.2 100.1 304.2 93.1001 312.9 93.1001H327.5C336.2 93.1001 343.2 100.1 343.2 108.8V123.7C343.3 132.4 336.2 139.4 327.5 139.4Z" fill="#5341C1"/>
<path d="M327.5 220.4H312.9C304.2 220.4 297.2 213.4 297.2 204.7V189.8C297.2 181.1 304.2 174.1 312.9 174.1H327.5C336.2 174.1 343.2 181.1 343.2 189.8V204.7C343.3 213.4 336.2 220.4 327.5 220.4Z" fill="#FCB800"/>
<path d="M328.1 208.4C330.42 208.4 332.3 206.52 332.3 204.2C332.3 201.88 330.42 200 328.1 200C325.78 200 323.9 201.88 323.9 204.2C323.9 206.52 325.78 208.4 328.1 208.4Z" fill="#FE7602"/>
<path d="M301.3 200.4C314.003 200.4 324.3 190.102 324.3 177.4C324.3 164.697 314.003 154.4 301.3 154.4C288.597 154.4 278.3 164.697 278.3 177.4C278.3 190.102 288.597 200.4 301.3 200.4Z" fill="#FE6A04"/>
<path d="M298.3 236.2C306.584 236.2 313.3 229.305 313.3 220.8C313.3 212.295 306.584 205.4 298.3 205.4C290.016 205.4 283.3 212.295 283.3 220.8C283.3 229.305 290.016 236.2 298.3 236.2Z" fill="#6853D0"/>
<path d="M320.5 143.9C333.921 143.9 344.8 137.901 344.8 130.5C344.8 123.099 333.921 117.1 320.5 117.1C307.079 117.1 296.2 123.099 296.2 130.5C296.2 137.901 307.079 143.9 320.5 143.9Z" fill="#FCD401"/>
<path d="M320.1 117.2C328.605 117.2 335.5 111.111 335.5 103.6C335.5 96.0889 328.605 90 320.1 90C311.595 90 304.7 96.0889 304.7 103.6C304.7 111.111 311.595 117.2 320.1 117.2Z" fill="#FE670E"/>
<path d="M120 64.1998C110.6 73.3998 105.5 84.5999 105 97.7999C105 98.2999 104.9 98.7998 104.5 99.1998C104.1 99.4998 103.6 99.5998 103.2 99.3998C102.7 99.0998 102.4 98.6999 102.4 98.0999C102.5 95.1999 102.8 92.3999 103.3 89.5999C105.6 78.2999 110.9 68.7998 119.5 61.1998C129.4 52.2998 141.1 47.9998 154.4 48.0998C155.4 48.0998 155.9 48.5999 155.9 49.3999C155.9 50.1999 155.3 50.6998 154.3 50.6998C149.9 50.5998 145.4 51.1999 141.1 52.2999C134 54.1999 127.4 57.6999 121.8 62.4999C121.3 62.8998 120.7 63.4998 120 64.1998Z" fill="black"/>
<path d="M125.5 69.7002C133.6 62.1002 143.1 58.2002 154.3 58.3002C155 58.3002 155.6 58.6002 155.8 59.3002C156 60.0002 155.7 60.5002 155.1 60.8002C154.9 60.9002 154.6 60.9002 154.4 60.9002C146.3 60.8002 138.8 63.0002 132.2 67.7002C121.9 75.0002 116.4 85.0002 115.7 97.5002C115.7 97.7002 115.7 98.0002 115.7 98.3002C115.6 99.2002 115.1 99.7002 114.3 99.7002C113.5 99.7002 113 99.1002 113 98.2002C113 96.6002 113.2 95.0002 113.4 93.4002C114.8 84.4002 118.7 76.7002 125.1 70.3002C125.1 70.1002 125.3 69.9002 125.5 69.7002Z" fill="black"/>
<path d="M132.6 77.2002C138.5 71.7002 145.4 68.8002 153.5 68.7002C153.9 68.7002 154.4 68.7002 154.8 68.9002C155.4 69.1002 155.8 69.5002 155.7 70.2002C155.6 70.9002 155 71.4002 154.3 71.4002C151.5 71.3002 148.8 71.7002 146.1 72.5002C134.6 75.7002 126.3 86.3002 125.9 98.3002C125.9 99.3002 125.4 99.9002 124.5 99.9002C123.7 99.9002 123.2 99.2002 123.2 98.1002C123.6 89.9002 126.8 83.0002 132.6 77.2002Z" fill="black"/>
<path d="M241.3 164.7C241.3 164.7 245.1 161.5 249.7 163.2C254.3 164.9 256.1 177.2 240.7 187.3C225.3 197.3 241.3 164.7 241.3 164.7Z" fill="#FFA398"/>
<path d="M240.1 193C240.1 193 256.7 192 260.9 196.5C265.1 201 260.5 212.1 240.1 218C219.7 223.9 240.1 193 240.1 193Z" fill="#FFA398"/>
<path d="M240 309.3C240 309.3 252.6 296.5 248.9 288.6C245.2 280.7 238.5 274.5 228 276C226.2 295.6 226.2 295.6 226.2 295.6L240 309.3Z" fill="#F2968F"/>
<path d="M159 87.8001L234 94.3001C243 95.1001 249.6 102.9 248.9 111.9L233.7 295C233 303.9 225.2 310.5 216.3 309.9L141.4 304.9C132.3 304.3 125.5 296.4 126.2 287.3L141.3 102.8C142.1 93.7001 150 87.0001 159 87.8001Z" fill="#1A182D"/>
<path d="M158.5 93.3998L233.4 100.2C239.5 100.7 244 106.1 243.5 112.2L229.1 293.9C228.6 300 223.3 304.6 217.2 304.2L142.4 299C136.2 298.6 131.6 293.2 132.1 287L146.4 103.8C146.8 97.3998 152.3 92.7998 158.5 93.3998Z" fill="#F9F8FF"/>
<path d="M237.6 248.5C237.6 248.5 222 260.8 223.6 269.8C225.2 278.8 238.1 282.7 248.6 270.2C259.1 257.7 257.4 240.7 238.2 237.1C237.6 247.6 237.6 248.5 237.6 248.5Z" fill="#FFA398"/>
<path d="M224.7 323.3C223 327 219.8 331.7 216 336.8C204.7 351.8 187.6 369.8 184.6 372.7C180.5 376.7 175 387.4 175 387.4L127.3 510L1 509.9L65.9 401.4C65.9 401.4 93 355.7 100.4 341.4C107.8 327.2 104.6 315.1 101.5 293.5C98.3 271.9 104.5 249.8 110.8 227.6C117.1 205.4 126.9 196.1 133.4 196.5C139.1 196.9 138.6 207.5 137.7 213.7C136.9 219.9 138.7 241.2 138.6 245.5C138.5 249.9 144.8 276.2 145.7 280.4C146.4 283.5 153 295.1 156.6 301.4C158 303.8 158.9 305.3 158.9 305.3L227.5 311.2C227.7 311.3 231.4 308.9 224.7 323.3Z" stroke="#FFA398" stroke-miterlimit="10"/>
<path d="M224.7 323.3C223 327 219.8 331.7 216 336.8C204.7 351.8 187.6 369.8 184.6 372.7C180.5 376.7 175 387.4 175 387.4L127.3 510L1 509.9L65.9 401.4C65.9 401.4 93 355.7 100.4 341.4C107.8 327.2 104.6 315.1 101.5 293.5C98.3 271.9 104.5 249.8 110.8 227.6C117.1 205.4 126.9 196.1 133.4 196.5C139.1 196.9 138.6 207.5 137.7 213.7C136.9 219.9 138.7 241.2 138.6 245.5C138.5 249.9 144.8 276.2 145.7 280.4C146.4 283.5 153 295.1 156.6 301.4C158 303.8 158.9 305.3 158.9 305.3L227.5 311.2C227.7 311.3 231.4 308.9 224.7 323.3Z" fill="#FFA398"/>
<path d="M224.7 323.3C223 327 219.8 331.7 216 336.8C212.7 325.6 201.2 307.1 161.9 312.3C159.4 306.8 157.7 303.3 156.7 301.4C158.1 303.8 159 305.3 159 305.3L227.6 311.2C227.7 311.3 231.4 308.9 224.7 323.3Z" fill="#FE786D"/>
<path d="M256.1 318.8C256.1 318.8 232 344.1 233.4 375.2C234.8 406.3 254.9 394.7 256.7 391.9C258.5 389.1 258.7 386.7 258.7 386.7C258.7 386.7 260.1 399.9 271.7 397.3L256.1 318.8Z" fill="#FE786D"/>
<path d="M190.8 267.9C185.2 274.4 193 285.8 203.6 299.1C214.2 312.4 237.5 340.9 243.8 350.1C250.1 359.3 268.1 393.7 269.2 401.7C270.3 409.6 270.5 419.9 257.1 418.5C243.8 417.1 238.9 381.5 237.3 376.8C235.7 372.1 228.8 347 218.2 351C207.6 355 210.8 399.7 223.1 430.5C235.4 461.3 261.9 495.1 274.5 501.2L280.5 510.2L368.9 510C368.9 510 367.6 490.9 367.6 484.9C367.6 478.9 365.3 392.9 344.5 387.9C344.5 387.9 343.6 373.5 332.4 372C332.4 372 288.6 308.5 267.5 309.6C262.1 311.9 258.7 315.6 258.7 315.6C258.7 315.6 206.8 267.1 199.4 266.4C191.9 265.7 190.8 267.9 190.8 267.9Z" fill="#FFA398"/>
<path d="M235.1 144.5L230.1 197.7C229.9 199.9 227.8 201.6 225.5 201.4L139.2 194.6L144.2 131.7L231.3 140.1C233.6 140.3 235.3 142.3 235.1 144.5Z" fill="#E6E2F0"/>
<path d="M231.9 136.2L231.5 140.8L230.4 155L227.7 189.5C227.4 192.9 224.4 195.5 221 195.2L122.3 185.9C119 185.6 116.5 182.7 116.7 179.4L118.8 145.2L119.7 130.3L119.9 126.4C120.1 122.9 123.2 120.3 126.6 120.6L226.1 129.5C229.6 129.9 232.1 132.8 231.9 136.2Z" fill="#282C37"/>
<path d="M162.2 340.8C162.2 340.8 172.2 329.6 159 305.4" stroke="#FE786D" stroke-width="2" stroke-miterlimit="10" stroke-linecap="round"/>
<path d="M258.6 315.7C258.6 315.7 292.2 356.7 299.1 359.6" stroke="#FE786D" stroke-width="2" stroke-miterlimit="10" stroke-linecap="round"/>
<path d="M311.4 377.5C311.4 377.5 316.4 386.5 321.8 419.6C327.2 452.8 327.2 455.1 327.2 455.1" stroke="#FE786D" stroke-width="2" stroke-miterlimit="10" stroke-linecap="round"/>
<path d="M332.3 372.1C332.3 372.1 337.5 386.1 339.5 400.1C341.5 414.1 341.4 412.7 341.4 412.7" stroke="#FE786D" stroke-width="2" stroke-miterlimit="10" stroke-linecap="round"/>
<path d="M344.4 388C344.4 388 349.2 409.3 349 409.8" stroke="#FE786D" stroke-width="2" stroke-miterlimit="10" stroke-linecap="round"/>
<path d="M153.5 223.5L218.9 229.5C221.9 229.8 224 232.4 223.7 235.4L222.6 246.5C222.3 249.4 219.7 251.5 216.8 251.3L151.4 245.8C148.4 245.5 146.2 242.9 146.5 239.9L147.7 228.2C148 225.4 150.6 223.2 153.5 223.5Z" fill="#E6E2F0"/>
<path d="M151.5 220.5L216.9 226.5C219.9 226.8 222 229.4 221.7 232.4L220.6 243.5C220.3 246.4 217.7 248.5 214.8 248.3L149.4 242.8C146.4 242.5 144.2 239.9 144.5 236.9L145.7 225.2C146 222.4 148.6 220.2 151.5 220.5Z" fill="#2B90D9"/>
<path d="M202.742 180.176L197.952 179.832L198.295 175.042L203.086 175.385L202.742 180.176ZM199.155 163.066L194.365 162.722L193.505 174.698L198.295 175.042L199.155 163.066ZM218.66 159.651L213.87 159.307L213.182 168.888L217.972 169.231L218.66 159.651ZM214.214 154.517L209.423 154.173L209.079 158.963L213.87 159.307L214.214 154.517ZM185.128 157.244L180.338 156.9L179.994 161.69L184.784 162.034L185.128 157.244ZM180.681 152.11L175.891 151.766L175.547 156.556L180.338 156.9L180.681 152.11ZM198.307 141.338L203.097 141.681L203.441 136.891L198.651 136.547L198.307 141.338ZM180.429 138.851L179.914 146.036L187.099 146.552L187.615 139.366L180.429 138.851ZM188.039 150.23L178.458 149.543C177.141 149.448 176.14 148.293 176.235 146.976L176.923 137.395C177.017 136.078 178.172 135.077 179.49 135.172L189.07 135.86C190.388 135.954 191.388 137.109 191.294 138.427L190.606 148.007C190.511 149.325 189.356 150.325 188.039 150.23ZM178.366 167.592L177.851 174.778L185.036 175.294L185.552 168.108L178.366 167.592ZM185.976 178.972L176.395 178.285C175.078 178.19 174.077 177.035 174.172 175.718L174.86 166.137C174.954 164.82 176.109 163.819 177.427 163.914L187.007 164.601C188.325 164.696 189.325 165.851 189.23 167.168L188.543 176.749C188.448 178.066 187.293 179.067 185.976 178.972ZM209.171 140.914L208.655 148.099L215.841 148.615L216.357 141.429L209.171 140.914ZM216.781 152.293L207.2 151.606C205.883 151.511 204.882 150.356 204.977 149.039L205.664 139.458C205.759 138.141 206.914 137.14 208.231 137.235L217.812 137.923C219.129 138.017 220.13 139.172 220.035 140.49L219.348 150.07C219.253 151.388 218.098 152.388 216.781 152.293ZM212.666 176.073L213.182 168.888L203.601 168.2L203.258 172.99L208.048 173.334L207.532 180.52L217.113 181.207L217.457 176.417L212.666 176.073ZM209.079 158.963L199.499 158.276L199.155 163.066L208.736 163.754L209.079 158.963ZM199.843 153.485L185.472 152.454L185.128 157.244L189.918 157.588L189.574 162.378L194.365 162.722L194.708 157.932L199.499 158.276L199.843 153.485ZM202.41 151.262L202.754 146.472L197.963 146.128L198.307 141.338L193.517 140.994L192.829 150.574L202.41 151.262ZM185.69 141.034L182.097 140.776L181.839 144.369L185.432 144.627L185.69 141.034ZM183.627 169.776L180.034 169.518L179.776 173.11L183.369 173.368L183.627 169.776ZM214.431 143.097L210.839 142.839L210.581 146.432L214.173 146.69L214.431 143.097Z" fill="white"/>
</svg>
