<svg width="24" height="24" viewBox="0 0 24 24" fill="none" xmlns="http://www.w3.org/2000/svg">
<rect width="24" height="24" fill="#282C37"/>
<path d="M19.9535 8.99805C19.9137 8.09477 19.7676 7.47378 19.5584 6.93568C19.3425 6.3645 19.0104 5.85312 18.5753 5.42801C18.1502 4.99629 17.6355 4.66082 17.0709 4.44833C16.5297 4.23908 15.9119 4.09301 15.0087 4.05319C14.0986 4.00999 13.8097 4 11.5017 4C9.1936 4 8.9047 4.00999 7.99805 4.04981C7.09477 4.08964 6.47378 4.23584 5.93581 4.44496C5.3645 4.66082 4.85312 4.99292 4.42801 5.42801C3.99629 5.85312 3.66095 6.36787 3.44833 6.93243C3.23908 7.47378 3.09301 8.0914 3.05319 8.99467C3.00999 9.90469 3 10.1936 3 12.5017C3 14.8097 3.00999 15.0986 3.04981 16.0053C3.08964 16.9085 3.23584 17.5295 3.44509 18.0676C3.66095 18.6388 3.99629 19.1502 4.42801 19.5753C4.85312 20.007 5.36787 20.3425 5.93244 20.555C6.47378 20.7642 7.0914 20.9103 7.99481 20.9501C8.90133 20.9901 9.19035 20.9999 11.4984 20.9999C13.8065 20.9999 14.0954 20.9901 15.002 20.9501C15.9053 20.9103 16.5263 20.7642 17.0643 20.555C18.2068 20.1133 19.11 19.21 19.5518 18.0676C19.7609 17.5263 19.9071 16.9085 19.9469 16.0053C19.9867 15.0986 19.9967 14.8097 19.9967 12.5017C19.9967 10.1936 19.9933 9.90469 19.9535 8.99805ZM18.4226 15.9389C18.3861 16.7691 18.2466 17.2174 18.1304 17.5163C17.8447 18.2569 17.2569 18.8447 16.5163 19.1304C16.2174 19.2466 15.7659 19.386 14.9389 19.4225C14.0422 19.4624 13.7733 19.4723 11.505 19.4723C9.2368 19.4723 8.9645 19.4624 8.07109 19.4225C7.24084 19.386 6.79251 19.2466 6.49363 19.1304C6.12508 18.9941 5.78961 18.7783 5.51732 18.496C5.23503 18.2203 5.01917 17.8882 4.88296 17.5197C4.76673 17.2208 4.62727 16.7691 4.59082 15.9422C4.55086 15.0456 4.54101 14.7765 4.54101 12.5083C4.54101 10.24 4.55086 9.96774 4.59082 9.07445C4.62727 8.24421 4.76673 7.79588 4.88296 7.497C5.01917 7.12832 5.23503 6.79298 5.52069 6.52056C5.79623 6.23828 6.12832 6.02241 6.497 5.88633C6.79589 5.7701 7.24759 5.63064 8.07446 5.59406C8.97112 5.55424 9.24017 5.54425 11.5083 5.54425C13.7799 5.54425 14.0488 5.55424 14.9422 5.59406C15.7725 5.63064 16.2208 5.7701 16.5197 5.88633C16.8882 6.02241 17.2237 6.23828 17.496 6.52056C17.7783 6.79622 17.9942 7.12832 18.1304 7.497C18.2466 7.79588 18.3861 8.24746 18.4226 9.07445C18.4625 9.97111 18.4724 10.24 18.4724 12.5083C18.4724 14.7765 18.4625 15.0422 18.4226 15.9389Z" fill="white"/>
<path d="M11.5016 8.13477C9.09064 8.13477 7.13452 10.0908 7.13452 12.5018C7.13452 14.9129 9.09064 16.8689 11.5016 16.8689C13.9126 16.8689 15.8686 14.9129 15.8686 12.5018C15.8686 10.0908 13.9126 8.13477 11.5016 8.13477ZM11.5016 15.3346C9.93749 15.3346 8.66878 14.0661 8.66878 12.5018C8.66878 10.9376 9.93749 9.66902 11.5016 9.66902C13.0658 9.66902 14.3344 10.9376 14.3344 12.5018C14.3344 14.0661 13.0658 15.3346 11.5016 15.3346Z" fill="white"/>
<path d="M17.0611 7.96189C17.0611 8.5249 16.6046 8.98141 16.0415 8.98141C15.4785 8.98141 15.022 8.5249 15.022 7.96189C15.022 7.39876 15.4785 6.94238 16.0415 6.94238C16.6046 6.94238 17.0611 7.39876 17.0611 7.96189Z" fill="white"/>
</svg>
