<svg width="35" height="35" viewBox="0 0 35 35" fill="none" xmlns="http://www.w3.org/2000/svg">
<path d="M31.25 0H3.75C1.68 0 0 1.68 0 3.75V31.25C0 33.32 1.68 35 3.75 35H31.25C33.32 35 35 33.32 35 31.25V3.75C35 1.68 33.32 0 31.25 0ZM9.9225 27.5387C9.7153 27.8971 9.37422 28.1585 8.9743 28.2654C8.57438 28.3723 8.14837 28.316 7.79 28.1087C7.43163 27.9015 7.17024 27.5605 7.06334 27.1606C6.95645 26.7606 7.0128 26.3346 7.22 25.9762L8.3375 24.0462C9.595 23.6637 10.6263 23.96 11.4313 24.9362L9.9225 27.5387ZM20.7738 23.3288H6.5625C5.7025 23.3288 5 22.625 5 21.7663C5 20.9075 5.70375 20.2038 6.5625 20.2038H10.5475L15.6562 11.36L14.055 8.595C13.8489 8.23637 13.7932 7.81074 13.9 7.41114C14.0068 7.01155 14.2675 6.67048 14.625 6.4625C14.9836 6.25642 15.4093 6.20069 15.8089 6.3075C16.2085 6.41431 16.5495 6.67497 16.7575 7.0325L17.4525 8.235L18.1475 7.0325C18.2501 6.85505 18.3866 6.69955 18.5493 6.57487C18.712 6.45019 18.8977 6.35877 19.0957 6.30584C19.2937 6.25292 19.5002 6.23951 19.7034 6.26639C19.9066 6.29327 20.1026 6.3599 20.28 6.4625C20.4574 6.5651 20.613 6.70164 20.7376 6.86433C20.8623 7.02702 20.9537 7.21268 21.0067 7.4107C21.0596 7.60872 21.073 7.81523 21.0461 8.01843C21.0192 8.22163 20.9526 8.41755 20.85 8.595L14.1475 20.205H18.9987C20.5763 20.205 21.46 22.0562 20.7725 23.33L20.7738 23.3288ZM28.4375 23.3288H26.1712L27.7025 25.9775C28.1325 26.7275 27.8737 27.6813 27.1325 28.11C26.3825 28.54 25.4287 28.2812 25 27.54C22.43 23.095 20.5075 19.7512 19.2188 17.5325C17.9137 15.2662 18.8438 13.0012 19.7738 12.2362C20.7975 14.01 22.3288 16.6663 24.375 20.205H28.4375C28.8519 20.205 29.2493 20.3696 29.5424 20.6626C29.8354 20.9557 30 21.3531 30 21.7675C30 22.1819 29.8354 22.5793 29.5424 22.8724C29.2493 23.1654 28.8519 23.33 28.4375 23.33V23.3288Z" fill="#2B90D9"/>
</svg>
