<svg width="24" height="24" viewBox="0 0 24 24" fill="none" xmlns="http://www.w3.org/2000/svg">
<rect width="24" height="24" fill="#282C37"/>
<path d="M17.9965 19V18.9994H18V13.6408C18 11.0194 17.4621 9 14.5412 9C13.1371 9 12.1948 9.80847 11.8101 10.5749H11.7695V9.24473H9V18.9994H11.8838V14.1692C11.8838 12.8975 12.1135 11.6677 13.6146 11.6677C15.0936 11.6677 15.1157 13.1191 15.1157 14.2508V19H17.9965Z" fill="white"/>
<path d="M4 10H7V19H4V10Z" fill="white"/>
<path d="M5.5 5C4.67193 5 4 5.6688 4 6.49301C4 7.31722 4.67193 8 5.5 8C6.32807 8 7 7.31722 7 6.49301C6.99948 5.6688 6.32755 5 5.5 5V5Z" fill="white"/>
</svg>
