<svg width="125" height="93" viewBox="0 0 125 93" fill="none" xmlns="http://www.w3.org/2000/svg">
<g clip-path="url(#clip0)">
<path d="M51.0174 5.84807L50.7732 6.81207L45.2588 28.3816C45.0562 29.1744 44.1133 29.5071 43.4579 29.0171L23.0102 13.7286C22.2426 13.1549 22.4736 11.949 23.3988 11.6994L48.8277 4.83844L49.7459 4.59287C50.51 4.38883 51.2116 5.08124 51.0174 5.84807Z" fill="white"/>
<path d="M35.7231 23.213L38.0244 24.9355L31.5889 28.3526L31.3036 19.9072L48.4374 6.98157L35.7231 23.213Z" fill="#2B90D9"/>
<path d="M35.7231 23.213L31.5888 28.3526L38.0244 24.9355L35.7231 23.213Z" fill="#2B90D9"/>
</g>
<circle cx="25.2" cy="34.1604" r="2.3" stroke="white"/>
<circle cx="19.6" cy="39.76" r="2.3" stroke="white"/>
<g clip-path="url(#clip1)">
<path d="M26.8537 47.6177H10.1062C9.57035 47.6183 9.05658 47.8314 8.67765 48.2103C8.29872 48.5893 8.08558 49.103 8.08499 49.6389V81.4014C8.08558 81.9373 8.29872 82.4511 8.67765 82.83C9.05658 83.2089 9.57035 83.4221 10.1062 83.4227H26.8537C27.3896 83.4221 27.9034 83.2089 28.2823 82.83C28.6612 82.4511 28.8744 81.9373 28.875 81.4014V49.6389C28.8744 49.103 28.6612 48.5893 28.2823 48.2103C27.9034 47.8314 27.3896 47.6183 26.8537 47.6177ZM21.2051 48.7727L20.9163 49.9277H16.0437L15.7549 48.7727H21.2051ZM27.72 81.4014C27.7198 81.6311 27.6285 81.8513 27.4661 82.0137C27.3036 82.1762 27.0834 82.2675 26.8537 82.2677H10.1062C9.87655 82.2675 9.65633 82.1762 9.49392 82.0137C9.3315 81.8513 9.24018 81.6311 9.23999 81.4014V49.6389C9.24018 49.4092 9.3315 49.189 9.49392 49.0266C9.65633 48.8642 9.87655 48.7729 10.1062 48.7727H14.5638L15.0323 50.6452C15.0635 50.7702 15.1356 50.8811 15.2371 50.9603C15.3386 51.0396 15.4637 51.0827 15.5925 51.0827H21.3675C21.4963 51.0827 21.6213 51.0396 21.7228 50.9603C21.8243 50.8811 21.8964 50.7702 21.9277 50.6452L22.3962 48.7727H26.8537C27.0834 48.7729 27.3036 48.8642 27.4661 49.0266C27.6285 49.189 27.7198 49.4092 27.72 49.6389V81.4014Z" fill="white"/>
<path d="M20.2125 80.5352H16.7475C16.5943 80.5352 16.4474 80.596 16.3391 80.7043C16.2308 80.8126 16.17 80.9595 16.17 81.1127C16.17 81.2658 16.2308 81.4127 16.3391 81.521C16.4474 81.6293 16.5943 81.6902 16.7475 81.6902H20.2125C20.3656 81.6902 20.5125 81.6293 20.6208 81.521C20.7291 81.4127 20.79 81.2658 20.79 81.1127C20.79 80.9595 20.7291 80.8126 20.6208 80.7043C20.5125 80.596 20.3656 80.5352 20.2125 80.5352Z" fill="white"/>
<path d="M11.55 60.3227C11.7031 60.3227 11.85 60.2619 11.9583 60.1535C12.0666 60.0452 12.1275 59.8984 12.1275 59.7452V59.1677H12.705C12.8581 59.1677 13.005 59.1069 13.1133 58.9985C13.2216 58.8902 13.2825 58.7434 13.2825 58.5902C13.2825 58.437 13.2216 58.2901 13.1133 58.1818C13.005 58.0735 12.8581 58.0127 12.705 58.0127H11.55C11.3968 58.0127 11.2499 58.0735 11.1416 58.1818C11.0333 58.2901 10.9725 58.437 10.9725 58.5902V59.7452C10.9725 59.8984 11.0333 60.0452 11.1416 60.1535C11.2499 60.2619 11.3968 60.3227 11.55 60.3227Z" fill="white"/>
<path d="M12.705 71.8728H12.1275V71.2953C12.1275 71.1421 12.0666 70.9952 11.9583 70.8869C11.85 70.7786 11.7031 70.7178 11.55 70.7178C11.3968 70.7178 11.2499 70.7786 11.1416 70.8869C11.0333 70.9952 10.9725 71.1421 10.9725 71.2953V72.4503C10.9725 72.6034 11.0333 72.7503 11.1416 72.8586C11.2499 72.9669 11.3968 73.0278 11.55 73.0278H12.705C12.8581 73.0278 13.005 72.9669 13.1133 72.8586C13.2216 72.7503 13.2825 72.6034 13.2825 72.4503C13.2825 72.2971 13.2216 72.1502 13.1133 72.0419C13.005 71.9336 12.8581 71.8728 12.705 71.8728Z" fill="white"/>
<path d="M25.41 70.7178C25.2568 70.7178 25.1099 70.7786 25.0016 70.8869C24.8933 70.9952 24.8325 71.1421 24.8325 71.2953V71.8728H24.255C24.1018 71.8728 23.9549 71.9336 23.8466 72.0419C23.7383 72.1502 23.6775 72.2971 23.6775 72.4503C23.6775 72.6034 23.7383 72.7503 23.8466 72.8586C23.9549 72.9669 24.1018 73.0278 24.255 73.0278H25.41C25.5631 73.0278 25.71 72.9669 25.8183 72.8586C25.9266 72.7503 25.9875 72.6034 25.9875 72.4503V71.2953C25.9875 71.1421 25.9266 70.9952 25.8183 70.8869C25.71 70.7786 25.5631 70.7178 25.41 70.7178Z" fill="white"/>
<path d="M25.41 58.0127H24.255C24.1018 58.0127 23.9549 58.0735 23.8466 58.1818C23.7383 58.2901 23.6775 58.437 23.6775 58.5902C23.6775 58.7434 23.7383 58.8902 23.8466 58.9985C23.9549 59.1069 24.1018 59.1677 24.255 59.1677H24.8325V59.7452C24.8325 59.8984 24.8933 60.0452 25.0016 60.1535C25.1099 60.2619 25.2568 60.3227 25.41 60.3227C25.5631 60.3227 25.71 60.2619 25.8183 60.1535C25.9266 60.0452 25.9875 59.8984 25.9875 59.7452V58.5902C25.9875 58.437 25.9266 58.2901 25.8183 58.1818C25.71 58.0735 25.5631 58.0127 25.41 58.0127Z" fill="white"/>
<path d="M12.705 60.3226V63.7876C12.705 63.9408 12.7658 64.0877 12.8741 64.196C12.9824 64.3043 13.1293 64.3651 13.2825 64.3651H16.7475C16.9007 64.3651 17.0475 64.3043 17.1558 64.196C17.2642 64.0877 17.325 63.9408 17.325 63.7876V60.3226C17.325 60.1695 17.2642 60.0226 17.1558 59.9143C17.0475 59.806 16.9007 59.7451 16.7475 59.7451H13.2825C13.1293 59.7451 12.9824 59.806 12.8741 59.9143C12.7658 60.0226 12.705 60.1695 12.705 60.3226ZM13.86 60.9001H16.17V63.2101H13.86V60.9001Z" fill="white"/>
<path d="M17.325 70.7178V67.2528C17.325 67.0996 17.2642 66.9527 17.1558 66.8444C17.0475 66.7361 16.9007 66.6753 16.7475 66.6753H13.2825C13.1293 66.6753 12.9824 66.7361 12.8741 66.8444C12.7658 66.9527 12.705 67.0996 12.705 67.2528V70.7178C12.705 70.871 12.7658 71.0178 12.8741 71.1261C12.9824 71.2344 13.1293 71.2953 13.2825 71.2953H16.7475C16.9007 71.2953 17.0475 71.2344 17.1558 71.1261C17.2642 71.0178 17.325 70.871 17.325 70.7178ZM16.17 70.1403H13.86V67.8303H16.17V70.1403Z" fill="white"/>
<path d="M20.2125 64.3651H23.6775C23.8306 64.3651 23.9775 64.3043 24.0858 64.196C24.1941 64.0877 24.255 63.9408 24.255 63.7876V60.3226C24.255 60.1695 24.1941 60.0226 24.0858 59.9143C23.9775 59.806 23.8306 59.7451 23.6775 59.7451H20.2125C20.0593 59.7451 19.9124 59.806 19.8041 59.9143C19.6958 60.0226 19.635 60.1695 19.635 60.3226V63.7876C19.635 63.9408 19.6958 64.0877 19.8041 64.196C19.9124 64.3043 20.0593 64.3651 20.2125 64.3651ZM20.79 60.9001H23.1V63.2101H20.79V60.9001Z" fill="white"/>
<path d="M24.255 70.7177V68.9852C24.255 68.8321 24.1941 68.6852 24.0858 68.5769C23.9775 68.4686 23.8306 68.4077 23.6775 68.4077H21.945C21.7918 68.4077 21.6449 68.4686 21.5366 68.5769C21.4283 68.6852 21.3675 68.8321 21.3675 68.9852V70.7177C21.3675 70.8709 21.4283 71.0178 21.5366 71.1261C21.6449 71.2344 21.7918 71.2952 21.945 71.2952H23.6775C23.8306 71.2952 23.9775 71.2344 24.0858 71.1261C24.1941 71.0178 24.255 70.8709 24.255 70.7177ZM23.1 70.1402H22.5225V69.5627H23.1V70.1402Z" fill="white"/>
<path d="M20.2125 67.8299H21.945C22.0981 67.8299 22.245 67.769 22.3533 67.6607C22.4616 67.5524 22.5225 67.4055 22.5225 67.2524V65.5199C22.5225 65.3667 22.4616 65.2198 22.3533 65.1115C22.245 65.0032 22.0981 64.9424 21.945 64.9424H20.2125C20.0593 64.9424 19.9124 65.0032 19.8041 65.1115C19.6958 65.2198 19.635 65.3667 19.635 65.5199V67.2524C19.635 67.4055 19.6958 67.5524 19.8041 67.6607C19.9124 67.769 20.0593 67.8299 20.2125 67.8299ZM20.79 66.0974H21.3675V66.6749H20.79V66.0974Z" fill="white"/>
<path d="M18.48 71.2949C18.6332 71.2949 18.78 71.234 18.8884 71.1257C18.9967 71.0174 19.0575 70.8705 19.0575 70.7174V65.5199C19.0575 65.3667 18.9967 65.2198 18.8884 65.1115C18.78 65.0032 18.6332 64.9424 18.48 64.9424H15.5925C15.4393 64.9424 15.2924 65.0032 15.1841 65.1115C15.0758 65.2198 15.015 65.3667 15.015 65.5199C15.015 65.673 15.0758 65.8199 15.1841 65.9282C15.2924 66.0365 15.4393 66.0974 15.5925 66.0974H17.9025V70.7174C17.9025 70.8705 17.9633 71.0174 18.0716 71.1257C18.1799 71.234 18.3268 71.2949 18.48 71.2949Z" fill="white"/>
<path d="M18.48 61.4776C18.6332 61.4776 18.78 61.4168 18.8883 61.3085C18.9966 61.2002 19.0575 61.0533 19.0575 60.9001V60.3226C19.0575 60.1695 18.9966 60.0226 18.8883 59.9143C18.78 59.806 18.6332 59.7451 18.48 59.7451C18.3268 59.7451 18.1799 59.806 18.0716 59.9143C17.9633 60.0226 17.9025 60.1695 17.9025 60.3226V60.9001C17.9025 61.0533 17.9633 61.2002 18.0716 61.3085C18.1799 61.4168 18.3268 61.4776 18.48 61.4776Z" fill="white"/>
<path d="M18.48 64.3652C18.6332 64.3652 18.78 64.3043 18.8883 64.196C18.9966 64.0877 19.0575 63.9408 19.0575 63.7877V62.6327C19.0575 62.4795 18.9966 62.3326 18.8883 62.2243C18.78 62.116 18.6332 62.0552 18.48 62.0552C18.3268 62.0552 18.1799 62.116 18.0716 62.2243C17.9633 62.3326 17.9025 62.4795 17.9025 62.6327V63.7877C17.9025 63.9408 17.9633 64.0877 18.0716 64.196C18.1799 64.3043 18.3268 64.3652 18.48 64.3652Z" fill="white"/>
<path d="M20.2125 68.4077C20.0593 68.4077 19.9124 68.4686 19.8041 68.5769C19.6958 68.6852 19.635 68.8321 19.635 68.9852V70.7177C19.635 70.8709 19.6958 71.0178 19.8041 71.1261C19.9124 71.2344 20.0593 71.2952 20.2125 71.2952C20.3656 71.2952 20.5125 71.2344 20.6208 71.1261C20.7291 71.0178 20.79 70.8709 20.79 70.7177V68.9852C20.79 68.8321 20.7291 68.6852 20.6208 68.5769C20.5125 68.4686 20.3656 68.4077 20.2125 68.4077Z" fill="white"/>
<path d="M13.2825 64.9424C13.1293 64.9424 12.9824 65.0032 12.8741 65.1115C12.7658 65.2198 12.705 65.3667 12.705 65.5199C12.705 65.673 12.7658 65.8199 12.8741 65.9282C12.9824 66.0365 13.1293 66.0974 13.2825 66.0974H13.86C14.0132 66.0974 14.16 66.0365 14.2683 65.9282C14.3767 65.8199 14.4375 65.673 14.4375 65.5199C14.4375 65.3667 14.3767 65.2198 14.2683 65.1115C14.16 65.0032 14.0132 64.9424 13.86 64.9424H13.2825Z" fill="white"/>
<path d="M23.6775 64.9424C23.5243 64.9424 23.3774 65.0032 23.2691 65.1115C23.1608 65.2198 23.1 65.3667 23.1 65.5199V67.2524C23.1 67.4055 23.1608 67.5524 23.2691 67.6607C23.3774 67.769 23.5243 67.8299 23.6775 67.8299C23.8306 67.8299 23.9775 67.769 24.0858 67.6607C24.1941 67.5524 24.255 67.4055 24.255 67.2524V65.5199C24.255 65.3667 24.1941 65.2198 24.0858 65.1115C23.9775 65.0032 23.8306 64.9424 23.6775 64.9424Z" fill="white"/>
</g>
<path d="M45.7284 82.6702C42.6846 82.6702 40.1574 81.637 38.1468 79.5706C36.1642 77.4483 35.1728 74.8373 35.1728 71.7377C35.1728 68.5822 36.1642 65.9712 38.1468 63.9048C40.1574 61.8384 42.6846 60.8052 45.7284 60.8052C47.8227 60.8052 49.6518 61.3357 51.2156 62.3969C52.7793 63.4301 53.9522 64.8682 54.7341 66.7112L51.2156 68.1773C50.1265 65.6082 48.2137 64.3237 45.477 64.3237C43.7178 64.3237 42.1959 65.0358 40.9114 66.4599C39.6547 67.8841 39.0264 69.6433 39.0264 71.7377C39.0264 73.832 39.6547 75.5913 40.9114 77.0154C42.1959 78.4396 43.7178 79.1517 45.477 79.1517C48.2974 79.1517 50.2801 77.8671 51.425 75.2981L54.8597 76.7641C54.1058 78.6072 52.919 80.0592 51.2993 81.1204C49.7076 82.1536 47.8506 82.6702 45.7284 82.6702ZM57.6904 71.7377C57.6904 68.5822 58.6817 65.9712 60.6643 63.9048C62.6749 61.8384 65.2021 60.8052 68.2459 60.8052C71.2897 60.8052 73.8029 61.8384 75.7856 63.9048C77.7961 65.9712 78.8014 68.5822 78.8014 71.7377C78.8014 74.9211 77.7961 77.5321 75.7856 79.5706C73.8029 81.637 71.2897 82.6702 68.2459 82.6702C65.2021 82.6702 62.6749 81.637 60.6643 79.5706C58.6817 77.5041 57.6904 74.8932 57.6904 71.7377ZM61.544 71.7377C61.544 73.9437 62.1862 75.7309 63.4708 77.0992C64.7553 78.4675 66.347 79.1517 68.2459 79.1517C70.1448 79.1517 71.7365 78.4675 73.021 77.0992C74.3056 75.7309 74.9478 73.9437 74.9478 71.7377C74.9478 69.5596 74.3056 67.7863 73.021 66.418C71.7086 65.0218 70.1168 64.3237 68.2459 64.3237C66.3749 64.3237 64.7832 65.0218 63.4708 66.418C62.1862 67.7863 61.544 69.5596 61.544 71.7377ZM92.3548 79.1517C94.2537 79.1517 95.8035 78.4675 97.0043 77.0992C98.2609 75.7309 98.8892 73.9437 98.8892 71.7377C98.8892 69.5875 98.2609 67.8143 97.0043 66.418C95.7756 65.0218 94.2258 64.3237 92.3548 64.3237C90.5118 64.3237 88.962 65.0218 87.7054 66.418C86.4487 67.8143 85.8204 69.5875 85.8204 71.7377C85.8204 73.9158 86.4487 75.689 87.7054 77.0573C88.962 78.4536 90.5118 79.1517 92.3548 79.1517ZM91.7265 82.6702C89.0457 82.6702 86.742 81.6091 84.8152 79.4868C82.9163 77.3366 81.9668 74.7535 81.9668 71.7377C81.9668 68.7218 82.9163 66.1388 84.8152 63.9886C86.742 61.8663 89.0457 60.8052 91.7265 60.8052C93.2344 60.8052 94.6027 61.1263 95.8314 61.7686C97.088 62.4108 98.0514 63.2625 98.7216 64.3237H98.8892L98.7216 61.4754V52.0089H102.575V82H98.8892V79.1517H98.7216C98.0514 80.2128 97.088 81.0645 95.8314 81.7068C94.6027 82.3491 93.2344 82.6702 91.7265 82.6702ZM123.615 76.3034C123.615 78.0905 122.833 79.5985 121.269 80.8272C119.705 82.0558 117.736 82.6702 115.363 82.6702C113.296 82.6702 111.481 82.1396 109.918 81.0785C108.354 79.9894 107.237 78.5653 106.567 76.806L110.001 75.34C110.504 76.5687 111.23 77.5321 112.179 78.2302C113.157 78.9004 114.218 79.2355 115.363 79.2355C116.592 79.2355 117.611 78.9702 118.421 78.4396C119.258 77.909 119.677 77.2807 119.677 76.5547C119.677 75.2422 118.672 74.2788 116.661 73.6645L113.143 72.7849C109.15 71.7796 107.153 69.8528 107.153 67.0045C107.153 65.1335 107.907 63.6395 109.415 62.5225C110.951 61.3776 112.906 60.8052 115.279 60.8052C117.094 60.8052 118.728 61.238 120.18 62.1037C121.66 62.9693 122.693 64.1282 123.28 65.5803L119.845 67.0045C119.454 66.1388 118.812 65.4686 117.918 64.9939C117.052 64.4912 116.075 64.2399 114.986 64.2399C113.981 64.2399 113.073 64.4912 112.263 64.9939C111.481 65.4965 111.09 66.1109 111.09 66.8369C111.09 68.0097 112.193 68.8475 114.399 69.3501L117.499 70.146C121.576 71.1513 123.615 73.2037 123.615 76.3034Z" fill="white"/>
<defs>
<clipPath id="clip0">
<rect width="26.88" height="26.88" fill="white" transform="translate(24.7536) rotate(9.83954)"/>
</clipPath>
<clipPath id="clip1">
<rect width="36.96" height="36.96" fill="white" transform="translate(0 47.04)"/>
</clipPath>
</defs>
</svg>
