<svg width="22" height="19" viewBox="0 0 22 19" fill="none" xmlns="http://www.w3.org/2000/svg">
<path d="M7.07143 0C6.44628 0 5.84673 0.248341 5.40468 0.690391C4.96263 1.13244 4.71429 1.73199 4.71429 2.35714V3.14286H3.14286C2.30932 3.14286 1.50992 3.47398 0.920522 4.06338C0.331122 4.65278 0 5.45218 0 6.28571V13.3571C0 13.9823 0.248341 14.5818 0.690391 15.0239C1.13244 15.4659 1.73199 15.7143 2.35714 15.7143H4.71429V16.5C4.71429 17.1252 4.96263 17.7247 5.40468 18.1668C5.84673 18.6088 6.44628 18.8571 7.07143 18.8571H15.0857C15.7109 18.8571 16.3104 18.6088 16.7525 18.1668C17.1945 17.7247 17.4429 17.1252 17.4429 16.5V15.7143H19.6429C20.268 15.7143 20.8676 15.4659 21.3096 15.0239C21.7517 14.5818 22 13.9823 22 13.3571V6.28571C22 5.45218 21.6689 4.65278 21.0795 4.06338C20.4901 3.47398 19.6907 3.14286 18.8571 3.14286H17.2857V2.35714C17.2857 1.73199 17.0374 1.13244 16.5953 0.690391C16.1533 0.248341 15.5537 0 14.9286 0H7.07143ZM15.7143 3.14286H6.28571V2.35714C6.28571 2.14876 6.36849 1.94891 6.51584 1.80156C6.66319 1.65421 6.86304 1.57143 7.07143 1.57143H14.9286C15.137 1.57143 15.3368 1.65421 15.4842 1.80156C15.6315 1.94891 15.7143 2.14876 15.7143 2.35714V3.14286ZM7.07143 12.5714H15.0857C15.2941 12.5714 15.4939 12.6542 15.6413 12.8016C15.7886 12.9489 15.8714 13.1488 15.8714 13.3571V16.5C15.8714 16.7084 15.7886 16.9082 15.6413 17.0556C15.4939 17.2029 15.2941 17.2857 15.0857 17.2857H7.07143C6.86304 17.2857 6.66319 17.2029 6.51584 17.0556C6.36849 16.9082 6.28571 16.7084 6.28571 16.5V13.3571C6.28571 13.1488 6.36849 12.9489 6.51584 12.8016C6.66319 12.6542 6.86304 12.5714 7.07143 12.5714Z" fill="black" fill-opacity="0.87"/>
</svg>
