<svg width="18" height="15" viewBox="0 0 18 15" fill="none" xmlns="http://www.w3.org/2000/svg">
<path d="M6.05357 0.25C5.58471 0.25 5.13505 0.436256 4.80351 0.767793C4.47197 1.09933 4.28571 1.54899 4.28571 2.01786V2.60714H3.10714C2.48199 2.60714 1.88244 2.85548 1.44039 3.29753C0.998341 3.73958 0.75 4.33913 0.75 4.96429V10.2679C0.75 10.7367 0.936256 11.1864 1.26779 11.5179C1.59933 11.8495 2.04899 12.0357 2.51786 12.0357H4.28571V12.625C4.28571 13.0939 4.47197 13.5435 4.80351 13.8751C5.13505 14.2066 5.58471 14.3929 6.05357 14.3929H12.0643C12.5332 14.3929 12.9828 14.2066 13.3143 13.8751C13.6459 13.5435 13.8321 13.0939 13.8321 12.625V12.0357H15.4821C15.951 12.0357 16.4007 11.8495 16.7322 11.5179C17.0637 11.1864 17.25 10.7367 17.25 10.2679V4.96429C17.25 4.33913 17.0017 3.73958 16.5596 3.29753C16.1176 2.85548 15.518 2.60714 14.8929 2.60714H13.7143V2.01786C13.7143 1.54899 13.528 1.09933 13.1965 0.767793C12.865 0.436256 12.4153 0.25 11.9464 0.25H6.05357ZM12.5357 2.60714H5.46429V2.01786C5.46429 1.86157 5.52637 1.71168 5.63688 1.60117C5.7474 1.49066 5.89728 1.42857 6.05357 1.42857H11.9464C12.1027 1.42857 12.2526 1.49066 12.3631 1.60117C12.4736 1.71168 12.5357 1.86157 12.5357 2.01786V2.60714ZM6.05357 9.67857H12.0643C12.2206 9.67857 12.3705 9.74066 12.481 9.85117C12.5915 9.96168 12.6536 10.1116 12.6536 10.2679V12.625C12.6536 12.7813 12.5915 12.9312 12.481 13.0417C12.3705 13.1522 12.2206 13.2143 12.0643 13.2143H6.05357C5.89728 13.2143 5.7474 13.1522 5.63688 13.0417C5.52637 12.9312 5.46429 12.7813 5.46429 12.625V10.2679C5.46429 10.1116 5.52637 9.96168 5.63688 9.85117C5.7474 9.74066 5.89728 9.67857 6.05357 9.67857Z" fill="white"/>
</svg>
