<svg width="404" height="338" viewBox="0 0 404 338" fill="none" xmlns="http://www.w3.org/2000/svg">
<path d="M192.982 283.161C299.563 283.161 385.964 295.273 385.964 310.214C385.964 325.156 299.563 337.268 192.982 337.268C86.401 337.268 0 325.156 0 310.214C0 295.273 86.401 283.161 192.982 283.161Z" fill="url(#paint0_linear)" fill-opacity="0.7"/>
<g clip-path="url(#clip0)">
<path d="M264.239 60.8554V37.019C256.868 35.3184 249.929 32.0977 243.862 27.5612C237.795 23.0246 232.732 17.2711 228.996 10.6655L228.995 10.666C227.202 12.0012 225.029 12.7199 222.797 12.7151H203.955C208.983 25.3032 217.185 36.3606 227.754 44.8009C238.323 53.2412 250.897 58.7739 264.239 60.8554Z" fill="#E6E6E6"/>
<path d="M264.24 35.6529V12.7545C264.24 11.0794 263.912 9.42062 263.274 7.87295C262.637 6.32527 261.701 4.91903 260.522 3.73456C259.343 2.5501 257.943 1.61063 256.403 0.969836C254.862 0.329045 253.211 -0.000510274 251.543 5.93039e-07H233.25V2.21113C233.252 3.62928 232.967 5.03304 232.413 6.33728C231.858 7.64153 231.046 8.81908 230.025 9.79851C233.639 16.2497 238.546 21.878 244.435 26.3281C250.324 30.7781 257.068 33.9532 264.24 35.6529Z" fill="#E6E6E6"/>
<path d="M176.243 12.7151H164.461C161.688 12.7143 159.03 11.6072 157.069 9.63737C155.109 7.66755 154.008 4.9963 154.009 2.21113V4.62347e-08H136.844C135.177 -0.000142573 133.526 0.329665 131.985 0.970587C130.445 1.61151 129.045 2.55099 127.866 3.73538C126.687 4.91978 125.752 6.32587 125.114 7.87338C124.476 9.42089 124.147 11.0795 124.147 12.7545V296.567C124.146 298.242 124.473 299.901 125.111 301.448C125.748 302.996 126.683 304.402 127.863 305.586C129.042 306.77 130.443 307.709 131.984 308.348C133.525 308.988 135.177 309.315 136.844 309.312H251.543C252.066 309.314 252.588 309.282 253.108 309.216C256.178 308.832 259.004 307.334 261.054 305.005C263.103 302.676 264.236 299.676 264.24 296.567V87.6385C222.523 82.7827 187.763 52.8826 176.243 12.7151Z" fill="#E6E6E6"/>
<path d="M202.526 12.7151H177.621C189.084 52.1383 223.247 81.4692 264.24 86.3031V62.2127C250.541 60.1087 237.632 54.4299 226.802 45.7439C215.972 37.0579 207.602 25.669 202.526 12.7151Z" fill="#E6E6E6"/>
<path d="M194.263 298.886C206.214 298.886 215.903 289.161 215.903 277.165C215.903 265.168 206.214 255.443 194.263 255.443C182.311 255.443 172.622 265.168 172.622 277.165C172.622 289.161 182.311 298.886 194.263 298.886Z" fill="#2B90D9"/>
<path d="M194.262 295.411C204.302 295.411 212.44 287.242 212.44 277.165C212.44 267.088 204.302 258.919 194.262 258.919C184.223 258.919 176.084 267.088 176.084 277.165C176.084 287.242 184.223 295.411 194.262 295.411Z" stroke="white"/>
<path d="M248.796 251.887V169.798C248.797 169.008 249.106 168.252 249.654 167.693C250.202 167.135 250.945 166.821 251.72 166.82H351.132C351.907 166.821 352.65 167.135 353.198 167.693C353.746 168.252 354.055 169.008 354.056 169.798V251.887C354.055 252.676 353.746 253.433 353.198 253.991C352.65 254.549 351.907 254.863 351.132 254.864H251.72C250.945 254.863 250.202 254.549 249.654 253.991C249.106 253.433 248.797 252.676 248.796 251.887Z" fill="url(#paint1_linear)"/>
<path d="M289.73 237.256H342.164C342.23 237.256 342.295 237.251 342.36 237.239L317.561 191.243C317.41 190.956 317.19 190.718 316.925 190.552C316.659 190.386 316.357 190.299 316.05 190.299C315.743 190.299 315.441 190.386 315.175 190.552C314.91 190.718 314.69 190.956 314.539 191.243L297.896 222.11L297.098 223.587L289.73 237.256Z" fill="white"/>
<path d="M260.492 237.255H307.274L298.208 222.843L297.556 221.805L285.743 203.023C284.968 201.792 283.105 201.715 282.195 202.791C282.133 202.864 282.077 202.941 282.024 203.023L260.492 237.255Z" fill="white"/>
<path d="M298.502 202.038C303.347 202.038 307.274 198.096 307.274 193.234C307.274 188.371 303.347 184.429 298.502 184.429C293.658 184.429 289.73 188.371 289.73 193.234C289.73 198.096 293.658 202.038 298.502 202.038Z" fill="white"/>
</g>
<path d="M404 123.545H342.679V157.813H404V123.545Z" fill="url(#paint2_linear)"/>
<path d="M381.455 140.679L367.929 131.661V149.696L381.455 140.679L367.929 131.661V149.696L381.455 140.679Z" fill="white"/>
<path d="M359.362 86.2396C361.36 86.2312 363.274 85.3973 364.686 83.9201C366.098 82.4429 366.892 80.4423 366.896 78.3553V61.0737C366.896 58.9869 366.103 56.9855 364.69 55.5099C363.276 54.0343 361.36 53.2053 359.362 53.2053C357.363 53.2053 355.447 54.0343 354.034 55.5099C352.621 56.9855 351.827 58.9869 351.827 61.0737V78.3553C351.831 80.4423 352.626 82.4429 354.037 83.9201C355.449 85.3973 357.363 86.2312 359.362 86.2396ZM372.676 77.5848C372.676 85.4692 366.269 90.9902 359.362 90.9902C352.454 90.9902 346.047 85.4652 346.047 77.5848H341.777C341.777 86.5231 348.558 94.0162 356.85 95.1978V104.607H361.873V95.1938C370.165 93.8804 376.946 86.5191 376.946 77.5848H372.676Z" fill="url(#paint3_linear)"/>
<path d="M142.817 99.9078C142.477 99.9078 142.193 99.6694 142.125 99.3506C141.436 99.716 140.786 99.9078 140.169 99.9078C138.703 99.9078 137.568 98.8682 137.568 97.3078C137.568 96.6213 137.806 96.0164 138.244 95.5602C138.682 95.1051 139.31 94.8055 140.083 94.7113C140.756 94.632 141.438 94.6716 142.098 94.8282C142.068 94.5297 141.974 94.3164 141.821 94.1677C141.634 93.9862 141.338 93.8772 140.89 93.8545C140.172 93.8193 139.7 93.9226 139.44 94.1042C139.364 94.1596 139.277 94.1992 139.186 94.2209C139.094 94.2425 138.999 94.2457 138.906 94.2302C138.813 94.2148 138.724 94.181 138.645 94.1308C138.565 94.0807 138.496 94.0151 138.442 93.9381C138.388 93.861 138.35 93.7739 138.33 93.682C138.309 93.59 138.308 93.4949 138.325 93.4023C138.342 93.3097 138.377 93.2214 138.429 93.1426C138.48 93.0638 138.547 92.996 138.625 92.9432C139.157 92.571 139.869 92.4144 140.739 92.4303H140.741L140.96 92.4382C141.728 92.4757 142.355 92.7174 142.799 93.1407C143.244 93.564 143.491 94.1587 143.523 94.877V94.8793L143.526 95.0382V99.1985C143.526 99.37 143.465 99.5359 143.352 99.6652C143.239 99.7946 143.083 99.8788 142.913 99.9021H142.903L142.817 99.9078ZM140.255 96.148C139.809 96.2014 139.494 96.3444 139.291 96.5452C139.09 96.7416 138.987 97.0071 138.987 97.3351C138.987 97.7187 139.111 98.0103 139.311 98.2066C139.513 98.403 139.806 98.5164 140.169 98.5164C140.643 98.5164 141.249 98.2963 141.983 97.8128L142.108 97.7266V96.3273L141.981 96.2899C141.42 96.1301 140.834 96.0823 140.255 96.1492V96.148Z" fill="#2B90D9"/>
<path d="M150.412 86.9581C150.355 86.7929 150.248 86.6493 150.107 86.547C149.965 86.4446 149.795 86.3883 149.62 86.3858C149.445 86.3833 149.274 86.4348 149.13 86.5331C148.985 86.6314 148.874 86.7719 148.812 86.9354L144.291 98.8512C144.248 98.9564 144.227 99.069 144.228 99.1825C144.229 99.2961 144.253 99.4082 144.299 99.5123C144.344 99.6164 144.41 99.7104 144.492 99.7888C144.574 99.8671 144.671 99.9282 144.777 99.9685C144.883 100.009 144.996 100.027 145.11 100.023C145.223 100.019 145.335 99.9924 145.438 99.9446C145.541 99.8967 145.633 99.8288 145.709 99.7447C145.786 99.6606 145.844 99.5621 145.882 99.455L146.858 96.8834H152.062L152.948 99.4323C152.984 99.5379 153.041 99.6353 153.116 99.7189C153.19 99.8025 153.28 99.8706 153.381 99.9194C153.481 99.9682 153.591 99.9967 153.702 100.003C153.814 100.01 153.926 99.9944 154.031 99.9577C154.137 99.921 154.235 99.8639 154.318 99.7896C154.402 99.7153 154.47 99.6253 154.519 99.5246C154.567 99.424 154.596 99.3147 154.602 99.2031C154.609 99.0914 154.594 98.9796 154.557 98.8739L150.412 86.9581ZM151.47 95.1811H147.504L149.573 89.7282L151.471 95.1811H151.47Z" fill="#2B90D9"/>
<path fill-rule="evenodd" clip-rule="evenodd" d="M146.089 126.094L150.536 125.096C151.621 124.853 152.402 123.784 152.402 122.543C152.402 120.899 151.062 119.667 149.625 119.989L146.414 120.71C145.308 120.958 144.511 122.048 144.511 123.314V130.463C144.047 130.162 143.508 129.989 142.933 129.989C141.19 129.989 139.777 131.575 139.777 133.53C139.777 135.486 141.19 137.071 142.933 137.071C144.676 137.071 146.089 135.486 146.089 133.53V126.094ZM149.935 121.725L146.724 122.446C146.355 122.528 146.089 122.892 146.089 123.314V124.288L150.226 123.36C150.574 123.282 150.824 122.94 150.824 122.543C150.824 122.017 150.395 121.622 149.935 121.725ZM144.511 133.53C144.511 132.552 143.805 131.76 142.933 131.76C142.062 131.76 141.355 132.552 141.355 133.53C141.355 134.508 142.062 135.301 142.933 135.301C143.805 135.301 144.511 134.508 144.511 133.53Z" fill="#2B90D9"/>
<path d="M143.993 158.086L145.226 159.589L145.229 159.584L146.089 160.632L146.093 160.636L147.349 162.167C148.505 163.575 150.379 163.575 151.535 162.167C152.691 160.758 152.691 158.474 151.535 157.066C150.379 155.657 148.505 155.657 147.349 157.066L146.927 157.58L147.764 158.6L148.186 158.086C148.88 157.241 150.004 157.241 150.698 158.086C151.391 158.931 151.391 160.301 150.698 161.147C150.004 161.992 148.88 161.992 148.186 161.147L146.959 159.652L146.956 159.656L144.83 157.066C143.674 155.657 141.8 155.657 140.644 157.066C139.488 158.474 139.488 160.758 140.644 162.167C141.8 163.575 143.674 163.575 144.83 162.167L145.252 161.652L144.415 160.632L143.993 161.147C143.299 161.992 142.175 161.992 141.481 161.147C140.787 160.301 140.787 158.931 141.481 158.086C142.175 157.241 143.299 157.241 143.993 158.086Z" fill="#2B90D9"/>
<path d="M141.761 182.161L140.679 182.912L146.089 186.67L151.5 182.912L150.418 182.161L146.089 185.167L141.761 182.161Z" fill="#2B90D9"/>
<g clip-path="url(#clip1)">
<g clip-path="url(#clip2)">
<path d="M252.068 24.0475L258.775 17.9961L255.224 15.8603L256.802 10.5208L250.095 16.5722L253.646 18.708L252.068 24.0475Z" fill="#2B90D9"/>
</g>
</g>
<path d="M354.066 18.4261L354.084 18.4231L351.493 3.60718L337.166 8.05919L339.309 21.3109C338.571 20.8544 337.691 20.6694 336.826 20.7891C335.961 20.9088 335.168 21.3254 334.588 21.9644C334.009 22.6035 333.68 23.4233 333.661 24.2774C333.643 25.1316 333.935 25.9644 334.486 26.6271C335.038 27.2898 335.812 27.7392 336.671 27.895C337.53 28.0508 338.417 27.9029 339.174 27.4776C339.932 27.0523 340.51 26.3775 340.806 25.5736C341.102 24.7697 341.096 23.8891 340.789 23.0892L340.802 23.0872L338.501 8.86573L350.55 5.12166L352.598 16.8337C351.842 16.3964 350.951 16.2384 350.086 16.3884C349.222 16.5385 348.44 16.9866 347.884 17.6515C347.328 18.3165 347.034 19.1543 347.055 20.0131C347.076 20.8719 347.411 21.6949 348 22.3329C348.588 22.971 349.39 23.3818 350.261 23.4909C351.132 23.6001 352.015 23.4004 352.748 22.928C353.482 22.4556 354.018 21.7417 354.26 20.9158C354.502 20.09 354.433 19.2067 354.066 18.4261Z" fill="#2B90D9"/>
<path d="M373.167 34.5139L373.177 34.5125L371.427 24.3481L370.563 24.4738L372.08 33.2856C371.537 32.9703 370.89 32.8426 370.255 32.9253C369.619 33.008 369.037 33.2957 368.611 33.7371C368.185 34.1784 367.943 34.7447 367.929 35.3346C367.916 35.9246 368.13 36.4998 368.536 36.9575C368.941 37.4152 369.51 37.7256 370.141 37.8332C370.772 37.9408 371.424 37.8386 371.981 37.5449C372.537 37.2512 372.962 36.7851 373.18 36.2298C373.397 35.6746 373.392 35.0664 373.167 34.5139Z" fill="#2B90D9"/>
<path d="M385.964 21.2612C385.966 20.7467 385.8 20.2465 385.495 19.8393C385.189 19.432 384.76 19.1409 384.276 19.0117C383.792 18.8826 383.279 18.9228 382.82 19.1259C382.36 19.329 381.979 19.6836 381.737 20.1338C381.495 20.584 381.405 21.1042 381.482 21.6126C381.559 22.1209 381.799 22.5884 382.162 22.9416C382.526 23.2947 382.994 23.5134 383.492 23.5632C383.99 23.6129 384.49 23.491 384.913 23.2165L383.647 31.4452L384.368 31.5625L385.829 22.0708L385.82 22.0695C385.915 21.8111 385.964 21.5373 385.964 21.2612Z" fill="#2B90D9"/>
<defs>
<linearGradient id="paint0_linear" x1="0.00434833" y1="310.216" x2="385.947" y2="310.216" gradientUnits="userSpaceOnUse">
<stop stop-color="#2B90D9"/>
<stop offset="1" stop-color="#58CAEA"/>
</linearGradient>
<linearGradient id="paint1_linear" x1="248.798" y1="210.84" x2="354.051" y2="210.84" gradientUnits="userSpaceOnUse">
<stop stop-color="#2B90D9"/>
<stop offset="1" stop-color="#58CAEA"/>
</linearGradient>
<linearGradient id="paint2_linear" x1="342.679" y1="140.678" x2="403.997" y2="140.678" gradientUnits="userSpaceOnUse">
<stop stop-color="#2B90D9"/>
<stop offset="1" stop-color="#58CAEA"/>
</linearGradient>
<linearGradient id="paint3_linear" x1="341.777" y1="78.905" x2="376.945" y2="78.905" gradientUnits="userSpaceOnUse">
<stop stop-color="#2B90D9"/>
<stop offset="1" stop-color="#58CAEA"/>
</linearGradient>
<clipPath id="clip0">
<rect width="323.741" height="309.312" fill="white" transform="translate(30.6606)"/>
</clipPath>
<clipPath id="clip1">
<rect width="12.625" height="14.4286" fill="white" transform="translate(247.991 9.91968)"/>
</clipPath>
<clipPath id="clip2">
<rect width="12.625" height="14.4286" fill="white" transform="translate(247.991 9.91968)"/>
</clipPath>
</defs>
</svg>
