<svg width="416" height="367" viewBox="0 0 416 367" fill="none" xmlns="http://www.w3.org/2000/svg">
<path d="M92.1319 11.3823L53.7684 86.5228H61.5131V147.797H22.4847L0 191.837L278.599 335.275L370.731 154.82L92.1319 11.3823Z" fill="#F2F2F2"/>
<path d="M55.702 95.2764H9.21191V141.962H55.702V95.2764Z" fill="#3F3D56"/>
<path d="M208.771 136.126H208.973V133.208H208.631L208.431 129.059C208.409 128.597 208.205 128.164 207.864 127.853C207.524 127.543 207.074 127.381 206.615 127.403L191.128 128.155C190.901 128.166 190.678 128.222 190.472 128.32C190.266 128.417 190.081 128.555 189.928 128.724C189.775 128.893 189.656 129.091 189.579 129.307C189.502 129.522 189.469 129.75 189.48 129.979L191.019 161.964C191.042 162.426 191.245 162.859 191.586 163.17C191.927 163.48 192.376 163.642 192.835 163.62L208.322 162.868C208.55 162.857 208.773 162.801 208.979 162.703C209.185 162.606 209.369 162.468 209.522 162.299C209.676 162.13 209.794 161.932 209.871 161.716C209.948 161.501 209.982 161.273 209.971 161.044L208.771 136.126Z" fill="#2F2E41"/>
<path d="M199.96 144.749C202.053 144.648 203.675 143 203.582 141.069C203.489 139.138 201.717 137.655 199.623 137.756C197.53 137.858 195.908 139.506 196.001 141.437C196.094 143.368 197.867 144.851 199.96 144.749Z" fill="#00B0FF"/>
<path d="M280.888 346.94C355.508 346.94 416 341.388 416 334.539C416 327.69 355.508 322.138 280.888 322.138C206.268 322.138 145.776 327.69 145.776 334.539C145.776 341.388 206.268 346.94 280.888 346.94Z" fill="url(#paint0_linear)" fill-opacity="0.7"/>
<path d="M164.238 313.634C167.652 326.308 179.346 334.157 179.346 334.157C179.346 334.157 185.505 321.458 182.091 308.785C178.677 296.111 166.983 288.262 166.983 288.262C166.983 288.262 160.824 300.961 164.238 313.634Z" fill="#3F3D56"/>
<path d="M169.255 310.911C178.623 320.069 179.767 334.147 179.767 334.147C179.767 334.147 165.723 333.377 156.354 324.219C146.986 315.061 145.842 300.983 145.842 300.983C145.842 300.983 159.887 301.753 169.255 310.911Z" fill="#2B90D9"/>
<path d="M257.459 13.0691C257.459 13.0691 258.465 16.4351 252.766 19.4645C247.068 22.4939 245.392 33.9382 252.096 37.3042C258.8 40.6702 260.811 45.046 257.459 48.0754C254.107 51.1047 248.074 59.1831 256.118 61.2027C264.163 63.2223 265.168 67.2615 262.822 68.9445C260.476 70.6275 268.185 65.9151 268.185 65.9151C268.185 65.9151 269.526 73.9935 276.565 71.9739C283.604 69.9543 303.38 31.582 293.325 26.1964C283.269 20.8108 257.459 13.0691 257.459 13.0691Z" fill="#2F2E41"/>
<path d="M283.43 298.431L281.251 318.856L290.695 324.691L299.412 323.232L295.053 298.431H283.43Z" fill="#FFA398"/>
<path d="M276.167 53.3324C287.4 53.3324 296.506 44.1879 296.506 32.9075C296.506 21.6272 287.4 12.4827 276.167 12.4827C264.933 12.4827 255.827 21.6272 255.827 32.9075C255.827 44.1879 264.933 53.3324 276.167 53.3324Z" fill="#FFA398"/>
<path d="M269.265 42.7553C269.265 42.7553 267.449 73.7574 265.27 73.7574C263.091 73.7574 290.694 72.2985 290.694 72.2985C290.694 72.2985 279.072 51.8736 284.883 45.3085C290.694 38.7434 269.265 42.7553 269.265 42.7553Z" fill="#FFA398"/>
<path d="M299.412 206.519L289.968 242.992L297.233 304.996L280.525 303.537L273.987 206.519H299.412Z" fill="#2F2E41"/>
<path opacity="0.2" d="M299.412 206.519L289.968 242.992L297.233 304.996L280.525 303.537L273.987 206.519H299.412Z" fill="black"/>
<path d="M284.883 315.208C284.883 315.208 284.157 310.832 276.893 315.208C269.629 319.585 239.12 333.445 255.101 336.363C271.082 339.281 303.77 332.715 303.77 330.527C303.77 328.339 304.496 314.479 301.591 315.938C298.685 317.397 289.242 326.88 284.883 315.208Z" fill="#2F2E41"/>
<path d="M294.326 310.102C294.326 310.102 305.949 328.339 306.675 333.445C307.402 338.551 318.298 321.774 318.298 321.774L308.128 302.808L294.326 310.102Z" fill="#FFA398"/>
<path d="M255.827 209.437L268.902 253.204C268.902 253.204 292.147 315.209 293.6 314.479C295.053 313.75 312.487 309.373 313.213 307.184C313.94 304.996 291.421 245.91 291.421 245.91L288.515 207.978L255.827 209.437Z" fill="#2F2E41"/>
<path d="M320.478 318.856C318.494 318.719 316.518 319.207 314.825 320.254C313.132 321.3 311.806 322.852 311.035 324.692C308.129 331.257 304.497 331.986 303.77 332.716C303.044 333.445 305.95 348.764 303.77 350.223C301.591 351.681 299.412 367 306.676 367C313.94 367 325.563 358.976 324.836 357.517C324.11 356.058 324.11 345.846 326.289 341.469C328.468 337.092 332.1 329.798 326.289 325.421C320.478 321.044 320.478 318.856 320.478 318.856Z" fill="#2F2E41"/>
<path d="M251.469 141.597L250.016 154.727C250.016 154.727 239.12 165.669 235.488 178.799C231.856 191.93 202.073 213.814 210.79 216.731C219.507 219.649 229.676 221.108 255.101 216.731C280.525 212.355 320.477 221.838 320.477 197.765C320.477 197.765 325.562 191.2 329.194 200.683C331.753 207.16 334.663 213.492 337.911 219.649C337.911 219.649 346.628 204.331 343.722 197.765C340.817 191.2 343.722 191.93 340.09 184.635C336.458 177.341 318.298 150.351 311.034 148.892C303.77 147.433 289.968 128.467 290.695 126.278C291.421 124.09 251.469 141.597 251.469 141.597Z" fill="#2B90D9"/>
<path d="M290.695 59.8977C290.695 59.8977 260.913 66.4628 259.46 70.8396C258.643 73.3015 254.837 77.8407 251.664 81.3412C246.308 87.1632 242.746 94.4198 241.412 102.232C240.654 106.886 243.839 111.071 245.295 116.431C249.653 132.479 252.922 128.467 248.564 140.138C244.205 151.81 270.356 156.186 280.526 151.08C290.695 145.974 301.955 115.701 301.955 112.054C301.955 108.407 311.761 67.1923 303.771 64.2744C295.78 61.3566 290.695 59.8977 290.695 59.8977Z" fill="#2B90D9"/>
<path d="M249.29 94.9119L240.573 133.573L211.88 146.339C211.88 146.339 190.088 141.233 189.361 149.257C188.887 154.495 214.059 156.551 214.059 156.551L255.827 140.138L265.271 104.395L249.29 94.9119Z" fill="#FFA398"/>
<path d="M259.46 80.3225C259.46 80.3225 241.299 91.2644 245.658 97.1001C250.016 102.936 260.912 112.419 263.818 112.419C266.724 112.419 268.903 94.9117 268.903 89.8055C268.903 84.6992 259.46 80.3225 259.46 80.3225Z" fill="#2B90D9"/>
<path d="M277.63 6.38501C277.63 6.38501 278.744 10.1139 272.431 13.4698C266.119 16.8258 264.262 29.5038 271.689 33.2327C279.115 36.9615 281.343 41.809 277.63 45.165C273.917 48.5209 267.233 57.4702 276.145 59.7075C285.056 61.9448 286.17 66.4194 283.571 68.2838C280.972 70.1482 289.512 64.9279 289.512 64.9279C289.512 64.9279 290.998 73.8771 298.795 71.6398C306.593 69.4025 314.373 28.7335 305.681 18.2588C297.599 8.51925 277.63 6.38501 277.63 6.38501Z" fill="#2F2E41"/>
<path d="M275.258 2.54679C275.26 -2.91616 291.535 1.00923 298.513 8.63672C303.345 13.9187 310.685 21.8652 304.534 27.4666C298.384 33.0681 315.077 40.4111 319.553 42.6374C324.03 44.8637 332.869 51.6719 324.888 56.2392C316.907 60.8065 317.036 65.4171 320.039 66.5087C323.043 67.6003 313.417 64.8856 313.417 64.8856C313.417 64.8856 314.39 73.9055 306.28 73.8624C298.17 73.8192 274.904 29.0632 280.462 16.623C285.63 5.05579 275.258 2.54679 275.258 2.54679Z" fill="#2F2E41"/>
<path d="M278.783 1.34961C257.018 0.0335153 254.834 16.4854 254.834 16.4854C254.984 26.0061 270.04 21.3671 274.222 22.7864C279.267 19.1419 288.992 12.2462 295.946 7.32509C290.897 3.75484 284.949 1.68403 278.783 1.34961Z" fill="#2F2E41"/>
<path d="M184.616 94.4617L182.526 93.7743C175.064 91.248 170.162 89.6346 168.415 85.6821C168.07 84.936 167.877 84.1278 167.849 83.3055C167.82 82.4832 167.956 81.6634 168.248 80.8948C168.54 80.1261 168.983 79.4241 169.55 78.8304C170.118 78.2367 170.798 77.7634 171.551 77.4383C172.437 77.0493 173.396 76.8586 174.363 76.8794C175.33 76.9001 176.28 77.132 177.149 77.5587C177.417 76.6257 177.883 75.7624 178.517 75.0287C179.15 74.2951 179.935 73.7087 180.817 73.3102C181.562 72.9679 182.368 72.7792 183.187 72.7553C184.006 72.7314 184.821 72.8727 185.585 73.1709C186.349 73.4691 187.045 73.9181 187.633 74.4914C188.221 75.0647 188.688 75.7506 189.007 76.5084C190.753 80.4609 188.654 85.1933 185.512 92.4439L184.616 94.4617Z" fill="#FF6584"/>
<path d="M204.337 109.651L202.914 109.183C197.835 107.463 194.498 106.365 193.309 103.675C193.074 103.167 192.943 102.617 192.923 102.057C192.904 101.497 192.996 100.939 193.195 100.416C193.394 99.8927 193.696 99.4149 194.082 99.0108C194.468 98.6067 194.931 98.2845 195.443 98.0632C196.046 97.7984 196.7 97.6686 197.358 97.6827C198.016 97.6969 198.663 97.8547 199.254 98.1452C199.436 97.5101 199.754 96.9224 200.185 96.4231C200.616 95.9237 201.151 95.5245 201.751 95.2533C202.258 95.0203 202.807 94.8918 203.364 94.8755C203.922 94.8593 204.477 94.9555 204.996 95.1584C205.516 95.3614 205.99 95.6671 206.39 96.0573C206.79 96.4475 207.108 96.9144 207.326 97.4302C208.514 100.121 207.086 103.342 204.947 108.277L204.337 109.651Z" fill="#FF6584"/>
<path d="M191.91 43.3168L190.56 42.0616C185.767 37.5264 182.602 34.5822 182.648 30.9662C182.645 30.278 182.779 29.5962 183.043 28.9611C183.307 28.326 183.695 27.7505 184.184 27.2688C184.674 26.787 185.254 26.4087 185.892 26.1562C186.529 25.9038 187.211 25.7824 187.896 25.7991C188.704 25.8139 189.5 26.0053 190.228 26.3598C190.955 26.7144 191.597 27.2238 192.109 27.8525C192.637 27.2372 193.292 26.7446 194.028 26.409C194.764 26.0734 195.565 25.9027 196.373 25.9088C197.059 25.9098 197.737 26.0488 198.368 26.3177C198.998 26.5865 199.569 26.9797 200.046 27.474C200.523 27.9683 200.896 28.5536 201.143 29.1953C201.391 29.8371 201.508 30.5221 201.487 31.2099C201.44 34.826 198.201 37.6874 193.292 42.097L191.91 43.3168Z" fill="#FF6584"/>
<path d="M366.473 305.175H339.702V335.203H366.473V305.175Z" fill="#2B90D9"/>
<path d="M373.594 286.795L387.51 310.999L401.425 335.204H373.594H345.763L359.678 310.999L373.594 286.795Z" fill="#3F3D56"/>
<path d="M37.5286 132.228H34.0946V128.794H37.5286V132.228ZM34.0946 120.207H30.6607V128.794H34.0946V120.207ZM47.8305 116.773H44.3965V123.642H47.8305V116.773ZM44.3965 113.338H40.9625V116.773H44.3965V113.338ZM23.7927 116.773H20.3588V120.207H23.7927V116.773ZM20.3588 113.338H16.9248V116.773H20.3588V113.338ZM32.3776 104.752H35.8116V101.318H32.3776V104.752ZM19.5003 103.893V109.045H24.6512V103.893H19.5003ZM25.5097 111.621H18.6418C17.6974 111.621 16.9248 110.848 16.9248 109.904V103.035C16.9248 102.09 17.6974 101.318 18.6418 101.318H25.5097C26.4541 101.318 27.2267 102.09 27.2267 103.035V109.904C27.2267 110.848 26.4541 111.621 25.5097 111.621ZM19.5003 124.5V129.652H24.6512V124.5H19.5003ZM25.5097 132.228H18.6418C17.6974 132.228 16.9248 131.455 16.9248 130.511V123.642C16.9248 122.697 17.6974 121.925 18.6418 121.925H25.5097C26.4541 121.925 27.2267 122.697 27.2267 123.642V130.511C27.2267 131.455 26.4541 132.228 25.5097 132.228ZM40.104 103.893V109.045H45.255V103.893H40.104ZM46.1135 111.621H39.2456C38.3012 111.621 37.5286 110.848 37.5286 109.904V103.035C37.5286 102.09 38.3012 101.318 39.2456 101.318H46.1135C47.0578 101.318 47.8305 102.09 47.8305 103.035V109.904C47.8305 110.848 47.0578 111.621 46.1135 111.621ZM44.3965 128.794V123.642H37.5286V127.076H40.9625V132.228H47.8305V128.794H44.3965ZM40.9625 116.773H34.0946V120.207H40.9625V116.773ZM34.0946 113.338H23.7927V116.773H27.2267V120.207H30.6607V116.773H34.0946V113.338ZM35.8116 111.621V108.187H32.3776V104.752H28.9437V111.621H35.8116ZM23.3635 105.181H20.788V107.757H23.3635V105.181ZM23.3635 125.788H20.788V128.364H23.3635V125.788ZM43.9673 105.181H41.3918V107.757H43.9673V105.181Z" fill="white"/>
<path d="M0.894737 105C0.657438 105 0.429858 104.906 0.262062 104.738C0.0942666 104.57 0 104.343 0 104.105V88.8947C0 88.6574 0.0942666 88.4299 0.262062 88.2621C0.429858 88.0943 0.657438 88 0.894737 88H16.1053C16.3426 88 16.5701 88.0943 16.7379 88.2621C16.9057 88.4299 17 88.6574 17 88.8947C17 89.132 16.9057 89.3596 16.7379 89.5274C16.5701 89.6952 16.3426 89.7895 16.1053 89.7895H1.78947V104.105C1.78947 104.343 1.69521 104.57 1.52741 104.738C1.35962 104.906 1.13204 105 0.894737 105Z" fill="#282C37"/>
<path d="M62.1053 105C61.868 105 61.6404 104.906 61.4726 104.738C61.3048 104.57 61.2105 104.343 61.2105 104.105V89.7895H46.8947C46.6574 89.7895 46.4299 89.6952 46.2621 89.5274C46.0943 89.3596 46 89.132 46 88.8947C46 88.6574 46.0943 88.4299 46.2621 88.2621C46.4299 88.0943 46.6574 88 46.8947 88H62.1053C62.3426 88 62.5701 88.0943 62.7379 88.2621C62.9057 88.4299 63 88.6574 63 88.8947V104.105C63 104.343 62.9057 104.57 62.7379 104.738C62.5701 104.906 62.3426 105 62.1053 105Z" fill="#282C37"/>
<path d="M62.1053 149H46.8947C46.6574 149 46.4299 148.906 46.2621 148.738C46.0943 148.57 46 148.343 46 148.105C46 147.868 46.0943 147.64 46.2621 147.473C46.4299 147.305 46.6574 147.211 46.8947 147.211H61.2105V132.895C61.2105 132.657 61.3048 132.43 61.4726 132.262C61.6404 132.094 61.868 132 62.1053 132C62.3426 132 62.5701 132.094 62.7379 132.262C62.9057 132.43 63 132.657 63 132.895V148.105C63 148.343 62.9057 148.57 62.7379 148.738C62.5701 148.906 62.3426 149 62.1053 149Z" fill="#282C37"/>
<path d="M16.1053 149H0.894737C0.657438 149 0.429858 148.906 0.262062 148.738C0.0942666 148.57 0 148.343 0 148.105V132.895C0 132.657 0.0942666 132.43 0.262062 132.262C0.429858 132.094 0.657438 132 0.894737 132C1.13204 132 1.35962 132.094 1.52741 132.262C1.69521 132.43 1.78947 132.657 1.78947 132.895V147.211H16.1053C16.3426 147.211 16.5701 147.305 16.7379 147.473C16.9057 147.64 17 147.868 17 148.105C17 148.343 16.9057 148.57 16.7379 148.738C16.5701 148.906 16.3426 149 16.1053 149Z" fill="#282C37"/>
<defs>
<linearGradient id="paint0_linear" x1="145.779" y1="334.538" x2="415.988" y2="334.538" gradientUnits="userSpaceOnUse">
<stop stop-color="#2B90D9"/>
<stop offset="1" stop-color="#58CAEA"/>
</linearGradient>
</defs>
</svg>
