<svg width="488" height="346" viewBox="0 0 488 346" fill="none" xmlns="http://www.w3.org/2000/svg">
<path d="M476.037 207.084C475.464 208.012 474.866 208.924 474.249 209.831C450.588 244.544 395.546 266.102 302.721 254.692C250.015 247.905 227.569 272.799 205.834 298.297C205.463 298.737 205.091 299.177 204.714 299.617C181.953 326.355 159.419 353.168 103.074 344.255C43.3413 336.302 6.47702 295.46 0.772609 251.855C0.70313 251.325 0.64041 250.79 0.583535 250.259C-2.62115 221.988 7.28281 192.715 32.5495 170.616C47.8117 157.271 69.4959 150.182 91.8788 150.405C98.6181 150.51 105.355 150.09 112.002 149.148C113.469 148.931 114.892 148.692 116.277 148.422C144.792 142.934 157.933 126.619 165.992 106.71C166.181 106.238 166.37 105.766 166.552 105.289C185.057 57.8085 176.5 -8.83383 277.101 0.969786C367.125 6.5582 433.191 48.5934 465.598 97.0919C465.919 97.5796 466.24 98.0675 466.555 98.5552C475.462 112.012 481.818 126.558 485.393 141.667C485.595 142.515 485.777 143.363 485.947 144.212C490.531 166.735 487.528 188.628 476.037 207.084Z" fill="url(#paint0_linear)"/>
<path d="M315 113.795H313.689V77.821C313.689 72.2989 311.498 67.003 307.599 63.0983C303.7 59.1936 298.412 57 292.898 57H216.791C214.061 57 211.357 57.5385 208.835 58.5849C206.312 59.6312 204.02 61.1649 202.09 63.0983C200.159 65.0317 198.627 67.327 197.583 69.8531C196.538 72.3792 196 75.0867 196 77.8209V275.179C196 280.701 198.19 285.997 202.09 289.902C205.989 293.806 211.277 296 216.791 296H292.898C298.412 296 303.7 293.806 307.599 289.902C311.498 285.997 313.689 280.701 313.689 275.179V139.402H315V113.795Z" fill="#3F3D56"/>
<path d="M293.549 62H283.664C284.118 63.1258 284.292 64.3472 284.169 65.5567C284.046 66.7662 283.631 67.9266 282.959 68.9357C282.288 69.9449 281.381 70.7717 280.319 71.3435C279.256 71.9152 278.071 72.2143 276.867 72.2144H233.48C232.276 72.2143 231.091 71.9152 230.029 71.3435C228.967 70.7717 228.06 69.9449 227.388 68.9357C226.717 67.9266 226.301 66.7662 226.179 65.5567C226.056 64.3472 226.229 63.1258 226.684 62H217.451C215.422 62 213.412 62.4036 211.538 63.1879C209.663 63.9722 207.96 65.1217 206.525 66.5708C205.091 68.0199 203.953 69.7403 203.176 71.6336C202.4 73.527 202 75.5563 202 77.6057V275.394C202 277.444 202.4 279.473 203.176 281.366C203.953 283.26 205.091 284.98 206.525 286.429C207.96 287.878 209.663 289.028 211.538 289.812C213.412 290.596 215.421 291 217.45 291H293.549C297.647 291 301.577 289.356 304.475 286.429C307.372 283.503 309 279.533 309 275.394V77.6057C309 75.5563 308.6 73.527 307.824 71.6337C307.047 69.7403 305.909 68.0199 304.475 66.5708C303.04 65.1217 301.337 63.9722 299.462 63.1879C297.588 62.4037 295.578 62 293.549 62Z" fill="white"/>
<path d="M255.5 209C276.211 209 293 192.435 293 172C293 151.565 276.211 135 255.5 135C234.789 135 218 151.565 218 172C218 192.435 234.789 209 255.5 209Z" fill="#2B90D9"/>
<path d="M266.353 174.969L257.064 184.386C256.862 184.586 256.621 184.744 256.355 184.849C256.088 184.955 255.803 185.006 255.516 184.999H255.485C255.198 185.006 254.912 184.954 254.645 184.849C254.378 184.743 254.136 184.586 253.933 184.386L244.649 174.969C244.618 174.934 244.582 174.903 244.551 174.873C244.181 174.482 243.983 173.962 244.001 173.427C244.019 172.893 244.252 172.387 244.649 172.021C245.073 171.629 245.633 171.411 246.214 171.411C246.796 171.411 247.356 171.629 247.78 172.021L253.283 177.681V163.088C253.308 162.525 253.553 161.995 253.966 161.606C254.38 161.217 254.929 161 255.501 161C256.072 161 256.622 161.217 257.035 161.606C257.448 161.995 257.693 162.525 257.719 163.088V177.681L263.217 172.021C263.642 171.629 264.203 171.411 264.785 171.411C265.368 171.411 265.928 171.629 266.353 172.021C266.384 172.052 266.415 172.082 266.45 172.117C266.82 172.509 267.017 173.028 266.999 173.563C266.981 174.097 266.748 174.602 266.353 174.969Z" fill="white"/>
<path d="M365 267.288L324.615 280L274.376 248.104L274.374 248.102L274.21 248L274.182 247.981L273.783 247.729L269 244.701C269.009 244.62 269.02 244.54 269.036 244.463C269.109 244.089 269.279 243.74 269.528 243.453C269.615 243.35 269.71 243.254 269.812 243.167H269.814C269.86 243.128 269.907 243.09 269.957 243.053C270.006 243.015 270.058 242.978 270.112 242.944C271.037 242.32 272.432 242.054 273.885 241.975C277.022 241.825 280.144 242.506 282.939 243.95C288.586 246.824 300.724 252.478 302.617 249.014C305.099 244.474 276.897 193.853 276.897 193.853C274.575 187.849 276.274 185.888 277.339 185.27C277.37 185.252 277.402 185.234 277.431 185.218C277.544 185.16 277.661 185.109 277.781 185.068C277.844 185.045 277.908 185.026 277.973 185.011C277.99 185.007 278.007 185.003 278.025 185L281.765 190.003L281.822 190.078L282.023 190.348L282.084 190.43L304.76 220.753C339.505 201.912 351.463 252.306 351.463 252.306L365 267.288Z" fill="#FBBEBE"/>
<g clip-path="url(#clip0)">
<path d="M240.404 103.29C236.919 101.341 231.326 98.2112 222.649 93.3532C222.065 92.9669 221.392 92.9163 220.81 93.1131L235.696 107.999L240.404 103.29Z" fill="#32BBFF"/>
<path d="M220.81 93.113C220.701 93.15 220.595 93.1945 220.494 93.2483C219.852 93.5956 219.38 94.264 219.38 95.1093V120.888C219.38 121.734 219.852 122.402 220.494 122.749C220.595 122.803 220.701 122.848 220.81 122.885L235.696 107.999L220.81 93.113Z" fill="#32BBFF"/>
<path d="M235.696 107.999L220.81 122.885C221.391 123.083 222.064 123.037 222.65 122.645C231.064 117.933 236.594 114.84 240.119 112.874C240.218 112.819 240.314 112.765 240.409 112.712L235.696 107.999Z" fill="#32BBFF"/>
<path d="M219.38 107.999V120.888C219.38 121.734 219.852 122.402 220.494 122.749C220.595 122.803 220.701 122.848 220.81 122.885L235.696 107.999H219.38Z" fill="#2C9FD9"/>
<path d="M222.65 93.3532C221.955 92.8945 221.136 92.9076 220.494 93.2484L235.47 108.225L240.405 103.29C236.92 101.341 231.326 98.2112 222.65 93.3532Z" fill="#29CC5E"/>
<path d="M235.471 107.773L220.494 122.749C221.136 123.09 221.955 123.11 222.65 122.644C231.064 117.933 236.595 114.84 240.12 112.874C240.218 112.819 240.314 112.765 240.409 112.712L235.471 107.773Z" fill="#D93F21"/>
<path d="M246.62 107.999C246.62 107.285 246.26 106.564 245.546 106.164C245.546 106.164 244.21 105.419 240.115 103.128L235.245 107.999L240.12 112.874C244.17 110.6 245.546 109.834 245.546 109.834C246.26 109.434 246.62 108.713 246.62 107.999Z" fill="#FFD500"/>
<path d="M245.546 109.834C246.26 109.434 246.62 108.713 246.62 107.999H235.245L240.12 112.874C244.17 110.6 245.546 109.834 245.546 109.834Z" fill="#FFAA00"/>
</g>
<path d="M289.786 93H266.214C264.44 93 263 94.44 263 96.2143V119.786C263 121.56 264.44 123 266.214 123H289.786C291.56 123 293 121.56 293 119.786V96.2143C293 94.44 291.56 93 289.786 93ZM271.505 116.605C271.327 116.912 271.035 117.136 270.692 117.227C270.349 117.319 269.984 117.271 269.677 117.093C269.37 116.916 269.146 116.623 269.054 116.28C268.963 115.938 269.011 115.573 269.189 115.265L270.146 113.611C271.224 113.283 272.108 113.537 272.798 114.374L271.505 116.605ZM280.806 112.996H268.625C267.888 112.996 267.286 112.393 267.286 111.657C267.286 110.921 267.889 110.317 268.625 110.317H272.041L276.42 102.737L275.047 100.367C274.871 100.06 274.823 99.6949 274.914 99.3524C275.006 99.0099 275.229 98.7176 275.536 98.5393C275.843 98.3626 276.208 98.3149 276.55 98.4064C276.893 98.498 277.185 98.7214 277.364 99.0279L277.959 100.059L278.555 99.0279C278.643 98.8758 278.76 98.7425 278.899 98.6356C279.039 98.5287 279.198 98.4504 279.368 98.405C279.537 98.3596 279.714 98.3481 279.889 98.3712C280.063 98.3942 280.231 98.4513 280.383 98.5393C280.535 98.6272 280.668 98.7443 280.775 98.8837C280.882 99.0232 280.96 99.1823 281.006 99.352C281.051 99.5218 281.063 99.6988 281.04 99.8729C281.016 100.047 280.959 100.215 280.871 100.367L275.126 110.319H279.285C280.637 110.319 281.394 111.905 280.805 112.997L280.806 112.996ZM287.375 112.996H285.432L286.745 115.266C287.114 115.909 286.892 116.727 286.256 117.094C285.614 117.463 284.796 117.241 284.429 116.606C282.226 112.796 280.578 109.93 279.473 108.028C278.355 106.085 279.152 104.144 279.949 103.488C280.826 105.009 282.139 107.285 283.893 110.319H287.375C287.73 110.319 288.071 110.46 288.322 110.711C288.573 110.962 288.714 111.303 288.714 111.658C288.714 112.013 288.573 112.354 288.322 112.605C288.071 112.856 287.73 112.997 287.375 112.997V112.996Z" fill="#2B90D9"/>
<defs>
<linearGradient id="paint0_linear" x1="0.00549788" y1="172.992" x2="487.979" y2="172.992" gradientUnits="userSpaceOnUse">
<stop stop-color="#2B90D9"/>
<stop offset="1" stop-color="#58CAEA"/>
</linearGradient>
<clipPath id="clip0">
<rect width="30" height="30" fill="white" transform="translate(218 93)"/>
</clipPath>
</defs>
</svg>
