<svg width="417" height="359" viewBox="0 0 417 359" fill="none" xmlns="http://www.w3.org/2000/svg">
<path d="M0 320.299C35.3398 332.162 78.4541 324.947 118.548 325.782C124.04 325.899 129.846 326.24 134.25 328.285C138.654 330.331 140.82 333.669 143.84 336.496C155.075 347.075 178.092 350.476 198.216 348.681C218.339 346.887 236.791 340.947 255.738 336.424C288.561 328.6 326.085 325.046 358.459 333.571C361.434 334.351 364.561 335.249 367.743 334.943C374.843 334.244 376.955 328.573 381.917 325.333C390.904 319.483 410.345 321.071 414.272 313.363C416.582 308.877 411.271 304.21 405.491 301.124C383.364 289.315 351.709 287.368 322.75 289.189C293.792 291.011 265.318 296.036 236.207 296.054C199.942 296.054 164.898 288.346 128.983 285.187C104.105 282.998 76.9531 283.267 53.6299 289.674C28.4193 296.691 22.8469 312.34 0 320.299Z" fill="url(#paint0_linear)" fill-opacity="0.7"/>
<path opacity="0.15" d="M307.462 59.7065L416.787 140.056V359H235.188L112.599 296.835C112.599 296.835 94.894 286.486 101.022 216.332C107.151 146.178 117.367 65.8216 117.367 65.8216L158.232 64.4879C158.232 64.4879 151.417 0.482642 216.803 4.89725C235.868 12.3194 245.404 18.3078 253.58 37.6401C261.756 56.9724 261.749 63.7877 261.749 63.7877L307.462 59.7131" fill="url(#paint1_linear)"/>
<path d="M328.862 260.358L311.617 66.182C311.437 64.117 310.491 62.1942 308.964 60.7921C307.437 59.39 305.441 58.6103 303.368 58.6065H267.891C267.657 42.9829 261.286 28.0784 250.155 17.1126C239.024 6.1468 224.026 0 208.4 0C192.775 0 177.777 6.1468 166.646 17.1126C155.515 28.0784 149.144 42.9829 148.91 58.6065H113.433C111.357 58.6011 109.356 59.3777 107.827 60.7815C106.299 62.1854 105.355 64.1135 105.184 66.182L87.9389 260.358C87.9389 260.605 87.8789 260.852 87.8789 261.099C87.8789 283.205 108.138 301.19 133.079 301.19H283.716C308.663 301.19 328.922 283.185 328.922 261.099C328.932 260.85 328.912 260.602 328.862 260.358ZM208.4 16.6676C219.606 16.677 230.364 21.0698 238.373 28.907C246.382 36.7441 251.007 47.4036 251.26 58.6065H165.535C165.789 47.403 170.416 36.7435 178.426 28.9066C186.436 21.0696 197.194 16.677 208.4 16.6676ZM283.716 284.565H133.079C117.441 284.565 104.757 274.216 104.51 261.465L121.009 75.298H148.85V100.545C148.818 101.657 149.01 102.763 149.414 103.799C149.817 104.835 150.425 105.78 151.2 106.577C151.975 107.374 152.902 108.008 153.926 108.441C154.95 108.874 156.05 109.097 157.162 109.097C158.274 109.097 159.375 108.874 160.399 108.441C161.423 108.008 162.35 107.374 163.125 106.577C163.9 105.78 164.507 104.835 164.911 103.799C165.314 102.763 165.506 101.657 165.475 100.545V75.298H251.26V100.545C251.26 102.751 252.136 104.866 253.695 106.425C255.255 107.985 257.37 108.861 259.575 108.861C261.781 108.861 263.896 107.985 265.455 106.425C267.015 104.866 267.891 102.751 267.891 100.545V75.298H295.726L312.297 261.465C312.044 274.216 299.3 284.565 283.716 284.565Z" fill="#2A94F4"/>
<g filter="url(#filter0_ddd)">
<ellipse cx="209.388" cy="181.231" rx="59.2608" ry="59.2608" fill="#2B90D9"/>
</g>
<path d="M214.365 148.75L214.157 149.571L209.458 167.94C209.286 168.615 208.482 168.898 207.924 168.481L190.5 155.461C189.846 154.972 190.043 153.946 190.831 153.733L212.499 147.89L213.282 147.681C213.932 147.507 214.53 148.097 214.365 148.75Z" fill="white"/>
<path d="M201.333 163.538L203.294 165.005L197.811 167.915L197.567 160.723L212.168 149.715L201.333 163.538Z" fill="#E6E6E6"/>
<path d="M192.038 173.655C192.913 173.655 193.622 172.946 193.622 172.071C193.622 171.196 192.913 170.487 192.038 170.487C191.164 170.487 190.454 171.196 190.454 172.071C190.454 172.946 191.164 173.655 192.038 173.655Z" stroke="white" stroke-width="0.5"/>
<path d="M186.758 178.935C187.633 178.935 188.342 178.225 188.342 177.351C188.342 176.476 187.633 175.767 186.758 175.767C185.883 175.767 185.174 176.476 185.174 177.351C185.174 178.225 185.883 178.935 186.758 178.935Z" stroke="white" stroke-width="0.5"/>
<path d="M193.775 184.321H179.505C179.048 184.322 178.61 184.503 178.287 184.826C177.965 185.148 177.783 185.586 177.782 186.042V213.092C177.783 213.548 177.965 213.986 178.287 214.308C178.61 214.631 179.048 214.812 179.505 214.813H193.775C194.232 214.812 194.67 214.631 194.992 214.308C195.316 213.986 195.497 213.548 195.498 213.092V186.042C195.497 185.586 195.316 185.148 194.992 184.826C194.67 184.503 194.232 184.322 193.775 184.321ZM188.962 185.305L188.716 186.288H184.564L184.318 185.305H188.962ZM194.513 213.092C194.513 213.287 194.436 213.475 194.297 213.613C194.159 213.751 193.971 213.829 193.775 213.829H179.505C179.309 213.829 179.121 213.751 178.983 213.613C178.845 213.475 178.767 213.287 178.767 213.092V186.042C178.767 185.847 178.845 185.659 178.983 185.521C179.121 185.383 179.309 185.305 179.505 185.305H183.303L183.702 186.899C183.729 187.006 183.79 187.1 183.877 187.168C183.963 187.235 184.07 187.272 184.18 187.272H189.101C189.21 187.272 189.317 187.235 189.403 187.168C189.49 187.1 189.551 187.006 189.578 186.899L189.977 185.305H193.775C193.971 185.305 194.159 185.383 194.297 185.521C194.436 185.659 194.513 185.847 194.513 186.042V213.092Z" fill="white"/>
<path d="M188.116 212.354H185.164C185.033 212.354 184.908 212.406 184.816 212.498C184.724 212.59 184.672 212.716 184.672 212.846C184.672 212.976 184.724 213.102 184.816 213.194C184.908 213.286 185.033 213.338 185.164 213.338H188.116C188.247 213.338 188.372 213.286 188.464 213.194C188.557 213.102 188.608 212.976 188.608 212.846C188.608 212.716 188.557 212.59 188.464 212.498C188.372 212.406 188.247 212.354 188.116 212.354Z" fill="white"/>
<path d="M180.735 195.141C180.865 195.141 180.991 195.089 181.083 194.997C181.175 194.905 181.227 194.78 181.227 194.649V194.158H181.719C181.85 194.158 181.975 194.106 182.067 194.014C182.159 193.921 182.211 193.796 182.211 193.666C182.211 193.535 182.159 193.41 182.067 193.318C181.975 193.226 181.85 193.174 181.719 193.174H180.735C180.604 193.174 180.479 193.226 180.387 193.318C180.295 193.41 180.243 193.535 180.243 193.666V194.649C180.243 194.78 180.295 194.905 180.387 194.997C180.479 195.089 180.604 195.141 180.735 195.141Z" fill="white"/>
<path d="M181.719 204.977H181.227V204.485C181.227 204.355 181.175 204.23 181.083 204.137C180.991 204.045 180.865 203.993 180.735 203.993C180.604 203.993 180.479 204.045 180.387 204.137C180.295 204.23 180.243 204.355 180.243 204.485V205.469C180.243 205.599 180.295 205.724 180.387 205.816C180.479 205.909 180.604 205.96 180.735 205.96H181.719C181.85 205.96 181.975 205.909 182.067 205.816C182.159 205.724 182.211 205.599 182.211 205.469C182.211 205.338 182.159 205.213 182.067 205.121C181.975 205.029 181.85 204.977 181.719 204.977Z" fill="white"/>
<path d="M192.545 203.993C192.415 203.993 192.29 204.045 192.197 204.137C192.105 204.23 192.053 204.355 192.053 204.485V204.977H191.561C191.43 204.977 191.305 205.029 191.213 205.121C191.121 205.213 191.069 205.338 191.069 205.469C191.069 205.599 191.121 205.724 191.213 205.816C191.305 205.909 191.43 205.96 191.561 205.96H192.545C192.676 205.96 192.801 205.909 192.893 205.816C192.985 205.724 193.037 205.599 193.037 205.469V204.485C193.037 204.355 192.985 204.23 192.893 204.137C192.801 204.045 192.676 203.993 192.545 203.993Z" fill="white"/>
<path d="M192.545 193.174H191.561C191.43 193.174 191.305 193.226 191.213 193.318C191.121 193.41 191.069 193.535 191.069 193.666C191.069 193.796 191.121 193.921 191.213 194.014C191.305 194.106 191.43 194.158 191.561 194.158H192.053V194.649C192.053 194.78 192.105 194.905 192.197 194.997C192.29 195.089 192.415 195.141 192.545 195.141C192.676 195.141 192.801 195.089 192.893 194.997C192.985 194.905 193.037 194.78 193.037 194.649V193.666C193.037 193.535 192.985 193.41 192.893 193.318C192.801 193.226 192.676 193.174 192.545 193.174Z" fill="white"/>
<path d="M181.719 195.141V198.092C181.719 198.222 181.771 198.347 181.863 198.44C181.956 198.532 182.081 198.584 182.211 198.584H185.164C185.294 198.584 185.419 198.532 185.512 198.44C185.604 198.347 185.656 198.222 185.656 198.092V195.141C185.656 195.011 185.604 194.886 185.512 194.793C185.419 194.701 185.294 194.649 185.164 194.649H182.211C182.081 194.649 181.956 194.701 181.863 194.793C181.771 194.886 181.719 195.011 181.719 195.141ZM182.703 195.633H184.672V197.6H182.703V195.633Z" fill="white"/>
<path d="M185.656 203.993V201.042C185.656 200.912 185.604 200.787 185.512 200.694C185.419 200.602 185.294 200.55 185.164 200.55H182.211C182.081 200.55 181.956 200.602 181.863 200.694C181.771 200.787 181.719 200.912 181.719 201.042V203.993C181.719 204.123 181.771 204.248 181.863 204.341C181.956 204.433 182.081 204.485 182.211 204.485H185.164C185.294 204.485 185.419 204.433 185.512 204.341C185.604 204.248 185.656 204.123 185.656 203.993ZM184.672 203.501H182.703V201.534H184.672V203.501Z" fill="white"/>
<path d="M188.117 198.584H191.069C191.2 198.584 191.325 198.532 191.417 198.44C191.509 198.347 191.561 198.222 191.561 198.092V195.141C191.561 195.011 191.509 194.886 191.417 194.793C191.325 194.701 191.2 194.649 191.069 194.649H188.117C187.986 194.649 187.861 194.701 187.769 194.793C187.676 194.886 187.625 195.011 187.625 195.141V198.092C187.625 198.222 187.676 198.347 187.769 198.44C187.861 198.532 187.986 198.584 188.117 198.584ZM188.609 195.633H190.577V197.6H188.609V195.633Z" fill="white"/>
<path d="M191.561 203.993V202.518C191.561 202.387 191.509 202.262 191.417 202.17C191.325 202.078 191.2 202.026 191.069 202.026H189.593C189.462 202.026 189.337 202.078 189.245 202.17C189.153 202.262 189.101 202.387 189.101 202.518V203.993C189.101 204.124 189.153 204.249 189.245 204.341C189.337 204.433 189.462 204.485 189.593 204.485H191.069C191.2 204.485 191.325 204.433 191.417 204.341C191.509 204.249 191.561 204.124 191.561 203.993ZM190.577 203.501H190.085V203.009H190.577V203.501Z" fill="white"/>
<path d="M188.117 201.534H189.593C189.723 201.534 189.849 201.482 189.941 201.39C190.033 201.298 190.085 201.173 190.085 201.042V199.567C190.085 199.436 190.033 199.311 189.941 199.219C189.849 199.127 189.723 199.075 189.593 199.075H188.117C187.986 199.075 187.861 199.127 187.769 199.219C187.676 199.311 187.625 199.436 187.625 199.567V201.042C187.625 201.173 187.676 201.298 187.769 201.39C187.861 201.482 187.986 201.534 188.117 201.534ZM188.609 200.059H189.101V200.55H188.609V200.059Z" fill="white"/>
<path d="M186.64 204.485C186.771 204.485 186.896 204.433 186.988 204.341C187.081 204.249 187.132 204.123 187.132 203.993V199.567C187.132 199.436 187.081 199.311 186.988 199.219C186.896 199.127 186.771 199.075 186.64 199.075H184.18C184.049 199.075 183.924 199.127 183.832 199.219C183.74 199.311 183.688 199.436 183.688 199.567C183.688 199.697 183.74 199.822 183.832 199.915C183.924 200.007 184.049 200.059 184.18 200.059H186.148V203.993C186.148 204.123 186.2 204.249 186.292 204.341C186.385 204.433 186.51 204.485 186.64 204.485Z" fill="white"/>
<path d="M186.641 196.125C186.771 196.125 186.896 196.073 186.989 195.981C187.081 195.889 187.133 195.763 187.133 195.633V195.141C187.133 195.011 187.081 194.886 186.989 194.793C186.896 194.701 186.771 194.649 186.641 194.649C186.51 194.649 186.385 194.701 186.293 194.793C186.2 194.886 186.148 195.011 186.148 195.141V195.633C186.148 195.763 186.2 195.889 186.293 195.981C186.385 196.073 186.51 196.125 186.641 196.125Z" fill="white"/>
<path d="M186.641 198.584C186.771 198.584 186.896 198.532 186.989 198.44C187.081 198.347 187.133 198.222 187.133 198.092V197.108C187.133 196.978 187.081 196.853 186.989 196.76C186.896 196.668 186.771 196.616 186.641 196.616C186.51 196.616 186.385 196.668 186.293 196.76C186.2 196.853 186.148 196.978 186.148 197.108V198.092C186.148 198.222 186.2 198.347 186.293 198.44C186.385 198.532 186.51 198.584 186.641 198.584Z" fill="white"/>
<path d="M188.117 202.026C187.986 202.026 187.861 202.078 187.769 202.17C187.676 202.262 187.625 202.387 187.625 202.518V203.993C187.625 204.124 187.676 204.249 187.769 204.341C187.861 204.433 187.986 204.485 188.117 204.485C188.247 204.485 188.372 204.433 188.465 204.341C188.557 204.249 188.609 204.124 188.609 203.993V202.518C188.609 202.387 188.557 202.262 188.465 202.17C188.372 202.078 188.247 202.026 188.117 202.026Z" fill="white"/>
<path d="M182.211 199.075C182.081 199.075 181.956 199.127 181.863 199.219C181.771 199.311 181.719 199.436 181.719 199.567C181.719 199.697 181.771 199.822 181.863 199.915C181.956 200.007 182.081 200.059 182.211 200.059H182.703C182.834 200.059 182.959 200.007 183.051 199.915C183.144 199.822 183.195 199.697 183.195 199.567C183.195 199.436 183.144 199.311 183.051 199.219C182.959 199.127 182.834 199.075 182.703 199.075H182.211Z" fill="white"/>
<path d="M191.069 199.075C190.938 199.075 190.813 199.127 190.721 199.219C190.629 199.311 190.577 199.436 190.577 199.567V201.042C190.577 201.173 190.629 201.298 190.721 201.39C190.813 201.482 190.938 201.534 191.069 201.534C191.199 201.534 191.325 201.482 191.417 201.39C191.509 201.298 191.561 201.173 191.561 201.042V199.567C191.561 199.436 191.509 199.311 191.417 199.219C191.325 199.127 191.199 199.075 191.069 199.075Z" fill="white"/>
<path d="M202.761 214.838C201.344 214.838 200.167 214.34 199.231 213.344C198.308 212.32 197.846 211.062 197.846 209.567C197.846 208.046 198.308 206.787 199.231 205.79C200.167 204.794 201.344 204.296 202.761 204.296C203.737 204.296 204.589 204.552 205.317 205.063C206.044 205.561 206.591 206.255 206.955 207.143L205.317 207.85C204.809 206.612 203.918 205.992 202.644 205.992C201.825 205.992 201.117 206.336 200.518 207.022C199.933 207.709 199.641 208.557 199.641 209.567C199.641 210.577 199.933 211.425 200.518 212.112C201.117 212.798 201.825 213.142 202.644 213.142C203.957 213.142 204.881 212.522 205.414 211.284L207.014 211.991C206.662 212.879 206.11 213.579 205.356 214.091C204.614 214.589 203.75 214.838 202.761 214.838ZM208.331 209.567C208.331 208.046 208.793 206.787 209.716 205.79C210.652 204.794 211.83 204.296 213.247 204.296C214.664 204.296 215.835 204.794 216.758 205.79C217.694 206.787 218.162 208.046 218.162 209.567C218.162 211.102 217.694 212.361 216.758 213.344C215.835 214.34 214.664 214.838 213.247 214.838C211.83 214.838 210.652 214.34 209.716 213.344C208.793 212.347 208.331 211.088 208.331 209.567ZM210.126 209.567C210.126 210.631 210.426 211.492 211.023 212.152C211.622 212.812 212.363 213.142 213.247 213.142C214.132 213.142 214.873 212.812 215.47 212.152C216.069 211.492 216.367 210.631 216.367 209.567C216.367 208.517 216.069 207.662 215.47 207.002C214.859 206.329 214.118 205.992 213.247 205.992C212.376 205.992 211.635 206.329 211.023 207.002C210.426 207.662 210.126 208.517 210.126 209.567ZM224.473 213.142C225.358 213.142 226.08 212.812 226.638 212.152C227.223 211.492 227.516 210.631 227.516 209.567C227.516 208.53 227.223 207.675 226.638 207.002C226.066 206.329 225.345 205.992 224.473 205.992C223.615 205.992 222.893 206.329 222.308 207.002C221.723 207.675 221.43 208.53 221.43 209.567C221.43 210.617 221.723 211.472 222.308 212.132C222.893 212.805 223.615 213.142 224.473 213.142ZM224.18 214.838C222.932 214.838 221.859 214.327 220.962 213.303C220.078 212.267 219.636 211.021 219.636 209.567C219.636 208.113 220.078 206.867 220.962 205.831C221.859 204.807 222.932 204.296 224.18 204.296C224.883 204.296 225.52 204.451 226.092 204.76C226.677 205.07 227.126 205.481 227.438 205.992H227.516L227.438 204.619V200.054H229.232V214.515H227.516V213.142H227.438C227.126 213.653 226.677 214.064 226.092 214.374C225.52 214.683 224.883 214.838 224.18 214.838ZM239.03 211.768C239.03 212.63 238.665 213.357 237.938 213.95C237.21 214.542 236.293 214.838 235.187 214.838C234.226 214.838 233.379 214.582 232.652 214.071C231.924 213.546 231.403 212.859 231.091 212.011L232.691 211.304C232.925 211.896 233.262 212.361 233.705 212.698C234.16 213.021 234.655 213.182 235.187 213.182C235.759 213.182 236.235 213.054 236.611 212.798C237.001 212.543 237.196 212.24 237.196 211.89C237.196 211.257 236.728 210.792 235.792 210.496L234.154 210.072C232.295 209.587 231.364 208.658 231.364 207.285C231.364 206.383 231.715 205.662 232.418 205.124C233.133 204.572 234.043 204.296 235.148 204.296C235.993 204.296 236.754 204.504 237.43 204.922C238.119 205.339 238.601 205.898 238.874 206.598L237.274 207.285C237.093 206.867 236.793 206.544 236.377 206.315C235.974 206.073 235.519 205.952 235.012 205.952C234.544 205.952 234.121 206.073 233.744 206.315C233.38 206.558 233.198 206.854 233.198 207.204C233.198 207.77 233.711 208.173 234.739 208.416L236.182 208.8C238.08 209.284 239.03 210.274 239.03 211.768Z" fill="white"/>
<defs>
<filter id="filter0_ddd" x="130.127" y="111.97" width="158.522" height="158.522" filterUnits="userSpaceOnUse" color-interpolation-filters="sRGB">
<feFlood flood-opacity="0" result="BackgroundImageFix"/>
<feColorMatrix in="SourceAlpha" type="matrix" values="0 0 0 0 0 0 0 0 0 0 0 0 0 0 0 0 0 0 127 0"/>
<feOffset/>
<feGaussianBlur stdDeviation="0.5"/>
<feColorMatrix type="matrix" values="0 0 0 0 0 0 0 0 0 0 0 0 0 0 0 0 0 0 0.04 0"/>
<feBlend mode="normal" in2="BackgroundImageFix" result="effect1_dropShadow"/>
<feColorMatrix in="SourceAlpha" type="matrix" values="0 0 0 0 0 0 0 0 0 0 0 0 0 0 0 0 0 0 127 0"/>
<feOffset dy="2"/>
<feGaussianBlur stdDeviation="3"/>
<feColorMatrix type="matrix" values="0 0 0 0 0 0 0 0 0 0 0 0 0 0 0 0 0 0 0.04 0"/>
<feBlend mode="normal" in2="effect1_dropShadow" result="effect2_dropShadow"/>
<feColorMatrix in="SourceAlpha" type="matrix" values="0 0 0 0 0 0 0 0 0 0 0 0 0 0 0 0 0 0 127 0"/>
<feOffset dy="10"/>
<feGaussianBlur stdDeviation="10"/>
<feColorMatrix type="matrix" values="0 0 0 0 0 0 0 0 0 0 0 0 0 0 0 0 0 0 0.04 0"/>
<feBlend mode="normal" in2="effect2_dropShadow" result="effect3_dropShadow"/>
<feBlend mode="normal" in="SourceGraphic" in2="effect3_dropShadow" result="shape"/>
</filter>
<linearGradient id="paint0_linear" x1="0.00467349" y1="316.542" x2="414.807" y2="316.542" gradientUnits="userSpaceOnUse">
<stop stop-color="#2B90D9"/>
<stop offset="1" stop-color="#58CAEA"/>
</linearGradient>
<linearGradient id="paint1_linear" x1="363.098" y1="390.016" x2="153.784" y2="27.4771" gradientUnits="userSpaceOnUse">
<stop stop-color="#43ACED" stop-opacity="0"/>
<stop offset="1" stop-color="#231F20"/>
</linearGradient>
</defs>
</svg>
