<svg width="476" height="360" viewBox="0 0 476 360" fill="none" xmlns="http://www.w3.org/2000/svg">
<path d="M6.13037 187.264C13.6466 219.409 29.5578 247.196 54.7041 260.664C106.962 288.655 224.818 274.22 312.778 257.632C357.225 249.278 397.568 226.201 427.313 192.116L6.13037 187.264Z" fill="url(#paint0_linear)"/>
<path d="M467.384 35.9653H419.122C418.016 35.9653 416.955 35.5256 416.172 34.7428C415.39 33.96 414.95 32.8983 414.95 31.7912C414.95 30.6842 415.39 29.6225 416.172 28.8397C416.955 28.0569 418.016 27.6171 419.122 27.6171H427.465C426.359 27.6171 425.298 27.1774 424.515 26.3946C423.733 25.6118 423.294 24.5501 423.294 23.443C423.294 22.336 423.733 21.2743 424.515 20.4915C425.298 19.7087 426.359 19.2689 427.465 19.2689H421.508C420.401 19.2689 419.34 18.8292 418.558 18.0464C417.776 17.2636 417.336 16.2019 417.336 15.0949C417.336 13.9878 417.776 12.9261 418.558 12.1433C419.34 11.3605 420.401 10.9208 421.508 10.9208H446.697C441.108 8.32143 434.574 6.47157 427.05 5.50115C358.365 -3.32791 333.842 2.51192 325.191 8.53371C314.519 15.9418 302.613 21.3917 289.888 24.0171C247.51 32.7638 168.257 43.2911 96.4242 20.6466C60.7224 9.38282 34.1863 28.4099 18.2837 60.1911H475.762C475.164 50.9548 473.376 42.429 470.094 34.9602C469.341 35.6096 468.379 35.9663 467.384 35.9653Z" fill="url(#paint1_linear)"/>
<path d="M2.03467 120.179C0.180777 138.874 0.809708 157.731 3.90505 176.26L427.634 191.765C439.429 178.188 449.333 163.076 457.075 146.84L2.03467 120.179ZM169.625 160.188H161.282C162.388 160.188 163.449 160.627 164.231 161.41C165.014 162.193 165.453 163.255 165.453 164.362C165.453 165.469 165.014 166.53 164.231 167.313C163.449 168.096 162.388 168.536 161.282 168.536H113.02C111.913 168.536 110.852 168.096 110.07 167.313C109.287 166.53 108.848 165.469 108.848 164.362C108.848 163.255 109.287 162.193 110.07 161.41C110.852 160.627 111.913 160.188 113.02 160.188H121.363C120.256 160.188 119.195 159.748 118.413 158.965C117.631 158.182 117.191 157.12 117.191 156.013C117.191 154.906 117.631 153.845 118.413 153.062C119.195 152.279 120.256 151.839 121.363 151.839H115.405C114.299 151.839 113.238 151.4 112.455 150.617C111.673 149.834 111.234 148.772 111.234 147.665C111.234 146.558 111.673 145.496 112.455 144.714C113.238 143.931 114.299 143.491 115.405 143.491H163.667C164.774 143.491 165.835 143.931 166.617 144.714C167.399 145.496 167.839 146.558 167.839 147.665C167.839 148.772 167.399 149.834 166.617 150.617C165.835 151.4 164.774 151.839 163.667 151.839H169.625C170.731 151.839 171.792 152.279 172.574 153.062C173.357 153.845 173.796 154.906 173.796 156.013C173.796 157.12 173.357 158.182 172.574 158.965C171.792 159.748 170.731 160.188 169.625 160.188Z" fill="url(#paint2_linear)"/>
<path d="M475.783 60.4771L13.1704 71.7408C7.5463 86.2104 3.83584 102.573 2.104 119.538H467.678C470.718 109.575 472.966 99.3872 474.402 89.0697C475.788 79.0969 476.342 69.4577 475.783 60.4771ZM96.0216 97.3702H87.6785C88.7848 97.3702 89.8459 97.81 90.6282 98.5928C91.4105 99.3756 91.85 100.437 91.85 101.544C91.85 102.651 91.4105 103.713 90.6282 104.496C89.8459 105.279 88.7848 105.718 87.6785 105.718H39.4165C38.3101 105.718 37.249 105.279 36.4667 104.496C35.6844 103.713 35.2449 102.651 35.2449 101.544C35.2449 100.437 35.6844 99.3756 36.4667 98.5928C37.249 97.81 38.3101 97.3702 39.4165 97.3702H47.7596C46.6532 97.3702 45.5922 96.9305 44.8098 96.1477C44.0275 95.3649 43.588 94.3032 43.588 93.1961C43.588 92.0891 44.0275 91.0274 44.8098 90.2446C45.5922 89.4618 46.6532 89.022 47.7596 89.022H41.8021C40.6957 89.022 39.6346 88.5823 38.8523 87.7995C38.07 87.0167 37.6305 85.955 37.6305 84.8479C37.6305 83.7409 38.07 82.6792 38.8523 81.8964C39.6346 81.1136 40.6957 80.6739 41.8021 80.6739H90.0641C91.1704 80.6739 92.2315 81.1136 93.0138 81.8964C93.7961 82.6792 94.2356 83.7409 94.2356 84.8479C94.2356 85.955 93.7961 87.0167 93.0138 87.7995C92.2315 88.5823 91.1704 89.022 90.0641 89.022H96.0216C97.128 89.022 98.189 89.4618 98.9713 90.2446C99.7537 91.0274 100.193 92.0891 100.193 93.1961C100.193 94.3032 99.7537 95.3649 98.9713 96.1477C98.189 96.9305 97.128 97.3702 96.0216 97.3702Z" fill="url(#paint3_linear)"/>
<path opacity="0.1" d="M297.976 245.519C297.976 245.519 315.387 218.091 339.821 211.197C350.091 208.377 359.169 202.299 365.693 193.877C368.757 189.85 371.446 185.55 373.725 181.032" stroke="#535461" stroke-width="2" stroke-miterlimit="10"/>
<path opacity="0.1" d="M389.098 176.59C386.224 179.104 373.338 181.2 373.338 181.2C373.338 181.2 377.125 168.681 379.996 166.188C381.392 165.109 383.147 164.603 384.904 164.774C386.66 164.946 388.284 165.781 389.446 167.11C390.607 168.439 391.218 170.161 391.154 171.925C391.09 173.689 390.355 175.362 389.1 176.603L389.098 176.59Z" fill="#2B90D9"/>
<path opacity="0.1" d="M380.698 199.127C376.919 199.675 364.973 194.418 364.973 194.418C364.973 194.418 374.938 185.985 378.718 185.437C380.472 185.298 382.213 185.832 383.588 186.931C384.962 188.03 385.868 189.611 386.12 191.354C386.372 193.096 385.952 194.869 384.945 196.313C383.938 197.757 382.419 198.763 380.698 199.127Z" fill="#2B90D9"/>
<path opacity="0.1" d="M353.163 222.552C349.626 221.119 341.964 210.544 341.964 210.544C341.964 210.544 354.82 208.297 358.361 209.731C359.941 210.499 361.171 211.84 361.801 213.481C362.431 215.122 362.414 216.942 361.753 218.571C361.092 220.2 359.837 221.517 358.243 222.256C356.648 222.994 354.832 223.099 353.163 222.548L353.163 222.552Z" fill="#2B90D9"/>
<path opacity="0.1" d="M328.341 235.586C324.613 234.769 315.273 225.645 315.273 225.645C315.273 225.645 327.567 221.27 331.297 222.074C332.235 222.215 333.134 222.547 333.939 223.05C334.743 223.553 335.435 224.215 335.973 224.997C336.511 225.778 336.883 226.662 337.066 227.593C337.248 228.524 337.238 229.483 337.035 230.41C336.832 231.337 336.441 232.212 335.887 232.982C335.332 233.752 334.625 234.399 333.81 234.884C332.995 235.37 332.089 235.682 331.148 235.803C330.208 235.924 329.252 235.85 328.341 235.586Z" fill="#2B90D9"/>
<path opacity="0.1" d="M354.862 183.973C354.664 187.79 360.983 199.212 360.983 199.212C360.983 199.212 368.466 188.512 368.669 184.696C368.646 182.936 367.955 181.251 366.736 179.982C365.517 178.714 363.861 177.957 362.104 177.865C360.348 177.773 358.622 178.353 357.277 179.487C355.932 180.622 355.069 182.226 354.862 183.973Z" fill="#2B90D9"/>
<path opacity="0.1" d="M326.024 199.582C326.975 203.278 336.423 212.29 336.423 212.29C336.423 212.29 340.365 199.838 339.415 196.142C339.239 195.21 338.874 194.325 338.342 193.541C337.81 192.756 337.123 192.089 336.324 191.581C335.524 191.073 334.629 190.734 333.693 190.586C332.757 190.437 331.801 190.482 330.884 190.718C329.966 190.954 329.107 191.376 328.359 191.958C327.611 192.539 326.99 193.268 326.534 194.099C326.079 194.93 325.798 195.846 325.71 196.789C325.623 197.733 325.729 198.685 326.024 199.586L326.024 199.582Z" fill="#2B90D9"/>
<path opacity="0.1" d="M300.076 218.601C300.385 222.41 308.18 232.886 308.18 232.886C308.18 232.886 314.168 221.283 313.855 217.474C313.596 215.734 312.686 214.158 311.308 213.065C309.931 211.972 308.19 211.444 306.438 211.587C304.686 211.731 303.054 212.535 301.873 213.837C300.692 215.14 300.049 216.843 300.076 218.601Z" fill="#2B90D9"/>
<path opacity="0.25" d="M389.098 176.59C386.224 179.104 373.338 181.2 373.338 181.2C373.338 181.2 377.125 168.681 379.996 166.188C381.392 165.109 383.147 164.603 384.904 164.774C386.66 164.946 388.284 165.781 389.446 167.11C390.607 168.439 391.218 170.161 391.154 171.925C391.09 173.689 390.355 175.362 389.1 176.603L389.098 176.59Z" fill="black"/>
<path opacity="0.25" d="M380.698 199.127C376.919 199.675 364.973 194.418 364.973 194.418C364.973 194.418 374.938 185.985 378.718 185.437C380.472 185.298 382.213 185.832 383.588 186.931C384.962 188.03 385.868 189.611 386.12 191.354C386.372 193.096 385.952 194.869 384.945 196.313C383.938 197.757 382.419 198.763 380.698 199.127Z" fill="black"/>
<path opacity="0.25" d="M353.163 222.552C349.626 221.119 341.964 210.544 341.964 210.544C341.964 210.544 354.82 208.297 358.361 209.731C359.941 210.499 361.171 211.84 361.801 213.481C362.431 215.122 362.414 216.942 361.753 218.571C361.092 220.2 359.837 221.517 358.243 222.256C356.648 222.994 354.832 223.099 353.163 222.548L353.163 222.552Z" fill="black"/>
<path opacity="0.25" d="M328.341 235.586C324.613 234.769 315.273 225.645 315.273 225.645C315.273 225.645 327.567 221.27 331.297 222.074C332.235 222.215 333.134 222.547 333.939 223.05C334.743 223.553 335.435 224.215 335.973 224.997C336.511 225.778 336.883 226.662 337.066 227.593C337.248 228.524 337.238 229.483 337.035 230.41C336.832 231.337 336.441 232.212 335.887 232.982C335.332 233.752 334.625 234.399 333.81 234.884C332.995 235.37 332.089 235.682 331.148 235.803C330.208 235.924 329.252 235.85 328.341 235.586Z" fill="black"/>
<path opacity="0.25" d="M354.862 183.973C354.664 187.79 360.983 199.212 360.983 199.212C360.983 199.212 368.466 188.512 368.669 184.696C368.646 182.936 367.955 181.251 366.736 179.982C365.517 178.714 363.861 177.957 362.104 177.865C360.348 177.773 358.622 178.353 357.277 179.487C355.932 180.622 355.069 182.226 354.862 183.973Z" fill="black"/>
<path opacity="0.25" d="M326.024 199.582C326.975 203.278 336.423 212.29 336.423 212.29C336.423 212.29 340.365 199.838 339.415 196.142C339.239 195.21 338.874 194.325 338.342 193.541C337.81 192.756 337.123 192.089 336.324 191.581C335.524 191.073 334.629 190.734 333.693 190.586C332.757 190.437 331.801 190.482 330.884 190.718C329.966 190.954 329.107 191.376 328.359 191.958C327.611 192.539 326.99 193.268 326.534 194.099C326.079 194.93 325.798 195.846 325.71 196.789C325.623 197.733 325.729 198.685 326.024 199.586L326.024 199.582Z" fill="black"/>
<path opacity="0.25" d="M300.076 218.601C300.385 222.41 308.18 232.886 308.18 232.886C308.18 232.886 314.168 221.283 313.855 217.474C313.596 215.734 312.686 214.158 311.308 213.065C309.931 211.972 308.19 211.444 306.438 211.587C304.686 211.731 303.054 212.535 301.873 213.837C300.692 215.14 300.049 216.843 300.076 218.601Z" fill="black"/>
<path opacity="0.1" d="M160.916 321.501C160.916 321.501 149.72 293.892 128.813 283.651C120.013 279.417 112.824 272.44 108.324 263.769C106.222 259.632 104.504 255.31 103.19 250.858" stroke="#535461" stroke-width="2" stroke-miterlimit="10"/>
<path opacity="0.1" d="M90.0536 244.324C92.2332 247.065 103.512 251.077 103.512 251.077C103.512 251.077 102.154 239.159 99.9749 236.438C98.8928 235.235 97.3926 234.49 95.7803 234.355C94.1681 234.221 92.5653 234.707 91.299 235.714C90.0328 236.722 89.1984 238.175 88.9662 239.777C88.734 241.379 89.1215 243.009 90.0496 244.335L90.0536 244.324Z" fill="#2B90D9"/>
<path opacity="0.1" d="M93.9245 266.037C97.2435 267.154 108.884 264.377 108.884 264.377C108.884 264.377 101.281 255.129 97.9621 254.013C96.4026 253.599 94.7441 253.794 93.3233 254.559C91.9025 255.324 90.8259 256.601 90.312 258.132C89.7982 259.662 89.8856 261.331 90.5565 262.799C91.2274 264.267 92.4316 265.425 93.9245 266.037Z" fill="#2B90D9"/>
<path opacity="0.1" d="M114.91 291.699C118.336 290.988 126.987 282.71 126.987 282.71C126.987 282.71 115.76 278.566 112.33 279.277C110.778 279.71 109.448 280.717 108.61 282.094C107.772 283.471 107.488 285.115 107.816 286.694C108.144 288.272 109.059 289.667 110.377 290.596C111.694 291.524 113.314 291.918 114.91 291.695V291.699Z" fill="#2B90D9"/>
<path opacity="0.1" d="M135.158 307.542C138.655 307.419 148.581 300.725 148.581 300.725C148.581 300.725 138.211 294.754 134.713 294.866C133.844 294.838 132.978 294.99 132.17 295.311C131.362 295.633 130.628 296.116 130.014 296.733C129.401 297.349 128.92 298.085 128.602 298.895C128.284 299.705 128.136 300.572 128.166 301.441C128.197 302.311 128.406 303.165 128.779 303.951C129.153 304.736 129.684 305.437 130.34 306.009C130.995 306.581 131.761 307.012 132.59 307.276C133.419 307.539 134.293 307.63 135.158 307.542Z" fill="#2B90D9"/>
<path opacity="0.1" d="M119.722 256.618C119.273 260.094 111.694 269.358 111.694 269.358C111.694 269.358 106.704 258.474 107.149 254.998C107.459 253.414 108.359 252.007 109.668 251.064C110.976 250.12 112.594 249.709 114.194 249.916C115.794 250.122 117.255 250.929 118.282 252.174C119.308 253.419 119.823 255.008 119.722 256.618Z" fill="#2B90D9"/>
<path opacity="0.1" d="M143.169 275.444C141.704 278.622 131.7 285.197 131.7 285.197C131.7 285.197 130.191 273.315 131.656 270.137C131.968 269.326 132.443 268.587 133.052 267.967C133.661 267.347 134.39 266.859 135.195 266.532C136 266.205 136.863 266.046 137.731 266.067C138.6 266.087 139.455 266.285 140.243 266.649C141.032 267.013 141.738 267.535 142.317 268.182C142.897 268.83 143.337 269.59 143.611 270.414C143.885 271.239 143.988 272.111 143.912 272.977C143.836 273.843 143.583 274.684 143.169 275.448V275.444Z" fill="#2B90D9"/>
<path opacity="0.1" d="M163.449 296.872C162.543 300.256 153.789 308.424 153.789 308.424C153.789 308.424 150.296 296.971 151.205 293.586C151.725 292.06 152.805 290.788 154.227 290.029C155.649 289.269 157.306 289.079 158.863 289.497C160.42 289.915 161.76 290.909 162.611 292.278C163.463 293.648 163.762 295.29 163.449 296.872Z" fill="#2B90D9"/>
<path opacity="0.25" d="M90.0536 244.324C92.2332 247.065 103.512 251.077 103.512 251.077C103.512 251.077 102.154 239.159 99.9749 236.438C98.8928 235.235 97.3926 234.49 95.7803 234.355C94.1681 234.221 92.5653 234.707 91.299 235.714C90.0328 236.722 89.1984 238.175 88.9662 239.777C88.734 241.379 89.1215 243.009 90.0496 244.335L90.0536 244.324Z" fill="black"/>
<path opacity="0.25" d="M93.9245 266.037C97.2435 267.154 108.884 264.377 108.884 264.377C108.884 264.377 101.281 255.129 97.9621 254.013C96.4026 253.599 94.7441 253.794 93.3233 254.559C91.9025 255.324 90.8259 256.601 90.312 258.132C89.7982 259.662 89.8856 261.331 90.5565 262.799C91.2274 264.267 92.4316 265.425 93.9245 266.037Z" fill="black"/>
<path opacity="0.25" d="M114.91 291.699C118.336 290.988 126.987 282.71 126.987 282.71C126.987 282.71 115.76 278.566 112.33 279.277C110.778 279.71 109.448 280.717 108.61 282.094C107.772 283.471 107.488 285.115 107.816 286.694C108.144 288.272 109.059 289.667 110.377 290.596C111.694 291.524 113.314 291.918 114.91 291.695V291.699Z" fill="black"/>
<path opacity="0.25" d="M135.158 307.542C138.655 307.419 148.581 300.725 148.581 300.725C148.581 300.725 138.211 294.754 134.713 294.866C133.844 294.838 132.978 294.99 132.17 295.311C131.362 295.633 130.628 296.116 130.014 296.733C129.401 297.349 128.92 298.085 128.602 298.895C128.284 299.705 128.136 300.572 128.166 301.441C128.197 302.311 128.406 303.165 128.779 303.951C129.153 304.736 129.684 305.437 130.34 306.009C130.995 306.581 131.761 307.012 132.59 307.276C133.419 307.539 134.293 307.63 135.158 307.542Z" fill="black"/>
<path opacity="0.25" d="M119.722 256.618C119.273 260.094 111.694 269.358 111.694 269.358C111.694 269.358 106.704 258.474 107.149 254.998C107.459 253.414 108.359 252.007 109.668 251.064C110.976 250.12 112.594 249.709 114.194 249.916C115.794 250.122 117.255 250.929 118.282 252.174C119.308 253.419 119.823 255.008 119.722 256.618Z" fill="black"/>
<path opacity="0.25" d="M143.169 275.444C141.704 278.622 131.7 285.197 131.7 285.197C131.7 285.197 130.191 273.315 131.656 270.137C131.968 269.326 132.443 268.587 133.052 267.967C133.661 267.347 134.39 266.859 135.195 266.532C136 266.205 136.863 266.046 137.731 266.067C138.6 266.087 139.455 266.285 140.243 266.649C141.032 267.013 141.738 267.535 142.317 268.182C142.897 268.83 143.337 269.59 143.611 270.414C143.885 271.239 143.988 272.111 143.912 272.977C143.836 273.843 143.583 274.684 143.169 275.448V275.444Z" fill="black"/>
<path opacity="0.25" d="M163.449 296.872C162.543 300.256 153.789 308.424 153.789 308.424C153.789 308.424 150.296 296.971 151.205 293.586C151.725 292.06 152.805 290.788 154.227 290.029C155.649 289.269 157.306 289.079 158.863 289.497C160.42 289.915 161.76 290.909 162.611 292.278C163.463 293.648 163.762 295.29 163.449 296.872Z" fill="black"/>
<g opacity="0.1">
<path opacity="0.1" d="M285.693 226.994C285.693 226.994 287.234 194.537 305.042 176.433C312.552 168.884 317.414 159.103 318.897 148.555C319.564 143.542 319.771 138.478 319.516 133.427" stroke="#535461" stroke-width="2" stroke-miterlimit="10"/>
<path opacity="0.1" d="M330.72 121.951C329.469 125.56 319.312 133.761 319.312 133.761C319.312 133.761 316.411 121.028 317.662 117.42C317.911 116.502 318.345 115.645 318.938 114.902C319.531 114.159 320.271 113.546 321.111 113.102C321.951 112.657 322.874 112.39 323.822 112.318C324.769 112.246 325.721 112.369 326.619 112.681C327.517 112.992 328.341 113.485 329.041 114.129C329.74 114.773 330.299 115.554 330.684 116.424C331.069 117.293 331.27 118.233 331.277 119.184C331.283 120.134 331.094 121.077 330.72 121.951Z" fill="#2B90D9"/>
<path opacity="0.1" d="M334.565 145.674C331.535 148.022 318.572 149.383 318.572 149.383C318.572 149.383 323.053 137.114 326.062 134.766C326.77 134.136 327.599 133.658 328.499 133.362C329.399 133.065 330.35 132.957 331.293 133.043C332.237 133.129 333.152 133.407 333.984 133.861C334.815 134.315 335.545 134.935 336.127 135.683C336.71 136.43 337.133 137.289 337.371 138.206C337.609 139.124 337.656 140.081 337.509 141.017C337.363 141.953 337.026 142.85 336.52 143.651C336.013 144.452 335.348 145.141 334.565 145.674Z" fill="#2B90D9"/>
<path opacity="0.1" d="M322.247 179.691C318.463 180.198 306.574 174.813 306.574 174.813C306.574 174.813 316.632 166.486 320.429 165.979C321.358 165.793 322.315 165.799 323.242 165.998C324.168 166.196 325.044 166.583 325.816 167.133C326.587 167.684 327.237 168.387 327.726 169.199C328.215 170.012 328.532 170.915 328.658 171.855C328.784 172.795 328.715 173.75 328.457 174.663C328.199 175.575 327.757 176.425 327.158 177.159C326.559 177.894 325.815 178.497 324.974 178.933C324.132 179.368 323.21 179.626 322.265 179.691H322.247Z" fill="#2B90D9"/>
<path opacity="0.1" d="M307.141 203.314C303.496 204.454 290.866 201.148 290.866 201.148C290.866 201.148 299.37 191.241 303.015 190.101C304.726 189.683 306.531 189.933 308.064 190.8C309.598 191.667 310.743 193.085 311.269 194.767C311.794 196.448 311.66 198.267 310.893 199.853C310.127 201.44 308.785 202.674 307.141 203.306V203.314Z" fill="#2B90D9"/>
<path opacity="0.1" d="M304.617 145.336C306.349 148.75 317.485 155.539 317.485 155.539C317.485 155.539 318.684 142.542 316.97 139.12C316.08 137.599 314.645 136.474 312.956 135.974C311.267 135.474 309.451 135.636 307.878 136.428C306.305 137.22 305.092 138.582 304.486 140.237C303.88 141.891 303.927 143.715 304.617 145.336Z" fill="#2B90D9"/>
<path opacity="0.1" d="M287.299 173.192C289.957 175.935 302.625 179.076 302.625 179.076C302.625 179.076 299.885 166.309 297.226 163.566C295.923 162.38 294.217 161.735 292.455 161.764C290.693 161.792 289.009 162.49 287.744 163.718C286.479 164.945 285.728 166.608 285.646 168.369C285.563 170.13 286.154 171.856 287.299 173.197V173.192Z" fill="#2B90D9"/>
<path opacity="0.1" d="M274.18 202.574C276.345 205.727 288.295 210.965 288.295 210.965C288.295 210.965 287.749 197.916 285.593 194.763C284.502 193.396 282.936 192.492 281.207 192.233C279.478 191.974 277.716 192.378 276.272 193.364C274.829 194.351 273.812 195.847 273.425 197.552C273.037 199.258 273.309 201.047 274.185 202.561L274.18 202.574Z" fill="#2B90D9"/>
</g>
<path d="M90.5908 338.511C115.792 347.126 146.538 341.886 175.13 342.492C179.046 342.577 183.186 342.825 186.327 344.311C189.467 345.796 191.012 348.221 193.165 350.274C201.177 357.957 217.591 360.427 231.942 359.123C246.292 357.82 259.45 353.506 272.961 350.221C296.368 344.539 323.127 341.958 346.213 348.149C348.335 348.716 350.565 349.368 352.834 349.146C357.897 348.638 359.404 344.519 362.941 342.167C369.351 337.918 383.214 339.071 386.015 333.473C387.662 330.215 383.874 326.826 379.753 324.584C363.973 316.008 341.4 314.594 320.749 315.917C300.098 317.239 279.794 320.889 259.034 320.902C233.172 320.902 208.182 315.304 182.571 313.01C164.83 311.42 145.467 311.615 128.835 316.268C110.857 321.365 106.883 332.73 90.5908 338.511Z" fill="url(#paint4_linear)" fill-opacity="0.7"/>
<path d="M162.282 81.1028H159.251V123.992H162.282V81.1028Z" fill="#535461"/>
<path d="M162.282 138.721H159.251V162.982H162.282V138.721Z" fill="#535461"/>
<path d="M277.405 39.0803H181.808C170.546 39.0803 161.416 48.2158 161.416 59.4851V314.999C161.416 326.269 170.546 335.404 181.808 335.404H277.405C288.668 335.404 297.798 326.269 297.798 314.999V59.4851C297.798 48.2158 288.668 39.0803 277.405 39.0803Z" fill="#282C37"/>
<path d="M239.565 45.5786H220.082C219.245 45.5786 218.567 46.2575 218.567 47.0949C218.567 47.9323 219.245 48.6112 220.082 48.6112H239.565C240.402 48.6112 241.081 47.9323 241.081 47.0949C241.081 46.2575 240.402 45.5786 239.565 45.5786Z" fill="white"/>
<path d="M248.874 49.4775C250.069 49.4775 251.039 48.5077 251.039 47.3114C251.039 46.1151 250.069 45.1453 248.874 45.1453C247.678 45.1453 246.709 46.1151 246.709 47.3114C246.709 48.5077 247.678 49.4775 248.874 49.4775Z" fill="white"/>
<path d="M185.027 169.519V153.738C185.027 146.765 190.678 141.113 197.649 141.113H213.426M244.98 141.113H260.757C267.728 141.113 273.378 146.765 273.378 153.738V169.519M185.027 201.081V216.862C185.027 223.834 190.678 229.486 197.649 229.486H213.426M273.378 201.081V216.862C273.378 223.834 267.728 229.486 260.757 229.486H244.98M194.494 185.3H263.912" stroke="white" stroke-width="3"/>
<defs>
<linearGradient id="paint0_linear" x1="6.13512" y1="231.866" x2="427.295" y2="231.866" gradientUnits="userSpaceOnUse">
<stop stop-color="#2B90D9"/>
<stop offset="1" stop-color="#58CAEA"/>
</linearGradient>
<linearGradient id="paint1_linear" x1="18.2888" y1="30.5899" x2="475.742" y2="30.5899" gradientUnits="userSpaceOnUse">
<stop stop-color="#2B90D9"/>
<stop offset="1" stop-color="#58CAEA"/>
</linearGradient>
<linearGradient id="paint2_linear" x1="1.00074" y1="155.971" x2="457.055" y2="155.971" gradientUnits="userSpaceOnUse">
<stop stop-color="#2B90D9"/>
<stop offset="1" stop-color="#58CAEA"/>
</linearGradient>
<linearGradient id="paint3_linear" x1="2.10934" y1="90.0062" x2="475.978" y2="90.0062" gradientUnits="userSpaceOnUse">
<stop stop-color="#2B90D9"/>
<stop offset="1" stop-color="#58CAEA"/>
</linearGradient>
<linearGradient id="paint4_linear" x1="90.5942" y1="335.781" x2="386.396" y2="335.781" gradientUnits="userSpaceOnUse">
<stop stop-color="#2B90D9"/>
<stop offset="1" stop-color="#58CAEA"/>
</linearGradient>
</defs>
</svg>
