<svg width="24" height="24" viewBox="0 0 24 24" fill="none" xmlns="http://www.w3.org/2000/svg">
<rect width="24" height="24" fill="#282C37"/>
<g clip-path="url(#clip0)">
<path d="M19 8.84906C18.4422 9.09375 17.8478 9.25594 17.2281 9.33469C17.8656 8.95406 18.3522 8.35594 18.5809 7.635C17.9866 7.98937 17.3303 8.23969 16.6309 8.37938C16.0666 7.77844 15.2622 7.40625 14.3847 7.40625C12.6822 7.40625 11.3116 8.78813 11.3116 10.4822C11.3116 10.7259 11.3322 10.9603 11.3828 11.1834C8.82625 11.0587 6.56406 9.83344 5.04437 7.96688C4.77906 8.42719 4.62344 8.95406 4.62344 9.52125C4.62344 10.5863 5.17188 11.5303 5.98937 12.0769C5.49531 12.0675 5.01063 11.9241 4.6 11.6981C4.6 11.7075 4.6 11.7197 4.6 11.7319C4.6 13.2262 5.66594 14.4675 7.06375 14.7534C6.81344 14.8219 6.54063 14.8547 6.2575 14.8547C6.06063 14.8547 5.86187 14.8434 5.67531 14.8022C6.07375 16.02 7.20438 16.9153 8.54875 16.9444C7.5025 17.7628 6.17406 18.2559 4.73594 18.2559C4.48375 18.2559 4.24187 18.2447 4 18.2137C5.36219 19.0922 6.97656 19.5938 8.7175 19.5938C14.3763 19.5938 17.47 14.9062 17.47 10.8431C17.47 10.7072 17.4653 10.5759 17.4587 10.4456C18.0691 10.0125 18.5819 9.47156 19 8.84906Z" fill="white"/>
</g>
<defs>
<clipPath id="clip0">
<rect width="15" height="15" fill="white" transform="translate(4 6)"/>
</clipPath>
</defs>
</svg>
