<svg width="236" height="217" viewBox="0 0 236 217" fill="none" xmlns="http://www.w3.org/2000/svg">
<path d="M236 215.963H114.495V8.32524C114.495 4.19356 117.825 0.862915 121.957 0.862915H228.496C232.627 0.862915 235.958 4.19356 235.958 8.32524V215.963H236Z" fill="#DED8EE"/>
<path d="M224.448 100.909H125.794C123.138 100.909 120.987 98.7586 120.987 96.1025V76.9619C120.987 74.3058 123.138 72.1556 125.794 72.1556H224.448C227.104 72.1556 229.254 74.3058 229.254 76.9619V96.0604C229.254 98.7586 227.104 100.909 224.448 100.909Z" fill="#E6E2F0"/>
<path d="M221.244 50.6117H211.168C209.355 50.6117 207.879 49.1361 207.879 47.3233V44.4142C207.879 42.6013 209.355 41.1257 211.168 41.1257H221.244C223.057 41.1257 224.532 42.6013 224.532 44.4142V47.3233C224.49 49.1361 223.057 50.6117 221.244 50.6117Z" fill="white"/>
<path d="M220.907 118.574H210.831C209.018 118.574 207.542 117.098 207.542 115.285V112.376C207.542 110.563 209.018 109.088 210.831 109.088H220.907C222.72 109.088 224.195 110.563 224.195 112.376V115.285C224.195 117.098 222.72 118.574 220.907 118.574Z" fill="white"/>
<path d="M223.858 205.297H122.885V144.46C122.885 142.352 124.613 140.624 126.721 140.624H222.298C226.05 140.624 229.086 143.659 229.086 147.411V200.069C229.086 202.978 226.767 205.297 223.858 205.297Z" fill="#5D50C1"/>
<path d="M224.448 98.379H125.794C123.138 98.379 120.987 96.2288 120.987 93.5727V74.4321C120.987 71.776 123.138 69.6259 125.794 69.6259H224.448C227.104 69.6259 229.254 71.776 229.254 74.4321V93.5306C229.254 96.2288 227.104 98.379 224.448 98.379Z" fill="white"/>
<path opacity="0.31" d="M194.304 171.485H195.231C195.4 171.485 195.526 171.653 195.526 171.78V172.707C195.526 172.876 195.4 173.002 195.231 173.002H194.304C194.135 173.002 194.009 172.834 194.009 172.707V171.78C194.009 171.611 194.135 171.485 194.304 171.485Z" fill="white"/>
<path opacity="0.31" d="M200.417 171.485H201.345C201.513 171.485 201.64 171.653 201.64 171.78V172.707C201.64 172.876 201.513 173.002 201.345 173.002H200.417C200.248 173.002 200.122 172.834 200.122 172.707V171.78C200.122 171.611 200.248 171.485 200.417 171.485Z" fill="white"/>
<path opacity="0.31" d="M206.488 171.485H207.415C207.584 171.485 207.711 171.653 207.711 171.78V172.707C207.711 172.876 207.584 173.002 207.415 173.002H206.488C206.319 173.002 206.193 172.834 206.193 172.707V171.78C206.193 171.611 206.319 171.485 206.488 171.485Z" fill="white"/>
<path opacity="0.31" d="M212.601 171.485H213.529C213.697 171.485 213.824 171.653 213.824 171.78V172.707C213.824 172.876 213.697 173.002 213.529 173.002H212.601C212.432 173.002 212.306 172.834 212.306 172.707V171.78C212.306 171.611 212.432 171.485 212.601 171.485Z" fill="white"/>
<path opacity="0.31" d="M218.714 171.485H219.642C219.811 171.485 219.937 171.653 219.937 171.78V172.707C219.937 172.876 219.811 173.002 219.642 173.002H218.714C218.546 173.002 218.419 172.834 218.419 172.707V171.78C218.377 171.611 218.504 171.485 218.714 171.485Z" fill="white"/>
<path opacity="0.31" d="M224.785 171.485H225.713C225.882 171.485 226.008 171.653 226.008 171.78V172.707C226.008 172.876 225.882 173.002 225.713 173.002H224.785C224.617 173.002 224.49 172.834 224.49 172.707V171.78C224.49 171.611 224.617 171.485 224.785 171.485Z" fill="white"/>
<path opacity="0.31" d="M194.304 177.556H195.231C195.4 177.556 195.526 177.724 195.526 177.851V178.778C195.526 178.947 195.4 179.073 195.231 179.073H194.304C194.135 179.073 194.009 178.905 194.009 178.778V177.851C194.009 177.724 194.135 177.556 194.304 177.556Z" fill="white"/>
<path opacity="0.31" d="M200.417 177.556H201.345C201.513 177.556 201.64 177.724 201.64 177.851V178.778C201.64 178.947 201.513 179.073 201.345 179.073H200.417C200.248 179.073 200.122 178.905 200.122 178.778V177.851C200.122 177.724 200.248 177.556 200.417 177.556Z" fill="white"/>
<path opacity="0.31" d="M206.488 177.556H207.415C207.584 177.556 207.711 177.724 207.711 177.851V178.778C207.711 178.947 207.584 179.073 207.415 179.073H206.488C206.319 179.073 206.193 178.905 206.193 178.778V177.851C206.193 177.724 206.319 177.556 206.488 177.556Z" fill="white"/>
<path opacity="0.31" d="M212.601 177.556H213.529C213.697 177.556 213.824 177.724 213.824 177.851V178.778C213.824 178.947 213.697 179.073 213.529 179.073H212.601C212.432 179.073 212.306 178.905 212.306 178.778V177.851C212.306 177.724 212.432 177.556 212.601 177.556Z" fill="white"/>
<path opacity="0.31" d="M218.714 177.556H219.642C219.811 177.556 219.937 177.724 219.937 177.851V178.778C219.937 178.947 219.811 179.073 219.642 179.073H218.714C218.546 179.073 218.419 178.905 218.419 178.778V177.851C218.377 177.724 218.504 177.556 218.714 177.556Z" fill="white"/>
<path opacity="0.31" d="M224.785 177.556H225.713C225.882 177.556 226.008 177.724 226.008 177.851V178.778C226.008 178.947 225.882 179.073 225.713 179.073H224.785C224.617 179.073 224.49 178.905 224.49 178.778V177.851C224.49 177.724 224.617 177.556 224.785 177.556Z" fill="white"/>
<path opacity="0.31" d="M194.304 183.669H195.231C195.4 183.669 195.526 183.837 195.526 183.964V184.891C195.526 185.06 195.4 185.187 195.231 185.187H194.304C194.135 185.187 194.009 185.018 194.009 184.891V183.964C194.009 183.795 194.135 183.669 194.304 183.669Z" fill="white"/>
<path opacity="0.31" d="M200.417 183.669H201.345C201.513 183.669 201.64 183.837 201.64 183.964V184.891C201.64 185.06 201.513 185.187 201.345 185.187H200.417C200.248 185.187 200.122 185.018 200.122 184.891V183.964C200.122 183.795 200.248 183.669 200.417 183.669Z" fill="white"/>
<path opacity="0.31" d="M206.488 183.669H207.415C207.584 183.669 207.711 183.837 207.711 183.964V184.891C207.711 185.06 207.584 185.187 207.415 185.187H206.488C206.319 185.187 206.193 185.018 206.193 184.891V183.964C206.193 183.795 206.319 183.669 206.488 183.669Z" fill="white"/>
<path opacity="0.31" d="M212.601 183.669H213.529C213.697 183.669 213.824 183.837 213.824 183.964V184.891C213.824 185.06 213.697 185.187 213.529 185.187H212.601C212.432 185.187 212.306 185.018 212.306 184.891V183.964C212.306 183.795 212.432 183.669 212.601 183.669Z" fill="white"/>
<path opacity="0.31" d="M218.714 183.669H219.642C219.811 183.669 219.937 183.837 219.937 183.964V184.891C219.937 185.06 219.811 185.187 219.642 185.187H218.714C218.546 185.187 218.419 185.018 218.419 184.891V183.964C218.377 183.795 218.504 183.669 218.714 183.669Z" fill="white"/>
<path opacity="0.31" d="M224.785 183.669H225.713C225.882 183.669 226.008 183.837 226.008 183.964V184.891C226.008 185.06 225.882 185.187 225.713 185.187H224.785C224.617 185.187 224.49 185.018 224.49 184.891V183.964C224.49 183.795 224.617 183.669 224.785 183.669Z" fill="white"/>
<path opacity="0.31" d="M194.304 189.74H195.231C195.4 189.74 195.526 189.909 195.526 190.035V190.963C195.526 191.131 195.4 191.258 195.231 191.258H194.304C194.135 191.258 194.009 191.089 194.009 190.963V190.035C194.009 189.909 194.135 189.74 194.304 189.74Z" fill="white"/>
<path opacity="0.31" d="M200.417 189.74H201.345C201.513 189.74 201.64 189.909 201.64 190.035V190.963C201.64 191.131 201.513 191.258 201.345 191.258H200.417C200.248 191.258 200.122 191.089 200.122 190.963V190.035C200.122 189.909 200.248 189.74 200.417 189.74Z" fill="white"/>
<path opacity="0.31" d="M206.488 189.74H207.415C207.584 189.74 207.711 189.909 207.711 190.035V190.963C207.711 191.131 207.584 191.258 207.415 191.258H206.488C206.319 191.258 206.193 191.089 206.193 190.963V190.035C206.193 189.909 206.319 189.74 206.488 189.74Z" fill="white"/>
<path opacity="0.31" d="M212.601 189.74H213.529C213.697 189.74 213.824 189.909 213.824 190.035V190.963C213.824 191.131 213.697 191.258 213.529 191.258H212.601C212.432 191.258 212.306 191.089 212.306 190.963V190.035C212.306 189.909 212.432 189.74 212.601 189.74Z" fill="white"/>
<path opacity="0.31" d="M218.714 189.74H219.642C219.811 189.74 219.937 189.909 219.937 190.035V190.963C219.937 191.131 219.811 191.258 219.642 191.258H218.714C218.546 191.258 218.419 191.089 218.419 190.963V190.035C218.377 189.909 218.504 189.74 218.714 189.74Z" fill="white"/>
<path opacity="0.31" d="M224.785 189.74H225.713C225.882 189.74 226.008 189.909 226.008 190.035V190.963C226.008 191.131 225.882 191.258 225.713 191.258H224.785C224.617 191.258 224.49 191.089 224.49 190.963V190.035C224.49 189.909 224.617 189.74 224.785 189.74Z" fill="white"/>
<path opacity="0.31" d="M194.304 195.853H195.231C195.4 195.853 195.526 196.022 195.526 196.148V197.076C195.526 197.244 195.4 197.371 195.231 197.371H194.304C194.135 197.371 194.009 197.202 194.009 197.076V196.148C194.009 195.98 194.135 195.853 194.304 195.853Z" fill="white"/>
<path opacity="0.31" d="M200.417 195.853H201.345C201.513 195.853 201.64 196.022 201.64 196.148V197.076C201.64 197.244 201.513 197.371 201.345 197.371H200.417C200.248 197.371 200.122 197.202 200.122 197.076V196.148C200.122 195.98 200.248 195.853 200.417 195.853Z" fill="white"/>
<path opacity="0.31" d="M206.488 195.853H207.415C207.584 195.853 207.711 196.022 207.711 196.148V197.076C207.711 197.244 207.584 197.371 207.415 197.371H206.488C206.319 197.371 206.193 197.202 206.193 197.076V196.148C206.193 195.98 206.319 195.853 206.488 195.853Z" fill="white"/>
<path opacity="0.31" d="M212.601 195.853H213.529C213.697 195.853 213.824 196.022 213.824 196.148V197.076C213.824 197.244 213.697 197.371 213.529 197.371H212.601C212.432 197.371 212.306 197.202 212.306 197.076V196.148C212.306 195.98 212.432 195.853 212.601 195.853Z" fill="white"/>
<path opacity="0.31" d="M218.714 195.853H219.642C219.811 195.853 219.937 196.022 219.937 196.148V197.076C219.937 197.244 219.811 197.371 219.642 197.371H218.714C218.546 197.371 218.419 197.202 218.419 197.076V196.148C218.377 195.98 218.504 195.853 218.714 195.853Z" fill="white"/>
<path opacity="0.31" d="M224.785 195.853H225.713C225.882 195.853 226.008 196.022 226.008 196.148V197.076C226.008 197.244 225.882 197.371 225.713 197.371H224.785C224.617 197.371 224.49 197.202 224.49 197.076V196.148C224.49 195.98 224.617 195.853 224.785 195.853Z" fill="white"/>
<path opacity="0.31" d="M194.304 201.924H195.231C195.4 201.924 195.526 202.093 195.526 202.219V203.147C195.526 203.315 195.4 203.442 195.231 203.442H194.304C194.135 203.442 194.009 203.273 194.009 203.147V202.219C194.009 202.093 194.135 201.924 194.304 201.924Z" fill="white"/>
<path opacity="0.31" d="M200.417 201.924H201.345C201.513 201.924 201.64 202.093 201.64 202.219V203.147C201.64 203.315 201.513 203.442 201.345 203.442H200.417C200.248 203.442 200.122 203.273 200.122 203.147V202.219C200.122 202.093 200.248 201.924 200.417 201.924Z" fill="white"/>
<path opacity="0.31" d="M206.488 201.924H207.415C207.584 201.924 207.711 202.093 207.711 202.219V203.147C207.711 203.315 207.584 203.442 207.415 203.442H206.488C206.319 203.442 206.193 203.273 206.193 203.147V202.219C206.193 202.093 206.319 201.924 206.488 201.924Z" fill="white"/>
<path opacity="0.31" d="M212.601 201.924H213.529C213.697 201.924 213.824 202.093 213.824 202.219V203.147C213.824 203.315 213.697 203.442 213.529 203.442H212.601C212.432 203.442 212.306 203.273 212.306 203.147V202.219C212.306 202.093 212.432 201.924 212.601 201.924Z" fill="white"/>
<path opacity="0.31" d="M218.714 201.924H219.642C219.811 201.924 219.937 202.093 219.937 202.219V203.147C219.937 203.315 219.811 203.442 219.642 203.442H218.714C218.546 203.442 218.419 203.273 218.419 203.147V202.219C218.377 202.093 218.504 201.924 218.714 201.924Z" fill="white"/>
<path opacity="0.31" d="M224.785 201.924H225.713C225.882 201.924 226.008 202.093 226.008 202.219V203.147C226.008 203.315 225.882 203.442 225.713 203.442H224.785C224.617 203.442 224.49 203.273 224.49 203.147V202.219C224.49 202.093 224.617 201.924 224.785 201.924Z" fill="white"/>
<path d="M191.816 195.221H159.269C155.685 195.221 152.776 192.312 152.776 188.728V184.428C152.776 180.844 155.685 177.935 159.269 177.935H191.816C195.4 177.935 198.309 180.844 198.309 184.428V188.728C198.309 192.312 195.4 195.221 191.816 195.221Z" fill="#F6F2FF"/>
<path d="M221.244 84.5927H211.168C209.355 84.5927 207.879 83.1171 207.879 81.3042V78.3952C207.879 76.5823 209.355 75.1067 211.168 75.1067H221.244C223.057 75.1067 224.532 76.5823 224.532 78.3952V81.3042C224.49 83.1171 223.057 84.5927 221.244 84.5927Z" fill="#FFDE8D"/>
<path d="M138.653 127.722H132.497C128.829 127.722 125.878 124.771 125.878 121.103V114.822C125.878 111.154 128.829 108.202 132.497 108.202H138.653C142.32 108.202 145.272 111.154 145.272 114.822V121.103C145.314 124.771 142.32 127.722 138.653 127.722Z" fill="#3D2EAF"/>
<path d="M194.135 45.5526H153.661C152.481 45.5526 151.553 44.625 151.553 43.4445C151.553 42.2641 152.481 41.3365 153.661 41.3365H194.135C195.316 41.3365 196.243 42.2641 196.243 43.4445C196.243 44.625 195.316 45.5526 194.135 45.5526Z" fill="#212025"/>
<path d="M193.756 19.2868H128.112C126.932 19.2868 126.004 18.3593 126.004 17.1788C126.004 15.9983 126.932 15.0708 128.112 15.0708H193.756C194.936 15.0708 195.864 15.9983 195.864 17.1788C195.864 18.3593 194.894 19.2868 193.756 19.2868Z" fill="#212025"/>
<path d="M180.644 54.8277H153.24C152.059 54.8277 151.132 53.9002 151.132 52.7197C151.132 51.5392 152.059 50.6117 153.24 50.6117H180.644C181.824 50.6117 182.752 51.5392 182.752 52.7197C182.752 53.9002 181.824 54.8277 180.644 54.8277Z" fill="#AFA0D2"/>
<path d="M194.388 80.6718H153.914C152.734 80.6718 151.806 79.7443 151.806 78.5638C151.806 77.3833 152.734 76.4558 153.914 76.4558H194.388C195.569 76.4558 196.496 77.3833 196.496 78.5638C196.496 79.7021 195.526 80.6718 194.388 80.6718Z" fill="#212025"/>
<path d="M193.503 160.945H153.029C151.849 160.945 150.921 160.017 150.921 158.837C150.921 157.656 151.849 156.729 153.029 156.729H193.503C194.683 156.729 195.611 157.656 195.611 158.837C195.611 159.975 194.641 160.945 193.503 160.945Z" fill="#F6F2FF"/>
<path d="M204.591 167.606H138.61C137.809 167.606 137.177 166.974 137.177 166.173C137.177 165.372 137.809 164.739 138.61 164.739H204.591C205.392 164.739 206.024 165.372 206.024 166.173C205.982 166.974 205.35 167.606 204.591 167.606Z" fill="#A198E2"/>
<path d="M180.897 89.947H153.493C152.312 89.947 151.385 89.0194 151.385 87.839C151.385 86.6585 152.312 85.731 153.493 85.731H180.897C182.077 85.731 183.005 86.6585 183.005 87.839C183.005 88.9773 182.035 89.947 180.897 89.947Z" fill="#AFA0D2"/>
<path d="M195.063 114.105H154.589C153.409 114.105 152.481 113.177 152.481 111.997C152.481 110.816 153.409 109.889 154.589 109.889H195.063C196.243 109.889 197.171 110.816 197.171 111.997C197.171 113.177 196.243 114.105 195.063 114.105Z" fill="#212025"/>
<path d="M181.572 123.38H154.167C152.987 123.38 152.059 122.452 152.059 121.272C152.059 120.091 152.987 119.164 154.167 119.164H181.572C182.752 119.164 183.68 120.091 183.68 121.272C183.68 122.452 182.752 123.38 181.572 123.38Z" fill="#AFA0D2"/>
<path d="M131.949 119.712C133.323 119.712 134.437 118.598 134.437 117.224C134.437 115.851 133.323 114.737 131.949 114.737C130.575 114.737 129.462 115.851 129.462 117.224C129.462 118.598 130.575 119.712 131.949 119.712Z" fill="#FEC200"/>
<path d="M139.327 119.754C140.701 119.754 141.814 118.641 141.814 117.267C141.814 115.893 140.701 114.779 139.327 114.779C137.953 114.779 136.84 115.893 136.84 117.267C136.84 118.641 137.953 119.754 139.327 119.754Z" fill="#FD7301"/>
<path d="M132.033 129.03C130.684 129.03 129.546 127.933 129.546 126.542V123.338C129.546 121.989 130.642 120.85 132.033 120.85C133.383 120.85 134.521 121.947 134.521 123.338V126.542C134.479 127.933 133.383 129.03 132.033 129.03Z" fill="#FF8402"/>
<path d="M138.653 59.4232H132.497C128.829 59.4232 125.878 56.472 125.878 52.804V46.5222C125.878 42.8543 128.829 39.9031 132.497 39.9031H138.653C142.32 39.9031 145.272 42.8543 145.272 46.5222V52.804C145.314 56.472 142.32 59.4232 138.653 59.4232Z" fill="#5341C1"/>
<path d="M138.653 93.5727H132.497C128.829 93.5727 125.878 90.6215 125.878 86.9536V80.6717C125.878 77.0038 128.829 74.0526 132.497 74.0526H138.653C142.32 74.0526 145.272 77.0038 145.272 80.6717V86.9536C145.314 90.6215 142.32 93.5727 138.653 93.5727Z" fill="#FCB800"/>
<path d="M138.905 88.5136C139.883 88.5136 140.676 87.7208 140.676 86.7429C140.676 85.765 139.883 84.9722 138.905 84.9722C137.927 84.9722 137.135 85.765 137.135 86.7429C137.135 87.7208 137.927 88.5136 138.905 88.5136Z" fill="#FE7602"/>
<path d="M127.607 85.1407C132.962 85.1407 137.303 80.7993 137.303 75.4439C137.303 70.0885 132.962 65.7471 127.607 65.7471C122.251 65.7471 117.91 70.0885 117.91 75.4439C117.91 80.7993 122.251 85.1407 127.607 85.1407Z" fill="#FE6A04"/>
<path d="M126.342 100.234C129.835 100.234 132.666 97.3273 132.666 93.7415C132.666 90.1558 129.835 87.2489 126.342 87.2489C122.849 87.2489 120.018 90.1558 120.018 93.7415C120.018 97.3273 122.849 100.234 126.342 100.234Z" fill="#6853D0"/>
<path d="M135.701 61.3202C141.359 61.3202 145.946 58.7909 145.946 55.6708C145.946 52.5507 141.359 50.0214 135.701 50.0214C130.043 50.0214 125.456 52.5507 125.456 55.6708C125.456 58.7909 130.043 61.3202 135.701 61.3202Z" fill="#FCD401"/>
<path d="M135.533 50.0636C139.118 50.0636 142.025 47.4965 142.025 44.3298C142.025 41.1632 139.118 38.5961 135.533 38.5961C131.947 38.5961 129.04 41.1632 129.04 44.3298C129.04 47.4965 131.947 50.0636 135.533 50.0636Z" fill="#FE670E"/>
<path d="M51.1704 27.7189C47.2074 31.5976 45.0572 36.3196 44.8464 41.8847C44.8464 42.0955 44.8042 42.3063 44.6356 42.4749C44.467 42.6014 44.2562 42.6436 44.0875 42.5592C43.8767 42.4328 43.7502 42.2641 43.7502 42.0112C43.7924 40.7885 43.9189 39.608 44.1297 38.4276C45.0994 33.6635 47.3338 29.6583 50.9596 26.4541C55.1335 22.7019 60.0662 20.889 65.6735 20.9311C66.0951 20.9311 66.3059 21.1419 66.3059 21.4792C66.3059 21.8165 66.0529 22.0273 65.6313 22.0273C63.7763 21.9851 61.8791 22.2381 60.0662 22.7019C57.0728 23.5029 54.2903 24.9785 51.9293 27.0022C51.7185 27.1708 51.4655 27.4238 51.1704 27.7189Z" fill="black"/>
<path d="M53.4893 30.0376C56.9042 26.8335 60.9094 25.1892 65.6314 25.2314C65.9265 25.2314 66.1794 25.3579 66.2638 25.653C66.3481 25.9481 66.2216 26.1589 65.9686 26.2854C65.8843 26.3275 65.7578 26.3275 65.6735 26.3275C62.2586 26.2854 59.0966 27.2129 56.314 29.1944C51.9715 32.2721 49.6527 36.4881 49.3576 41.7581C49.3576 41.8424 49.3576 41.9689 49.3576 42.0954C49.3154 42.4748 49.1046 42.6856 48.7674 42.6856C48.4301 42.6856 48.2193 42.4327 48.2193 42.0532C48.2193 41.3787 48.3036 40.7041 48.3879 40.0296C48.9782 36.2351 50.6224 32.9888 53.3206 30.2906C53.3206 30.2063 53.405 30.1219 53.4893 30.0376Z" fill="black"/>
<path d="M56.4825 33.1996C58.9699 30.8808 61.879 29.6581 65.2939 29.616C65.4626 29.616 65.6734 29.616 65.842 29.7003C66.095 29.7846 66.2636 29.9532 66.2215 30.2484C66.1793 30.5435 65.9263 30.7543 65.6312 30.7543C64.4507 30.7121 63.3124 30.8808 62.1741 31.218C57.3257 32.5672 53.8264 37.0361 53.6578 42.0953C53.6578 42.5169 53.447 42.7699 53.0675 42.7699C52.7302 42.7699 52.5194 42.4748 52.5194 42.011C52.6881 38.5539 54.0372 35.6449 56.4825 33.1996Z" fill="black"/>
<path d="M102.31 70.0898C102.31 70.0898 103.913 68.7407 105.852 69.4574C107.791 70.1741 108.55 75.3598 102.058 79.618C95.5649 83.834 102.31 70.0898 102.31 70.0898Z" fill="#FFA398"/>
<path d="M101.805 82.0211C101.805 82.0211 108.803 81.5995 110.574 83.4967C112.345 85.3939 110.405 90.0737 101.805 92.5611C93.204 95.0486 101.805 82.0211 101.805 82.0211Z" fill="#FFA398"/>
<path d="M101.763 131.053C101.763 131.053 107.075 125.657 105.515 122.326C103.955 118.995 101.13 116.381 96.7033 117.014C95.9445 125.277 95.9444 125.277 95.9444 125.277L101.763 131.053Z" fill="#F2968F"/>
<path d="M67.6128 37.6687L99.2328 40.4091C103.027 40.7464 105.81 44.0348 105.515 47.8292L99.1063 125.024C98.8112 128.776 95.5227 131.559 91.7705 131.306L60.1926 129.198C56.3561 128.945 53.4892 125.614 53.7843 121.778L60.1505 43.9927C60.4877 40.1561 63.8184 37.3314 67.6128 37.6687Z" fill="#1A182D"/>
<path d="M67.4021 40.0295L98.98 42.8964C101.552 43.1072 103.449 45.3838 103.238 47.9556L97.1671 124.56C96.9563 127.132 94.7218 129.072 92.15 128.903L60.6143 126.711C58.0004 126.542 56.061 124.265 56.2718 121.651L62.3007 44.4141C62.4694 41.7159 64.7882 39.7765 67.4021 40.0295Z" fill="#F9F8FF"/>
<path d="M100.751 105.42C100.751 105.42 94.1736 110.605 94.8482 114.4C95.5227 118.194 100.961 119.838 105.388 114.568C109.815 109.298 109.098 102.131 101.004 100.613C100.751 105.04 100.751 105.42 100.751 105.42Z" fill="#FFA398"/>
<path d="M95.312 136.955C94.5953 138.515 93.2462 140.497 91.6441 142.647C86.88 148.971 79.6706 156.56 78.4058 157.783C76.6773 159.469 74.3585 163.98 74.3585 163.98L54.2481 215.668L1 215.626L28.3619 169.882C28.3619 169.882 39.7872 150.615 42.9071 144.586C46.0269 138.6 44.6778 133.498 43.3708 124.392C42.0217 115.285 44.6356 105.968 47.2917 96.6083C49.9478 87.2488 54.0795 83.3279 56.8199 83.4965C59.223 83.6652 59.0122 88.1341 58.6328 90.7481C58.2955 93.362 59.0544 102.342 59.0122 104.155C58.97 106.01 61.6261 117.098 62.0056 118.869C62.3007 120.176 65.0833 125.066 66.601 127.722C67.1913 128.734 67.5707 129.367 67.5707 129.367L96.4925 131.854C96.5768 131.896 98.1367 130.884 95.312 136.955Z" stroke="#FFA398" stroke-miterlimit="10"/>
<path d="M95.312 136.955C94.5953 138.515 93.2462 140.497 91.6441 142.647C86.88 148.971 79.6706 156.56 78.4058 157.783C76.6773 159.469 74.3585 163.98 74.3585 163.98L54.2481 215.668L1 215.626L28.3619 169.882C28.3619 169.882 39.7872 150.615 42.9071 144.586C46.0269 138.6 44.6778 133.498 43.3708 124.392C42.0217 115.285 44.6356 105.968 47.2917 96.6083C49.9478 87.2488 54.0795 83.3279 56.8199 83.4965C59.223 83.6652 59.0122 88.1341 58.6328 90.7481C58.2955 93.362 59.0544 102.342 59.0122 104.155C58.9701 106.01 61.6261 117.098 62.0056 118.869C62.3007 120.176 65.0833 125.066 66.601 127.722C67.1913 128.734 67.5707 129.367 67.5707 129.367L96.4925 131.854C96.5768 131.896 98.1367 130.884 95.312 136.955Z" fill="#FFA398"/>
<path d="M95.312 136.956C94.5953 138.516 93.2462 140.497 91.6441 142.647C90.2528 137.925 85.4044 130.126 68.8355 132.318C67.7815 129.999 67.0648 128.524 66.6432 127.723C67.2334 128.734 67.6129 129.367 67.6129 129.367L96.5347 131.854C96.5768 131.896 98.1367 130.885 95.312 136.956Z" fill="#FE786D"/>
<path d="M108.55 135.058C108.55 135.058 98.3896 145.725 98.9799 158.837C99.5701 171.948 108.044 167.058 108.803 165.877C109.562 164.697 109.646 163.685 109.646 163.685C109.646 163.685 110.237 169.25 115.127 168.154L108.55 135.058Z" fill="#FE786D"/>
<path d="M81.0198 113.599C78.6589 116.339 81.9474 121.145 86.4163 126.753C90.8853 132.36 100.709 144.376 103.365 148.254C106.021 152.133 113.61 166.636 114.073 170.009C114.537 173.34 114.621 177.682 108.972 177.092C103.365 176.502 101.299 161.493 100.624 159.511C99.9497 157.53 97.0407 146.947 92.5717 148.634C88.1027 150.32 89.4518 169.166 94.6375 182.151C99.8232 195.136 110.996 209.386 116.308 211.958L118.837 215.753L156.107 215.668C156.107 215.668 155.559 207.616 155.559 205.086C155.559 202.557 154.589 166.299 145.82 164.191C145.82 164.191 145.44 158.12 140.718 157.487C140.718 157.487 122.252 130.716 113.357 131.18C111.08 132.149 109.647 133.709 109.647 133.709C109.647 133.709 87.7655 113.262 84.6456 112.966C81.4836 112.671 81.0198 113.599 81.0198 113.599Z" fill="#FFA398"/>
<path d="M99.6966 61.5734L97.5886 84.0025C97.5043 84.93 96.6189 85.6467 95.6493 85.5624L59.2651 82.6955L61.3731 56.1769L98.0945 59.7183C99.0642 59.8026 99.7809 60.6458 99.6966 61.5734Z" fill="#E6E2F0"/>
<path d="M98.3475 58.074L98.1789 60.0133L97.7151 66L96.5768 80.5453C96.4503 81.9787 95.1855 83.0749 93.7521 82.9484L52.1401 79.0275C50.7488 78.901 49.6948 77.6784 49.7791 76.2871L50.6645 61.8684L51.0439 55.5865L51.1283 53.9423C51.2126 52.4667 52.5195 51.3705 53.953 51.497L95.9022 55.2492C97.3778 55.4179 98.4318 56.6405 98.3475 58.074Z" fill="#282C37"/>
<path d="M68.9619 144.334C68.9619 144.334 73.1779 139.612 67.6128 129.409" stroke="#FE786D" stroke-width="2" stroke-miterlimit="10" stroke-linecap="round"/>
<path d="M109.604 133.751C109.604 133.751 123.77 151.037 126.679 152.26" stroke="#FE786D" stroke-width="2" stroke-miterlimit="10" stroke-linecap="round"/>
<path d="M131.865 159.806C131.865 159.806 133.973 163.601 136.249 177.556C138.526 191.553 138.526 192.522 138.526 192.522" stroke="#FE786D" stroke-width="2" stroke-miterlimit="10" stroke-linecap="round"/>
<path d="M140.676 157.53C140.676 157.53 142.869 163.432 143.712 169.335C144.555 175.237 144.513 174.647 144.513 174.647" stroke="#FE786D" stroke-width="2" stroke-miterlimit="10" stroke-linecap="round"/>
<path d="M145.778 164.233C145.778 164.233 147.801 173.213 147.717 173.424" stroke="#FE786D" stroke-width="2" stroke-miterlimit="10" stroke-linecap="round"/>
<path d="M65.2941 94.8797L92.8667 97.4093C94.1315 97.5358 95.0169 98.632 94.8904 99.8968L94.4267 104.577C94.3002 105.799 93.204 106.685 91.9814 106.6L64.4087 104.281C63.1439 104.155 62.2164 103.059 62.3429 101.794L62.8488 96.8613C62.9753 95.6808 64.0714 94.7532 65.2941 94.8797Z" fill="#E6E2F0"/>
<path d="M64.4509 93.615L92.0236 96.1446C93.2884 96.271 94.1738 97.3672 94.0473 98.632L93.5835 103.312C93.457 104.534 92.3609 105.42 91.1382 105.335L63.5656 103.017C62.3008 102.89 61.3733 101.794 61.4997 100.529L62.0057 95.5965C62.1321 94.416 63.2283 93.4885 64.4509 93.615Z" fill="#2B90D9"/>
<path d="M86.0544 76.6142L84.0348 76.4693L84.1798 74.4497L86.1994 74.5946L86.0544 76.6142ZM84.5422 69.4007L82.5226 69.2557L82.1602 74.3047L84.1798 74.4497L84.5422 69.4007ZM92.7655 67.9609L90.7459 67.816L90.456 71.8552L92.4756 72.0001L92.7655 67.9609ZM90.8909 65.7964L88.8713 65.6514L88.7263 67.671L90.7459 67.816L90.8909 65.7964ZM78.6284 66.9462L76.6088 66.8012L76.4638 68.8208L78.4834 68.9658L78.6284 66.9462ZM76.7537 64.7817L74.7342 64.6367L74.5892 66.6563L76.6088 66.8012L76.7537 64.7817ZM84.1847 60.24L86.2043 60.385L86.3493 58.3654L84.3297 58.2204L84.1847 60.24ZM76.6475 59.1915L76.43 62.2209L79.4594 62.4384L79.6769 59.409L76.6475 59.1915ZM79.8556 63.9893L75.8164 63.6994C75.261 63.6595 74.8393 63.1725 74.8791 62.6171L75.169 58.5779C75.2089 58.0225 75.6959 57.6007 76.2513 57.6406L80.2905 57.9305C80.8459 57.9704 81.2677 58.4574 81.2278 59.0128L80.9379 63.052C80.898 63.6074 80.411 64.0292 79.8556 63.9893ZM75.7777 71.3091L75.5603 74.3385L78.5897 74.5559L78.8071 71.5265L75.7777 71.3091ZM78.9859 76.1069L74.9467 75.8169C74.3913 75.7771 73.9695 75.29 74.0094 74.7347L74.2993 70.6955C74.3391 70.1401 74.8262 69.7183 75.3815 69.7582L79.4207 70.0481C79.9761 70.0879 80.3979 70.575 80.3581 71.1304L80.0681 75.1695C80.0283 75.7249 79.5412 76.1467 78.9859 76.1069ZM88.765 60.0613L88.5476 63.0907L91.577 63.3081L91.7944 60.2787L88.765 60.0613ZM91.9732 64.8591L87.934 64.5691C87.3786 64.5293 86.9568 64.0423 86.9967 63.4869L87.2866 59.4477C87.3265 58.8923 87.8135 58.4705 88.3689 58.5104L92.4081 58.8003C92.9634 58.8401 93.3852 59.3272 93.3454 59.8826L93.0555 63.9217C93.0156 64.4771 92.5286 64.8989 91.9732 64.8591ZM90.2386 74.8845L90.456 71.8552L86.4168 71.5652L86.2719 73.5848L88.2915 73.7298L88.074 76.7592L92.1132 77.0491L92.2582 75.0295L90.2386 74.8845ZM88.7263 67.671L84.6872 67.3811L84.5422 69.4007L88.5814 69.6906L88.7263 67.671ZM84.8321 65.3615L78.7733 64.9266L78.6284 66.9462L80.648 67.0912L80.503 69.1108L82.5226 69.2557L82.6676 67.2361L84.6872 67.3811L84.8321 65.3615ZM85.9144 64.4242L86.0594 62.4046L84.0398 62.2596L84.1847 60.24L82.1651 60.0951L81.8752 64.1343L85.9144 64.4242ZM78.8652 60.112L77.3505 60.0032L77.2418 61.5179L78.7565 61.6267L78.8652 60.112ZM77.9954 72.2295L76.4807 72.1208L76.372 73.6355L77.8867 73.7442L77.9954 72.2295ZM90.9827 60.9817L89.468 60.873L89.3593 62.3877L90.874 62.4964L90.9827 60.9817Z" fill="white"/>
</svg>
