<svg width="214" height="208" viewBox="0 0 214 208" fill="none" xmlns="http://www.w3.org/2000/svg">
<path opacity="0.19" d="M208.376 93.4053C201.871 105.451 188.959 114.287 175.268 114.203C170.349 114.169 165.401 113.054 160.542 113.879C157.176 114.455 154.012 115.949 150.865 117.35C134.788 124.54 115.379 129.484 100.156 120.627C91.2281 115.431 84.3152 105.784 74.0701 104.685C67.7042 104.004 61.5739 106.873 55.633 109.263C47.0835 112.701 37.6293 115.292 28.7306 112.903C19.369 110.378 12.4183 102.834 7.78164 94.1247C6.6192 91.9466 5.59341 89.6983 4.7102 87.3928C-2.47192 68.7159 -1.97124 46.1892 9.91061 30.0873C18.8809 17.9025 33.1021 10.7162 47.4074 5.83555C80.2466 -5.36469 112.295 5.56206 146.102 3.65188C155.261 3.13436 164.77 2.28867 173.328 5.58731C180.14 8.20855 185.736 13.2449 190.705 18.5883C200.029 28.6147 207.854 40.3325 211.641 53.4892C213.012 58.242 213.794 63.1454 213.968 68.089C214.262 76.8826 212.542 85.6888 208.376 93.4053Z" fill="#2B90D9"/>
<path opacity="0.19" d="M208.376 93.4052C201.871 105.451 188.959 114.287 175.268 114.203C170.349 114.169 165.401 113.054 160.542 113.879C157.176 114.455 154.012 115.949 150.865 117.35C134.788 124.54 115.379 129.484 100.156 120.627C91.2281 115.431 84.3153 105.784 74.0701 104.685C67.7042 104.004 61.574 106.873 55.633 109.263C47.0835 112.701 37.6294 115.292 28.7306 112.903C19.369 110.378 12.4183 102.834 7.78168 94.1247C11.3286 92.5006 15.5697 93.359 19.4952 93.9143C31.3856 95.5851 43.5064 93.9851 54.5559 89.2861C66.2905 84.2624 78.5384 75.9275 91.9013 78.9653C104.944 81.9105 117.323 91.9663 131.275 89.9046C136.471 89.1389 141.179 86.4209 145.365 83.2569C154.735 76.1715 162.132 66.6753 171.805 60.0107C181.478 53.3461 195.026 50.018 204.775 56.5732C208.923 59.3627 211.801 63.5365 213.964 68.1058C214.262 76.8826 212.542 85.6888 208.376 93.4052Z" fill="#2B90D9"/>
<path d="M158.682 47.5568L169.083 63.9658L161.194 68.7918L150.86 71.0428L158.682 47.5568Z" fill="#2B90D9"/>
<path d="M158.682 47.5568L169.083 63.9658L161.194 68.7918L150.86 71.0428L158.682 47.5568Z" fill="url(#paint0_linear)"/>
<path d="M86.7724 116.807C86.886 116.828 91.4637 147.454 91.4637 147.454C91.4637 147.454 94.7918 148.254 94.674 147.454C94.5562 146.655 95.1326 136.86 95.8142 134.924C96.4958 132.989 94.552 116.807 94.552 116.807H86.7724Z" fill="url(#paint1_linear)"/>
<path d="M101.625 116.601C101.625 116.601 102.311 132.076 103.674 135.955C105.037 139.835 106.749 147.816 106.749 147.816H110.957L110.183 116.277C110.183 116.277 105.386 113.1 101.625 116.601Z" fill="url(#paint2_linear)"/>
<path d="M90.5927 145.393C91.6361 145.258 92.6964 145.704 93.7357 145.59C94.1698 145.489 94.6154 145.445 95.061 145.46C95.1308 145.465 95.1966 145.495 95.2461 145.544C95.2848 145.604 95.3012 145.675 95.2924 145.746V147.134C95.2924 147.803 95.2924 148.536 94.8717 149.061C94.4509 149.587 93.6683 149.777 92.9657 149.836C92.7387 149.87 92.5067 149.852 92.2883 149.781C92.0751 149.677 91.8881 149.526 91.7413 149.339C91.2743 148.83 90.9209 148.536 90.8578 147.85C90.8494 147.631 90.6264 145.393 90.5927 145.393Z" fill="#2B90D9"/>
<path d="M110.624 146.003C110.696 145.986 110.771 145.987 110.842 146.007C110.913 146.026 110.978 146.063 111.031 146.114C111.084 146.165 111.124 146.229 111.146 146.299C111.168 146.369 111.173 146.444 111.159 146.516C111.21 147.512 111.145 148.51 110.965 149.491C110.943 149.754 110.872 150.011 110.755 150.248C110.452 150.778 109.775 150.938 109.169 150.972C108.247 151.031 107.204 150.858 106.644 150.13C106.37 149.679 106.202 149.171 106.152 148.645C106.055 148.098 105.862 147.572 105.773 147.029C105.693 146.562 105.815 146.335 106.291 146.268C106.96 146.167 107.658 146.154 108.336 146.112C109.106 146.053 109.867 146.02 110.624 146.003Z" fill="#2B90D9"/>
<path d="M83.1498 157.169C83.1052 157.429 83.1313 157.697 83.2255 157.943C83.3373 158.157 83.4923 158.345 83.6806 158.496C83.8689 158.646 84.0864 158.756 84.3194 158.819C85.8509 159.344 90.538 156.151 92.0191 155.499C93.3218 154.951 94.5687 154.279 95.7427 153.492C95.8605 153.408 95.5533 149.284 95.4692 148.658C95.4704 148.61 95.4621 148.563 95.4448 148.519C95.4274 148.475 95.4014 148.435 95.3682 148.401C95.307 148.364 95.2375 148.344 95.1662 148.342C94.4594 148.283 93.7483 148.342 93.0373 148.342C92.6734 148.348 92.3096 148.332 91.9475 148.296C91.6232 148.203 91.2907 148.143 90.9546 148.115C90.416 148.174 89.381 149.865 88.914 150.126C83.5747 153.117 83.2928 156.168 83.1498 157.169Z" fill="#25233A"/>
<path d="M105.727 152.343C105.625 152.743 105.59 153.157 105.626 153.568C105.748 154.203 106.299 154.657 106.817 155.049C107.763 155.76 112.922 160.914 115.922 159.256C116.11 159.128 116.257 158.946 116.342 158.734C116.452 158.493 116.516 158.233 116.532 157.969C116.638 156.816 116.387 155.658 115.812 154.653C115.299 153.77 112.219 151.073 111.908 150.101C111.718 149.512 111.659 148.792 111.134 148.46C111.063 148.408 110.977 148.381 110.89 148.38C110.756 148.397 110.632 148.454 110.532 148.544C109.615 149.158 108.428 148.998 107.376 148.847C107.069 148.801 106.417 148.426 106.165 148.595C105.79 148.855 105.836 149.899 105.82 150.277C105.829 150.967 105.798 151.657 105.727 152.343Z" fill="#25233A"/>
<path d="M112.492 44.8176C112.492 44.8176 126.773 35.9231 127 35.7295C127.227 35.536 141.659 23.8056 143.304 22.1605C144.949 20.5154 146.203 17.7174 148.504 18.6262C150.806 19.535 150.856 23.124 147.923 26.3932C147.574 26.7845 145.29 26.734 145.205 26.8392C145.008 27.0748 144.583 27.5334 143.308 28.9429C142.033 30.3524 134.228 38.8178 129.693 40.9888C125.157 43.1599 116.372 52.513 116.372 52.513L112.492 44.8176Z" fill="url(#paint3_linear)"/>
<path d="M82.0643 45.9789C81.4878 46.6521 68.7224 39.4658 68.7224 39.4658L53.6555 24.1464C53.6555 24.1464 51.0637 21.887 49.2251 24.9879C47.3864 28.0888 52.0062 31.114 52.0062 31.114L55.023 31.602C55.023 31.602 62.3355 43.7616 64.1405 44.3717C65.9455 44.9817 79.1821 55.7318 79.3084 54.3265C79.4346 52.9212 82.0643 45.9789 82.0643 45.9789Z" fill="url(#paint4_linear)"/>
<path d="M88.3334 32.1953C87.9379 36.2008 88.6532 40.5135 91.2786 43.5554C91.8971 44.2791 92.6502 44.9944 92.7596 45.9411C92.7741 46.4084 92.7445 46.8761 92.6713 47.3379C92.6374 47.5692 92.6521 47.805 92.7144 48.0303C92.7767 48.2556 92.8852 48.4654 93.0331 48.6465C93.1128 48.7294 93.2098 48.7937 93.3172 48.8347C93.4247 48.8757 93.5399 48.8923 93.6545 48.8835C93.7692 48.8746 93.8805 48.8405 93.9804 48.7835C94.0802 48.7265 94.1663 48.6481 94.2322 48.5539L95.3009 50.8133C95.3766 51.0318 95.5251 51.2175 95.7217 51.3392C95.9064 51.3982 96.1049 51.3982 96.2897 51.3392C97.4842 51.1193 98.6176 50.6459 99.6136 49.9508C99.7357 49.8472 99.8794 49.7725 100.034 49.732C100.729 49.6226 100.876 50.8049 101.545 51.0615C102.05 51.2593 102.563 50.8217 102.929 50.422L104.385 48.8442C104.633 49.3714 105.063 49.7912 105.597 50.0265C105.758 49.579 105.977 49.1546 106.249 48.7643C106.191 49.5454 106.273 50.3307 106.493 51.0826L107.229 50.1695C107.296 50.0812 107.385 49.9844 107.498 49.9928C107.574 50.007 107.644 50.0454 107.696 50.1022L108.899 51.1667C108.277 49.3281 108.554 47.3169 108.992 45.432C109.43 43.547 110.023 41.6453 110.019 39.7267C110.019 37.2401 109.026 34.8755 108.058 32.574C107.664 31.5073 107.126 30.4994 106.459 29.5783C105.475 28.316 104.069 27.5166 102.672 26.7803C101.48 26.0815 100.174 25.5974 98.8141 25.3498C97.7495 25.2481 96.6763 25.2835 95.6207 25.455C94.4987 25.5896 93.3697 25.7299 92.2337 25.8757C91.2576 26.0146 90.82 26.0693 90.1973 26.835C88.9729 28.3749 88.5185 30.3188 88.3334 32.1953Z" fill="#25233A"/>
<path d="M106.396 37.6986C106.46 38.0458 106.406 38.4047 106.24 38.7168C106.075 39.0264 105.886 39.3232 105.677 39.6046C105.512 39.8726 105.325 40.1259 105.117 40.3619C104.906 40.6006 104.613 40.7509 104.296 40.7827C103.11 40.8205 103.573 38.8346 103.968 38.2119C104.402 37.484 106.038 36.2386 106.396 37.6986Z" fill="url(#paint5_linear)"/>
<path d="M104.755 38.523C104.849 38.3837 104.929 38.2358 104.995 38.0812C105.061 37.9243 105.174 37.7919 105.319 37.7026C105.391 37.6596 105.475 37.6421 105.558 37.6528C105.641 37.6635 105.719 37.7017 105.777 37.7615C105.912 37.9298 105.824 38.1822 105.718 38.3589C105.474 38.7797 105.483 39.4613 105.1 39.7726C104.906 39.9039 104.697 40.0113 104.477 40.0924C104.201 40.1605 103.912 40.1605 103.636 40.0924C103.522 40.0082 103.779 39.4402 103.766 39.2972C103.754 39.1541 103.766 38.9438 103.812 38.8764C103.859 38.8091 104.061 38.8764 104.145 38.8764C104.265 38.8626 104.382 38.824 104.487 38.7632C104.592 38.7024 104.683 38.6206 104.755 38.523Z" fill="url(#paint6_linear)"/>
<path d="M31.2172 50.9858L20.1979 64.294L36.5859 78.8559L41.2436 74.6485L42.8045 52.2943C42.8634 51.6716 31.2172 50.9858 31.2172 50.9858Z" fill="#2B90D9"/>
<path d="M31.2172 50.9858L20.1979 64.294L36.5859 78.8559L41.2436 74.6485L42.8045 52.2943C42.8634 51.6716 31.2172 50.9858 31.2172 50.9858Z" fill="url(#paint7_linear)"/>
<path d="M116.725 51.8061C116.679 52.0724 116.556 52.3194 116.372 52.5171C115.69 53.4594 114.939 54.3497 114.125 55.1804C112.863 56.4048 111.31 57.3894 110.473 58.9335C109.278 61.1424 110.2 81.5191 110.288 85.1501C110.313 86.1894 94.186 86.8331 87.1174 86.0631C87.21 82.3311 89.3432 75.8348 88.5774 72.1786C87.9589 69.2333 87.4919 70.8911 85.8931 66.0904C85.2367 64.1297 85.7248 61.7651 86.074 59.7245C86.3054 58.3487 80.1162 55.8621 79.3084 54.339C79.3571 53.3478 79.4894 52.3626 79.7039 51.3937C80.0691 49.734 80.6684 48.1346 81.4837 46.6435C81.6026 46.3655 81.8037 46.1306 82.0601 45.9703C82.3693 45.856 82.7071 45.8442 83.0236 45.9367C85.4593 46.3767 87.8395 47.0821 90.1216 48.0404C92.259 48.9324 94.4805 48.5495 96.7315 48.2466C102.324 47.4935 107.766 45.8724 112.859 43.4417C114.082 45.9942 115.305 48.5453 116.528 51.095C116.656 51.31 116.724 51.5556 116.725 51.8061Z" fill="#2B90D9"/>
<path d="M116.725 51.8063C116.679 52.0726 116.556 52.3197 116.372 52.5174C115.69 53.4597 114.939 54.3499 114.125 55.1807C112.863 56.4051 111.31 57.3896 110.473 58.9337C109.278 61.1426 110.199 81.5193 110.288 85.1504C110.309 86.0508 98.2166 86.6524 90.3824 86.299L103.518 85.2934C103.518 85.2934 109.089 65.7456 107.692 60.5368C106.43 55.8286 111.899 50.3589 115.299 48.5497L116.532 51.1205C116.654 51.3285 116.721 51.5648 116.725 51.8063Z" fill="url(#paint8_linear)"/>
<path d="M96.6851 45.2723C96.6388 44.6664 96.5505 44.01 96.8534 43.4883C97.1939 43.035 97.6699 42.7019 98.2124 42.5374C99.2138 42.1167 100.447 41.717 101.313 42.3691C101.782 42.7882 102.089 43.3585 102.18 43.9806C102.439 45.282 102.514 46.6133 102.403 47.9356C102.336 49.0969 102.18 50.3296 101.431 51.2174C100.923 51.7449 100.321 52.173 99.6556 52.4796C98.7552 52.9593 97.5771 53.4179 96.7945 52.7615C94.4552 50.8303 96.8618 47.7252 96.6851 45.2723Z" fill="url(#paint9_linear)"/>
<path d="M87.1173 86.0633L81.8412 117.876C81.8412 117.876 87.2436 118.869 99.7355 117.409C106.72 116.597 111.773 116.837 114.882 117.207C115.286 117.255 115.694 117.204 116.074 117.059C116.453 116.914 116.791 116.678 117.059 116.373C117.326 116.067 117.515 115.701 117.61 115.306C117.704 114.911 117.701 114.499 117.6 114.106L110.3 85.1503C110.3 85.1503 88.9055 83.0634 87.1173 86.0633Z" fill="#2B90D9"/>
<path d="M114.87 117.207C113.586 117.051 111.971 116.925 110.023 116.883C106.586 116.821 103.148 116.997 99.7355 117.409C87.2436 118.869 81.8412 117.876 81.8412 117.876L87.1173 86.0634C88.2492 84.1616 97.2531 84.3046 103.695 84.6623H103.775C107.094 84.8474 109.716 85.083 110.204 85.1377H110.288V85.163L110.401 85.6174L117.579 114.093C117.682 114.487 117.687 114.9 117.594 115.295C117.501 115.691 117.313 116.059 117.046 116.365C116.779 116.672 116.442 116.909 116.062 117.056C115.683 117.203 115.274 117.254 114.87 117.207Z" fill="url(#paint10_linear)"/>
<path d="M48.9515 27.5082L40.0906 45.8358H40.8943L49.225 27.9878C49.225 27.9878 49.3849 27.5082 48.9515 27.5082Z" fill="#2B90D9"/>
<path d="M49.2251 46.6225L52.0062 31.1348L52.6499 31.24L49.9151 47.2578C49.9151 47.2578 49.2714 47.8132 49.2251 46.6225Z" fill="#2B90D9"/>
<path d="M31.4065 44.9396C31.4065 44.9396 46.9741 42.7349 54.7578 50.1021L56.748 52.2563L50.1549 69.5069C50.1549 69.5069 46.5112 72.0734 43.0022 71.3498C39.4932 70.6261 32.9548 68.9221 32.9548 68.9221C32.9548 68.9221 30.8511 68.2489 30.8511 65.0386C30.8511 61.8283 31.4065 44.9396 31.4065 44.9396Z" fill="#2B90D9"/>
<path d="M31.4065 44.9396C31.4065 44.9396 46.9741 42.7349 54.7578 50.1021L56.748 52.2563L50.1549 69.5069C50.1549 69.5069 46.5112 72.0734 43.0022 71.3498C39.4932 70.6261 32.9548 68.9221 32.9548 68.9221C32.9548 68.9221 30.8511 68.2489 30.8511 65.0386C30.8511 61.8283 31.4065 44.9396 31.4065 44.9396Z" fill="url(#paint11_linear)"/>
<path d="M145.206 26.8392L141.806 49.8497H142.302L145.715 26.8392H145.206Z" fill="#2B90D9"/>
<path d="M147.924 26.3932L151.866 45.4151L152.602 45.2847L148.311 25.9262L147.924 26.3932Z" fill="#2B90D9"/>
<path d="M138.76 51.6127C138.76 51.6127 148.437 43.3787 156.599 45.4151H159.242C159.242 45.4151 157.638 61.0289 158.173 64.9082C158.707 68.7875 146.619 72.8561 145.71 72.6415C144.802 72.4269 141.381 72.8561 140.952 67.8282C140.523 62.8003 138.76 51.6127 138.76 51.6127Z" fill="#2B90D9"/>
<path d="M138.76 51.6127C138.76 51.6127 148.437 43.3787 156.599 45.4151H159.242C159.242 45.4151 157.638 61.0289 158.173 64.9082C158.707 68.7875 146.619 72.8561 145.71 72.6415C144.802 72.4269 141.381 72.8561 140.952 67.8282C140.523 62.8003 138.76 51.6127 138.76 51.6127Z" fill="url(#paint12_linear)"/>
<path d="M49.225 27.9876L47.6598 49.8664H48.4424L49.7047 27.9876C49.7047 27.9876 49.3681 27.4112 49.225 27.9876Z" fill="#2B90D9"/>
<path d="M50.4325 29.8011L55.0271 49.4541L56.0158 49.1764L51.0132 30.3565L50.4325 29.8011Z" fill="#2B90D9"/>
<path d="M42.9855 49.7277L48.4467 49.8497L59.668 48.5664L65.4322 70.7186L49.7216 78.8432L41.0585 77.337L42.9855 49.7277Z" fill="#2B90D9"/>
<path d="M49.7216 78.8431L48.4467 49.8496L42.9855 49.7275L41.0585 77.3368L49.7216 78.8431Z" fill="url(#paint13_linear)"/>
<path d="M143.758 54.3644L146.463 54.8482L151.18 55.9169L160.849 51.314L152.602 50.2158L143.758 54.3644Z" fill="#2B90D9"/>
<path d="M143.758 54.3644L146.463 54.8482L151.18 55.9169L160.849 51.314L152.602 50.2158L143.758 54.3644Z" fill="url(#paint14_linear)"/>
<path d="M160.849 51.3138L151.18 55.9168L143.758 54.3642L144.696 75.1028L151.18 77.3369L161.253 71.8925L160.849 51.3138Z" fill="#2B90D9"/>
<path d="M92.8142 42.6003C94.0134 44.8429 96.601 46.5595 99.0707 45.8905C100.909 45.3898 102.197 43.7195 102.984 41.986C103.66 40.3839 104.162 38.7137 104.482 37.0044C104.839 35.3677 105.155 33.6763 104.843 32.0312C104.488 30.4385 103.574 29.0254 102.268 28.0471C100.962 27.0687 99.3486 26.5896 97.7201 26.6961C90.4076 27.403 90.1762 37.6523 92.8142 42.6003Z" fill="url(#paint15_linear)"/>
<path d="M96.3948 21.626C99.3653 20.9949 102.706 21.5292 104.97 23.5362C107.233 25.5432 108.281 28.8628 110.709 30.7814C111.491 31.3999 112.522 31.867 113.477 31.5724C113.212 32.1326 112.796 32.6077 112.276 32.9444C111.755 33.2811 111.151 33.466 110.532 33.4784C110.938 33.8945 111.455 34.1863 112.021 34.3199C111.707 34.7246 111.309 35.0561 110.854 35.2915C110.4 35.5269 109.899 35.6606 109.387 35.6831C109.643 35.8789 109.816 36.1621 109.875 36.4783C108.853 37.0043 107.629 36.9538 106.51 36.7139C105.564 36.5076 104.67 36.1105 103.883 35.5469C103.096 34.9834 102.432 34.2652 101.932 33.4363C99.5336 29.1994 95.3345 26.0985 91.9854 31.4083C90.942 30.7141 89.8312 29.9147 89.6587 28.6777C89.1706 25.0088 93.315 22.2782 96.3948 21.626Z" fill="#25233A"/>
<path d="M145.715 26.8393V54.8483H146.463L146.089 26.7509L145.715 26.8393Z" fill="#2B90D9"/>
<path d="M147.01 26.6668L154.643 51.6128H155.35L147.545 26.5742L147.01 26.6668Z" fill="#2B90D9"/>
<path d="M151.18 55.9171V77.3373L147.01 74.472L146.464 54.8484L151.18 55.9171Z" fill="url(#paint16_linear)"/>
<path d="M144.696 75.1028L147.01 74.4717L146.463 54.8481L143.758 54.3643L144.696 75.1028Z" fill="url(#paint17_linear)"/>
<path d="M160.849 51.3138L151.18 55.9168V77.3369L155.35 75.086L160.849 51.3138Z" fill="url(#paint18_linear)"/>
<path d="M86.074 59.7288C86.3054 58.3529 80.1162 55.8663 79.3084 54.3432C79.3571 53.3521 79.4894 52.3669 79.7039 51.398C79.7039 51.398 86.2423 54.2549 86.5999 55.9126C86.9576 57.5703 86.074 59.7288 86.074 59.7288Z" fill="url(#paint19_linear)"/>
<path d="M114.87 117.207C113.587 117.051 111.971 116.925 110.023 116.883L104.974 99.0348C104.974 99.0348 103.325 86.0464 103.712 84.6621H103.792L110.221 85.1376H110.305V85.1628L110.418 85.6172L117.596 114.093C117.7 114.488 117.705 114.903 117.611 115.3C117.518 115.698 117.328 116.066 117.059 116.373C116.79 116.68 116.45 116.917 116.068 117.062C115.686 117.208 115.275 117.257 114.87 117.207Z" fill="url(#paint20_linear)"/>
<path d="M188.825 208H147.341C142.625 208 138.766 204.141 138.766 199.425V97.8849C138.766 93.1682 142.625 89.3098 147.341 89.3098H188.825C193.541 89.3098 197.4 93.1682 197.4 97.8849V199.423C197.4 204.14 193.541 208 188.825 208Z" fill="#E3E5FC"/>
<path d="M185.104 196.926H151.061C146.344 196.926 142.486 193.068 142.486 188.351V101.875C142.486 97.1583 146.344 93.2999 151.061 93.2999H185.104C189.82 93.2999 193.679 97.1583 193.679 101.875V188.351C193.681 193.066 189.82 196.926 185.104 196.926Z" fill="white"/>
<path d="M173.607 92.0238H162.56C162.291 92.0238 162.071 91.8045 162.071 91.5356C162.071 91.2666 162.291 91.0473 162.56 91.0473H173.607C173.876 91.0473 174.095 91.2666 174.095 91.5356C174.095 91.8045 173.874 92.0238 173.607 92.0238Z" fill="#E3E5FC"/>
<path d="M168.083 205.139C169.763 205.139 171.125 203.777 171.125 202.097C171.125 200.417 169.763 199.055 168.083 199.055C166.403 199.055 165.041 200.417 165.041 202.097C165.041 203.777 166.403 205.139 168.083 205.139Z" fill="#A7ADFF"/>
<path d="M181.163 184.561H155.001C152.031 184.561 149.6 182.132 149.6 179.16C149.6 176.19 152.03 173.759 155.001 173.759H181.163C184.133 173.759 186.565 176.188 186.565 179.16C186.565 182.13 184.135 184.561 181.163 184.561Z" fill="#2B90D9"/>
<path d="M167.858 165.864C167.692 165.729 167.666 165.481 167.803 165.315L171.387 160.915C171.522 160.749 171.77 160.722 171.936 160.859C172.102 160.995 172.129 161.243 171.991 161.409L168.407 165.809C168.272 165.975 168.024 166 167.858 165.864Z" fill="#E3E5FC"/>
<path d="M168.306 165.865C168.472 165.729 168.499 165.481 168.362 165.315L164.778 160.915C164.642 160.749 164.394 160.723 164.228 160.86C164.063 160.995 164.036 161.243 164.173 161.409L167.757 165.809C167.892 165.975 168.14 166 168.306 165.865Z" fill="#E3E5FC"/>
<path d="M178.165 145.663H158.327C157.422 145.663 156.682 145.077 156.682 144.36C156.682 143.643 157.422 143.057 158.327 143.057H178.165C179.071 143.057 179.81 143.643 179.81 144.36C179.81 145.075 179.071 145.663 178.165 145.663Z" fill="#A7ADFF"/>
<path d="M176.031 152.185H160.269C159.55 152.185 158.962 151.598 158.962 150.879C158.962 150.16 159.55 149.572 160.269 149.572H176.031C176.75 149.572 177.337 150.16 177.337 150.879C177.337 151.598 176.75 152.185 176.031 152.185Z" fill="#A7ADFF"/>
<path d="M171.449 134.914H168.879V132.344H171.449V134.914ZM168.879 125.92H166.31V132.344H168.879V125.92ZM179.158 123.35H176.589V128.489H179.158V123.35ZM176.589 120.78H174.019V123.35H176.589V120.78ZM161.17 123.35H158.6V125.92H161.17V123.35ZM158.6 120.78H156.031V123.35H158.6V120.78ZM167.594 114.356H170.164V111.786H167.594V114.356ZM157.958 113.713V117.568H161.813V113.713H157.958ZM162.455 119.495H157.316C156.609 119.495 156.031 118.917 156.031 118.21V113.071C156.031 112.364 156.609 111.786 157.316 111.786H162.455C163.162 111.786 163.74 112.364 163.74 113.071V118.21C163.74 118.917 163.162 119.495 162.455 119.495ZM157.958 129.132V132.987H161.813V129.132H157.958ZM162.455 134.914H157.316C156.609 134.914 156.031 134.336 156.031 133.629V128.489C156.031 127.783 156.609 127.205 157.316 127.205H162.455C163.162 127.205 163.74 127.783 163.74 128.489V133.629C163.74 134.336 163.162 134.914 162.455 134.914ZM173.376 113.713V117.568H177.231V113.713H173.376ZM177.873 119.495H172.734C172.027 119.495 171.449 118.917 171.449 118.21V113.071C171.449 112.364 172.027 111.786 172.734 111.786H177.873C178.58 111.786 179.158 112.364 179.158 113.071V118.21C179.158 118.917 178.58 119.495 177.873 119.495ZM176.589 132.344V128.489H171.449V131.059H174.019V134.914H179.158V132.344H176.589ZM174.019 123.35H168.879V125.92H174.019V123.35ZM168.879 120.78H161.17V123.35H163.74V125.92H166.31V123.35H168.879V120.78ZM170.164 119.495V116.926H167.594V114.356H165.025V119.495H170.164ZM160.849 114.677H158.922V116.604H160.849V114.677ZM160.849 130.096H158.922V132.023H160.849V130.096ZM176.267 114.677H174.34V116.604H176.267V114.677Z" fill="black"/>
<defs>
<linearGradient id="paint0_linear" x1="165.994" y1="51.537" x2="155.097" y2="73.3358" gradientUnits="userSpaceOnUse">
<stop stop-opacity="0"/>
<stop offset="0.88" stop-opacity="0.8"/>
<stop offset="0.97"/>
</linearGradient>
<linearGradient id="paint1_linear" x1="86.7724" y1="132.307" x2="95.9615" y2="132.307" gradientUnits="userSpaceOnUse">
<stop stop-color="#ECC4D7"/>
<stop offset="0.42" stop-color="#EFD4D1"/>
<stop offset="1" stop-color="#F2EAC9"/>
</linearGradient>
<linearGradient id="paint2_linear" x1="2375.49" y1="12353.5" x2="2582.66" y2="12353.5" gradientUnits="userSpaceOnUse">
<stop stop-color="#ECC4D7"/>
<stop offset="0.42" stop-color="#EFD4D1"/>
<stop offset="1" stop-color="#F2EAC9"/>
</linearGradient>
<linearGradient id="paint3_linear" x1="10269.3" y1="4941.41" x2="13645.5" y2="4941.41" gradientUnits="userSpaceOnUse">
<stop stop-color="#ECC4D7"/>
<stop offset="0.42" stop-color="#EFD4D1"/>
<stop offset="1" stop-color="#F2EAC9"/>
</linearGradient>
<linearGradient id="paint4_linear" x1="3978.17" y1="4771.89" x2="6608.95" y2="4771.89" gradientUnits="userSpaceOnUse">
<stop stop-color="#ECC4D7"/>
<stop offset="0.42" stop-color="#EFD4D1"/>
<stop offset="1" stop-color="#F2EAC9"/>
</linearGradient>
<linearGradient id="paint5_linear" x1="819.287" y1="611.253" x2="839.102" y2="611.253" gradientUnits="userSpaceOnUse">
<stop stop-color="#ECC4D7"/>
<stop offset="0.42" stop-color="#EFD4D1"/>
<stop offset="1" stop-color="#F2EAC9"/>
</linearGradient>
<linearGradient id="paint6_linear" x1="663.852" y1="417.521" x2="696.743" y2="430.142" gradientUnits="userSpaceOnUse">
<stop stop-color="#ECC4D7"/>
<stop offset="0.42" stop-color="#EFD4D1"/>
<stop offset="1" stop-color="#F2EAC9"/>
</linearGradient>
<linearGradient id="paint7_linear" x1="1163.88" y1="6255.44" x2="2463.92" y2="5988.25" gradientUnits="userSpaceOnUse">
<stop stop-opacity="0"/>
<stop offset="0.88" stop-opacity="0.8"/>
<stop offset="0.97"/>
</linearGradient>
<linearGradient id="paint8_linear" x1="5579.18" y1="7682.16" x2="8844.06" y2="8799.09" gradientUnits="userSpaceOnUse">
<stop stop-opacity="0"/>
<stop offset="0.88" stop-opacity="0.8"/>
<stop offset="0.97"/>
</linearGradient>
<linearGradient id="paint9_linear" x1="1679.2" y1="1948.43" x2="1819.83" y2="2053.72" gradientUnits="userSpaceOnUse">
<stop stop-color="#ECC4D7"/>
<stop offset="0.42" stop-color="#EFD4D1"/>
<stop offset="1" stop-color="#F2EAC9"/>
</linearGradient>
<linearGradient id="paint10_linear" x1="3892.28" y1="10511.8" x2="10383.9" y2="10084.1" gradientUnits="userSpaceOnUse">
<stop stop-opacity="0"/>
<stop offset="0.88" stop-opacity="0.8"/>
<stop offset="0.97"/>
</linearGradient>
<linearGradient id="paint11_linear" x1="1968.71" y1="5011.75" x2="3230.88" y2="5620.49" gradientUnits="userSpaceOnUse">
<stop stop-opacity="0"/>
<stop offset="0.88" stop-opacity="0.8"/>
<stop offset="0.97"/>
</linearGradient>
<linearGradient id="paint12_linear" x1="7087.65" y1="4882.14" x2="8006.44" y2="5638.97" gradientUnits="userSpaceOnUse">
<stop stop-opacity="0"/>
<stop offset="0.88" stop-opacity="0.8"/>
<stop offset="0.97"/>
</linearGradient>
<linearGradient id="paint13_linear" x1="690.968" y1="3938.4" x2="1470.89" y2="4056.22" gradientUnits="userSpaceOnUse">
<stop stop-opacity="0"/>
<stop offset="0.88" stop-opacity="0.8"/>
<stop offset="0.97"/>
</linearGradient>
<linearGradient id="paint14_linear" x1="6330.07" y1="615.252" x2="6330.07" y2="865.701" gradientUnits="userSpaceOnUse">
<stop stop-opacity="0"/>
<stop offset="0.88" stop-opacity="0.8"/>
<stop offset="0.97"/>
</linearGradient>
<linearGradient id="paint15_linear" x1="3355.73" y1="2470.67" x2="3147.36" y2="3233.54" gradientUnits="userSpaceOnUse">
<stop stop-color="#ECC4D7"/>
<stop offset="0.42" stop-color="#EFD4D1"/>
<stop offset="1" stop-color="#F2EAC9"/>
</linearGradient>
<linearGradient id="paint16_linear" x1="1903.61" y1="3376.68" x2="1685.19" y2="3395.39" gradientUnits="userSpaceOnUse">
<stop stop-opacity="0"/>
<stop offset="0.88" stop-opacity="0.8"/>
<stop offset="0.97"/>
</linearGradient>
<linearGradient id="paint17_linear" x1="1308.76" y1="3007.32" x2="1170.95" y2="3022.74" gradientUnits="userSpaceOnUse">
<stop stop-opacity="0"/>
<stop offset="0.88" stop-opacity="0.8"/>
<stop offset="0.97"/>
</linearGradient>
<linearGradient id="paint18_linear" x1="144.999" y1="52.8117" x2="181.722" y2="91.1963" gradientUnits="userSpaceOnUse">
<stop stop-color="white" stop-opacity="0"/>
<stop offset="0.84" stop-color="white" stop-opacity="0.84"/>
<stop offset="0.97" stop-color="white"/>
</linearGradient>
<linearGradient id="paint19_linear" x1="1687.96" y1="1560.93" x2="1381.76" y2="1719.2" gradientUnits="userSpaceOnUse">
<stop stop-opacity="0"/>
<stop offset="0.88" stop-opacity="0.8"/>
<stop offset="0.97"/>
</linearGradient>
<linearGradient id="paint20_linear" x1="3200.24" y1="9941.4" x2="4067.6" y2="9918.19" gradientUnits="userSpaceOnUse">
<stop stop-opacity="0"/>
<stop offset="0.88" stop-opacity="0.8"/>
<stop offset="0.97"/>
</linearGradient>
</defs>
</svg>
