<svg width="564" height="422" viewBox="0 0 564 422" fill="none" xmlns="http://www.w3.org/2000/svg">
<path d="M281.663 343.337C437.22 343.337 563.325 360.947 563.325 382.669C563.325 404.391 437.22 422 281.663 422C126.105 422 0 404.391 0 382.669C0 360.947 126.105 343.337 281.663 343.337Z" fill="url(#paint0_linear)" fill-opacity="0.4"/>
<path d="M263.174 368.833L195.37 209.813C168.127 145.907 214.925 74.9041 284.291 74.9041C351.653 74.9041 397.098 143.899 370.643 205.908L301.178 368.833C299.588 372.563 296.94 375.742 293.561 377.976C290.183 380.211 286.224 381.402 282.176 381.402C278.128 381.402 274.169 380.211 270.791 377.976C267.413 375.742 264.764 372.563 263.174 368.833Z" fill="url(#paint1_linear)"/>
<path d="M279.905 224.573C309.025 224.573 332.631 200.925 332.631 171.755C332.631 142.585 309.025 118.937 279.905 118.937C250.785 118.937 227.179 142.585 227.179 171.755C227.179 200.925 250.785 224.573 279.905 224.573Z" fill="white"/>
<path d="M155.76 196.203H116.735V208.585H155.76V196.203Z" fill="#2B90D9"/>
<path d="M449.128 196.203H410.103V208.585H449.128V196.203Z" fill="#2B90D9"/>
<path d="M403.349 311.323L375.754 283.68L367.014 292.436L394.609 320.078L403.349 311.323Z" fill="#2B90D9"/>
<path d="M188.998 287.704L161.404 315.347L170.144 324.102L197.739 296.46L188.998 287.704Z" fill="#2B90D9"/>
<path d="M176.394 93.5472L144.783 70.4824L137.491 80.5119L169.101 103.577L176.394 93.5472Z" fill="#2B90D9"/>
<path d="M288.688 39.0928V0L276.327 0V39.0928H288.688Z" fill="#2B90D9"/>
<path d="M382.935 101.07L416.731 81.5234L410.551 70.8003L376.754 90.3466L382.935 101.07Z" fill="#2B90D9"/>
<circle cx="280.076" cy="171.739" r="41.5516" fill="#2B90D9"/>
<path d="M283.565 148.964L283.419 149.539L280.125 162.419C280.004 162.892 279.44 163.091 279.049 162.798L266.832 153.669C266.373 153.327 266.511 152.607 267.064 152.458L282.257 148.361L282.806 148.214C283.262 148.092 283.681 148.506 283.565 148.964Z" fill="white"/>
<path d="M274.427 159.333L275.803 160.361L271.958 162.402L271.787 157.359L282.025 149.641L274.427 159.333Z" fill="#E6E6E6"/>
<path d="M267.911 166.426C268.525 166.426 269.022 165.929 269.022 165.316C269.022 164.702 268.525 164.205 267.911 164.205C267.298 164.205 266.801 164.702 266.801 165.316C266.801 165.929 267.298 166.426 267.911 166.426Z" stroke="white"/>
<path d="M264.209 170.129C264.822 170.129 265.319 169.631 265.319 169.018C265.319 168.405 264.822 167.907 264.209 167.907C263.595 167.907 263.098 168.405 263.098 169.018C263.098 169.631 263.595 170.129 264.209 170.129Z" stroke="white"/>
<path d="M269.129 173.905H259.123C258.803 173.905 258.496 174.032 258.269 174.259C258.043 174.485 257.916 174.792 257.915 175.112V194.078C257.916 194.398 258.043 194.705 258.269 194.931C258.496 195.157 258.803 195.284 259.123 195.285H269.129C269.449 195.284 269.756 195.157 269.982 194.931C270.209 194.705 270.336 194.398 270.337 194.078V175.112C270.336 174.792 270.209 174.485 269.982 174.259C269.756 174.032 269.449 173.905 269.129 173.905ZM265.754 174.594L265.582 175.284H262.67L262.498 174.594H265.754ZM269.646 194.078C269.646 194.215 269.592 194.346 269.495 194.443C269.398 194.54 269.266 194.595 269.129 194.595H259.123C258.986 194.595 258.854 194.54 258.757 194.443C258.66 194.346 258.605 194.215 258.605 194.078V175.112C258.605 174.975 258.66 174.843 258.757 174.746C258.854 174.649 258.986 174.595 259.123 174.594H261.786L262.066 175.713C262.085 175.787 262.128 175.853 262.188 175.901C262.249 175.948 262.324 175.974 262.401 175.974H265.851C265.928 175.974 266.003 175.948 266.063 175.901C266.124 175.853 266.167 175.787 266.186 175.713L266.466 174.594H269.129C269.266 174.595 269.398 174.649 269.495 174.746C269.592 174.843 269.646 174.975 269.646 175.112V194.078Z" fill="white"/>
<path d="M265.161 193.56H263.091C262.999 193.56 262.912 193.597 262.847 193.661C262.782 193.726 262.746 193.814 262.746 193.905C262.746 193.997 262.782 194.084 262.847 194.149C262.912 194.214 262.999 194.25 263.091 194.25H265.161C265.253 194.25 265.34 194.214 265.405 194.149C265.47 194.084 265.506 193.997 265.506 193.905C265.506 193.814 265.47 193.726 265.405 193.661C265.34 193.597 265.253 193.56 265.161 193.56Z" fill="white"/>
<path d="M259.985 181.491C260.076 181.491 260.164 181.455 260.229 181.39C260.293 181.326 260.33 181.238 260.33 181.147V180.802H260.675C260.766 180.802 260.854 180.765 260.919 180.701C260.983 180.636 261.02 180.548 261.02 180.457C261.02 180.365 260.983 180.278 260.919 180.213C260.854 180.148 260.766 180.112 260.675 180.112H259.985C259.893 180.112 259.805 180.148 259.741 180.213C259.676 180.278 259.64 180.365 259.64 180.457V181.147C259.64 181.238 259.676 181.326 259.741 181.39C259.805 181.455 259.893 181.491 259.985 181.491Z" fill="white"/>
<path d="M260.675 188.388H260.33V188.043C260.33 187.951 260.293 187.864 260.229 187.799C260.164 187.734 260.076 187.698 259.985 187.698C259.893 187.698 259.805 187.734 259.741 187.799C259.676 187.864 259.64 187.951 259.64 188.043V188.733C259.64 188.824 259.676 188.912 259.741 188.976C259.805 189.041 259.893 189.077 259.985 189.077H260.675C260.766 189.077 260.854 189.041 260.919 188.976C260.983 188.912 261.02 188.824 261.02 188.733C261.02 188.641 260.983 188.553 260.919 188.489C260.854 188.424 260.766 188.388 260.675 188.388Z" fill="white"/>
<path d="M268.266 187.698C268.175 187.698 268.087 187.734 268.022 187.799C267.958 187.864 267.921 187.951 267.921 188.043V188.388H267.576C267.485 188.388 267.397 188.424 267.332 188.489C267.268 188.553 267.231 188.641 267.231 188.733C267.231 188.824 267.268 188.912 267.332 188.976C267.397 189.041 267.485 189.077 267.576 189.077H268.266C268.358 189.077 268.446 189.041 268.51 188.976C268.575 188.912 268.611 188.824 268.611 188.733V188.043C268.611 187.951 268.575 187.864 268.51 187.799C268.446 187.734 268.358 187.698 268.266 187.698Z" fill="white"/>
<path d="M268.266 180.112H267.576C267.485 180.112 267.397 180.148 267.332 180.213C267.268 180.278 267.231 180.365 267.231 180.457C267.231 180.548 267.268 180.636 267.332 180.701C267.397 180.765 267.485 180.802 267.576 180.802H267.921V181.147C267.921 181.238 267.958 181.326 268.022 181.39C268.087 181.455 268.175 181.491 268.266 181.491C268.358 181.491 268.446 181.455 268.51 181.39C268.575 181.326 268.611 181.238 268.611 181.147V180.457C268.611 180.365 268.575 180.278 268.51 180.213C268.446 180.148 268.358 180.112 268.266 180.112Z" fill="white"/>
<path d="M260.676 181.492V183.561C260.676 183.652 260.712 183.74 260.777 183.804C260.841 183.869 260.929 183.905 261.021 183.905H263.091C263.182 183.905 263.27 183.869 263.335 183.804C263.399 183.74 263.436 183.652 263.436 183.561V181.492C263.436 181.4 263.399 181.312 263.335 181.248C263.27 181.183 263.182 181.147 263.091 181.147H261.021C260.929 181.147 260.841 181.183 260.777 181.248C260.712 181.312 260.676 181.4 260.676 181.492ZM261.366 181.836H262.746V183.216H261.366V181.836Z" fill="white"/>
<path d="M263.436 187.698V185.629C263.436 185.537 263.399 185.449 263.335 185.385C263.27 185.32 263.182 185.284 263.091 185.284H261.021C260.929 185.284 260.841 185.32 260.777 185.385C260.712 185.449 260.676 185.537 260.676 185.629V187.698C260.676 187.789 260.712 187.877 260.777 187.942C260.841 188.006 260.929 188.042 261.021 188.042H263.091C263.182 188.042 263.27 188.006 263.335 187.942C263.399 187.877 263.436 187.789 263.436 187.698ZM262.746 187.353H261.366V185.973H262.746V187.353Z" fill="white"/>
<path d="M265.161 183.905H267.231C267.323 183.905 267.411 183.869 267.475 183.804C267.54 183.74 267.576 183.652 267.576 183.561V181.492C267.576 181.4 267.54 181.312 267.475 181.248C267.411 181.183 267.323 181.147 267.231 181.147H265.161C265.07 181.147 264.982 181.183 264.917 181.248C264.852 181.312 264.816 181.4 264.816 181.492V183.561C264.816 183.652 264.852 183.74 264.917 183.804C264.982 183.869 265.07 183.905 265.161 183.905ZM265.506 181.836H266.886V183.216H265.506V181.836Z" fill="white"/>
<path d="M267.576 187.698V186.663C267.576 186.572 267.54 186.484 267.475 186.419C267.41 186.355 267.323 186.318 267.231 186.318H266.196C266.105 186.318 266.017 186.355 265.952 186.419C265.887 186.484 265.851 186.572 265.851 186.663V187.698C265.851 187.789 265.887 187.877 265.952 187.942C266.017 188.006 266.105 188.043 266.196 188.043H267.231C267.323 188.043 267.41 188.006 267.475 187.942C267.54 187.877 267.576 187.789 267.576 187.698ZM266.886 187.353H266.541V187.008H266.886V187.353Z" fill="white"/>
<path d="M265.161 185.974H266.196C266.288 185.974 266.376 185.938 266.44 185.873C266.505 185.808 266.541 185.721 266.541 185.629V184.595C266.541 184.503 266.505 184.416 266.44 184.351C266.376 184.286 266.288 184.25 266.196 184.25H265.161C265.07 184.25 264.982 184.286 264.917 184.351C264.852 184.416 264.816 184.503 264.816 184.595V185.629C264.816 185.721 264.852 185.808 264.917 185.873C264.982 185.938 265.07 185.974 265.161 185.974ZM265.506 184.94H265.851V185.284H265.506V184.94Z" fill="white"/>
<path d="M264.126 188.043C264.217 188.043 264.305 188.007 264.37 187.942C264.435 187.877 264.471 187.79 264.471 187.698V184.595C264.471 184.503 264.435 184.416 264.37 184.351C264.305 184.286 264.217 184.25 264.126 184.25H262.401C262.309 184.25 262.221 184.286 262.157 184.351C262.092 184.416 262.056 184.503 262.056 184.595C262.056 184.686 262.092 184.774 262.157 184.839C262.221 184.903 262.309 184.94 262.401 184.94H263.781V187.698C263.781 187.79 263.817 187.877 263.882 187.942C263.947 188.007 264.034 188.043 264.126 188.043Z" fill="white"/>
<path d="M264.126 182.181C264.217 182.181 264.305 182.145 264.37 182.08C264.434 182.016 264.471 181.928 264.471 181.836V181.492C264.471 181.4 264.434 181.312 264.37 181.248C264.305 181.183 264.217 181.147 264.126 181.147C264.034 181.147 263.946 181.183 263.882 181.248C263.817 181.312 263.781 181.4 263.781 181.492V181.836C263.781 181.928 263.817 182.016 263.882 182.08C263.946 182.145 264.034 182.181 264.126 182.181Z" fill="white"/>
<path d="M264.126 183.905C264.217 183.905 264.305 183.869 264.37 183.804C264.434 183.739 264.471 183.652 264.471 183.56V182.871C264.471 182.779 264.434 182.691 264.37 182.627C264.305 182.562 264.217 182.526 264.126 182.526C264.034 182.526 263.946 182.562 263.882 182.627C263.817 182.691 263.781 182.779 263.781 182.871V183.56C263.781 183.652 263.817 183.739 263.882 183.804C263.946 183.869 264.034 183.905 264.126 183.905Z" fill="white"/>
<path d="M265.161 186.318C265.07 186.318 264.982 186.355 264.917 186.419C264.852 186.484 264.816 186.572 264.816 186.663V187.698C264.816 187.789 264.852 187.877 264.917 187.942C264.982 188.006 265.07 188.043 265.161 188.043C265.253 188.043 265.34 188.006 265.405 187.942C265.47 187.877 265.506 187.789 265.506 187.698V186.663C265.506 186.572 265.47 186.484 265.405 186.419C265.34 186.355 265.253 186.318 265.161 186.318Z" fill="white"/>
<path d="M261.021 184.25C260.929 184.25 260.841 184.286 260.777 184.351C260.712 184.416 260.676 184.503 260.676 184.595C260.676 184.686 260.712 184.774 260.777 184.839C260.841 184.903 260.929 184.94 261.021 184.94H261.366C261.457 184.94 261.545 184.903 261.61 184.839C261.674 184.774 261.711 184.686 261.711 184.595C261.711 184.503 261.674 184.416 261.61 184.351C261.545 184.286 261.457 184.25 261.366 184.25H261.021Z" fill="white"/>
<path d="M267.232 184.25C267.14 184.25 267.052 184.286 266.988 184.351C266.923 184.416 266.887 184.503 266.887 184.595V185.629C266.887 185.721 266.923 185.808 266.988 185.873C267.052 185.938 267.14 185.974 267.232 185.974C267.323 185.974 267.411 185.938 267.476 185.873C267.54 185.808 267.577 185.721 267.577 185.629V184.595C267.577 184.503 267.54 184.416 267.476 184.351C267.411 184.286 267.323 184.25 267.232 184.25Z" fill="white"/>
<path d="M275.429 195.303C274.435 195.303 273.61 194.953 272.954 194.255C272.307 193.537 271.983 192.655 271.983 191.607C271.983 190.54 272.307 189.657 272.954 188.959C273.61 188.26 274.435 187.911 275.429 187.911C276.113 187.911 276.711 188.09 277.221 188.449C277.731 188.798 278.114 189.284 278.37 189.907L277.221 190.403C276.865 189.535 276.241 189.1 275.347 189.1C274.773 189.1 274.276 189.341 273.857 189.822C273.446 190.304 273.241 190.899 273.241 191.607C273.241 192.315 273.446 192.91 273.857 193.391C274.276 193.873 274.773 194.113 275.347 194.113C276.268 194.113 276.916 193.679 277.289 192.81L278.411 193.306C278.165 193.929 277.777 194.42 277.248 194.779C276.729 195.128 276.123 195.303 275.429 195.303ZM279.335 191.607C279.335 190.54 279.659 189.657 280.306 188.959C280.962 188.26 281.788 187.911 282.781 187.911C283.775 187.911 284.596 188.26 285.243 188.959C285.899 189.657 286.228 190.54 286.228 191.607C286.228 192.683 285.899 193.566 285.243 194.255C284.596 194.953 283.775 195.303 282.781 195.303C281.788 195.303 280.962 194.953 280.306 194.255C279.659 193.556 279.335 192.674 279.335 191.607ZM280.593 191.607C280.593 192.353 280.803 192.957 281.222 193.419C281.642 193.882 282.161 194.113 282.781 194.113C283.402 194.113 283.921 193.882 284.34 193.419C284.76 192.957 284.969 192.353 284.969 191.607C284.969 190.87 284.76 190.271 284.34 189.808C283.912 189.336 283.392 189.1 282.781 189.1C282.171 189.1 281.651 189.336 281.222 189.808C280.803 190.271 280.593 190.87 280.593 191.607ZM290.653 194.113C291.273 194.113 291.779 193.882 292.171 193.419C292.581 192.957 292.786 192.353 292.786 191.607C292.786 190.88 292.581 190.28 292.171 189.808C291.77 189.336 291.264 189.1 290.653 189.1C290.051 189.1 289.545 189.336 289.135 189.808C288.724 190.28 288.519 190.88 288.519 191.607C288.519 192.343 288.724 192.943 289.135 193.405C289.545 193.877 290.051 194.113 290.653 194.113ZM290.448 195.303C289.572 195.303 288.82 194.944 288.191 194.227C287.571 193.5 287.261 192.626 287.261 191.607C287.261 190.587 287.571 189.714 288.191 188.987C288.82 188.269 289.572 187.911 290.448 187.911C290.94 187.911 291.387 188.019 291.788 188.236C292.198 188.454 292.513 188.742 292.731 189.1H292.786L292.731 188.137V184.937H293.99V195.076H292.786V194.113H292.731C292.513 194.472 292.198 194.76 291.788 194.977C291.387 195.194 290.94 195.303 290.448 195.303ZM300.859 193.15C300.859 193.755 300.604 194.264 300.094 194.68C299.583 195.095 298.941 195.303 298.165 195.303C297.491 195.303 296.898 195.123 296.387 194.765C295.877 194.397 295.512 193.915 295.293 193.32L296.415 192.825C296.579 193.24 296.816 193.566 297.126 193.802C297.445 194.028 297.792 194.142 298.165 194.142C298.566 194.142 298.899 194.052 299.164 193.873C299.437 193.693 299.574 193.481 299.574 193.235C299.574 192.792 299.246 192.466 298.589 192.258L297.44 191.961C296.137 191.621 295.485 190.97 295.485 190.007C295.485 189.374 295.731 188.869 296.223 188.491C296.725 188.104 297.363 187.911 298.138 187.911C298.73 187.911 299.264 188.057 299.738 188.35C300.221 188.642 300.559 189.034 300.75 189.525L299.629 190.007C299.501 189.714 299.291 189.487 298.999 189.327C298.717 189.157 298.398 189.072 298.042 189.072C297.714 189.072 297.417 189.157 297.153 189.327C296.898 189.497 296.77 189.705 296.77 189.95C296.77 190.346 297.13 190.63 297.851 190.8L298.863 191.069C300.194 191.409 300.859 192.102 300.859 193.15Z" fill="white"/>
<defs>
<linearGradient id="paint0_linear" x1="0.0063465" y1="382.671" x2="563.3" y2="382.671" gradientUnits="userSpaceOnUse">
<stop stop-color="#2B90D9"/>
<stop offset="1" stop-color="#58CAEA"/>
</linearGradient>
<linearGradient id="paint1_linear" x1="282.893" y1="74.9041" x2="282.893" y2="381.402" gradientUnits="userSpaceOnUse">
<stop stop-color="#2B90D9"/>
<stop offset="1" stop-color="#53C4E8"/>
</linearGradient>
</defs>
</svg>
