<svg width="1440" height="132" viewBox="0 0 1440 132" fill="none" xmlns="http://www.w3.org/2000/svg">
<path opacity="0.1" d="M0 130C0 130 29.6964 49.728 142.417 56.9694C215.689 61.6944 246.97 44.4546 259.853 31.8271C275.889 16.1498 296.164 5.37774 318.355 1.83213C354.501 -3.94452 406.087 1.56922 458.736 53.3487C555.7 148.712 662.364 130 666 130H0Z" fill="black" fill-opacity="0.5"/>
<path opacity="0.1" d="M1440 130C1440 130 1410.3 49.728 1297.58 56.9694C1224.31 61.6944 1193.03 44.4546 1180.15 31.8271C1164.11 16.1498 1143.84 5.37774 1121.64 1.83213C1085.5 -3.94452 1033.91 1.56922 981.264 53.3487C884.3 148.712 800.664 112.497 797.028 112.497C793.393 112.497 774 130 774 130H1440Z" fill="black" fill-opacity="0.5"/>
</svg>
