<svg width="1440" height="106" viewBox="0 0 1440 106" fill="none" xmlns="http://www.w3.org/2000/svg">
<path fill-rule="evenodd" clip-rule="evenodd" d="M1440 92.75L1380 86.125C1320 79.5 1200 66.25 1080 59.625C960 53 840 53 720 61.8333C600 70.6666 480 88.3333 360 97.1666C240 106 120 106 60 106L0 106L9.2668e-06 3.81091e-06L60 9.05628e-06C120 1.43016e-05 240 2.47924e-05 360 3.52831e-05C480 4.57738e-05 600 5.62646e-05 720 6.67553e-05C840 7.7246e-05 960 8.77368e-05 1080 9.82275e-05C1200 0.000108718 1320 0.000119209 1380 0.000124454L1440 0.0001297L1440 92.75Z" fill="#F2F2F2"/>
</svg>
