<svg width="84" height="55" viewBox="0 0 84 55" fill="none" xmlns="http://www.w3.org/2000/svg">
<path d="M2.81658 23.9851L13.7012 30.9023L7.10744 18.8605C8.97456 17.3645 11.2848 16.5358 13.6732 16.5056H13.8482C14.6031 16.5204 15.3578 16.4639 16.1021 16.3369L19.784 18.6848L18.2091 15.8026C20.8175 14.8832 23.0709 13.1613 24.6489 10.8819L31.2357 15.0997L27.0778 7.4936C30.9277 2.84701 36.1215 0 41.8403 0C48.6931 0 54.7969 4.09125 58.7378 10.4742C59.9064 12.3856 61.5585 13.952 63.5257 15.0139C65.493 16.0758 67.7053 16.5954 69.9374 16.5197H70.3014C77.8682 16.5197 84 25.131 84 35.7598C84 46.3886 77.8682 54.9999 70.3014 54.9999C68.6388 54.9946 67.0025 54.582 65.5346 53.7979C62.9583 52.5427 60.1416 51.8638 57.2787 51.808C54.4158 51.7522 51.5749 52.3208 48.9521 53.4745C46.7365 54.4741 44.336 54.9939 41.9071 54.9999C39.4781 55.006 37.0751 54.4982 34.8545 53.5097C32.2534 52.3775 29.4405 51.8198 26.6061 51.8744C23.7717 51.929 20.9821 52.5945 18.4261 53.826C16.9671 54.5906 15.3469 54.9932 13.7012 54.9999C6.13447 54.9999 0.00265503 46.3886 0.00265503 35.7598C-0.0576401 31.66 0.910034 27.6109 2.81658 23.9851Z" fill="#F2F2F2"/>
<path opacity="0.03" d="M23 52.1835C26.9748 51.4293 31.0834 51.8765 34.8044 53.4682C37.033 54.4689 39.4473 54.9862 41.8891 54.9862C44.331 54.9862 46.7453 54.4689 48.9739 53.4682C51.6106 52.3064 54.4678 51.7337 57.3473 51.7898C60.2268 51.8459 63.0596 52.5294 65.6493 53.7929C67.1289 54.578 68.776 54.9922 70.4499 55C77.2074 55 82.8315 48.1671 84 39.16C82.6479 38.1753 81.5003 36.9357 80.6213 35.5106C76.6583 29.1082 70.5203 25 63.6291 25C56.7379 25 50.6633 29.0235 46.7074 35.3765C45.5237 37.2965 43.864 38.876 41.8901 39.961C39.9163 41.0459 37.6957 41.5993 35.445 41.5671H35.269C29.9264 41.5529 25.2666 45.8729 23 52.1835Z" fill="black"/>
</svg>
