<svg width="75" height="49" viewBox="0 0 75 49" fill="none" xmlns="http://www.w3.org/2000/svg">
<path d="M72.4852 21.3686L62.7668 27.5312L68.6541 16.803C66.987 15.4702 64.9243 14.7319 62.7917 14.705H62.6355C61.9615 14.7182 61.2877 14.6679 60.6231 14.5547L57.3357 16.6465L58.7419 14.0787C56.413 13.2596 54.401 11.7256 52.9921 9.69477L47.111 13.4524L50.8234 6.67612C47.386 2.53643 42.7486 0 37.6425 0C31.524 0 26.0742 3.64493 22.5555 9.33153C21.5121 11.0344 20.0371 12.4299 18.2806 13.376C16.5241 14.3221 14.5489 14.785 12.5559 14.7175H12.2309C5.47483 14.7175 0 22.3894 0 31.8587C0 41.328 5.47483 49 12.2309 49C13.7154 48.9952 15.1763 48.6276 16.487 47.929C18.7872 46.8108 21.3022 46.206 23.8583 46.1562C26.4145 46.1065 28.9509 46.613 31.2928 47.6409C33.271 48.5315 35.4143 48.9946 37.583 49C39.7517 49.0053 41.8972 48.553 43.8799 47.6722C46.2023 46.6636 48.7139 46.1668 51.2446 46.2154C53.7753 46.264 56.266 46.857 58.5481 47.9541C59.8508 48.6353 61.2974 48.9939 62.7668 49C69.5228 49 74.9976 41.328 74.9976 31.8587C75.0515 28.2062 74.1875 24.5988 72.4852 21.3686Z" fill="#F2F2F2"/>
<path opacity="0.03" d="M54 46.5591C50.4813 45.9054 46.8442 46.293 43.5502 47.6725C41.5773 48.5397 39.4401 48.988 37.2785 48.988C35.1168 48.988 32.9796 48.5397 31.0067 47.6725C28.6726 46.6656 26.1432 46.1692 23.5942 46.2178C21.0452 46.2664 18.5374 46.8588 16.2449 47.9539C14.9351 48.6343 13.477 48.9932 11.9952 49C6.01316 49 1.03439 43.0781 0 35.272C1.19693 34.4186 2.21288 33.3443 2.99099 32.1092C6.49919 26.5605 11.9328 23 18.0332 23C24.1336 23 29.5112 26.4871 33.0132 31.9929C34.061 33.6569 35.5302 35.0259 37.2776 35.9662C39.0249 36.9065 40.9907 37.3861 42.9832 37.3581H43.1389C47.8685 37.3459 51.9935 41.0899 54 46.5591Z" fill="black"/>
</svg>
