<svg width="84" height="92" viewBox="0 0 84 92" fill="none" xmlns="http://www.w3.org/2000/svg">
<path d="M50.0983 1.50598L49.8126 2.63022L43.3785 27.7854C43.1427 28.7101 42.0416 29.0981 41.2776 28.5266L17.4162 10.6966C16.5205 10.0275 16.7901 8.62124 17.8698 8.3301L47.5423 0.328628L48.6152 0.0421262C49.5054 -0.195735 50.3242 0.611799 50.0983 1.50598Z" fill="white"/>
<path d="M32.2509 21.7574L34.9365 23.7664L27.4278 27.7514L27.094 17.902L47.0889 2.82777L32.2509 21.7574Z" fill="#2B90D9"/>
<path d="M20.5 37C21.8807 37 23 35.8807 23 34.5C23 33.1193 21.8807 32 20.5 32C19.1193 32 18 33.1193 18 34.5C18 35.8807 19.1193 37 20.5 37Z" stroke="white" stroke-width="2"/>
<path d="M13.5 44C14.8807 44 16 42.8807 16 41.5C16 40.1193 14.8807 39 13.5 39C12.1193 39 11 40.1193 11 41.5C11 42.8807 12.1193 44 13.5 44Z" stroke="white" stroke-width="2"/>
<path d="M21.9014 50.2189H2.35856C1.73325 50.2196 1.13369 50.468 0.691571 50.9101C0.249288 51.3519 0.000664338 51.9511 0 52.5761V89.6187C0.000664338 90.2436 0.249288 90.8429 0.691571 91.2847C1.13369 91.7267 1.73325 91.9752 2.35856 91.9759H21.9014C22.5265 91.9752 23.1261 91.7267 23.5679 91.2847C24.0113 90.8429 24.2588 90.2436 24.2605 89.6187V52.5761C24.2588 51.9511 24.0113 51.3519 23.5679 50.9101C23.1261 50.468 22.5265 50.2196 21.9014 50.2189ZM15.31 51.5659L14.973 52.9129H9.28694L8.95013 51.5659H15.31ZM22.9118 89.6187C22.9118 89.8866 22.8055 90.1434 22.6162 90.3328C22.4269 90.5222 22.1694 90.6287 21.9014 90.6289H2.35856C2.0905 90.6287 1.83357 90.5222 1.64407 90.3328C1.45457 90.1434 1.34794 89.8866 1.34778 89.6187V52.5761C1.34794 52.3082 1.45457 52.0514 1.64407 51.862C1.83357 51.6726 2.0905 51.5661 2.35856 51.5659H7.56016L8.10691 53.7496C8.14328 53.8954 8.22749 54.0247 8.34591 54.1171C8.46433 54.2096 8.61031 54.2599 8.76045 54.2599H15.4995C15.6498 54.2599 15.7956 54.2096 15.9141 54.1171C16.0326 54.0247 16.1167 53.8954 16.1532 53.7496L16.6998 51.5659H21.9014C22.1694 51.5661 22.4269 51.6726 22.6162 51.862C22.8055 52.0514 22.9118 52.3082 22.9118 52.5761V89.6187Z" fill="white"/>
<path d="M14.1519 88.6084H10.1085C9.92983 88.6084 9.75844 88.6793 9.63205 88.8056C9.50566 88.9319 9.43457 89.1032 9.43457 89.2818C9.43457 89.4604 9.50566 89.6319 9.63205 89.758C9.75844 89.8843 9.92983 89.9554 10.1085 89.9554H14.1519C14.3306 89.9554 14.502 89.8843 14.6284 89.758C14.7548 89.6319 14.8258 89.4604 14.8258 89.2818C14.8258 89.1032 14.7548 88.9319 14.6284 88.8056C14.502 88.6793 14.3306 88.6084 14.1519 88.6084Z" fill="white"/>
<path d="M4.04342 65.0362C4.22212 65.0362 4.39353 64.9651 4.51992 64.8388C4.64631 64.7125 4.7174 64.5412 4.7174 64.3626V63.6892H5.39119C5.56989 63.6892 5.7413 63.6182 5.86769 63.4918C5.99408 63.3655 6.06515 63.1942 6.06515 63.0156C6.06515 62.837 5.99408 62.6657 5.86769 62.5394C5.7413 62.4131 5.56989 62.3422 5.39119 62.3422H4.04342C3.86471 62.3422 3.69332 62.4131 3.56693 62.5394C3.44054 62.6657 3.36963 62.837 3.36963 63.0156V64.3626C3.36963 64.5412 3.44054 64.7125 3.56693 64.8388C3.69332 64.9651 3.86471 65.0362 4.04342 65.0362Z" fill="white"/>
<path d="M5.39119 78.5056H4.7174V77.8321C4.7174 77.6535 4.64631 77.4822 4.51992 77.3559C4.39353 77.2296 4.22212 77.1586 4.04342 77.1586C3.86471 77.1586 3.69332 77.2296 3.56693 77.3559C3.44054 77.4822 3.36963 77.6535 3.36963 77.8321V79.1791C3.36963 79.3577 3.44054 79.529 3.56693 79.6554C3.69332 79.7817 3.86471 79.8525 4.04342 79.8525H5.39119C5.56989 79.8525 5.7413 79.7817 5.86769 79.6554C5.99408 79.529 6.06515 79.3577 6.06515 79.1791C6.06515 79.0005 5.99408 78.8292 5.86769 78.7029C5.7413 78.5766 5.56989 78.5056 5.39119 78.5056Z" fill="white"/>
<path d="M20.2166 77.1586C20.0379 77.1586 19.8665 77.2296 19.7401 77.3559C19.6137 77.4822 19.5426 77.6535 19.5426 77.8321V78.5056H18.8688C18.6901 78.5056 18.5187 78.5766 18.3923 78.7029C18.2659 78.8292 18.1948 79.0005 18.1948 79.1791C18.1948 79.3577 18.2659 79.529 18.3923 79.6554C18.5187 79.7817 18.6901 79.8525 18.8688 79.8525H20.2166C20.3953 79.8525 20.5667 79.7817 20.6931 79.6554C20.8195 79.529 20.8905 79.3577 20.8905 79.1791V77.8321C20.8905 77.6535 20.8195 77.4822 20.6931 77.3559C20.5667 77.2296 20.3953 77.1586 20.2166 77.1586Z" fill="white"/>
<path d="M20.2166 62.3422H18.8688C18.6901 62.3422 18.5187 62.4131 18.3923 62.5394C18.2659 62.6657 18.1948 62.837 18.1948 63.0156C18.1948 63.1942 18.2659 63.3655 18.3923 63.4918C18.5187 63.6182 18.6901 63.6892 18.8688 63.6892H19.5426V64.3626C19.5426 64.5412 19.6137 64.7125 19.7401 64.8388C19.8665 64.9651 20.0379 65.0362 20.2166 65.0362C20.3953 65.0362 20.5667 64.9651 20.6931 64.8388C20.8195 64.7125 20.8905 64.5412 20.8905 64.3626V63.0156C20.8905 62.837 20.8195 62.6657 20.6931 62.5394C20.5667 62.4131 20.3953 62.3422 20.2166 62.3422Z" fill="white"/>
<path d="M5.39111 65.036V69.077C5.39111 69.2556 5.46203 69.4269 5.58842 69.5533C5.71481 69.6796 5.8862 69.7506 6.06491 69.7506H10.1082C10.2869 69.7506 10.4583 69.6796 10.5847 69.5533C10.7111 69.4269 10.7822 69.2556 10.7822 69.077V65.036C10.7822 64.8574 10.7111 64.6861 10.5847 64.5598C10.4583 64.4335 10.2869 64.3626 10.1082 64.3626H6.06491C5.8862 64.3626 5.71481 64.4335 5.58842 64.5598C5.46203 64.6861 5.39111 64.8574 5.39111 65.036ZM6.73888 65.7096H9.43443V68.4036H6.73888V65.7096Z" fill="white"/>
<path d="M10.7822 77.1585V73.1176C10.7822 72.9388 10.7111 72.7675 10.5847 72.6412C10.4583 72.515 10.2869 72.444 10.1082 72.444H6.06491C5.8862 72.444 5.71481 72.515 5.58842 72.6412C5.46203 72.7675 5.39111 72.9388 5.39111 73.1176V77.1585C5.39111 77.3371 5.46203 77.5084 5.58842 77.6347C5.71481 77.7611 5.8862 77.8319 6.06491 77.8319H10.1082C10.2869 77.8319 10.4583 77.7611 10.5847 77.6347C10.7111 77.5084 10.7822 77.3371 10.7822 77.1585ZM9.43443 76.4849H6.73888V73.791H9.43443V76.4849Z" fill="white"/>
<path d="M14.1522 69.7506H18.1956C18.3743 69.7506 18.5457 69.6796 18.6721 69.5533C18.7985 69.4269 18.8694 69.2556 18.8694 69.077V65.036C18.8694 64.8574 18.7985 64.6861 18.6721 64.5598C18.5457 64.4335 18.3743 64.3626 18.1956 64.3626H14.1522C13.9734 64.3626 13.802 64.4335 13.6756 64.5598C13.5492 64.6861 13.4783 64.8574 13.4783 65.036V69.077C13.4783 69.2556 13.5492 69.4269 13.6756 69.5533C13.802 69.6796 13.9734 69.7506 14.1522 69.7506ZM14.826 65.7096H17.5216V68.4036H14.826V65.7096Z" fill="white"/>
<path d="M18.8691 77.1587V75.1381C18.8691 74.9595 18.7982 74.7882 18.6718 74.6619C18.5454 74.5355 18.374 74.4647 18.1953 74.4647H16.1736C15.9949 74.4647 15.8235 74.5355 15.6971 74.6619C15.5707 74.7882 15.4998 74.9595 15.4998 75.1381V77.1587C15.4998 77.3373 15.5707 77.5086 15.6971 77.6349C15.8235 77.7612 15.9949 77.8323 16.1736 77.8323H18.1953C18.374 77.8323 18.5454 77.7612 18.6718 77.6349C18.7982 77.5086 18.8691 77.3373 18.8691 77.1587ZM17.5213 76.4851H16.8475V75.8117H17.5213V76.4851Z" fill="white"/>
<path d="M14.1522 73.7912H16.1738C16.3525 73.7912 16.5239 73.7201 16.6503 73.5938C16.7767 73.4675 16.8478 73.2962 16.8478 73.1176V71.0972C16.8478 70.9185 16.7767 70.7472 16.6503 70.6209C16.5239 70.4946 16.3525 70.4236 16.1738 70.4236H14.1522C13.9734 70.4236 13.802 70.4946 13.6756 70.6209C13.5492 70.7472 13.4783 70.9185 13.4783 71.0972V73.1176C13.4783 73.2962 13.5492 73.4675 13.6756 73.5938C13.802 73.7201 13.9734 73.7912 14.1522 73.7912ZM14.826 71.7706H15.5V72.4442H14.826V71.7706Z" fill="white"/>
<path d="M12.13 77.8321C12.3087 77.8321 12.4801 77.7613 12.6065 77.6349C12.7329 77.5086 12.804 77.3373 12.804 77.1585V71.0971C12.804 70.9185 12.7329 70.7472 12.6065 70.6209C12.4801 70.4946 12.3087 70.4236 12.13 70.4236H8.76064C8.58177 70.4236 8.41038 70.4946 8.28399 70.6209C8.15776 70.7472 8.08667 70.9185 8.08667 71.0971C8.08667 71.2758 8.15776 71.447 8.28399 71.5734C8.41038 71.6997 8.58177 71.7706 8.76064 71.7706H11.4562V77.1585C11.4562 77.3373 11.5271 77.5086 11.6535 77.6349C11.7799 77.7613 11.9513 77.8321 12.13 77.8321Z" fill="white"/>
<path d="M12.1303 66.383C12.309 66.383 12.4804 66.3122 12.6068 66.1859C12.7332 66.0595 12.8041 65.8882 12.8041 65.7096V65.036C12.8041 64.8574 12.7332 64.6861 12.6068 64.5598C12.4804 64.4335 12.309 64.3626 12.1303 64.3626C11.9516 64.3626 11.78 64.4335 11.6538 64.5598C11.5274 64.6861 11.4563 64.8574 11.4563 65.036V65.7096C11.4563 65.8882 11.5274 66.0595 11.6538 66.1859C11.78 66.3122 11.9516 66.383 12.1303 66.383Z" fill="white"/>
<path d="M12.1303 69.7508C12.309 69.7508 12.4804 69.6799 12.6068 69.5536C12.7332 69.4273 12.8041 69.256 12.8041 69.0774V67.7304C12.8041 67.5516 12.7332 67.3803 12.6068 67.254C12.4804 67.1277 12.309 67.0568 12.1303 67.0568C11.9516 67.0568 11.78 67.1277 11.6538 67.254C11.5274 67.3803 11.4563 67.5516 11.4563 67.7304V69.0774C11.4563 69.256 11.5274 69.4273 11.6538 69.5536C11.78 69.6799 11.9516 69.7508 12.1303 69.7508Z" fill="white"/>
<path d="M14.1522 74.4647C13.9734 74.4647 13.802 74.5355 13.6756 74.6619C13.5492 74.7882 13.4783 74.9595 13.4783 75.1381V77.1587C13.4783 77.3373 13.5492 77.5086 13.6756 77.6349C13.802 77.7612 13.9734 77.8323 14.1522 77.8323C14.3309 77.8323 14.5023 77.7612 14.6287 77.6349C14.7551 77.5086 14.826 77.3373 14.826 77.1587V75.1381C14.826 74.9595 14.7551 74.7882 14.6287 74.6619C14.5023 74.5355 14.3309 74.4647 14.1522 74.4647Z" fill="white"/>
<path d="M6.0649 70.4236C5.8862 70.4236 5.71481 70.4946 5.58842 70.6209C5.46203 70.7472 5.39111 70.9186 5.39111 71.0972C5.39111 71.2758 5.46203 71.4471 5.58842 71.5734C5.71481 71.6997 5.8862 71.7706 6.0649 71.7706H6.73887C6.91758 71.7706 7.08898 71.6997 7.21537 71.5734C7.34176 71.4471 7.41267 71.2758 7.41267 71.0972C7.41267 70.9186 7.34176 70.7472 7.21537 70.6209C7.08898 70.4946 6.91758 70.4236 6.73887 70.4236H6.0649Z" fill="white"/>
<path d="M18.1953 70.4236C18.0166 70.4236 17.8452 70.4946 17.7188 70.6209C17.5924 70.7472 17.5215 70.9185 17.5215 71.0972V73.1176C17.5215 73.2962 17.5924 73.4675 17.7188 73.5938C17.8452 73.7201 18.0166 73.7912 18.1953 73.7912C18.374 73.7912 18.5454 73.7201 18.6718 73.5938C18.7982 73.4675 18.8693 73.2962 18.8693 73.1176V71.0972C18.8693 70.9185 18.7982 70.7472 18.6718 70.6209C18.5454 70.4946 18.374 70.4236 18.1953 70.4236Z" fill="white"/>
<path d="M34.6836 90C32.7558 90 31.1561 89.3597 29.8831 88.0792C28.6282 86.7641 28 85.1462 28 83.2254C28 81.2701 28.6282 79.652 29.8831 78.3716C31.1561 77.0911 32.7558 76.4508 34.6836 76.4508C36.0097 76.4508 37.1684 76.7797 38.158 77.4372C39.1476 78.0775 39.8902 78.9686 40.3859 80.1107L38.158 81.0191C37.4684 79.4272 36.2567 78.6312 34.5245 78.6312C33.4105 78.6312 32.4474 79.0724 31.6335 79.9549C30.8379 80.8374 30.44 81.9276 30.44 83.2254C30.44 84.5232 30.8379 85.6134 31.6335 86.4959C32.4474 87.3784 33.4105 87.8197 34.5245 87.8197C36.3097 87.8197 37.5662 87.0236 38.2906 85.4317L40.4654 86.3402C39.988 87.4822 39.2371 88.3821 38.2111 89.0396C37.2032 89.6799 36.028 90 34.6836 90ZM42.2574 83.2254C42.2574 81.2701 42.8856 79.652 44.1404 78.3716C45.4135 77.0911 47.0148 76.4508 48.9409 76.4508C50.8688 76.4508 52.4601 77.0911 53.7149 78.3716C54.988 79.652 55.6245 81.2701 55.6245 83.2254C55.6245 85.1981 54.988 86.816 53.7149 88.0792C52.4601 89.3597 50.8688 90 48.9409 90C47.0148 90 45.4135 89.3597 44.1404 88.0792C42.8856 86.7988 42.2574 85.1807 42.2574 83.2254ZM44.6974 83.2254C44.6974 84.5925 45.1052 85.6999 45.9174 86.5478C46.7313 87.3958 47.7392 87.8197 48.9409 87.8197C50.1444 87.8197 51.1522 87.3958 51.9645 86.5478C52.7784 85.6999 53.1845 84.5925 53.1845 83.2254C53.1845 81.8757 52.7784 80.7769 51.9645 79.929C51.134 79.0638 50.1262 78.6312 48.9409 78.6312C47.7574 78.6312 46.7496 79.0638 45.9174 79.929C45.1052 80.7769 44.6974 81.8757 44.6974 83.2254ZM64.2061 87.8197C65.4096 87.8197 66.3909 87.3958 67.1501 86.5478C67.9458 85.6999 68.3436 84.5925 68.3436 83.2254C68.3436 81.893 67.9458 80.7941 67.1501 79.929C66.3727 79.0638 65.3913 78.6312 64.2061 78.6312C63.0392 78.6312 62.0578 79.0638 61.2622 79.929C60.4665 80.7941 60.0687 81.893 60.0687 83.2254C60.0687 84.5751 60.4665 85.6739 61.2622 86.5219C62.0578 87.387 63.0392 87.8197 64.2061 87.8197ZM63.8083 90C62.1109 90 60.6522 89.3425 59.4321 88.0273C58.2304 86.695 57.6286 85.0943 57.6286 83.2254C57.6286 81.3566 58.2304 79.7559 59.4321 78.4235C60.6522 77.1083 62.1109 76.4508 63.8083 76.4508C64.7631 76.4508 65.63 76.6499 66.4075 77.0478C67.2031 77.4458 67.8132 77.9736 68.2375 78.6312H68.3436L68.2375 76.8661V71H70.6776V89.5847H68.3436V87.8197H68.2375C67.8132 88.4772 67.2031 89.0051 66.4075 89.403C65.63 89.801 64.7631 90 63.8083 90ZM84 86.0546C84 87.1622 83.5044 88.0966 82.5148 88.8579C81.5252 89.6193 80.2786 90 78.7751 90C77.4672 90 76.3168 89.6712 75.3272 89.0137C74.3376 88.3388 73.6298 87.4563 73.2054 86.3661L75.3803 85.4577C75.6986 86.219 76.1577 86.816 76.7594 87.2486C77.3777 87.6639 78.0507 87.8716 78.7751 87.8716C79.5525 87.8716 80.199 87.7073 80.7112 87.3784C81.2417 87.0496 81.5069 86.6602 81.5069 86.2104C81.5069 85.3971 80.8704 84.8002 79.5973 84.4194L77.3694 83.8743C74.8415 83.2514 73.5768 82.0574 73.5768 80.2924C73.5768 79.1329 74.0542 78.2072 75.009 77.515C75.982 76.8056 77.2186 76.4508 78.7221 76.4508C79.8708 76.4508 80.9052 76.719 81.8252 77.2555C82.7617 77.792 83.4165 78.51 83.7878 79.4098L81.613 80.2924C81.366 79.7559 80.9582 79.3406 80.393 79.0464C79.8443 78.735 79.226 78.5792 78.5364 78.5792C77.8999 78.5792 77.3247 78.735 76.8125 79.0464C76.3168 79.3579 76.0699 79.7387 76.0699 80.1885C76.0699 80.9153 76.7677 81.4344 78.1651 81.7459L80.1278 82.2391C82.7087 82.862 84 84.1339 84 86.0546Z" fill="white"/>
</svg>
