<svg width="35" height="35" viewBox="0 0 35 35" fill="none" xmlns="http://www.w3.org/2000/svg">
<g clip-path="url(#clip0)">
<path d="M26.1385 12.0055C22.0726 9.73139 15.5467 6.07969 5.42457 0.412071C4.74214 -0.0386235 3.95696 -0.0976861 3.27856 0.131934L20.6453 17.4987L26.1385 12.0055Z" fill="#32BBFF"/>
<path d="M3.27872 0.131927C3.15157 0.174994 3.02784 0.226947 2.90951 0.289701C2.16036 0.694936 1.60986 1.47471 1.60986 2.46094V32.5364C1.60986 33.5226 2.16029 34.3024 2.90951 34.7076C3.02764 34.7702 3.1513 34.8224 3.27831 34.8657L20.6455 17.4987L3.27872 0.131927Z" fill="#32BBFF"/>
<path d="M20.6455 17.4987L3.27832 34.8657C3.95693 35.0971 4.7421 35.0425 5.42474 34.5853C15.241 29.0885 21.6933 25.48 25.8063 23.1866C25.9208 23.1223 26.033 23.0594 26.1438 22.9971L20.6455 17.4987Z" fill="#32BBFF"/>
<path d="M1.60986 17.4987V32.5364C1.60986 33.5226 2.16029 34.3024 2.90951 34.7076C3.02764 34.7703 3.1513 34.8224 3.27831 34.8658L20.6455 17.4987H1.60986Z" fill="#2C9FD9"/>
<path d="M5.42464 0.412065C4.61424 -0.123053 3.65858 -0.107809 2.90942 0.28977L20.3818 17.7622L26.1385 12.0055C22.0726 9.73138 15.5468 6.07968 5.42464 0.412065Z" fill="#29CC5E"/>
<path d="M20.3819 17.2352L2.90942 34.7075C3.65864 35.1051 4.61424 35.128 5.42464 34.5853C15.2409 29.0885 21.6932 25.48 25.8062 23.1866C25.9207 23.1223 26.0328 23.0594 26.1437 22.9971L20.3819 17.2352Z" fill="#D93F21"/>
<path d="M33.3902 17.4987C33.3902 16.6654 32.9697 15.8245 32.1363 15.3581C32.1363 15.3581 30.5778 14.4885 25.8007 11.8165L20.1184 17.4987L25.8062 23.1866C30.5309 20.5337 32.1363 19.6393 32.1363 19.6393C32.9697 19.173 33.3902 18.332 33.3902 17.4987Z" fill="#FFD500"/>
<path d="M32.1363 19.6393C32.9697 19.173 33.3902 18.332 33.3902 17.4987H20.1184L25.8062 23.1866C30.531 20.5338 32.1363 19.6393 32.1363 19.6393Z" fill="#FFAA00"/>
</g>
<defs>
<clipPath id="clip0">
<rect width="35" height="35" fill="white"/>
</clipPath>
</defs>
</svg>
