<svg width="377" height="360" viewBox="0 0 377 360" fill="none" xmlns="http://www.w3.org/2000/svg">
<path d="M252.08 120.666C252.08 120.666 249.375 119.742 244.097 119.94C241.062 120.072 237.83 120.863 237.104 121.193C235.653 121.852 233.41 122.314 229.979 121.523C223.58 120.006 224.108 115.061 224.569 112.687C225.427 108.137 228.396 105.434 229.583 102.533C230.375 100.621 241.062 100.225 247.462 106.225C250.76 109.192 252.344 117.962 252.08 120.666Z" fill="#321011"/>
<path d="M246.604 104.709L251.552 120.863L253.003 124.622C253.003 124.622 250.892 127.325 245.878 128.38C242.448 129.106 240.139 129.172 238.621 129.04C237.368 128.908 235.851 128.644 236.642 126.336C237.764 122.907 237.368 120.732 237.368 120.732L235.587 111.039L246.604 104.709Z" fill="#EA9D7D"/>
<path d="M247.396 113.412C245.746 115.918 242.844 118.028 241.194 118.819C238.885 119.94 237.236 120.204 237.236 120.204L235.785 112.16L246.604 104.709L247.198 105.83L247.66 107.676C247.726 107.742 248.913 111.105 247.396 113.412Z" fill="url(#paint0_linear)"/>
<path d="M252.608 124.754H252.674C252.734 124.723 252.785 124.676 252.82 124.617C252.855 124.559 252.873 124.492 252.872 124.424L249.771 114.929C249.177 112.951 247.396 106.291 247.396 106.291C247.365 106.231 247.318 106.18 247.259 106.145C247.201 106.11 247.134 106.092 247.066 106.093C247.005 106.124 246.955 106.172 246.92 106.23C246.885 106.288 246.867 106.355 246.868 106.423L249.243 115.061C249.771 116.841 252.344 124.49 252.344 124.49C252.344 124.688 252.476 124.754 252.608 124.754Z" fill="#CF7653"/>
<path d="M230.243 87.7628C228.792 89.609 228.33 91.1915 228.066 93.1037L227.868 96.6644C227.868 99.4337 228.066 103.324 228.396 105.5C229.055 109.258 230.837 111.5 232.948 112.16C235.059 112.819 238.885 111.434 241.458 110.116C243.635 108.995 244.889 107.808 245.219 106.423C245.549 104.972 246.208 103.126 246.208 103.126L249.969 100.555C249.969 100.555 252.871 90.5981 246.472 86.3122C240.93 82.6197 232.816 84.5319 230.243 87.7628Z" fill="#EA9D7D"/>
<path d="M235.191 112.489C235.917 112.489 236.51 112.358 237.83 112.028C239.941 111.5 242.91 109.852 244.427 108.401C245.878 106.951 245.746 105.566 245.746 105.5C245.746 105.368 245.746 105.17 245.614 105.17C245.483 105.17 245.417 105.302 245.351 105.434C245.285 105.698 245.285 106.819 244.097 108.006C242.712 109.39 239.743 110.973 237.764 111.5C235.719 111.962 235.323 112.094 233.805 111.962C232.354 111.83 231.562 111.368 231.562 111.368C231.298 111.171 231.232 111.171 231.364 111.368C231.496 111.5 232.288 112.16 233.739 112.423C234.333 112.489 234.729 112.489 235.191 112.489Z" fill="#B76349"/>
<path d="M238.555 97.8513C238.653 97.7755 238.72 97.6672 238.744 97.5461C238.768 97.4251 238.748 97.2993 238.687 97.1919C238.621 97.126 237.566 95.5435 235.191 95.7413C234.927 95.7413 234.729 96.005 234.729 96.2688C234.729 96.5325 234.993 96.7303 235.257 96.7303C237.038 96.5985 237.764 97.7194 237.83 97.7853C238.094 97.9832 238.489 97.9172 238.555 97.8513ZM228.726 96.6644C228.792 96.6644 228.924 96.6644 228.989 96.5985C229.451 96.2688 229.979 96.3347 230.045 96.3347C230.309 96.4006 230.573 96.2028 230.639 95.9391C230.705 95.6753 230.507 95.4116 230.243 95.3456C230.177 95.3456 229.253 95.0819 228.396 95.8072C228.198 95.9391 228.198 96.2688 228.33 96.4666C228.396 96.5985 228.594 96.6644 228.726 96.6644Z" fill="#4F2B23"/>
<path d="M234.927 108.401C237.434 108.269 238.49 106.489 238.753 105.5C238.819 105.236 238.687 104.972 238.424 104.907C238.16 104.841 237.896 104.972 237.83 105.236C237.83 105.302 237.302 107.28 234.927 107.412C234.663 107.412 234.465 107.676 234.465 107.874C234.465 108.203 234.663 108.401 234.927 108.401Z" fill="#CF7653"/>
<path d="M232.816 104.775H232.948C233.212 104.775 233.344 104.511 233.344 104.313C233.344 104.049 233.08 103.918 232.882 103.918C232.75 103.918 232.42 103.918 232.288 103.522C232.156 103.126 232.486 102.533 232.618 102.335C232.75 102.137 232.75 101.873 232.552 101.742C232.354 101.61 232.09 101.61 231.958 101.808C231.892 101.939 231.167 102.863 231.431 103.786C231.694 104.577 232.354 104.775 232.816 104.775Z" fill="#B4603F"/>
<path d="M236.247 101.214C235.736 101.214 235.323 100.801 235.323 100.291C235.323 99.781 235.736 99.3677 236.247 99.3677C236.757 99.3677 237.17 99.781 237.17 100.291C237.17 100.801 236.757 101.214 236.247 101.214Z" fill="#4F2B23"/>
<path d="M236.445 100.027C236.576 100.027 236.972 100.093 237.038 99.9612C237.104 99.7634 236.774 99.4337 236.576 99.3678C235.917 99.0381 235.389 99.104 235.191 99.104C235.104 99.104 235.02 99.1388 234.958 99.2006C234.896 99.2624 234.861 99.3463 234.861 99.4337C234.861 99.5211 234.896 99.605 234.958 99.6668C235.02 99.7287 235.104 99.7634 235.191 99.7634C235.389 99.7634 235.785 99.7634 236.313 99.9612C236.313 100.027 236.379 100.027 236.445 100.027Z" fill="#4F2B23"/>
<path d="M229.385 100.687C228.875 100.687 228.462 100.273 228.462 99.7634C228.462 99.2536 228.875 98.8403 229.385 98.8403C229.896 98.8403 230.309 99.2536 230.309 99.7634C230.309 100.273 229.896 100.687 229.385 100.687Z" fill="#4F2B23"/>
<path d="M229.583 99.4996C229.715 99.4996 230.111 99.6315 230.177 99.4996C230.243 99.3018 229.913 98.9721 229.715 98.8403C229.056 98.5106 228.528 98.5765 228.33 98.5765C228.243 98.5765 228.159 98.6113 228.097 98.6731C228.035 98.7349 228 98.8188 228 98.9062C228 98.9936 228.035 99.0775 228.097 99.1393C228.159 99.2012 228.243 99.2359 228.33 99.2359C228.528 99.2359 228.924 99.2359 229.452 99.4337C229.452 99.4996 229.517 99.4996 229.583 99.4996Z" fill="#4F2B23"/>
<path d="M252.739 124.754H252.805C252.866 124.723 252.917 124.676 252.952 124.617C252.987 124.559 253.005 124.492 253.003 124.424L249.903 114.929C249.309 112.951 247.528 106.291 247.528 106.291C247.497 106.231 247.449 106.18 247.391 106.145C247.333 106.11 247.266 106.092 247.198 106.093C247.137 106.124 247.087 106.172 247.052 106.23C247.017 106.288 246.999 106.355 247 106.423L249.375 115.061C249.903 116.841 252.476 124.49 252.476 124.49C252.476 124.688 252.608 124.754 252.739 124.754Z" fill="#CF7653"/>
<path d="M243.438 99.3018L238.028 95.6753C234.399 93.9609 229.253 94.2906 229.253 94.2906L233.74 91.1915H240.205L243.438 99.3018Z" fill="url(#paint1_linear)"/>
<path d="M243.174 84.1363C243.174 84.1363 247 84.7297 249.639 88.8178C251.288 91.3894 252.674 91.6532 255.246 92.7741C257.028 93.5653 258.677 96.5325 258.347 99.9613C258.017 103.654 259.337 104.841 262.174 106.423C265.01 108.006 267.121 110.379 266.132 115.72C265.142 121.061 259.733 122.05 256.434 121.918C253.069 121.787 251.882 121.325 250.628 119.083C247.792 114.006 246.142 99.7635 246.142 99.7635C246.142 99.7635 247.726 95.9391 246.274 90.0047C244.757 84.0044 243.174 84.1363 243.174 84.1363Z" fill="#321011"/>
<path d="M245.878 106.423L246.142 106.621L245.812 106.819L245.878 106.423Z" fill="#A84D3B"/>
<path d="M245.549 100.225C245.549 100.225 243.24 101.939 241.458 98.3128C239.743 94.6863 239.149 91.5872 239.149 91.5872L238.753 93.6313C238.687 93.895 238.49 94.0269 238.292 94.0269H226.812C226.483 94.0269 226.219 93.6972 226.219 93.3675C226.483 91.6531 227.472 86.9056 231.826 85.1253C237.236 82.8834 241.392 83.8066 241.392 83.8066L244.361 86.51L245.944 91.9828L246.142 96.7303L245.549 100.225Z" fill="#321011"/>
<path d="M247.726 106.159C245.795 106.159 244.229 104.477 244.229 102.401C244.229 100.325 245.795 98.6425 247.726 98.6425C249.657 98.6425 251.222 100.325 251.222 102.401C251.222 104.477 249.657 106.159 247.726 106.159Z" fill="#EA9D7D"/>
<path d="M247.528 104.049C246.653 104.049 245.944 103.311 245.944 102.401C245.944 101.491 246.653 100.753 247.528 100.753C248.402 100.753 249.111 101.491 249.111 102.401C249.111 103.311 248.402 104.049 247.528 104.049Z" fill="url(#paint2_linear)"/>
<path d="M245.417 104.907C246.01 105.566 246.868 105.896 247.726 105.896C249.507 105.896 250.958 104.313 250.958 102.401C250.958 100.489 249.507 98.9062 247.726 98.9062C246.472 98.9062 245.351 99.6975 244.823 100.818C244.823 100.818 244.691 100.884 244.493 100.752C244.295 100.621 244.361 100.357 244.361 100.357C245.021 99.17 246.274 98.3128 247.66 98.3128C249.771 98.3128 251.486 100.093 251.486 102.335C251.486 104.511 249.771 106.357 247.66 106.357C246.736 106.357 246.01 106.093 245.351 105.566L245.417 104.907Z" fill="#B76349"/>
<path d="M248.056 98.3128C248.056 98.3128 248.715 90.2025 246.34 86.6419C243.899 83.0812 241.326 83.0812 241.326 83.0812C241.326 83.0812 241.062 82.9494 239.083 83.0153C237.104 83.0812 236.708 83.7406 236.708 83.7406C236.708 83.7406 239.479 83.6087 240.996 84.334C242.778 85.1912 244.889 87.1034 245.285 90.8619C245.681 94.6203 245.549 99.0381 245.549 99.0381C245.549 99.0381 246.274 98.2469 248.056 98.3128Z" fill="url(#paint3_linear)"/>
<path d="M261.448 277.531C261.606 288.872 262.405 294.028 263.044 307.875C263.137 309.906 263.731 311.713 264.001 312.504C264.542 314.087 265.083 316.77 265.294 318.28C265.65 320.773 264.469 322.368 264.469 322.368L227.558 325.421L227.756 324.485C227.993 323.325 228.732 322.322 229.775 321.762L246.697 312.649C248.28 311.792 247.792 309.662 247.864 307.869C248.181 300.438 241.782 290 241.63 278.645C241.399 260.236 259.858 268.108 261.455 277.524L261.448 277.531Z" fill="#E79A7A"/>
<path d="M250.529 321.313L265.136 316.612L263.843 312.412L249.474 317.687L250.529 321.313Z" fill="#F0FFFF"/>
<path d="M266.224 327.973C266.29 328.896 265.631 329.734 264.641 329.74L227.598 332.496C226.674 332.562 225.836 331.903 225.83 330.914L225.698 329.002L266.152 325.936L266.238 327.98L266.224 327.973Z" fill="#0A5F66"/>
<path d="M227.076 325.322L264.12 322.566C265.043 322.5 265.881 323.16 265.888 324.149L266.02 326.061L225.566 329.127L225.434 327.215C225.414 326.16 226.093 325.382 227.083 325.316L227.076 325.322Z" fill="#F0FFFF"/>
<path d="M232.605 324.986L231.437 319.843C231.351 319.579 231.543 319.447 231.727 319.296L238.113 316.131C238.496 315.973 238.707 316.085 238.727 316.414L240.627 324.34L232.605 324.986Z" fill="url(#paint4_linear)"/>
<path d="M243.846 324.037L241.353 315.227C241.273 315.03 241.386 314.766 241.504 314.621L247.97 310.777C248.102 310.77 248.3 310.75 248.379 310.948L252.192 323.364L243.846 324.037Z" fill="url(#paint5_linear)"/>
<path d="M284.723 211.857C284.723 211.857 262.444 246.844 261.323 257.46C260.498 261.33 263.83 297.569 264.357 304.295C264.423 305.218 263.764 306.009 262.84 306.075L242.474 309.003C242.474 309.003 233.06 268.188 230.751 251.176C230.025 236.116 245.001 193.454 245.001 193.454L284.716 211.851L284.723 211.857Z" fill="url(#paint6_linear)"/>
<path d="M256.546 306.853L257.206 306.774L251.301 251.749C251.552 243.692 261.692 216.249 261.791 215.972L261.171 215.741C260.749 216.875 250.892 243.567 250.635 251.73C250.47 257.097 256.309 304.823 256.546 306.853Z" fill="#EABED9"/>
<path d="M278.119 213.374C278.119 213.374 268.639 233.814 264.681 246.079C260.722 258.343 261.402 267.838 261.864 274.234C262.325 280.63 239.539 295.684 239.539 295.684C239.539 295.684 231.754 261 230.962 252.231C230.039 240.494 242.151 199.494 242.151 199.494L278.126 213.367L278.119 213.374Z" fill="url(#paint7_linear)"/>
<path d="M279.008 229.713L272.434 226.969L265.467 243.639L272.041 246.383L279.008 229.713Z" fill="#595959"/>
<path d="M274.84 239.538L278.997 229.779L272.465 227.01L268.111 237.626L274.84 239.538Z" fill="url(#paint8_linear)"/>
<path d="M130.843 353.985L135.395 305.409L135.388 305.363L130.836 256.372L129.847 256.464L134.399 305.409L129.847 353.893L130.843 353.985ZM143.246 356.161L144.235 356.069L139.617 305.409L144.235 258.64L143.246 258.548L138.627 305.409L138.634 305.455L143.246 356.161Z" fill="#595959"/>
<path d="M87.1889 313.421L136.16 308.871L184.669 313.421L184.762 312.432L136.16 307.882H136.114L87.0965 312.432L87.1889 313.421ZM136.153 304.651H136.2L186.998 300.101L186.913 299.112L136.16 303.662L89.366 299.112L89.267 300.101L136.153 304.651Z" fill="#595959"/>
<path d="M165.656 345.025L166.415 344.392L135.21 306.741L97.3421 275.355L96.7154 276.12L134.544 307.473L165.656 345.025ZM176.74 337.178L177.373 336.413L138.284 303.807L108.432 267.508L107.667 268.141L137.618 304.539L176.74 337.178Z" fill="#595959"/>
<path d="M98.866 335.859L136.536 304.737L167.939 266.823L167.18 266.19L135.804 304.071L98.2392 335.094L98.866 335.859ZM106.849 346.805L139.478 307.737L175.79 277.9L175.163 277.135L138.746 307.071L106.09 346.172L106.849 346.805Z" fill="#595959"/>
<path d="M137.018 312.662C133.229 312.662 130.157 309.592 130.157 305.805C130.157 302.018 133.229 298.947 137.018 298.947C140.807 298.947 143.879 302.018 143.879 305.805C143.879 309.592 140.807 312.662 137.018 312.662Z" fill="#283749"/>
<path d="M137.024 264C113.934 264 95.198 282.793 95.198 305.805C95.198 328.817 114 347.609 137.024 347.609C160.049 347.609 178.851 328.817 178.851 305.805C178.851 282.793 160.115 264 137.024 264ZM137.024 254.11C165.59 254.11 188.747 277.254 188.747 305.805C188.747 334.356 165.59 357.5 137.024 357.5C108.458 357.5 85.3022 334.356 85.3022 305.805C85.3022 277.254 108.458 254.11 137.024 254.11Z" fill="#333333"/>
<path d="M137.024 265.913C114.99 265.913 97.0452 283.848 97.0452 305.871C97.0452 327.894 114.99 345.829 137.024 345.829C159.059 345.829 177.004 327.894 177.004 305.871C177.004 283.848 159.059 265.913 137.024 265.913ZM137.024 261.297C161.632 261.297 181.622 281.276 181.622 305.871C181.622 330.466 161.632 350.445 137.024 350.445C112.417 350.445 92.4271 330.466 92.4271 305.871C92.4271 281.276 112.417 261.297 137.024 261.297Z" fill="#3AAAA7"/>
<path d="M313.52 353.985L318.072 305.409L318.065 305.363L313.513 256.372L312.524 256.464L317.076 305.409L312.524 353.893L313.52 353.985ZM325.923 356.161L326.912 356.069L322.294 305.409L326.912 258.64L325.923 258.548L321.304 305.409L321.311 305.455L325.923 356.161Z" fill="#595959"/>
<path d="M269.866 313.421L318.837 308.871L367.346 313.421L367.439 312.432L318.837 307.882H318.791L269.774 312.432L269.866 313.421ZM318.83 304.651H318.877L369.675 300.101L369.59 299.112L318.837 303.662L272.043 299.112L271.944 300.101L318.83 304.651Z" fill="#595959"/>
<path d="M348.333 345.025L349.092 344.392L317.887 306.741L280.019 275.355L279.392 276.12L317.221 307.473L348.333 345.025ZM359.417 337.178L360.05 336.413L320.962 303.807L291.109 267.508L290.344 268.141L320.295 304.539L359.417 337.178Z" fill="#595959"/>
<path d="M281.543 335.859L319.213 304.737L350.616 266.823L349.857 266.19L318.481 304.071L280.916 335.094L281.543 335.859ZM289.526 346.805L322.155 307.737L358.467 277.9L357.84 277.135L321.423 307.071L288.767 346.172L289.526 346.805Z" fill="#595959"/>
<path d="M319.695 312.662C315.906 312.662 312.834 309.592 312.834 305.805C312.834 302.018 315.906 298.947 319.695 298.947C323.484 298.947 326.556 302.018 326.556 305.805C326.556 309.592 323.484 312.662 319.695 312.662Z" fill="#283749"/>
<path d="M319.701 264C296.611 264 277.875 282.793 277.875 305.805C277.875 328.817 296.677 347.609 319.701 347.609C342.726 347.609 361.528 328.817 361.528 305.805C361.528 282.793 342.792 264 319.701 264ZM319.701 254.11C348.267 254.11 371.424 277.254 371.424 305.805C371.424 334.356 348.267 357.5 319.701 357.5C291.135 357.5 267.979 334.356 267.979 305.805C267.979 277.254 291.135 254.11 319.701 254.11Z" fill="#333333"/>
<path d="M319.701 265.913C297.667 265.913 279.722 283.848 279.722 305.871C279.722 327.894 297.667 345.829 319.701 345.829C341.736 345.829 359.681 327.894 359.681 305.871C359.681 283.848 341.736 265.913 319.701 265.913ZM319.701 261.297C344.309 261.297 364.299 281.276 364.299 305.871C364.299 330.466 344.309 350.445 319.701 350.445C295.094 350.445 275.104 330.466 275.104 305.871C275.104 281.276 295.094 261.297 319.701 261.297Z" fill="#3AAAA7"/>
<path d="M263.163 229.977H274.049C274.049 229.977 287.903 234.065 292.389 234.592C295.688 234.988 300.635 233.01 300.635 228.131V225.361C300.635 219.822 295.556 218.504 292.389 218.504H263.163C259.997 218.504 257.424 221.075 257.424 224.24C257.424 227.405 259.997 229.977 263.163 229.977Z" fill="#3AAAA7"/>
<path d="M133.66 303.365L174.299 201.887C175.024 200.041 177.069 199.184 178.917 199.909C180.764 200.635 181.622 202.679 180.896 204.525L174.892 219.493L270.222 240.857C270.354 240.857 270.42 240.922 270.552 240.922H270.618C270.684 240.922 270.75 240.988 270.882 240.988H270.948C271.014 241.054 271.146 241.054 271.212 241.12L271.278 241.186C271.344 241.252 271.41 241.252 271.476 241.318C271.476 241.318 271.542 241.318 271.542 241.384L272.069 241.912C272.135 241.977 272.201 242.043 272.201 242.109L322.538 303.497C323.396 304.552 323.594 306.003 323 307.256C322.472 308.442 321.285 309.168 320.031 309.3C317.26 309.629 269.892 317.41 238.556 322.619H237.5C237.434 322.619 237.302 322.619 237.236 322.553C237.17 322.553 237.104 322.553 237.104 322.487C237.038 322.487 236.972 322.421 236.84 322.421C236.774 322.421 236.708 322.355 236.642 322.355C236.576 322.355 236.51 322.289 236.444 322.289C236.378 322.289 236.313 322.223 236.247 322.157C236.181 322.157 236.115 322.091 236.049 322.026C235.983 321.96 235.917 321.96 235.851 321.894C235.785 321.828 235.719 321.828 235.719 321.762C235.653 321.696 235.587 321.696 235.587 321.63L235.257 321.3C235.191 321.234 235.191 321.168 235.125 321.168L171.066 229.317L140.323 306.069C139.795 307.453 138.41 308.311 137.024 308.311C136.563 308.311 136.167 308.245 135.705 308.047C133.792 307.256 132.934 305.211 133.66 303.365ZM313.104 303.167L270.42 251.143L243.701 314.509L313.104 303.167ZM237.17 311.739L264.549 246.857L178.455 227.603L237.17 311.739Z" fill="#71B9EA"/>
<path d="M167.174 189.953C167.174 189.953 180.962 192.261 182.281 198.591C183.469 204.393 179.774 208.943 179.774 208.943L167.174 204.327V189.953Z" fill="#595959"/>
<path d="M175.486 192.59L169.681 193.052L167.371 204.393L178.785 208.547L179.181 204.459C179.247 194.7 175.486 192.59 175.486 192.59Z" fill="url(#paint9_linear)"/>
<path d="M292.389 234.592C287.903 234.065 274.049 229.977 274.049 229.977H263.163C259.997 229.977 257.424 227.405 257.424 224.24C257.424 221.075 259.997 218.504 263.163 218.504H292.389C292.719 218.504 293.115 218.504 293.51 218.57C291.201 220.548 289.024 223.581 291.465 227.207C293.378 229.977 296.413 231.296 299.25 231.955C297.601 233.999 294.632 234.856 292.389 234.592Z" fill="url(#paint10_linear)"/>
<path d="M172.517 206.437L133.66 303.365C133.66 303.365 132.208 306.596 135.639 307.981C138.806 309.234 140.257 306.003 140.257 306.003L175.948 207.69L172.517 206.437Z" fill="url(#paint11_linear)"/>
<path d="M264.351 246.791L234.795 317.674C234.795 317.674 233.278 320.839 236.708 322.289C239.875 323.608 241.326 320.377 241.326 320.377L267.781 248.11L264.351 246.791Z" fill="url(#paint12_linear)"/>
<path d="M270.552 250.813L317.062 307.849C317.062 307.849 319.174 310.684 322.076 308.376C324.715 306.266 322.604 303.365 322.604 303.365L272.069 246.725L270.552 250.813Z" fill="url(#paint13_linear)"/>
<path d="M242.58 321.696L320.229 309.234C320.229 309.234 323.726 308.904 323.198 305.211C322.736 301.849 319.174 302.244 319.174 302.244L243.701 314.706L242.58 321.696Z" fill="url(#paint14_linear)"/>
<path d="M171 229.251L234.465 320.311L237.5 315.959L173.177 227.339C173.177 227.273 170.604 226.218 171 229.251Z" fill="url(#paint15_linear)"/>
<path d="M264.483 246.857L178.455 227.603C178.455 227.603 176.344 224.174 182.809 225.361C189.274 226.614 260.986 242.835 264.087 243.692C267.187 244.549 264.483 246.857 264.483 246.857Z" fill="url(#paint16_linear)"/>
<path d="M238.094 306.135C231.167 306.135 225.559 311.739 225.559 318.663C225.559 325.586 231.167 331.191 238.094 331.191C245.021 331.191 250.628 325.586 250.628 318.663C250.628 311.739 244.955 306.135 238.094 306.135ZM238.094 303.497C246.472 303.497 253.267 310.289 253.267 318.663C253.267 327.037 246.472 333.828 238.094 333.828C229.715 333.828 222.92 327.037 222.92 318.663C222.92 310.289 229.715 303.497 238.094 303.497Z" fill="#333333"/>
<path d="M255.576 336.004C255.939 336.004 256.302 335.859 256.566 335.569C257.054 335.028 257.008 334.184 256.467 333.71L220.512 301.466C219.971 300.978 219.127 301.024 218.652 301.565C218.163 302.106 218.21 302.95 218.751 303.425L254.706 335.668C254.95 335.892 255.266 335.998 255.583 335.998L255.576 336.004Z" fill="#595959"/>
<path d="M246.472 337.719L264.879 336.334C266.726 336.202 268.045 334.62 267.913 332.773C267.781 330.927 266.198 329.608 264.351 329.74L245.945 331.125C244.097 331.257 242.778 332.839 242.91 334.686C243.042 336.466 244.625 337.851 246.472 337.719ZM211.903 310.75L229.056 303.959C230.771 303.299 231.563 301.321 230.903 299.673C230.243 297.958 228.264 297.167 226.615 297.826L209.462 304.618C207.747 305.277 206.955 307.256 207.615 308.904C208.274 310.618 210.188 311.41 211.903 310.75Z" fill="#283749"/>
<path d="M238.087 323.081C235.646 323.081 233.667 321.103 233.667 318.663C233.667 316.223 235.646 314.245 238.087 314.245C240.528 314.245 242.507 316.223 242.507 318.663C242.507 321.103 240.528 323.081 238.087 323.081Z" fill="#283749"/>
<path d="M165.452 204.855C161.225 204.855 157.799 201.43 157.799 197.206C157.799 192.982 161.225 189.557 165.452 189.557C169.678 189.557 173.105 192.982 173.105 197.206C173.105 201.43 169.678 204.855 165.452 204.855Z" fill="#283749"/>
<path d="M165.452 201.294C163.193 201.294 161.361 199.464 161.361 197.206C161.361 194.948 163.193 193.118 165.452 193.118C167.711 193.118 169.542 194.948 169.542 197.206C169.542 199.464 167.711 201.294 165.452 201.294Z" fill="#3AAAA7"/>
<path d="M224.53 244.483C226.146 254.598 226.1 261.871 227.861 274.392C227.98 275.223 228.818 277.775 229.313 278.461C230.302 279.819 231.978 282.219 232.625 283.604C233.68 285.885 233.021 287.758 233.021 287.758L198.596 301.407L198.504 300.457C198.392 299.271 198.807 298.103 199.645 297.266L213.183 283.63C214.449 282.351 215.386 279.845 214.931 278.105C213.071 270.904 209.323 259.84 205.88 249.013C200.292 231.474 223.204 236.538 224.53 244.476V244.483Z" fill="#E79A7A"/>
<path d="M219.377 290.804L231.978 282.061L229.517 278.414L217.312 287.646L219.377 290.804Z" fill="#F0FFFF"/>
<path d="M236.332 292.611C236.662 293.468 236.266 294.47 235.323 294.767L200.687 308.172C199.83 308.502 198.827 308.106 198.53 307.163L197.844 305.383L235.659 290.679L236.332 292.611Z" fill="#0A5F66"/>
<path d="M198.114 301.466L232.75 288.061C233.608 287.731 234.61 288.127 234.907 289.07L235.593 290.85L197.778 305.554L197.092 303.774C196.775 302.765 197.191 301.829 198.114 301.466Z" fill="#F0FFFF"/>
<path d="M203.3 299.534L200.687 294.958C200.529 294.734 200.668 294.543 200.806 294.345L205.992 289.452C206.322 289.189 206.546 289.241 206.665 289.545L210.788 296.58L203.3 299.534Z" fill="url(#paint17_linear)"/>
<path d="M213.783 295.36L208.835 287.659C208.703 287.501 208.729 287.197 208.809 287.033L213.875 281.474C214.007 281.428 214.185 281.355 214.317 281.514L221.574 292.281L213.776 295.36H213.783Z" fill="url(#paint18_linear)"/>
<path d="M294.17 189.992C294.17 189.992 297.634 204.301 295.08 211.066C291.439 218.866 287.988 218.003 280.923 218.636C267.86 220.594 225.552 226.139 224.121 227.761C223.039 228.843 223.969 235.845 224.761 239.604C225.882 249.25 228.851 267.99 229.907 272.21C230.038 272.671 229.775 273.067 229.313 273.199L209.218 278.738C208.624 278.935 207.964 278.606 207.766 277.946C206.249 273.331 199.691 255.066 196.01 237.658C193.107 223.97 193.061 215.866 195.37 210.261C197.481 205.184 201.789 202.296 208.32 199.593C220.301 194.68 244.13 189.735 244.13 189.735L294.177 189.986L294.17 189.992Z" fill="#EEB3CA"/>
<path d="M221.772 274.709L222.412 274.557L214.707 241.76C211.032 226.133 210.63 220.027 213.031 216.598C216.085 212.246 233.185 208.752 249.711 205.389L270.084 200.971C278.554 199.276 279.96 190.421 279.979 190.342L279.32 190.243C279.307 190.329 277.967 198.722 269.939 200.331C263.698 201.874 256.52 203.338 249.58 204.749C232.15 208.31 215.69 211.659 212.483 216.222C209.95 219.829 210.333 226.073 214.053 241.912L221.772 274.715V274.709Z" fill="#F9DCF1"/>
<path d="M263.546 208.56C232.803 205.395 224.028 194.562 224.028 194.562L243.49 189.709L294.13 190.104C294.13 190.104 295.463 195.023 295.76 198.188C296.354 203.813 295.958 206.971 295.958 206.971C295.958 206.971 282.684 210.466 263.552 208.554L263.546 208.56Z" fill="url(#paint19_linear)"/>
<path d="M209.31 278.757C208.584 278.955 207.832 278.988 207.265 277.28C205.616 271.808 199.632 253.147 197.811 245.406C190.422 218.438 195.436 211.053 195.436 211.053C195.436 211.053 204.012 221.207 212.259 232.482C221.495 245.142 227.776 273.515 227.776 273.515L209.303 278.757H209.31Z" fill="url(#paint20_linear)"/>
<path d="M231.134 215.991C244.394 213.486 270.981 209.266 279.689 206.233C288.398 203.134 295.654 198.287 295.654 198.287C295.654 198.287 297.726 209.147 292.936 214.838C289.176 219.302 285.515 217.726 276.232 219.466L237.79 224.913C232.842 225.572 229.913 226.284 227.142 226.812C221.865 227.801 222.491 217.646 231.134 215.998V215.991Z" fill="url(#paint21_linear)"/>
<path d="M191.432 136.128L189.65 134.677L186.154 131.644C185.296 130.853 179.886 120.896 179.886 120.896L185.296 119.05L191.497 123.666L193.938 128.941L191.432 136.128Z" fill="#CC7A5E"/>
<path d="M182.129 112.786L179.622 113.182C178.963 113.248 178.633 114.039 179.029 114.566L188.265 127.556C188.529 127.82 188.859 128.018 189.254 127.886L193.609 126.765L183.119 113.05C182.789 112.786 182.459 112.72 182.129 112.786Z" fill="#1F2B36"/>
<path d="M207.265 142.656C207.265 142.656 197.501 131.974 196.709 130.325C196.314 129.534 195.324 125.974 195.06 124.655C194.796 123.072 193.477 121.819 192.487 120.896C191.498 119.973 187.407 118.457 187.407 118.457C187.407 118.457 186.945 119.512 187.473 120.369C188.529 122.215 190.772 123.138 190.772 123.138C190.772 123.138 191.827 125.908 192.421 127.029L193.015 128.149C193.015 128.149 192.289 127.952 190.64 129.798C189.057 131.644 189.914 134.611 189.914 134.611L200.074 149.513L207.265 142.656Z" fill="#E89976"/>
<path d="M184.373 118.457C183.911 117.6 182.459 118.061 181.932 118.457C181.404 118.786 179.557 119.578 180.084 120.501C180.612 121.49 181.404 121.556 182.657 120.962C183.845 120.435 184.703 119.182 184.373 118.457Z" fill="#EA9D7D"/>
<path d="M181.325 121.668C181.839 121.668 182.36 121.47 182.802 121.259C183.64 120.883 184.372 120.158 184.65 119.413C184.801 119.017 184.808 118.621 184.669 118.318C184.669 118.312 184.663 118.305 184.663 118.298C184.491 117.969 184.201 117.771 183.818 117.679C183.079 117.514 182.149 117.876 181.734 118.186C181.681 118.219 181.569 118.279 181.45 118.345C180.83 118.674 179.9 119.202 179.702 119.894C179.636 120.158 179.662 120.422 179.801 120.659C180.196 121.424 180.751 121.668 181.318 121.668H181.325ZM184.076 118.608C184.142 118.753 184.122 118.958 184.036 119.182C183.812 119.775 183.205 120.369 182.519 120.666C181.199 121.292 180.718 121.008 180.368 120.349C180.315 120.25 180.302 120.171 180.328 120.085C180.447 119.657 181.305 119.189 181.76 118.938L182.103 118.74C182.433 118.49 183.159 118.213 183.673 118.331C183.858 118.364 183.99 118.463 184.069 118.595L184.076 118.608Z" fill="#CC7A5E"/>
<path d="M187.473 123.929C187.341 122.94 185.824 122.874 185.23 123.072C184.636 123.204 182.261 123.336 182.459 124.457C182.657 125.578 183.647 125.776 185.032 125.776C186.286 125.578 187.539 124.721 187.473 123.929Z" fill="#EA9D7D"/>
<path d="M185.032 126.105C186.437 125.888 187.889 124.932 187.803 123.903C187.78 123.713 187.713 123.53 187.608 123.37C187.503 123.21 187.362 123.077 187.196 122.98C186.55 122.584 185.58 122.611 185.125 122.762C185.059 122.776 184.927 122.795 184.768 122.815C183.977 122.934 182.763 123.112 182.301 123.758C182.143 123.982 182.083 124.239 182.129 124.516C182.38 125.914 183.673 126.099 185.032 126.099V126.105ZM187.143 123.969C187.176 124.483 186.187 125.261 184.979 125.453C183.508 125.446 182.921 125.176 182.783 124.398C182.763 124.299 182.783 124.22 182.835 124.134C183.132 123.719 184.3 123.54 184.861 123.461L185.296 123.395C185.672 123.264 186.418 123.264 186.84 123.527C187.018 123.633 187.117 123.778 187.143 123.956V123.969Z" fill="#CC7A5E"/>
<path d="M188.397 126.435C188.331 125.578 186.946 125.578 186.418 125.644C185.89 125.71 184.109 125.776 184.241 126.699C184.373 127.688 185.032 128.018 186.22 127.886C187.407 127.82 188.529 127.094 188.397 126.435Z" fill="#EA9D7D"/>
<path d="M185.778 128.248C185.937 128.249 186.095 128.24 186.253 128.222C187.15 128.169 188.054 127.76 188.483 127.22C188.681 126.956 188.766 126.672 188.72 126.402C188.694 126.125 188.562 125.875 188.338 125.697C187.704 125.169 186.504 125.301 186.372 125.327L186.174 125.347C185.382 125.426 184.491 125.545 184.089 126.059C183.931 126.257 183.871 126.501 183.904 126.752C184.049 127.741 184.676 128.248 185.778 128.248ZM186.86 125.954C187.256 125.954 187.698 126.02 187.929 126.204C188.014 126.27 188.06 126.356 188.06 126.468C188.06 126.481 188.06 126.494 188.067 126.508C188.087 126.613 188.021 126.732 187.955 126.811C187.691 127.154 186.998 127.516 186.193 127.563C184.94 127.695 184.643 127.299 184.557 126.659C184.544 126.58 184.557 126.527 184.603 126.461C184.867 126.132 185.817 126.039 186.233 126L186.451 125.974L186.847 125.954H186.86Z" fill="#CC7A5E"/>
<path d="M198.293 135.403C193.081 138.897 194.4 141.205 194.4 141.205L199.678 148.854L206.473 141.799L200.536 135.205C200.008 134.875 198.886 135.007 198.293 135.403Z" fill="url(#paint22_linear)"/>
<path d="M186.418 121.16C186.088 120.237 184.373 120.369 183.647 120.567C182.921 120.765 180.48 121.358 180.942 122.413C181.404 123.468 182.394 123.468 183.845 123.204C185.428 123.006 186.748 122.017 186.418 121.16Z" fill="#EA9D7D"/>
<path d="M182.558 123.686C182.987 123.686 183.449 123.62 183.904 123.534C185.092 123.389 186.18 122.809 186.609 122.096C186.82 121.747 186.86 121.391 186.741 121.055C186.292 119.822 184.254 120.066 183.574 120.263L183.456 120.296C182.268 120.613 181.015 121.035 180.658 121.767C180.526 122.031 180.526 122.294 180.652 122.558C181.048 123.435 181.754 123.679 182.565 123.679L182.558 123.686ZM184.788 120.758C185.382 120.758 185.976 120.89 186.108 121.272C186.16 121.424 186.141 121.576 186.042 121.747C185.778 122.209 184.92 122.736 183.799 122.868C182.182 123.158 181.556 123.013 181.239 122.275C181.199 122.182 181.199 122.11 181.239 122.024C181.503 121.47 183.086 121.048 183.614 120.903L183.733 120.87C184.023 120.804 184.412 120.738 184.788 120.738V120.758Z" fill="#CC7A5E"/>
<path d="M238.668 129.798C238.668 129.798 230.421 140.48 226.067 144.106C221.779 147.733 217.82 148.063 215.115 146.546C212.279 144.964 207.463 141.073 205.747 139.623C205.418 139.293 204.824 139.359 204.494 139.689L196.445 147.931C196.115 148.195 196.115 148.722 196.313 148.986C197.897 151.36 204.316 161.461 212.167 167.527C220.941 174.253 234.927 182.33 242.25 177.715C252.08 171.978 238.674 129.798 238.674 129.798H238.668Z" fill="#074849"/>
<path d="M211.223 144.172L200.997 155.25C200.997 155.25 207.331 164.283 213.532 168.108C217.82 170.745 221.977 173.778 227.848 168.305C238.338 158.613 232.4 137.447 232.4 137.447C232.4 137.447 228.838 142.458 224.418 145.425C222.438 146.744 220.195 147.469 218.216 147.535C215.511 147.535 211.223 144.172 211.223 144.172Z" fill="url(#paint23_linear)"/>
<path d="M294.658 190.23L243.068 190.032C243.068 190.032 238.417 175.479 232.381 150.812C231.767 138.231 233.086 119.03 247.647 118.45C255.431 117.989 264.337 123.264 274.339 142.695C280.21 154.103 293.022 181.664 295.661 188.535C296.024 189.392 295.463 190.23 294.671 190.23H294.658Z" fill="#FFFDF3"/>
<path d="M246.01 190.065C244.031 193.085 239.961 192.175 239.446 191.66C238.965 191.179 239.71 189.986 239.855 188.608C240.515 181.948 238.932 176.541 232.889 151.867C232.275 139.286 228.402 129.857 234.96 150.713C239.38 164.758 246.175 189.801 246.01 190.065Z" fill="#0A545A"/>
<path d="M298.458 198.802L268.144 198.67C260.604 198.63 253.894 193.698 251.691 186.491C248.821 177.128 244.83 163.505 241.445 149.724C240.832 137.143 233.067 119.011 247.62 118.443C255.405 117.982 264.311 123.257 274.313 142.689C280.184 154.096 296.796 190.23 299.435 197.107C299.811 197.964 299.257 198.802 298.458 198.802Z" fill="url(#paint24_linear)"/>
<path d="M157.509 189.933C158.762 189.208 160.194 187.295 162.404 187.098C168.473 186.517 173.289 186.01 176.786 184.361C178.765 183.372 207.773 168.167 210.61 165.701C214.304 162.997 227.149 141.746 227.149 141.746L244.566 150.133C244.566 150.133 227.743 174.84 221.805 178.288C216.89 181.486 210.458 183.695 201.09 186.399C191.722 189.102 183.607 190.817 176.35 192.663C175.268 192.927 174.173 193.474 172.682 193.691C171.429 191.206 168.843 189.498 165.861 189.498C164.856 189.498 163.861 189.696 162.932 190.08C162.004 190.464 161.16 191.028 160.449 191.738C159.739 192.448 159.175 193.291 158.791 194.219C158.406 195.147 158.208 196.142 158.208 197.147C158.208 197.199 158.215 197.259 158.215 197.311C158.215 197.364 158.208 197.423 158.208 197.476C158.208 198.202 158.34 198.927 158.538 199.652C158.472 199.784 158.406 199.916 158.274 199.982C157.087 200.542 156.625 198.307 156.315 195.94C156.005 193.573 155.853 191.093 157.502 189.94L157.509 189.933Z" fill="#EA9D7D"/>
<path d="M182.479 181.618L181.437 191.509L203.801 185.673C203.181 184.124 197.369 173.158 197.369 173.158C197.646 173.191 185.824 179.423 182.479 181.612V181.618Z" fill="url(#paint25_linear)"/>
<path d="M158.201 200.279C158.366 200.279 158.531 200.246 158.716 200.186L158.492 199.566C158.267 199.646 158.076 199.632 157.898 199.54C157.594 199.382 157.172 198.894 156.809 197.47C156.413 196.006 156.413 193.447 156.413 192.412C156.433 191.318 156.842 190.988 157.654 190.322L158.379 189.715C160.134 188.304 161.216 187.493 163.143 187.355C169.014 186.926 174.899 185.607 174.952 185.594L175.018 185.575C175.11 185.528 184.551 181.236 188.608 178.902L195.997 174.721L207.74 167.996C209.429 166.855 211.52 165.424 213.987 162.483C216.349 159.793 221.66 151.076 221.884 150.7L221.317 150.357C221.264 150.45 215.808 159.391 213.479 162.048C211.065 164.929 209.099 166.268 207.37 167.442C206.051 168.312 200.529 171.398 195.66 174.141L188.258 178.321C184.346 180.576 175.354 184.678 174.754 184.948C174.272 185.054 168.671 186.267 163.077 186.689C160.86 186.854 159.567 187.889 157.931 189.208C157.667 189.445 157.436 189.63 157.225 189.801C156.367 190.493 155.76 190.988 155.741 192.392C155.721 193.711 155.741 196.151 156.15 197.628C156.479 198.973 156.941 199.784 157.568 200.114C157.766 200.226 157.964 200.279 158.182 200.279H158.201Z" fill="#CC7A5E"/>
<path d="M254.851 173.152L259.964 187.592C261.415 191.285 265.967 193.045 271.416 192.735C276.866 192.425 278.653 190.098 277.921 186.115C277.149 181.895 272.973 172.71 272.973 172.71L254.844 173.152H254.851Z" fill="#106268"/>
<path d="M270.143 193.105C270.565 193.105 271.001 193.091 271.436 193.065C274.405 192.894 276.371 192.142 277.453 190.757C278.357 189.61 278.614 188.067 278.244 186.049C277.473 181.829 273.455 172.941 273.283 172.565L273.191 172.367L254.389 172.829L259.653 187.704C261.006 191.133 264.878 193.098 270.143 193.098V193.105ZM272.769 173.04C273.376 174.398 276.899 182.377 277.585 186.175C277.915 188.001 277.703 189.366 276.925 190.362C275.968 191.581 274.154 192.247 271.383 192.406C265.842 192.722 261.58 190.836 260.26 187.473L255.299 173.462L272.756 173.033L272.769 173.04Z" fill="#0E4F59"/>
<path d="M220.545 149.586C224.14 143.421 227.538 136.029 231.101 130.292C236.233 122.05 244.559 114.316 255.246 120.877C265.934 127.437 261.052 143.295 257.753 151.247C254.336 159.516 248.53 170.422 235.824 177.148C224.53 183.122 213.77 187.414 202.601 190.427L194.816 172.084C203.92 165.516 217.332 155.072 220.545 149.586Z" fill="url(#paint26_linear)"/>
<path d="M190.323 85.1233C189.888 84.1207 189.262 83.2122 188.478 82.4486C187.694 81.6827 186.77 81.0741 185.756 80.6558C184.704 80.2203 183.576 79.9974 182.437 80C180.839 80 179.28 80.4361 177.925 81.2598C177.601 81.4569 177.293 81.6733 177.002 81.9091C176.71 81.6733 176.402 81.4569 176.078 81.2598C174.723 80.4361 173.164 80 171.566 80C170.416 80 169.301 80.2197 168.247 80.6558C167.23 81.0757 166.312 81.6798 165.525 82.4486C164.74 83.2113 164.114 84.12 163.681 85.1233C163.23 86.1666 163 87.2746 163 88.4149C163 89.4906 163.22 90.6115 163.658 91.7518C164.024 92.7047 164.549 93.6932 165.22 94.6914C166.283 96.271 167.745 97.9184 169.56 99.5885C172.568 102.357 175.546 104.269 175.673 104.347L176.441 104.838C176.781 105.054 177.219 105.054 177.559 104.838L178.327 104.347C178.454 104.266 181.429 102.357 184.44 99.5885C186.255 97.9184 187.717 96.271 188.78 94.6914C189.451 93.6932 189.979 92.7047 190.342 91.7518C190.78 90.6115 191 89.4906 191 88.4149C191.003 87.2746 190.773 86.1666 190.323 85.1233Z" fill="#FFB8B8"/>
<path d="M191.323 86.1233C190.888 85.1207 190.262 84.2122 189.478 83.4486C188.694 82.6827 187.77 82.0741 186.756 81.6558C185.704 81.2203 184.576 80.9974 183.437 81C181.839 81 180.28 81.4361 178.925 82.2598C178.601 82.4569 178.293 82.6733 178.002 82.9091C177.71 82.6733 177.402 82.4569 177.078 82.2598C175.723 81.4361 174.164 81 172.566 81C171.416 81 170.301 81.2197 169.247 81.6558C168.23 82.0757 167.312 82.6798 166.525 83.4486C165.74 84.2113 165.114 85.12 164.681 86.1233C164.23 87.1666 164 88.2746 164 89.4149C164 90.4906 164.22 91.6115 164.658 92.7518C165.024 93.7047 165.549 94.6932 166.22 95.6914C167.283 97.271 168.745 98.9184 170.56 100.588C173.568 103.357 176.546 105.269 176.673 105.347L177.441 105.838C177.781 106.054 178.219 106.054 178.559 105.838L179.327 105.347C179.454 105.266 182.429 103.357 185.44 100.588C187.255 98.9184 188.717 97.271 189.78 95.6914C190.451 94.6932 190.979 93.7047 191.342 92.7518C191.78 91.6115 192 90.4906 192 89.4149C192.003 88.2746 191.773 87.1666 191.323 86.1233Z" fill="#FC6A6A" fill-opacity="0.4"/>
<defs>
<linearGradient id="paint0_linear" x1="244.569" y1="115.865" x2="240.038" y2="110.029" gradientUnits="userSpaceOnUse">
<stop stop-color="#BC5A32" stop-opacity="0"/>
<stop offset="0.99" stop-color="#BC5A32"/>
</linearGradient>
<linearGradient id="paint1_linear" x1="237.503" y1="95.1939" x2="240.028" y2="91.6927" gradientUnits="userSpaceOnUse">
<stop stop-color="#BC5A32" stop-opacity="0"/>
<stop offset="0.99" stop-color="#BC5A32"/>
</linearGradient>
<linearGradient id="paint2_linear" x1="247.668" y1="104.622" x2="247.446" y2="101.109" gradientUnits="userSpaceOnUse">
<stop stop-color="#CC7A5E" stop-opacity="0"/>
<stop offset="0.924" stop-color="#AA5F4B"/>
</linearGradient>
<linearGradient id="paint3_linear" x1="242.181" y1="97.6007" x2="242.557" y2="86.5812" gradientUnits="userSpaceOnUse">
<stop offset="0.007" stop-color="#FF7A00"/>
<stop offset="0.983" stop-color="#FFB600"/>
</linearGradient>
<linearGradient id="paint4_linear" x1="235.146" y1="317.653" x2="236.577" y2="324.764" gradientUnits="userSpaceOnUse">
<stop stop-color="#0A7B95"/>
<stop offset="0.9241" stop-color="#0A5657"/>
</linearGradient>
<linearGradient id="paint5_linear" x1="245.425" y1="311.681" x2="247.803" y2="325.04" gradientUnits="userSpaceOnUse">
<stop stop-color="#0A7B95"/>
<stop offset="0.9241" stop-color="#0A5657"/>
</linearGradient>
<linearGradient id="paint6_linear" x1="284.722" y1="251.232" x2="230.724" y2="251.232" gradientUnits="userSpaceOnUse">
<stop stop-color="#DD97B3"/>
<stop offset="1" stop-color="#DD97B3"/>
</linearGradient>
<linearGradient id="paint7_linear" x1="264.43" y1="278.782" x2="251.319" y2="221.946" gradientUnits="userSpaceOnUse">
<stop stop-color="#D581AA" stop-opacity="0"/>
<stop offset="0.9975" stop-color="#D581AA"/>
</linearGradient>
<linearGradient id="paint8_linear" x1="272.669" y1="238.642" x2="274.573" y2="227.894" gradientUnits="userSpaceOnUse">
<stop stop-color="#151E28" stop-opacity="0"/>
<stop offset="0.9975" stop-color="#151E28"/>
</linearGradient>
<linearGradient id="paint9_linear" x1="177.838" y1="200.404" x2="159.197" y2="202.445" gradientUnits="userSpaceOnUse">
<stop stop-color="#151E28" stop-opacity="0"/>
<stop offset="0.9975" stop-color="#151E28"/>
</linearGradient>
<linearGradient id="paint10_linear" x1="289.782" y1="232.655" x2="272.808" y2="221.11" gradientUnits="userSpaceOnUse">
<stop offset="0.1305" stop-color="#093F5C" stop-opacity="0"/>
<stop offset="1" stop-color="#093F5C"/>
</linearGradient>
<linearGradient id="paint11_linear" x1="158.062" y1="258.254" x2="144.196" y2="254.686" gradientUnits="userSpaceOnUse">
<stop stop-color="#4089C2" stop-opacity="0"/>
<stop offset="0.8911" stop-color="#247CDE"/>
</linearGradient>
<linearGradient id="paint12_linear" x1="253.114" y1="285.414" x2="247.904" y2="283.665" gradientUnits="userSpaceOnUse">
<stop stop-color="#4089C2" stop-opacity="0"/>
<stop offset="0.8911" stop-color="#247CDE"/>
</linearGradient>
<linearGradient id="paint13_linear" x1="297.55" y1="277.105" x2="293.643" y2="280.767" gradientUnits="userSpaceOnUse">
<stop stop-color="#4089C2" stop-opacity="0"/>
<stop offset="0.8911" stop-color="#247CDE"/>
</linearGradient>
<linearGradient id="paint14_linear" x1="279.128" y1="304.415" x2="286.413" y2="321.618" gradientUnits="userSpaceOnUse">
<stop stop-color="#52BCFF"/>
<stop offset="1" stop-color="#247CDE"/>
</linearGradient>
<linearGradient id="paint15_linear" x1="204.975" y1="272.369" x2="201.21" y2="275.08" gradientUnits="userSpaceOnUse">
<stop stop-color="#4089C2" stop-opacity="0"/>
<stop offset="0.8911" stop-color="#247CDE"/>
</linearGradient>
<linearGradient id="paint16_linear" x1="222.281" y1="233.783" x2="221.037" y2="239.354" gradientUnits="userSpaceOnUse">
<stop stop-color="#4089C2" stop-opacity="0"/>
<stop offset="0.8911" stop-color="#247CDE"/>
</linearGradient>
<linearGradient id="paint17_linear" x1="203.598" y1="291.772" x2="207.036" y2="298.16" gradientUnits="userSpaceOnUse">
<stop stop-color="#0A7B95"/>
<stop offset="0.9241" stop-color="#0A5657"/>
</linearGradient>
<linearGradient id="paint18_linear" x1="211.694" y1="283.069" x2="217.855" y2="295.16" gradientUnits="userSpaceOnUse">
<stop stop-color="#0A7B95"/>
<stop offset="0.9241" stop-color="#0A5657"/>
</linearGradient>
<linearGradient id="paint19_linear" x1="259.41" y1="204.218" x2="262.07" y2="188.319" gradientUnits="userSpaceOnUse">
<stop stop-color="#D581AA" stop-opacity="0"/>
<stop offset="0.9975" stop-color="#D581AA"/>
</linearGradient>
<linearGradient id="paint20_linear" x1="208.02" y1="243.928" x2="192.841" y2="250.925" gradientUnits="userSpaceOnUse">
<stop stop-color="#D581AA" stop-opacity="0"/>
<stop offset="0.9975" stop-color="#D581AA"/>
</linearGradient>
<linearGradient id="paint21_linear" x1="260.937" y1="215.04" x2="264.256" y2="225.066" gradientUnits="userSpaceOnUse">
<stop stop-color="#D581AA" stop-opacity="0"/>
<stop offset="0.9975" stop-color="#D581AA"/>
</linearGradient>
<linearGradient id="paint22_linear" x1="198.268" y1="138.905" x2="206.348" y2="149.339" gradientUnits="userSpaceOnUse">
<stop stop-color="#CC7A5E" stop-opacity="0"/>
<stop offset="1" stop-color="#AA5F4B"/>
</linearGradient>
<linearGradient id="paint23_linear" x1="212.947" y1="147.895" x2="242.92" y2="163.013" gradientUnits="userSpaceOnUse">
<stop stop-color="#00394A" stop-opacity="0"/>
<stop offset="0.998" stop-color="#00394A"/>
</linearGradient>
<linearGradient id="paint24_linear" x1="274.291" y1="158.601" x2="242.689" y2="159.226" gradientUnits="userSpaceOnUse">
<stop stop-color="#0A5F66"/>
<stop offset="0.998" stop-color="#00394A"/>
</linearGradient>
<linearGradient id="paint25_linear" x1="188.919" y1="182.265" x2="202.931" y2="180.285" gradientUnits="userSpaceOnUse">
<stop stop-color="#CC7A5E" stop-opacity="0"/>
<stop offset="0.924" stop-color="#AA5F4B"/>
</linearGradient>
<linearGradient id="paint26_linear" x1="229" y1="156.76" x2="177.434" y2="199.431" gradientUnits="userSpaceOnUse">
<stop stop-color="#0A5F66"/>
<stop offset="0.998" stop-color="#00394A"/>
</linearGradient>
</defs>
</svg>
